%TF.GenerationSoftware,KiCad,Pcbnew,10.0.3*%
%TF.CreationDate,2026-08-12T00:28:44+00:00*%
%TF.ProjectId,Arduino Uno,41726475-696e-46f2-9055-6e6f2e6b6963,rev?*%
%TF.SameCoordinates,Original*%
%TF.FileFunction,Soldermask,Top*%
%TF.FilePolarity,Negative*%
%FSLAX46Y46*%
G04 Gerber Fmt 4.6, Leading zero omitted, Abs format (unit mm)*
G04 Created by KiCad (PCBNEW 10.0.3) date 2026-08-12 00:28:44*
%MOMM*%
%LPD*%
G01*
G04 APERTURE LIST*
G04 Aperture macros list*
%AMRoundRect*
0 Rectangle with rounded corners*
0 $1 Rounding radius*
0 $2 $3 $4 $5 $6 $7 $8 $9 X,Y pos of 4 corners*
0 Add a 4 corners polygon primitive as box body*
4,1,4,$2,$3,$4,$5,$6,$7,$8,$9,$2,$3,0*
0 Add four circle primitives for the rounded corners*
1,1,$1+$1,$2,$3*
1,1,$1+$1,$4,$5*
1,1,$1+$1,$6,$7*
1,1,$1+$1,$8,$9*
0 Add four rect primitives between the rounded corners*
20,1,$1+$1,$2,$3,$4,$5,0*
20,1,$1+$1,$4,$5,$6,$7,0*
20,1,$1+$1,$6,$7,$8,$9,0*
20,1,$1+$1,$8,$9,$2,$3,0*%
%AMFreePoly0*
4,1,23,0.500000,-0.750000,0.000000,-0.750000,0.000000,-0.745722,-0.065263,-0.745722,-0.191342,-0.711940,-0.304381,-0.646677,-0.396677,-0.554381,-0.461940,-0.441342,-0.495722,-0.315263,-0.495722,-0.250000,-0.500000,-0.250000,-0.500000,0.250000,-0.495722,0.250000,-0.495722,0.315263,-0.461940,0.441342,-0.396677,0.554381,-0.304381,0.646677,-0.191342,0.711940,-0.065263,0.745722,0.000000,0.745722,
0.000000,0.750000,0.500000,0.750000,0.500000,-0.750000,0.500000,-0.750000,$1*%
%AMFreePoly1*
4,1,23,0.000000,0.745722,0.065263,0.745722,0.191342,0.711940,0.304381,0.646677,0.396677,0.554381,0.461940,0.441342,0.495722,0.315263,0.495722,0.250000,0.500000,0.250000,0.500000,-0.250000,0.495722,-0.250000,0.495722,-0.315263,0.461940,-0.441342,0.396677,-0.554381,0.304381,-0.646677,0.191342,-0.711940,0.065263,-0.745722,0.000000,-0.745722,0.000000,-0.750000,-0.500000,-0.750000,
-0.500000,0.750000,0.000000,0.750000,0.000000,0.745722,0.000000,0.745722,$1*%
G04 Aperture macros list end*
%ADD10R,0.400000X3.200000*%
%ADD11RoundRect,0.237500X-0.300000X-0.237500X0.300000X-0.237500X0.300000X0.237500X-0.300000X0.237500X0*%
%ADD12RoundRect,0.100000X-0.217500X-0.100000X0.217500X-0.100000X0.217500X0.100000X-0.217500X0.100000X0*%
%ADD13R,1.700000X1.700000*%
%ADD14C,1.700000*%
%ADD15R,3.500000X3.500000*%
%ADD16RoundRect,0.750000X-0.750000X-1.000000X0.750000X-1.000000X0.750000X1.000000X-0.750000X1.000000X0*%
%ADD17RoundRect,0.875000X-0.875000X-0.875000X0.875000X-0.875000X0.875000X0.875000X-0.875000X0.875000X0*%
%ADD18RoundRect,0.102000X-0.704000X0.704000X-0.704000X-0.704000X0.704000X-0.704000X0.704000X0.704000X0*%
%ADD19C,1.612000*%
%ADD20C,3.520000*%
%ADD21RoundRect,0.100000X-0.712500X-0.100000X0.712500X-0.100000X0.712500X0.100000X-0.712500X0.100000X0*%
%ADD22C,1.500000*%
%ADD23RoundRect,0.250000X-0.325000X-0.450000X0.325000X-0.450000X0.325000X0.450000X-0.325000X0.450000X0*%
%ADD24R,1.000000X1.000000*%
%ADD25C,1.000000*%
%ADD26RoundRect,0.102000X-1.600000X0.750000X-1.600000X-0.750000X1.600000X-0.750000X1.600000X0.750000X0*%
%ADD27FreePoly0,0.000000*%
%ADD28FreePoly1,0.000000*%
%ADD29RoundRect,0.237500X0.237500X-0.300000X0.237500X0.300000X-0.237500X0.300000X-0.237500X-0.300000X0*%
%ADD30RoundRect,0.225000X0.375000X-0.225000X0.375000X0.225000X-0.375000X0.225000X-0.375000X-0.225000X0*%
%ADD31RoundRect,0.075000X-0.075000X0.125000X-0.075000X-0.125000X0.075000X-0.125000X0.075000X0.125000X0*%
%ADD32RoundRect,0.249999X0.850001X0.850001X-0.850001X0.850001X-0.850001X-0.850001X0.850001X-0.850001X0*%
%ADD33C,2.200000*%
%ADD34RoundRect,0.250000X-0.550000X1.500000X-0.550000X-1.500000X0.550000X-1.500000X0.550000X1.500000X0*%
%ADD35RoundRect,0.150000X-0.512500X-0.150000X0.512500X-0.150000X0.512500X0.150000X-0.512500X0.150000X0*%
%ADD36RoundRect,0.150000X0.587500X0.150000X-0.587500X0.150000X-0.587500X-0.150000X0.587500X-0.150000X0*%
%ADD37RoundRect,0.225000X-0.375000X0.225000X-0.375000X-0.225000X0.375000X-0.225000X0.375000X0.225000X0*%
%ADD38RoundRect,0.250000X-0.350000X-0.450000X0.350000X-0.450000X0.350000X0.450000X-0.350000X0.450000X0*%
%ADD39RoundRect,0.250000X-0.350000X0.275000X-0.350000X-0.275000X0.350000X-0.275000X0.350000X0.275000X0*%
%ADD40RoundRect,0.062500X0.062500X-0.375000X0.062500X0.375000X-0.062500X0.375000X-0.062500X-0.375000X0*%
%ADD41RoundRect,0.062500X0.375000X-0.062500X0.375000X0.062500X-0.375000X0.062500X-0.375000X-0.062500X0*%
%ADD42R,3.300000X3.300000*%
%ADD43RoundRect,0.250000X-0.550000X0.550000X-0.550000X-0.550000X0.550000X-0.550000X0.550000X0.550000X0*%
%ADD44C,1.600000*%
%ADD45RoundRect,0.237500X0.300000X0.237500X-0.300000X0.237500X-0.300000X-0.237500X0.300000X-0.237500X0*%
%ADD46C,0.900000*%
%ADD47RoundRect,0.187500X0.712500X-0.187500X0.712500X0.187500X-0.712500X0.187500X-0.712500X-0.187500X0*%
%ADD48RoundRect,0.150000X0.750000X-0.150000X0.750000X0.150000X-0.750000X0.150000X-0.750000X-0.150000X0*%
%ADD49RoundRect,0.225000X0.225000X-0.425000X0.225000X0.425000X-0.225000X0.425000X-0.225000X-0.425000X0*%
%ADD50RoundRect,0.375000X0.625000X0.375000X-0.625000X0.375000X-0.625000X-0.375000X0.625000X-0.375000X0*%
%ADD51RoundRect,0.500000X0.500000X1.400000X-0.500000X1.400000X-0.500000X-1.400000X0.500000X-1.400000X0*%
G04 APERTURE END LIST*
%TO.C,RESET1*%
G36*
X158280000Y-97370000D02*
G01*
X158580000Y-97370000D01*
X158580000Y-98870000D01*
X158280000Y-98870000D01*
X158280000Y-97370000D01*
G37*
%TD*%
D10*
%TO.C,Y2*%
X170080000Y-99370000D03*
X171280000Y-99370000D03*
X172480000Y-99370000D03*
%TD*%
D11*
%TO.C,C5*%
X157605000Y-96120000D03*
X159330000Y-96120000D03*
%TD*%
D12*
%TO.C,RN3A1*%
X139560000Y-87400000D03*
X140375000Y-87400000D03*
%TD*%
D13*
%TO.C,J5*%
X142392500Y-81870000D03*
D14*
X142392500Y-79330000D03*
X144932500Y-81870000D03*
X144932500Y-79330000D03*
X147472500Y-81870000D03*
X147472500Y-79330000D03*
%TD*%
D13*
%TO.C,J3*%
X194580000Y-96410000D03*
D14*
X192040000Y-96410000D03*
X194580000Y-93870000D03*
X192040000Y-93870000D03*
X194580000Y-91330000D03*
X192040000Y-91330000D03*
%TD*%
D15*
%TO.C,J2*%
X138080000Y-115912500D03*
D16*
X132080000Y-115912500D03*
D17*
X135080000Y-120612500D03*
%TD*%
D12*
%TO.C,RV2*%
X147025000Y-94600000D03*
X147840000Y-94600000D03*
%TD*%
D18*
%TO.C,J1*%
X137280000Y-89825000D03*
D19*
X137280000Y-87325000D03*
X135280000Y-87325000D03*
X135280000Y-89825000D03*
D20*
X132580000Y-82555000D03*
X132580000Y-94595000D03*
%TD*%
D21*
%TO.C,U5*%
X153717500Y-85645000D03*
X153717500Y-86295000D03*
X153717500Y-86945000D03*
X153717500Y-87595000D03*
X157942500Y-87595000D03*
X157942500Y-86945000D03*
X157942500Y-86295000D03*
X157942500Y-85645000D03*
%TD*%
D22*
%TO.C,Y1*%
X147390000Y-98120000D03*
X152270000Y-98120000D03*
%TD*%
D23*
%TO.C,GREEN1*%
X186780000Y-87370000D03*
X188830000Y-87370000D03*
%TD*%
D24*
%TO.C,J8*%
X146395000Y-84765000D03*
D25*
X147665000Y-84765000D03*
X146395000Y-86035000D03*
X147665000Y-86035000D03*
%TD*%
D26*
%TO.C,F1*%
X134080000Y-97270000D03*
X134080000Y-101470000D03*
%TD*%
D12*
%TO.C,RN3D1*%
X139240000Y-92370000D03*
X140055000Y-92370000D03*
%TD*%
D23*
%TO.C,TX1*%
X154780000Y-89620000D03*
X156830000Y-89620000D03*
%TD*%
D27*
%TO.C,RESET1*%
X157780000Y-98120000D03*
D28*
X159080000Y-98120000D03*
%TD*%
D29*
%TO.C,C1*%
X144830000Y-107870000D03*
X144830000Y-106145000D03*
%TD*%
D11*
%TO.C,C9*%
X142105000Y-94370000D03*
X143830000Y-94370000D03*
%TD*%
D21*
%TO.C,U5*%
X157967500Y-100395000D03*
X157967500Y-101045000D03*
X157967500Y-101695000D03*
X157967500Y-102345000D03*
X162192500Y-102345000D03*
X162192500Y-101695000D03*
X162192500Y-101045000D03*
X162192500Y-100395000D03*
%TD*%
D12*
%TO.C,R1*%
X149525000Y-94600000D03*
X150340000Y-94600000D03*
%TD*%
D11*
%TO.C,C6*%
X167855000Y-113870000D03*
X169580000Y-113870000D03*
%TD*%
D30*
%TO.C,D2*%
X188830000Y-95370000D03*
X188830000Y-92070000D03*
%TD*%
D31*
%TO.C,C3*%
X152580000Y-106845000D03*
X152580000Y-107345000D03*
%TD*%
D12*
%TO.C,R2*%
X170605000Y-102370000D03*
X171420000Y-102370000D03*
%TD*%
D21*
%TO.C,U7*%
X138287500Y-88825000D03*
X138287500Y-89475000D03*
X138287500Y-90125000D03*
X138287500Y-90775000D03*
X142512500Y-90775000D03*
X142512500Y-90125000D03*
X142512500Y-89475000D03*
X142512500Y-88825000D03*
%TD*%
D23*
%TO.C,L2*%
X155030000Y-83620000D03*
X157080000Y-83620000D03*
%TD*%
D32*
%TO.C,D4*%
X150200000Y-120870000D03*
D33*
X142580000Y-120870000D03*
%TD*%
D12*
%TO.C,RV3*%
X151775000Y-94600000D03*
X152590000Y-94600000D03*
%TD*%
D34*
%TO.C,PC2*%
X153160000Y-111270000D03*
X153160000Y-116870000D03*
%TD*%
D35*
%TO.C,U6*%
X148442500Y-106420000D03*
X148442500Y-107370000D03*
X148442500Y-108320000D03*
X150717500Y-108320000D03*
X150717500Y-106420000D03*
%TD*%
D36*
%TO.C,T1*%
X140517500Y-99820000D03*
X140517500Y-97920000D03*
X138642500Y-98870000D03*
%TD*%
D37*
%TO.C,D3*%
X139330000Y-79120000D03*
X139330000Y-82420000D03*
%TD*%
D13*
%TO.C,J4*%
X191580000Y-75370000D03*
D14*
X189040000Y-75370000D03*
X186500000Y-75370000D03*
X183960000Y-75370000D03*
X181420000Y-75370000D03*
X178880000Y-75370000D03*
X176340000Y-75370000D03*
X173800000Y-75370000D03*
%TD*%
D34*
%TO.C,PC1*%
X145660000Y-111070000D03*
X145660000Y-116670000D03*
%TD*%
D38*
%TO.C,RN1C1*%
X139000000Y-85200000D03*
X141000000Y-85200000D03*
%TD*%
D39*
%TO.C,L1*%
X136580000Y-74320000D03*
X136580000Y-76620000D03*
%TD*%
D40*
%TO.C,U3*%
X145892500Y-92870000D03*
X146392500Y-92870000D03*
X146892500Y-92870000D03*
X147392500Y-92870000D03*
X147892500Y-92870000D03*
X148392500Y-92870000D03*
X148892500Y-92870000D03*
X149392500Y-92870000D03*
D41*
X150080000Y-92182500D03*
X150080000Y-91682500D03*
X150080000Y-91182500D03*
X150080000Y-90682500D03*
X150080000Y-90182500D03*
X150080000Y-89682500D03*
X150080000Y-89182500D03*
X150080000Y-88682500D03*
D40*
X149392500Y-87995000D03*
X148892500Y-87995000D03*
X148392500Y-87995000D03*
X147892500Y-87995000D03*
X147392500Y-87995000D03*
X146892500Y-87995000D03*
X146392500Y-87995000D03*
X145892500Y-87995000D03*
D41*
X145205000Y-88682500D03*
X145205000Y-89182500D03*
X145205000Y-89682500D03*
X145205000Y-90182500D03*
X145205000Y-90682500D03*
X145205000Y-91182500D03*
X145205000Y-91682500D03*
X145205000Y-92182500D03*
D42*
X147642500Y-90432500D03*
%TD*%
D13*
%TO.C,J6*%
X156800000Y-120870000D03*
D14*
X159340000Y-120870000D03*
X161880000Y-120870000D03*
X164420000Y-120870000D03*
X166960000Y-120870000D03*
X169500000Y-120870000D03*
X172040000Y-120870000D03*
X174580000Y-120870000D03*
%TD*%
D43*
%TO.C,U4*%
X191520000Y-104250000D03*
D44*
X188980000Y-104250000D03*
X186440000Y-104250000D03*
X183900000Y-104250000D03*
X181360000Y-104250000D03*
X178820000Y-104250000D03*
X176280000Y-104250000D03*
X173740000Y-104250000D03*
X171200000Y-104250000D03*
X168660000Y-104250000D03*
X166120000Y-104250000D03*
X163580000Y-104250000D03*
X161040000Y-104250000D03*
X158500000Y-104250000D03*
X158500000Y-111870000D03*
X161040000Y-111870000D03*
X163580000Y-111870000D03*
X166120000Y-111870000D03*
X168660000Y-111870000D03*
X171200000Y-111870000D03*
X173740000Y-111870000D03*
X176280000Y-111870000D03*
X178820000Y-111870000D03*
X181360000Y-111870000D03*
X183900000Y-111870000D03*
X186440000Y-111870000D03*
X188980000Y-111870000D03*
X191520000Y-111870000D03*
%TD*%
D45*
%TO.C,C11*%
X159400000Y-94200000D03*
X157675000Y-94200000D03*
%TD*%
D13*
%TO.C,IOH1*%
X168320000Y-75370000D03*
D14*
X165780000Y-75370000D03*
X163240000Y-75370000D03*
X160700000Y-75370000D03*
X158160000Y-75370000D03*
X155620000Y-75370000D03*
X153080000Y-75370000D03*
X150540000Y-75370000D03*
X148000000Y-75370000D03*
X145460000Y-75370000D03*
%TD*%
D46*
%TO.C,SW2*%
X131030000Y-78645000D03*
X131030000Y-74395000D03*
D47*
X130130000Y-77745000D03*
X130130000Y-75295000D03*
D48*
X130130000Y-76520000D03*
D49*
X132080000Y-78370000D03*
X132080000Y-74670000D03*
%TD*%
D50*
%TO.C,U2*%
X137380000Y-109170000D03*
X137380000Y-106870000D03*
D51*
X131080000Y-106870000D03*
D50*
X137380000Y-104570000D03*
%TD*%
D23*
%TO.C,RX1*%
X154780000Y-92120000D03*
X156830000Y-92120000D03*
%TD*%
D13*
%TO.C,AD1*%
X178660000Y-120870000D03*
D14*
X181200000Y-120870000D03*
X183740000Y-120870000D03*
X186280000Y-120870000D03*
X188820000Y-120870000D03*
X191360000Y-120870000D03*
%TD*%
D21*
%TO.C,U5*%
X143967500Y-101895000D03*
X143967500Y-102545000D03*
X143967500Y-103195000D03*
X143967500Y-103845000D03*
X148192500Y-103845000D03*
X148192500Y-103195000D03*
X148192500Y-102545000D03*
X148192500Y-101895000D03*
%TD*%
M02*
