M48
; DRILL file KiCad 10.0.3 date 2026-08-12T00:22:38
; FORMAT={-:-/ absolute / metric / decimal}
; #@! TF.CreationDate,2026-08-12T00:22:38+00:00
; #@! TF.GenerationSoftware,Kicad,Pcbnew,10.0.3
; #@! TF.FileFunction,Plated,1,2,PTH
FMAT,2
METRIC
; #@! TA.AperFunction,Plated,PTH,ViaDrill
T1C0.300
; #@! TA.AperFunction,Plated,PTH,ComponentDrill
T2C0.650
; #@! TA.AperFunction,Plated,PTH,ComponentDrill
T3C0.800
; #@! TA.AperFunction,Plated,PTH,ComponentDrill
T4C0.900
; #@! TA.AperFunction,Plated,PTH,ComponentDrill
T5C1.000
; #@! TA.AperFunction,Plated,PTH,ComponentDrill
T6C1.100
; #@! TA.AperFunction,Plated,PTH,ComponentDrill
T7C2.300
%
G90
G05
T1
X136.58Y-76.62
X138.2Y-76.8
X138.4Y-74.2
X141.4Y-90.2
X141.4Y-90.2
X141.4Y-92.4
X142.8Y-99.0
X143.2Y-92.2
X145.006Y-102.591
X145.8Y-94.8
X148.8Y-95.0
X150.2Y-83.4
X152.27Y-96.8
X155.6Y-94.0
X157.942Y-85.595
X159.2Y-103.6
X161.4Y-103.2
X161.6Y-110.2
X164.0Y-102.6
X164.6Y-100.8
X165.2Y-95.8
X171.424Y-86.376
X172.2Y-86.8
X172.766Y-87.366
X173.4Y-93.4
X173.5Y-87.7
X173.6Y-96.4
X174.066Y-88.266
X174.066Y-88.266
X174.6Y-98.2
X174.744Y-88.69
X174.8Y-93.8
X174.8Y-93.8
X175.277Y-89.286
X175.295Y-92.505
X176.0Y-95.6
X176.8Y-92.6
X177.6Y-99.8
X179.227Y-99.373
X180.979Y-102.821
X183.2Y-94.6
X183.2Y-94.6
X186.6Y-95.6
X189.6Y-85.0
X191.075Y-93.683
X191.4Y-83.2
X195.4Y-98.8
T2
X146.395Y-84.765
X146.395Y-86.035
X147.665Y-84.765
X147.665Y-86.035
T3
X147.39Y-98.12
X152.27Y-98.12
X158.5Y-104.25
X158.5Y-111.87
X161.04Y-104.25
X161.04Y-111.87
X163.58Y-104.25
X163.58Y-111.87
X166.12Y-104.25
X166.12Y-111.87
X168.66Y-104.25
X168.66Y-111.87
X171.2Y-104.25
X171.2Y-111.87
X173.74Y-104.25
X173.74Y-111.87
X176.28Y-104.25
X176.28Y-111.87
X178.82Y-104.25
X178.82Y-111.87
X181.36Y-104.25
X181.36Y-111.87
X183.9Y-104.25
X183.9Y-111.87
X186.44Y-104.25
X186.44Y-111.87
X188.98Y-104.25
X188.98Y-111.87
X191.52Y-104.25
X191.52Y-111.87
T4
X135.28Y-87.325
X135.28Y-89.825
X137.28Y-87.325
X137.28Y-89.825
T5
X142.392Y-79.33
X142.392Y-81.87
X144.933Y-79.33
X144.933Y-81.87
X145.46Y-75.37
X147.472Y-79.33
X147.472Y-81.87
X148.0Y-75.37
X150.54Y-75.37
X153.08Y-75.37
X155.62Y-75.37
X156.8Y-120.87
X158.16Y-75.37
X159.34Y-120.87
X160.7Y-75.37
X161.88Y-120.87
X163.24Y-75.37
X164.42Y-120.87
X165.78Y-75.37
X166.96Y-120.87
X168.32Y-75.37
X169.5Y-120.87
X172.04Y-120.87
X173.8Y-75.37
X174.58Y-120.87
X176.34Y-75.37
X178.66Y-120.87
X178.88Y-75.37
X181.2Y-120.87
X181.42Y-75.37
X183.74Y-120.87
X183.96Y-75.37
X186.28Y-120.87
X186.5Y-75.37
X188.82Y-120.87
X189.04Y-75.37
X191.36Y-120.87
X191.58Y-75.37
X192.04Y-91.33
X192.04Y-93.87
X192.04Y-96.41
X194.58Y-91.33
X194.58Y-93.87
X194.58Y-96.41
T6
X142.58Y-120.87
X150.2Y-120.87
T7
X132.58Y-82.555
X132.58Y-94.595
T5
G00X132.08Y-114.912
M15
G01X132.08Y-116.912
M16
G05
G00X134.08Y-120.612
M15
G01X136.08Y-120.612
M16
G05
G00X138.08Y-114.912
M15
G01X138.08Y-116.912
M16
G05
M30
