%TF.GenerationSoftware,KiCad,Pcbnew,10.0.3*%
%TF.CreationDate,2026-08-12T00:28:44+00:00*%
%TF.ProjectId,Arduino Uno,41726475-696e-46f2-9055-6e6f2e6b6963,rev?*%
%TF.SameCoordinates,Original*%
%TF.FileFunction,Legend,Top*%
%TF.FilePolarity,Positive*%
%FSLAX46Y46*%
G04 Gerber Fmt 4.6, Leading zero omitted, Abs format (unit mm)*
G04 Created by KiCad (PCBNEW 10.0.3) date 2026-08-12 00:28:44*
%MOMM*%
%LPD*%
G01*
G04 APERTURE LIST*
%ADD10C,0.100000*%
%ADD11C,0.150000*%
%ADD12C,0.140000*%
%ADD13C,0.200000*%
%ADD14C,0.250000*%
%ADD15C,0.125000*%
%ADD16C,0.120000*%
%ADD17C,0.127000*%
G04 APERTURE END LIST*
D10*
X156330000Y-82120000D02*
X192330000Y-82120000D01*
X159330000Y-115120000D02*
X175580000Y-115120000D01*
X160800000Y-80800000D02*
X160797104Y-80797090D01*
X160794242Y-80794185D01*
X160791421Y-80791295D01*
X160788635Y-80788410D01*
X160785889Y-80785539D01*
X160783176Y-80782674D01*
X160780503Y-80779822D01*
X160777863Y-80776975D01*
X160775263Y-80774142D01*
X160772695Y-80771315D01*
X160770165Y-80768500D01*
X160767668Y-80765691D01*
X160765209Y-80762895D01*
X160762780Y-80760104D01*
X160760390Y-80757326D01*
X160758030Y-80754554D01*
X160755708Y-80751793D01*
X160753415Y-80749038D01*
X160751159Y-80746296D01*
X160748934Y-80743558D01*
X160746743Y-80740833D01*
X160744583Y-80738112D01*
X160742457Y-80735404D01*
X160740360Y-80732700D01*
X160738298Y-80730009D01*
X160736265Y-80727322D01*
X160734266Y-80724646D01*
X160732295Y-80721976D01*
X160730357Y-80719316D01*
X160728448Y-80716662D01*
X160726570Y-80714018D01*
X160724721Y-80711379D01*
X160722904Y-80708751D01*
X160721114Y-80706127D01*
X160719356Y-80703514D01*
X160717624Y-80700906D01*
X160715924Y-80698308D01*
X160714250Y-80695714D01*
X160712606Y-80693130D01*
X160710989Y-80690551D01*
X160709402Y-80687982D01*
X160707841Y-80685417D01*
X160706309Y-80682861D01*
X160704803Y-80680310D01*
X160703325Y-80677768D01*
X160701874Y-80675231D01*
X160700450Y-80672702D01*
X160699051Y-80670177D01*
X160697680Y-80667661D01*
X160696335Y-80665150D01*
X160695016Y-80662646D01*
X160693722Y-80660147D01*
X160692454Y-80657656D01*
X160691212Y-80655169D01*
X160689995Y-80652690D01*
X160688803Y-80650215D01*
X160687636Y-80647747D01*
X160686493Y-80645283D01*
X160685376Y-80642826D01*
X160684282Y-80640374D01*
X160683213Y-80637928D01*
X160682168Y-80635486D01*
X160681147Y-80633050D01*
X160680150Y-80630619D01*
X160679176Y-80628193D01*
X160678226Y-80625772D01*
X160677299Y-80623356D01*
X160676395Y-80620944D01*
X160675515Y-80618538D01*
X160674657Y-80616135D01*
X160673822Y-80613737D01*
X160673010Y-80611344D01*
X160672220Y-80608955D01*
X160671453Y-80606569D01*
X160670708Y-80604188D01*
X160669985Y-80601811D01*
X160669284Y-80599438D01*
X160668605Y-80597068D01*
X160667947Y-80594702D01*
X160667312Y-80592340D01*
X160666698Y-80589981D01*
X160666105Y-80587626D01*
X160665534Y-80585273D01*
X160664985Y-80582924D01*
X160664456Y-80580577D01*
X160663948Y-80578235D01*
X160663462Y-80575893D01*
X160662996Y-80573556D01*
X160662551Y-80571220D01*
X160662128Y-80568889D01*
X160661342Y-80564231D01*
X160660638Y-80559581D01*
X160660017Y-80554939D01*
X160659476Y-80550305D01*
X160659017Y-80545676D01*
X160658638Y-80541053D01*
X160658339Y-80536433D01*
X160658120Y-80531818D01*
X160657982Y-80527204D01*
X160657923Y-80522592D01*
X160657944Y-80517981D01*
X160658044Y-80513369D01*
X160658225Y-80508756D01*
X160658485Y-80504141D01*
X160658825Y-80499522D01*
X160659246Y-80494899D01*
X160659746Y-80490271D01*
X160660328Y-80485637D01*
X160660991Y-80480996D01*
X160661736Y-80476346D01*
X160662563Y-80471687D01*
X160663473Y-80467018D01*
X160664466Y-80462338D01*
X160665544Y-80457645D01*
X160666706Y-80452939D01*
X160667954Y-80448218D01*
X160669289Y-80443481D01*
X160670711Y-80438728D01*
X160672221Y-80433957D01*
X160673822Y-80429167D01*
X160675513Y-80424356D01*
X160677296Y-80419525D01*
X160679173Y-80414670D01*
X160681144Y-80409792D01*
X160683212Y-80404888D01*
X160685377Y-80399957D01*
X160687641Y-80394999D01*
X160690007Y-80390011D01*
X160692476Y-80384991D01*
X160695049Y-80379940D01*
X160697729Y-80374854D01*
X160700518Y-80369732D01*
X160703419Y-80364573D01*
X160706433Y-80359374D01*
X160709563Y-80354134D01*
X160712812Y-80348849D01*
X160716182Y-80343519D01*
X160719678Y-80338141D01*
X160723301Y-80332712D01*
X160727055Y-80327229D01*
X160730945Y-80321689D01*
X160734974Y-80316090D01*
X160739147Y-80310427D01*
X160743467Y-80304698D01*
X160747941Y-80298896D01*
X160752574Y-80293019D01*
X160757372Y-80287060D01*
X160762342Y-80281014D01*
X160767492Y-80274875D01*
X160772830Y-80268634D01*
X160778367Y-80262283D01*
X160784112Y-80255813D01*
X160790080Y-80249211D01*
X160796285Y-80242465D01*
X160802746Y-80235557D01*
X160809484Y-80228469D01*
X160816524Y-80221175D01*
X160823902Y-80213646D01*
X160831659Y-80205841D01*
X160839851Y-80197709D01*
X160848557Y-80189177D01*
X160857890Y-80180138D01*
X160868026Y-80170428D01*
X160879269Y-80159762D01*
X160892240Y-80147556D01*
X160908700Y-80132160D01*
X160912698Y-80128427D01*
X160924819Y-80117105D01*
X160936792Y-80105883D01*
X160948582Y-80094760D01*
X160954397Y-80089233D01*
X160960153Y-80083730D01*
X160965845Y-80078250D01*
X160971470Y-80072792D01*
X160977021Y-80067356D01*
X160982496Y-80061941D01*
X160987889Y-80056548D01*
X160993195Y-80051175D01*
X160998412Y-80045823D01*
X161003533Y-80040491D01*
X161008555Y-80035178D01*
X161013473Y-80029884D01*
X161018283Y-80024609D01*
X161022980Y-80019352D01*
X161027559Y-80014113D01*
X161029804Y-80011501D01*
X161032017Y-80008892D01*
X161034199Y-80006288D01*
X161036349Y-80003688D01*
X161038465Y-80001092D01*
X161040549Y-79998500D01*
X161042599Y-79995913D01*
X161044615Y-79993329D01*
X161046595Y-79990749D01*
X161048540Y-79988173D01*
X161050449Y-79985602D01*
X161052322Y-79983033D01*
X161054157Y-79980469D01*
X161055955Y-79977908D01*
X161057714Y-79975352D01*
X161059434Y-79972798D01*
X161061115Y-79970248D01*
X161062756Y-79967702D01*
X161064357Y-79965159D01*
X161065917Y-79962620D01*
X161067434Y-79960084D01*
X161068910Y-79957551D01*
X161070343Y-79955021D01*
X161071733Y-79952495D01*
X161073078Y-79949972D01*
X161074380Y-79947452D01*
X161075636Y-79944935D01*
X161076847Y-79942421D01*
X161078011Y-79939910D01*
X161079129Y-79937402D01*
X161080200Y-79934896D01*
X161081223Y-79932394D01*
X161082198Y-79929894D01*
X161083123Y-79927397D01*
X161084000Y-79924902D01*
X161084826Y-79922411D01*
X161085601Y-79919921D01*
X161086326Y-79917434D01*
X161086999Y-79914950D01*
X161087619Y-79912468D01*
X161088187Y-79909988D01*
X161088701Y-79907511D01*
X161089162Y-79905036D01*
X161089568Y-79902563D01*
X161089918Y-79900092D01*
X161090214Y-79897624D01*
X161090453Y-79895157D01*
X161090635Y-79892692D01*
X161090760Y-79890229D01*
X161090827Y-79887768D01*
X161090836Y-79885309D01*
X161090786Y-79882852D01*
X161090676Y-79880397D01*
X161090506Y-79877943D01*
X161090276Y-79875490D01*
X161089984Y-79873040D01*
X161089631Y-79870591D01*
X161089215Y-79868143D01*
X161088736Y-79865697D01*
X161088194Y-79863252D01*
X161087588Y-79860808D01*
X161086918Y-79858366D01*
X161086182Y-79855925D01*
X161085380Y-79853485D01*
X161084513Y-79851046D01*
X161083578Y-79848608D01*
X161082576Y-79846172D01*
X161081507Y-79843736D01*
X161080368Y-79841301D01*
X161079161Y-79838867D01*
X161077884Y-79836434D01*
X161076537Y-79834002D01*
X161075120Y-79831570D01*
X161073631Y-79829139D01*
X161072070Y-79826709D01*
X161070437Y-79824279D01*
X161068730Y-79821849D01*
X161066951Y-79819421D01*
X161065097Y-79816992D01*
X161063169Y-79814564D01*
X161061165Y-79812136D01*
X161059086Y-79809709D01*
X161056930Y-79807281D01*
X161054698Y-79804854D01*
X161052388Y-79802427D01*
X161050000Y-79800000D01*
X163200000Y-80600000D02*
X163197104Y-80597090D01*
X163194242Y-80594185D01*
X163191421Y-80591295D01*
X163188635Y-80588410D01*
X163185889Y-80585539D01*
X163183176Y-80582674D01*
X163180503Y-80579822D01*
X163177863Y-80576975D01*
X163175263Y-80574142D01*
X163172695Y-80571315D01*
X163170165Y-80568500D01*
X163167668Y-80565691D01*
X163165209Y-80562895D01*
X163162780Y-80560104D01*
X163160390Y-80557326D01*
X163158030Y-80554554D01*
X163155708Y-80551793D01*
X163153415Y-80549038D01*
X163151159Y-80546296D01*
X163148934Y-80543558D01*
X163146743Y-80540833D01*
X163144583Y-80538112D01*
X163142457Y-80535404D01*
X163140360Y-80532700D01*
X163138298Y-80530009D01*
X163136265Y-80527322D01*
X163134266Y-80524646D01*
X163132295Y-80521976D01*
X163130357Y-80519316D01*
X163128448Y-80516662D01*
X163126570Y-80514018D01*
X163124721Y-80511379D01*
X163122904Y-80508751D01*
X163121114Y-80506127D01*
X163119356Y-80503514D01*
X163117624Y-80500906D01*
X163115924Y-80498308D01*
X163114250Y-80495714D01*
X163112606Y-80493130D01*
X163110989Y-80490551D01*
X163109402Y-80487982D01*
X163107841Y-80485417D01*
X163106309Y-80482861D01*
X163104803Y-80480310D01*
X163103325Y-80477768D01*
X163101874Y-80475231D01*
X163100450Y-80472702D01*
X163099051Y-80470177D01*
X163097680Y-80467661D01*
X163096335Y-80465150D01*
X163095016Y-80462646D01*
X163093722Y-80460147D01*
X163092454Y-80457656D01*
X163091212Y-80455169D01*
X163089995Y-80452690D01*
X163088803Y-80450215D01*
X163087636Y-80447747D01*
X163086493Y-80445283D01*
X163085376Y-80442826D01*
X163084282Y-80440374D01*
X163083213Y-80437928D01*
X163082168Y-80435486D01*
X163081147Y-80433050D01*
X163080150Y-80430619D01*
X163079176Y-80428193D01*
X163078226Y-80425772D01*
X163077299Y-80423356D01*
X163076395Y-80420944D01*
X163075515Y-80418538D01*
X163074657Y-80416135D01*
X163073822Y-80413737D01*
X163073010Y-80411344D01*
X163072220Y-80408955D01*
X163071453Y-80406569D01*
X163070708Y-80404188D01*
X163069985Y-80401811D01*
X163069284Y-80399438D01*
X163068605Y-80397068D01*
X163067947Y-80394702D01*
X163067312Y-80392340D01*
X163066698Y-80389981D01*
X163066105Y-80387626D01*
X163065534Y-80385273D01*
X163064985Y-80382924D01*
X163064456Y-80380577D01*
X163063948Y-80378235D01*
X163063462Y-80375893D01*
X163062996Y-80373556D01*
X163062551Y-80371220D01*
X163062128Y-80368889D01*
X163061342Y-80364231D01*
X163060638Y-80359581D01*
X163060017Y-80354939D01*
X163059476Y-80350305D01*
X163059017Y-80345676D01*
X163058638Y-80341053D01*
X163058339Y-80336433D01*
X163058120Y-80331818D01*
X163057982Y-80327204D01*
X163057923Y-80322592D01*
X163057944Y-80317981D01*
X163058044Y-80313369D01*
X163058225Y-80308756D01*
X163058485Y-80304141D01*
X163058825Y-80299522D01*
X163059246Y-80294899D01*
X163059746Y-80290271D01*
X163060328Y-80285637D01*
X163060991Y-80280996D01*
X163061736Y-80276346D01*
X163062563Y-80271687D01*
X163063473Y-80267018D01*
X163064466Y-80262338D01*
X163065544Y-80257645D01*
X163066706Y-80252939D01*
X163067954Y-80248218D01*
X163069289Y-80243481D01*
X163070711Y-80238728D01*
X163072221Y-80233957D01*
X163073822Y-80229167D01*
X163075513Y-80224356D01*
X163077296Y-80219525D01*
X163079173Y-80214670D01*
X163081144Y-80209792D01*
X163083212Y-80204888D01*
X163085377Y-80199957D01*
X163087641Y-80194999D01*
X163090007Y-80190011D01*
X163092476Y-80184991D01*
X163095049Y-80179940D01*
X163097729Y-80174854D01*
X163100518Y-80169732D01*
X163103419Y-80164573D01*
X163106433Y-80159374D01*
X163109563Y-80154134D01*
X163112812Y-80148849D01*
X163116182Y-80143519D01*
X163119678Y-80138141D01*
X163123301Y-80132712D01*
X163127055Y-80127229D01*
X163130945Y-80121689D01*
X163134974Y-80116090D01*
X163139147Y-80110427D01*
X163143467Y-80104698D01*
X163147941Y-80098896D01*
X163152574Y-80093019D01*
X163157372Y-80087060D01*
X163162342Y-80081014D01*
X163167492Y-80074875D01*
X163172830Y-80068634D01*
X163178367Y-80062283D01*
X163184112Y-80055813D01*
X163190080Y-80049211D01*
X163196285Y-80042465D01*
X163202746Y-80035557D01*
X163209484Y-80028469D01*
X163216524Y-80021175D01*
X163223902Y-80013646D01*
X163231659Y-80005841D01*
X163239851Y-79997709D01*
X163248557Y-79989177D01*
X163257890Y-79980138D01*
X163268026Y-79970428D01*
X163279269Y-79959762D01*
X163292240Y-79947556D01*
X163308700Y-79932160D01*
X163312698Y-79928427D01*
X163324819Y-79917105D01*
X163336792Y-79905883D01*
X163348582Y-79894760D01*
X163354397Y-79889233D01*
X163360153Y-79883730D01*
X163365845Y-79878250D01*
X163371470Y-79872792D01*
X163377021Y-79867356D01*
X163382496Y-79861941D01*
X163387889Y-79856548D01*
X163393195Y-79851175D01*
X163398412Y-79845823D01*
X163403533Y-79840491D01*
X163408555Y-79835178D01*
X163413473Y-79829884D01*
X163418283Y-79824609D01*
X163422980Y-79819352D01*
X163427559Y-79814113D01*
X163429804Y-79811501D01*
X163432017Y-79808892D01*
X163434199Y-79806288D01*
X163436349Y-79803688D01*
X163438465Y-79801092D01*
X163440549Y-79798500D01*
X163442599Y-79795913D01*
X163444615Y-79793329D01*
X163446595Y-79790749D01*
X163448540Y-79788173D01*
X163450449Y-79785602D01*
X163452322Y-79783033D01*
X163454157Y-79780469D01*
X163455955Y-79777908D01*
X163457714Y-79775352D01*
X163459434Y-79772798D01*
X163461115Y-79770248D01*
X163462756Y-79767702D01*
X163464357Y-79765159D01*
X163465917Y-79762620D01*
X163467434Y-79760084D01*
X163468910Y-79757551D01*
X163470343Y-79755021D01*
X163471733Y-79752495D01*
X163473078Y-79749972D01*
X163474380Y-79747452D01*
X163475636Y-79744935D01*
X163476847Y-79742421D01*
X163478011Y-79739910D01*
X163479129Y-79737402D01*
X163480200Y-79734896D01*
X163481223Y-79732394D01*
X163482198Y-79729894D01*
X163483123Y-79727397D01*
X163484000Y-79724902D01*
X163484826Y-79722411D01*
X163485601Y-79719921D01*
X163486326Y-79717434D01*
X163486999Y-79714950D01*
X163487619Y-79712468D01*
X163488187Y-79709988D01*
X163488701Y-79707511D01*
X163489162Y-79705036D01*
X163489568Y-79702563D01*
X163489918Y-79700092D01*
X163490214Y-79697624D01*
X163490453Y-79695157D01*
X163490635Y-79692692D01*
X163490760Y-79690229D01*
X163490827Y-79687768D01*
X163490836Y-79685309D01*
X163490786Y-79682852D01*
X163490676Y-79680397D01*
X163490506Y-79677943D01*
X163490276Y-79675490D01*
X163489984Y-79673040D01*
X163489631Y-79670591D01*
X163489215Y-79668143D01*
X163488736Y-79665697D01*
X163488194Y-79663252D01*
X163487588Y-79660808D01*
X163486918Y-79658366D01*
X163486182Y-79655925D01*
X163485380Y-79653485D01*
X163484513Y-79651046D01*
X163483578Y-79648608D01*
X163482576Y-79646172D01*
X163481507Y-79643736D01*
X163480368Y-79641301D01*
X163479161Y-79638867D01*
X163477884Y-79636434D01*
X163476537Y-79634002D01*
X163475120Y-79631570D01*
X163473631Y-79629139D01*
X163472070Y-79626709D01*
X163470437Y-79624279D01*
X163468730Y-79621849D01*
X163466951Y-79619421D01*
X163465097Y-79616992D01*
X163463169Y-79614564D01*
X163461165Y-79612136D01*
X163459086Y-79609709D01*
X163456930Y-79607281D01*
X163454698Y-79604854D01*
X163452388Y-79602427D01*
X163450000Y-79600000D01*
X165800000Y-80200000D02*
X165797104Y-80197090D01*
X165794242Y-80194185D01*
X165791421Y-80191295D01*
X165788635Y-80188410D01*
X165785889Y-80185539D01*
X165783176Y-80182674D01*
X165780503Y-80179822D01*
X165777863Y-80176975D01*
X165775263Y-80174142D01*
X165772695Y-80171315D01*
X165770165Y-80168500D01*
X165767668Y-80165691D01*
X165765209Y-80162895D01*
X165762780Y-80160104D01*
X165760390Y-80157326D01*
X165758030Y-80154554D01*
X165755708Y-80151793D01*
X165753415Y-80149038D01*
X165751159Y-80146296D01*
X165748934Y-80143558D01*
X165746743Y-80140833D01*
X165744583Y-80138112D01*
X165742457Y-80135404D01*
X165740360Y-80132700D01*
X165738298Y-80130009D01*
X165736265Y-80127322D01*
X165734266Y-80124646D01*
X165732295Y-80121976D01*
X165730357Y-80119316D01*
X165728448Y-80116662D01*
X165726570Y-80114018D01*
X165724721Y-80111379D01*
X165722904Y-80108751D01*
X165721114Y-80106127D01*
X165719356Y-80103514D01*
X165717624Y-80100906D01*
X165715924Y-80098308D01*
X165714250Y-80095714D01*
X165712606Y-80093130D01*
X165710989Y-80090551D01*
X165709402Y-80087982D01*
X165707841Y-80085417D01*
X165706309Y-80082861D01*
X165704803Y-80080310D01*
X165703325Y-80077768D01*
X165701874Y-80075231D01*
X165700450Y-80072702D01*
X165699051Y-80070177D01*
X165697680Y-80067661D01*
X165696335Y-80065150D01*
X165695016Y-80062646D01*
X165693722Y-80060147D01*
X165692454Y-80057656D01*
X165691212Y-80055169D01*
X165689995Y-80052690D01*
X165688803Y-80050215D01*
X165687636Y-80047747D01*
X165686493Y-80045283D01*
X165685376Y-80042826D01*
X165684282Y-80040374D01*
X165683213Y-80037928D01*
X165682168Y-80035486D01*
X165681147Y-80033050D01*
X165680150Y-80030619D01*
X165679176Y-80028193D01*
X165678226Y-80025772D01*
X165677299Y-80023356D01*
X165676395Y-80020944D01*
X165675515Y-80018538D01*
X165674657Y-80016135D01*
X165673822Y-80013737D01*
X165673010Y-80011344D01*
X165672220Y-80008955D01*
X165671453Y-80006569D01*
X165670708Y-80004188D01*
X165669985Y-80001811D01*
X165669284Y-79999438D01*
X165668605Y-79997068D01*
X165667947Y-79994702D01*
X165667312Y-79992340D01*
X165666698Y-79989981D01*
X165666105Y-79987626D01*
X165665534Y-79985273D01*
X165664985Y-79982924D01*
X165664456Y-79980577D01*
X165663948Y-79978235D01*
X165663462Y-79975893D01*
X165662996Y-79973556D01*
X165662551Y-79971220D01*
X165662128Y-79968889D01*
X165661342Y-79964231D01*
X165660638Y-79959581D01*
X165660017Y-79954939D01*
X165659476Y-79950305D01*
X165659017Y-79945676D01*
X165658638Y-79941053D01*
X165658339Y-79936433D01*
X165658120Y-79931818D01*
X165657982Y-79927204D01*
X165657923Y-79922592D01*
X165657944Y-79917981D01*
X165658044Y-79913369D01*
X165658225Y-79908756D01*
X165658485Y-79904141D01*
X165658825Y-79899522D01*
X165659246Y-79894899D01*
X165659746Y-79890271D01*
X165660328Y-79885637D01*
X165660991Y-79880996D01*
X165661736Y-79876346D01*
X165662563Y-79871687D01*
X165663473Y-79867018D01*
X165664466Y-79862338D01*
X165665544Y-79857645D01*
X165666706Y-79852939D01*
X165667954Y-79848218D01*
X165669289Y-79843481D01*
X165670711Y-79838728D01*
X165672221Y-79833957D01*
X165673822Y-79829167D01*
X165675513Y-79824356D01*
X165677296Y-79819525D01*
X165679173Y-79814670D01*
X165681144Y-79809792D01*
X165683212Y-79804888D01*
X165685377Y-79799957D01*
X165687641Y-79794999D01*
X165690007Y-79790011D01*
X165692476Y-79784991D01*
X165695049Y-79779940D01*
X165697729Y-79774854D01*
X165700518Y-79769732D01*
X165703419Y-79764573D01*
X165706433Y-79759374D01*
X165709563Y-79754134D01*
X165712812Y-79748849D01*
X165716182Y-79743519D01*
X165719678Y-79738141D01*
X165723301Y-79732712D01*
X165727055Y-79727229D01*
X165730945Y-79721689D01*
X165734974Y-79716090D01*
X165739147Y-79710427D01*
X165743467Y-79704698D01*
X165747941Y-79698896D01*
X165752574Y-79693019D01*
X165757372Y-79687060D01*
X165762342Y-79681014D01*
X165767492Y-79674875D01*
X165772830Y-79668634D01*
X165778367Y-79662283D01*
X165784112Y-79655813D01*
X165790080Y-79649211D01*
X165796285Y-79642465D01*
X165802746Y-79635557D01*
X165809484Y-79628469D01*
X165816524Y-79621175D01*
X165823902Y-79613646D01*
X165831659Y-79605841D01*
X165839851Y-79597709D01*
X165848557Y-79589177D01*
X165857890Y-79580138D01*
X165868026Y-79570428D01*
X165879269Y-79559762D01*
X165892240Y-79547556D01*
X165908700Y-79532160D01*
X165912698Y-79528427D01*
X165924819Y-79517105D01*
X165936792Y-79505883D01*
X165948582Y-79494760D01*
X165954397Y-79489233D01*
X165960153Y-79483730D01*
X165965845Y-79478250D01*
X165971470Y-79472792D01*
X165977021Y-79467356D01*
X165982496Y-79461941D01*
X165987889Y-79456548D01*
X165993195Y-79451175D01*
X165998412Y-79445823D01*
X166003533Y-79440491D01*
X166008555Y-79435178D01*
X166013473Y-79429884D01*
X166018283Y-79424609D01*
X166022980Y-79419352D01*
X166027559Y-79414113D01*
X166029804Y-79411501D01*
X166032017Y-79408892D01*
X166034199Y-79406288D01*
X166036349Y-79403688D01*
X166038465Y-79401092D01*
X166040549Y-79398500D01*
X166042599Y-79395913D01*
X166044615Y-79393329D01*
X166046595Y-79390749D01*
X166048540Y-79388173D01*
X166050449Y-79385602D01*
X166052322Y-79383033D01*
X166054157Y-79380469D01*
X166055955Y-79377908D01*
X166057714Y-79375352D01*
X166059434Y-79372798D01*
X166061115Y-79370248D01*
X166062756Y-79367702D01*
X166064357Y-79365159D01*
X166065917Y-79362620D01*
X166067434Y-79360084D01*
X166068910Y-79357551D01*
X166070343Y-79355021D01*
X166071733Y-79352495D01*
X166073078Y-79349972D01*
X166074380Y-79347452D01*
X166075636Y-79344935D01*
X166076847Y-79342421D01*
X166078011Y-79339910D01*
X166079129Y-79337402D01*
X166080200Y-79334896D01*
X166081223Y-79332394D01*
X166082198Y-79329894D01*
X166083123Y-79327397D01*
X166084000Y-79324902D01*
X166084826Y-79322411D01*
X166085601Y-79319921D01*
X166086326Y-79317434D01*
X166086999Y-79314950D01*
X166087619Y-79312468D01*
X166088187Y-79309988D01*
X166088701Y-79307511D01*
X166089162Y-79305036D01*
X166089568Y-79302563D01*
X166089918Y-79300092D01*
X166090214Y-79297624D01*
X166090453Y-79295157D01*
X166090635Y-79292692D01*
X166090760Y-79290229D01*
X166090827Y-79287768D01*
X166090836Y-79285309D01*
X166090786Y-79282852D01*
X166090676Y-79280397D01*
X166090506Y-79277943D01*
X166090276Y-79275490D01*
X166089984Y-79273040D01*
X166089631Y-79270591D01*
X166089215Y-79268143D01*
X166088736Y-79265697D01*
X166088194Y-79263252D01*
X166087588Y-79260808D01*
X166086918Y-79258366D01*
X166086182Y-79255925D01*
X166085380Y-79253485D01*
X166084513Y-79251046D01*
X166083578Y-79248608D01*
X166082576Y-79246172D01*
X166081507Y-79243736D01*
X166080368Y-79241301D01*
X166079161Y-79238867D01*
X166077884Y-79236434D01*
X166076537Y-79234002D01*
X166075120Y-79231570D01*
X166073631Y-79229139D01*
X166072070Y-79226709D01*
X166070437Y-79224279D01*
X166068730Y-79221849D01*
X166066951Y-79219421D01*
X166065097Y-79216992D01*
X166063169Y-79214564D01*
X166061165Y-79212136D01*
X166059086Y-79209709D01*
X166056930Y-79207281D01*
X166054698Y-79204854D01*
X166052388Y-79202427D01*
X166050000Y-79200000D01*
X176250000Y-80000000D02*
X176247104Y-79997090D01*
X176244242Y-79994185D01*
X176241421Y-79991295D01*
X176238635Y-79988410D01*
X176235889Y-79985539D01*
X176233176Y-79982674D01*
X176230503Y-79979822D01*
X176227863Y-79976975D01*
X176225263Y-79974142D01*
X176222695Y-79971315D01*
X176220165Y-79968500D01*
X176217668Y-79965691D01*
X176215209Y-79962895D01*
X176212780Y-79960104D01*
X176210390Y-79957326D01*
X176208030Y-79954554D01*
X176205708Y-79951793D01*
X176203415Y-79949038D01*
X176201159Y-79946296D01*
X176198934Y-79943558D01*
X176196743Y-79940833D01*
X176194583Y-79938112D01*
X176192457Y-79935404D01*
X176190360Y-79932700D01*
X176188298Y-79930009D01*
X176186265Y-79927322D01*
X176184266Y-79924646D01*
X176182295Y-79921976D01*
X176180357Y-79919316D01*
X176178448Y-79916662D01*
X176176570Y-79914018D01*
X176174721Y-79911379D01*
X176172904Y-79908751D01*
X176171114Y-79906127D01*
X176169356Y-79903514D01*
X176167624Y-79900906D01*
X176165924Y-79898308D01*
X176164250Y-79895714D01*
X176162606Y-79893130D01*
X176160989Y-79890551D01*
X176159402Y-79887982D01*
X176157841Y-79885417D01*
X176156309Y-79882861D01*
X176154803Y-79880310D01*
X176153325Y-79877768D01*
X176151874Y-79875231D01*
X176150450Y-79872702D01*
X176149051Y-79870177D01*
X176147680Y-79867661D01*
X176146335Y-79865150D01*
X176145016Y-79862646D01*
X176143722Y-79860147D01*
X176142454Y-79857656D01*
X176141212Y-79855169D01*
X176139995Y-79852690D01*
X176138803Y-79850215D01*
X176137636Y-79847747D01*
X176136493Y-79845283D01*
X176135376Y-79842826D01*
X176134282Y-79840374D01*
X176133213Y-79837928D01*
X176132168Y-79835486D01*
X176131147Y-79833050D01*
X176130150Y-79830619D01*
X176129176Y-79828193D01*
X176128226Y-79825772D01*
X176127299Y-79823356D01*
X176126395Y-79820944D01*
X176125515Y-79818538D01*
X176124657Y-79816135D01*
X176123822Y-79813737D01*
X176123010Y-79811344D01*
X176122220Y-79808955D01*
X176121453Y-79806569D01*
X176120708Y-79804188D01*
X176119985Y-79801811D01*
X176119284Y-79799438D01*
X176118605Y-79797068D01*
X176117947Y-79794702D01*
X176117312Y-79792340D01*
X176116698Y-79789981D01*
X176116105Y-79787626D01*
X176115534Y-79785273D01*
X176114985Y-79782924D01*
X176114456Y-79780577D01*
X176113948Y-79778235D01*
X176113462Y-79775893D01*
X176112996Y-79773556D01*
X176112551Y-79771220D01*
X176112128Y-79768889D01*
X176111342Y-79764231D01*
X176110638Y-79759581D01*
X176110017Y-79754939D01*
X176109476Y-79750305D01*
X176109017Y-79745676D01*
X176108638Y-79741053D01*
X176108339Y-79736433D01*
X176108120Y-79731818D01*
X176107982Y-79727204D01*
X176107923Y-79722592D01*
X176107944Y-79717981D01*
X176108044Y-79713369D01*
X176108225Y-79708756D01*
X176108485Y-79704141D01*
X176108825Y-79699522D01*
X176109246Y-79694899D01*
X176109746Y-79690271D01*
X176110328Y-79685637D01*
X176110991Y-79680996D01*
X176111736Y-79676346D01*
X176112563Y-79671687D01*
X176113473Y-79667018D01*
X176114466Y-79662338D01*
X176115544Y-79657645D01*
X176116706Y-79652939D01*
X176117954Y-79648218D01*
X176119289Y-79643481D01*
X176120711Y-79638728D01*
X176122221Y-79633957D01*
X176123822Y-79629167D01*
X176125513Y-79624356D01*
X176127296Y-79619525D01*
X176129173Y-79614670D01*
X176131144Y-79609792D01*
X176133212Y-79604888D01*
X176135377Y-79599957D01*
X176137641Y-79594999D01*
X176140007Y-79590011D01*
X176142476Y-79584991D01*
X176145049Y-79579940D01*
X176147729Y-79574854D01*
X176150518Y-79569732D01*
X176153419Y-79564573D01*
X176156433Y-79559374D01*
X176159563Y-79554134D01*
X176162812Y-79548849D01*
X176166182Y-79543519D01*
X176169678Y-79538141D01*
X176173301Y-79532712D01*
X176177055Y-79527229D01*
X176180945Y-79521689D01*
X176184974Y-79516090D01*
X176189147Y-79510427D01*
X176193467Y-79504698D01*
X176197941Y-79498896D01*
X176202574Y-79493019D01*
X176207372Y-79487060D01*
X176212342Y-79481014D01*
X176217492Y-79474875D01*
X176222830Y-79468634D01*
X176228367Y-79462283D01*
X176234112Y-79455813D01*
X176240080Y-79449211D01*
X176246285Y-79442465D01*
X176252746Y-79435557D01*
X176259484Y-79428469D01*
X176266524Y-79421175D01*
X176273902Y-79413646D01*
X176281659Y-79405841D01*
X176289851Y-79397709D01*
X176298557Y-79389177D01*
X176307890Y-79380138D01*
X176318026Y-79370428D01*
X176329269Y-79359762D01*
X176342240Y-79347556D01*
X176358700Y-79332160D01*
X176362698Y-79328427D01*
X176374819Y-79317105D01*
X176386792Y-79305883D01*
X176398582Y-79294760D01*
X176404397Y-79289233D01*
X176410153Y-79283730D01*
X176415845Y-79278250D01*
X176421470Y-79272792D01*
X176427021Y-79267356D01*
X176432496Y-79261941D01*
X176437889Y-79256548D01*
X176443195Y-79251175D01*
X176448412Y-79245823D01*
X176453533Y-79240491D01*
X176458555Y-79235178D01*
X176463473Y-79229884D01*
X176468283Y-79224609D01*
X176472980Y-79219352D01*
X176477559Y-79214113D01*
X176479804Y-79211501D01*
X176482017Y-79208892D01*
X176484199Y-79206288D01*
X176486349Y-79203688D01*
X176488465Y-79201092D01*
X176490549Y-79198500D01*
X176492599Y-79195913D01*
X176494615Y-79193329D01*
X176496595Y-79190749D01*
X176498540Y-79188173D01*
X176500449Y-79185602D01*
X176502322Y-79183033D01*
X176504157Y-79180469D01*
X176505955Y-79177908D01*
X176507714Y-79175352D01*
X176509434Y-79172798D01*
X176511115Y-79170248D01*
X176512756Y-79167702D01*
X176514357Y-79165159D01*
X176515917Y-79162620D01*
X176517434Y-79160084D01*
X176518910Y-79157551D01*
X176520343Y-79155021D01*
X176521733Y-79152495D01*
X176523078Y-79149972D01*
X176524380Y-79147452D01*
X176525636Y-79144935D01*
X176526847Y-79142421D01*
X176528011Y-79139910D01*
X176529129Y-79137402D01*
X176530200Y-79134896D01*
X176531223Y-79132394D01*
X176532198Y-79129894D01*
X176533123Y-79127397D01*
X176534000Y-79124902D01*
X176534826Y-79122411D01*
X176535601Y-79119921D01*
X176536326Y-79117434D01*
X176536999Y-79114950D01*
X176537619Y-79112468D01*
X176538187Y-79109988D01*
X176538701Y-79107511D01*
X176539162Y-79105036D01*
X176539568Y-79102563D01*
X176539918Y-79100092D01*
X176540214Y-79097624D01*
X176540453Y-79095157D01*
X176540635Y-79092692D01*
X176540760Y-79090229D01*
X176540827Y-79087768D01*
X176540836Y-79085309D01*
X176540786Y-79082852D01*
X176540676Y-79080397D01*
X176540506Y-79077943D01*
X176540276Y-79075490D01*
X176539984Y-79073040D01*
X176539631Y-79070591D01*
X176539215Y-79068143D01*
X176538736Y-79065697D01*
X176538194Y-79063252D01*
X176537588Y-79060808D01*
X176536918Y-79058366D01*
X176536182Y-79055925D01*
X176535380Y-79053485D01*
X176534513Y-79051046D01*
X176533578Y-79048608D01*
X176532576Y-79046172D01*
X176531507Y-79043736D01*
X176530368Y-79041301D01*
X176529161Y-79038867D01*
X176527884Y-79036434D01*
X176526537Y-79034002D01*
X176525120Y-79031570D01*
X176523631Y-79029139D01*
X176522070Y-79026709D01*
X176520437Y-79024279D01*
X176518730Y-79021849D01*
X176516951Y-79019421D01*
X176515097Y-79016992D01*
X176513169Y-79014564D01*
X176511165Y-79012136D01*
X176509086Y-79009709D01*
X176506930Y-79007281D01*
X176504698Y-79004854D01*
X176502388Y-79002427D01*
X176500000Y-79000000D01*
X177580000Y-115120000D02*
X192830000Y-115120000D01*
X179000000Y-80000000D02*
X178997104Y-79997090D01*
X178994242Y-79994185D01*
X178991421Y-79991295D01*
X178988635Y-79988410D01*
X178985889Y-79985539D01*
X178983176Y-79982674D01*
X178980503Y-79979822D01*
X178977863Y-79976975D01*
X178975263Y-79974142D01*
X178972695Y-79971315D01*
X178970165Y-79968500D01*
X178967668Y-79965691D01*
X178965209Y-79962895D01*
X178962780Y-79960104D01*
X178960390Y-79957326D01*
X178958030Y-79954554D01*
X178955708Y-79951793D01*
X178953415Y-79949038D01*
X178951159Y-79946296D01*
X178948934Y-79943558D01*
X178946743Y-79940833D01*
X178944583Y-79938112D01*
X178942457Y-79935404D01*
X178940360Y-79932700D01*
X178938298Y-79930009D01*
X178936265Y-79927322D01*
X178934266Y-79924646D01*
X178932295Y-79921976D01*
X178930357Y-79919316D01*
X178928448Y-79916662D01*
X178926570Y-79914018D01*
X178924721Y-79911379D01*
X178922904Y-79908751D01*
X178921114Y-79906127D01*
X178919356Y-79903514D01*
X178917624Y-79900906D01*
X178915924Y-79898308D01*
X178914250Y-79895714D01*
X178912606Y-79893130D01*
X178910989Y-79890551D01*
X178909402Y-79887982D01*
X178907841Y-79885417D01*
X178906309Y-79882861D01*
X178904803Y-79880310D01*
X178903325Y-79877768D01*
X178901874Y-79875231D01*
X178900450Y-79872702D01*
X178899051Y-79870177D01*
X178897680Y-79867661D01*
X178896335Y-79865150D01*
X178895016Y-79862646D01*
X178893722Y-79860147D01*
X178892454Y-79857656D01*
X178891212Y-79855169D01*
X178889995Y-79852690D01*
X178888803Y-79850215D01*
X178887636Y-79847747D01*
X178886493Y-79845283D01*
X178885376Y-79842826D01*
X178884282Y-79840374D01*
X178883213Y-79837928D01*
X178882168Y-79835486D01*
X178881147Y-79833050D01*
X178880150Y-79830619D01*
X178879176Y-79828193D01*
X178878226Y-79825772D01*
X178877299Y-79823356D01*
X178876395Y-79820944D01*
X178875515Y-79818538D01*
X178874657Y-79816135D01*
X178873822Y-79813737D01*
X178873010Y-79811344D01*
X178872220Y-79808955D01*
X178871453Y-79806569D01*
X178870708Y-79804188D01*
X178869985Y-79801811D01*
X178869284Y-79799438D01*
X178868605Y-79797068D01*
X178867947Y-79794702D01*
X178867312Y-79792340D01*
X178866698Y-79789981D01*
X178866105Y-79787626D01*
X178865534Y-79785273D01*
X178864985Y-79782924D01*
X178864456Y-79780577D01*
X178863948Y-79778235D01*
X178863462Y-79775893D01*
X178862996Y-79773556D01*
X178862551Y-79771220D01*
X178862128Y-79768889D01*
X178861342Y-79764231D01*
X178860638Y-79759581D01*
X178860017Y-79754939D01*
X178859476Y-79750305D01*
X178859017Y-79745676D01*
X178858638Y-79741053D01*
X178858339Y-79736433D01*
X178858120Y-79731818D01*
X178857982Y-79727204D01*
X178857923Y-79722592D01*
X178857944Y-79717981D01*
X178858044Y-79713369D01*
X178858225Y-79708756D01*
X178858485Y-79704141D01*
X178858825Y-79699522D01*
X178859246Y-79694899D01*
X178859746Y-79690271D01*
X178860328Y-79685637D01*
X178860991Y-79680996D01*
X178861736Y-79676346D01*
X178862563Y-79671687D01*
X178863473Y-79667018D01*
X178864466Y-79662338D01*
X178865544Y-79657645D01*
X178866706Y-79652939D01*
X178867954Y-79648218D01*
X178869289Y-79643481D01*
X178870711Y-79638728D01*
X178872221Y-79633957D01*
X178873822Y-79629167D01*
X178875513Y-79624356D01*
X178877296Y-79619525D01*
X178879173Y-79614670D01*
X178881144Y-79609792D01*
X178883212Y-79604888D01*
X178885377Y-79599957D01*
X178887641Y-79594999D01*
X178890007Y-79590011D01*
X178892476Y-79584991D01*
X178895049Y-79579940D01*
X178897729Y-79574854D01*
X178900518Y-79569732D01*
X178903419Y-79564573D01*
X178906433Y-79559374D01*
X178909563Y-79554134D01*
X178912812Y-79548849D01*
X178916182Y-79543519D01*
X178919678Y-79538141D01*
X178923301Y-79532712D01*
X178927055Y-79527229D01*
X178930945Y-79521689D01*
X178934974Y-79516090D01*
X178939147Y-79510427D01*
X178943467Y-79504698D01*
X178947941Y-79498896D01*
X178952574Y-79493019D01*
X178957372Y-79487060D01*
X178962342Y-79481014D01*
X178967492Y-79474875D01*
X178972830Y-79468634D01*
X178978367Y-79462283D01*
X178984112Y-79455813D01*
X178990080Y-79449211D01*
X178996285Y-79442465D01*
X179002746Y-79435557D01*
X179009484Y-79428469D01*
X179016524Y-79421175D01*
X179023902Y-79413646D01*
X179031659Y-79405841D01*
X179039851Y-79397709D01*
X179048557Y-79389177D01*
X179057890Y-79380138D01*
X179068026Y-79370428D01*
X179079269Y-79359762D01*
X179092240Y-79347556D01*
X179108700Y-79332160D01*
X179112698Y-79328427D01*
X179124819Y-79317105D01*
X179136792Y-79305883D01*
X179148582Y-79294760D01*
X179154397Y-79289233D01*
X179160153Y-79283730D01*
X179165845Y-79278250D01*
X179171470Y-79272792D01*
X179177021Y-79267356D01*
X179182496Y-79261941D01*
X179187889Y-79256548D01*
X179193195Y-79251175D01*
X179198412Y-79245823D01*
X179203533Y-79240491D01*
X179208555Y-79235178D01*
X179213473Y-79229884D01*
X179218283Y-79224609D01*
X179222980Y-79219352D01*
X179227559Y-79214113D01*
X179229804Y-79211501D01*
X179232017Y-79208892D01*
X179234199Y-79206288D01*
X179236349Y-79203688D01*
X179238465Y-79201092D01*
X179240549Y-79198500D01*
X179242599Y-79195913D01*
X179244615Y-79193329D01*
X179246595Y-79190749D01*
X179248540Y-79188173D01*
X179250449Y-79185602D01*
X179252322Y-79183033D01*
X179254157Y-79180469D01*
X179255955Y-79177908D01*
X179257714Y-79175352D01*
X179259434Y-79172798D01*
X179261115Y-79170248D01*
X179262756Y-79167702D01*
X179264357Y-79165159D01*
X179265917Y-79162620D01*
X179267434Y-79160084D01*
X179268910Y-79157551D01*
X179270343Y-79155021D01*
X179271733Y-79152495D01*
X179273078Y-79149972D01*
X179274380Y-79147452D01*
X179275636Y-79144935D01*
X179276847Y-79142421D01*
X179278011Y-79139910D01*
X179279129Y-79137402D01*
X179280200Y-79134896D01*
X179281223Y-79132394D01*
X179282198Y-79129894D01*
X179283123Y-79127397D01*
X179284000Y-79124902D01*
X179284826Y-79122411D01*
X179285601Y-79119921D01*
X179286326Y-79117434D01*
X179286999Y-79114950D01*
X179287619Y-79112468D01*
X179288187Y-79109988D01*
X179288701Y-79107511D01*
X179289162Y-79105036D01*
X179289568Y-79102563D01*
X179289918Y-79100092D01*
X179290214Y-79097624D01*
X179290453Y-79095157D01*
X179290635Y-79092692D01*
X179290760Y-79090229D01*
X179290827Y-79087768D01*
X179290836Y-79085309D01*
X179290786Y-79082852D01*
X179290676Y-79080397D01*
X179290506Y-79077943D01*
X179290276Y-79075490D01*
X179289984Y-79073040D01*
X179289631Y-79070591D01*
X179289215Y-79068143D01*
X179288736Y-79065697D01*
X179288194Y-79063252D01*
X179287588Y-79060808D01*
X179286918Y-79058366D01*
X179286182Y-79055925D01*
X179285380Y-79053485D01*
X179284513Y-79051046D01*
X179283578Y-79048608D01*
X179282576Y-79046172D01*
X179281507Y-79043736D01*
X179280368Y-79041301D01*
X179279161Y-79038867D01*
X179277884Y-79036434D01*
X179276537Y-79034002D01*
X179275120Y-79031570D01*
X179273631Y-79029139D01*
X179272070Y-79026709D01*
X179270437Y-79024279D01*
X179268730Y-79021849D01*
X179266951Y-79019421D01*
X179265097Y-79016992D01*
X179263169Y-79014564D01*
X179261165Y-79012136D01*
X179259086Y-79009709D01*
X179256930Y-79007281D01*
X179254698Y-79004854D01*
X179252388Y-79002427D01*
X179250000Y-79000000D01*
X183800000Y-79800000D02*
X183797104Y-79797090D01*
X183794242Y-79794185D01*
X183791421Y-79791295D01*
X183788635Y-79788410D01*
X183785889Y-79785539D01*
X183783176Y-79782674D01*
X183780503Y-79779822D01*
X183777863Y-79776975D01*
X183775263Y-79774142D01*
X183772695Y-79771315D01*
X183770165Y-79768500D01*
X183767668Y-79765691D01*
X183765209Y-79762895D01*
X183762780Y-79760104D01*
X183760390Y-79757326D01*
X183758030Y-79754554D01*
X183755708Y-79751793D01*
X183753415Y-79749038D01*
X183751159Y-79746296D01*
X183748934Y-79743558D01*
X183746743Y-79740833D01*
X183744583Y-79738112D01*
X183742457Y-79735404D01*
X183740360Y-79732700D01*
X183738298Y-79730009D01*
X183736265Y-79727322D01*
X183734266Y-79724646D01*
X183732295Y-79721976D01*
X183730357Y-79719316D01*
X183728448Y-79716662D01*
X183726570Y-79714018D01*
X183724721Y-79711379D01*
X183722904Y-79708751D01*
X183721114Y-79706127D01*
X183719356Y-79703514D01*
X183717624Y-79700906D01*
X183715924Y-79698308D01*
X183714250Y-79695714D01*
X183712606Y-79693130D01*
X183710989Y-79690551D01*
X183709402Y-79687982D01*
X183707841Y-79685417D01*
X183706309Y-79682861D01*
X183704803Y-79680310D01*
X183703325Y-79677768D01*
X183701874Y-79675231D01*
X183700450Y-79672702D01*
X183699051Y-79670177D01*
X183697680Y-79667661D01*
X183696335Y-79665150D01*
X183695016Y-79662646D01*
X183693722Y-79660147D01*
X183692454Y-79657656D01*
X183691212Y-79655169D01*
X183689995Y-79652690D01*
X183688803Y-79650215D01*
X183687636Y-79647747D01*
X183686493Y-79645283D01*
X183685376Y-79642826D01*
X183684282Y-79640374D01*
X183683213Y-79637928D01*
X183682168Y-79635486D01*
X183681147Y-79633050D01*
X183680150Y-79630619D01*
X183679176Y-79628193D01*
X183678226Y-79625772D01*
X183677299Y-79623356D01*
X183676395Y-79620944D01*
X183675515Y-79618538D01*
X183674657Y-79616135D01*
X183673822Y-79613737D01*
X183673010Y-79611344D01*
X183672220Y-79608955D01*
X183671453Y-79606569D01*
X183670708Y-79604188D01*
X183669985Y-79601811D01*
X183669284Y-79599438D01*
X183668605Y-79597068D01*
X183667947Y-79594702D01*
X183667312Y-79592340D01*
X183666698Y-79589981D01*
X183666105Y-79587626D01*
X183665534Y-79585273D01*
X183664985Y-79582924D01*
X183664456Y-79580577D01*
X183663948Y-79578235D01*
X183663462Y-79575893D01*
X183662996Y-79573556D01*
X183662551Y-79571220D01*
X183662128Y-79568889D01*
X183661342Y-79564231D01*
X183660638Y-79559581D01*
X183660017Y-79554939D01*
X183659476Y-79550305D01*
X183659017Y-79545676D01*
X183658638Y-79541053D01*
X183658339Y-79536433D01*
X183658120Y-79531818D01*
X183657982Y-79527204D01*
X183657923Y-79522592D01*
X183657944Y-79517981D01*
X183658044Y-79513369D01*
X183658225Y-79508756D01*
X183658485Y-79504141D01*
X183658825Y-79499522D01*
X183659246Y-79494899D01*
X183659746Y-79490271D01*
X183660328Y-79485637D01*
X183660991Y-79480996D01*
X183661736Y-79476346D01*
X183662563Y-79471687D01*
X183663473Y-79467018D01*
X183664466Y-79462338D01*
X183665544Y-79457645D01*
X183666706Y-79452939D01*
X183667954Y-79448218D01*
X183669289Y-79443481D01*
X183670711Y-79438728D01*
X183672221Y-79433957D01*
X183673822Y-79429167D01*
X183675513Y-79424356D01*
X183677296Y-79419525D01*
X183679173Y-79414670D01*
X183681144Y-79409792D01*
X183683212Y-79404888D01*
X183685377Y-79399957D01*
X183687641Y-79394999D01*
X183690007Y-79390011D01*
X183692476Y-79384991D01*
X183695049Y-79379940D01*
X183697729Y-79374854D01*
X183700518Y-79369732D01*
X183703419Y-79364573D01*
X183706433Y-79359374D01*
X183709563Y-79354134D01*
X183712812Y-79348849D01*
X183716182Y-79343519D01*
X183719678Y-79338141D01*
X183723301Y-79332712D01*
X183727055Y-79327229D01*
X183730945Y-79321689D01*
X183734974Y-79316090D01*
X183739147Y-79310427D01*
X183743467Y-79304698D01*
X183747941Y-79298896D01*
X183752574Y-79293019D01*
X183757372Y-79287060D01*
X183762342Y-79281014D01*
X183767492Y-79274875D01*
X183772830Y-79268634D01*
X183778367Y-79262283D01*
X183784112Y-79255813D01*
X183790080Y-79249211D01*
X183796285Y-79242465D01*
X183802746Y-79235557D01*
X183809484Y-79228469D01*
X183816524Y-79221175D01*
X183823902Y-79213646D01*
X183831659Y-79205841D01*
X183839851Y-79197709D01*
X183848557Y-79189177D01*
X183857890Y-79180138D01*
X183868026Y-79170428D01*
X183879269Y-79159762D01*
X183892240Y-79147556D01*
X183908700Y-79132160D01*
X183912698Y-79128427D01*
X183924819Y-79117105D01*
X183936792Y-79105883D01*
X183948582Y-79094760D01*
X183954397Y-79089233D01*
X183960153Y-79083730D01*
X183965845Y-79078250D01*
X183971470Y-79072792D01*
X183977021Y-79067356D01*
X183982496Y-79061941D01*
X183987889Y-79056548D01*
X183993195Y-79051175D01*
X183998412Y-79045823D01*
X184003533Y-79040491D01*
X184008555Y-79035178D01*
X184013473Y-79029884D01*
X184018283Y-79024609D01*
X184022980Y-79019352D01*
X184027559Y-79014113D01*
X184029804Y-79011501D01*
X184032017Y-79008892D01*
X184034199Y-79006288D01*
X184036349Y-79003688D01*
X184038465Y-79001092D01*
X184040549Y-78998500D01*
X184042599Y-78995913D01*
X184044615Y-78993329D01*
X184046595Y-78990749D01*
X184048540Y-78988173D01*
X184050449Y-78985602D01*
X184052322Y-78983033D01*
X184054157Y-78980469D01*
X184055955Y-78977908D01*
X184057714Y-78975352D01*
X184059434Y-78972798D01*
X184061115Y-78970248D01*
X184062756Y-78967702D01*
X184064357Y-78965159D01*
X184065917Y-78962620D01*
X184067434Y-78960084D01*
X184068910Y-78957551D01*
X184070343Y-78955021D01*
X184071733Y-78952495D01*
X184073078Y-78949972D01*
X184074380Y-78947452D01*
X184075636Y-78944935D01*
X184076847Y-78942421D01*
X184078011Y-78939910D01*
X184079129Y-78937402D01*
X184080200Y-78934896D01*
X184081223Y-78932394D01*
X184082198Y-78929894D01*
X184083123Y-78927397D01*
X184084000Y-78924902D01*
X184084826Y-78922411D01*
X184085601Y-78919921D01*
X184086326Y-78917434D01*
X184086999Y-78914950D01*
X184087619Y-78912468D01*
X184088187Y-78909988D01*
X184088701Y-78907511D01*
X184089162Y-78905036D01*
X184089568Y-78902563D01*
X184089918Y-78900092D01*
X184090214Y-78897624D01*
X184090453Y-78895157D01*
X184090635Y-78892692D01*
X184090760Y-78890229D01*
X184090827Y-78887768D01*
X184090836Y-78885309D01*
X184090786Y-78882852D01*
X184090676Y-78880397D01*
X184090506Y-78877943D01*
X184090276Y-78875490D01*
X184089984Y-78873040D01*
X184089631Y-78870591D01*
X184089215Y-78868143D01*
X184088736Y-78865697D01*
X184088194Y-78863252D01*
X184087588Y-78860808D01*
X184086918Y-78858366D01*
X184086182Y-78855925D01*
X184085380Y-78853485D01*
X184084513Y-78851046D01*
X184083578Y-78848608D01*
X184082576Y-78846172D01*
X184081507Y-78843736D01*
X184080368Y-78841301D01*
X184079161Y-78838867D01*
X184077884Y-78836434D01*
X184076537Y-78834002D01*
X184075120Y-78831570D01*
X184073631Y-78829139D01*
X184072070Y-78826709D01*
X184070437Y-78824279D01*
X184068730Y-78821849D01*
X184066951Y-78819421D01*
X184065097Y-78816992D01*
X184063169Y-78814564D01*
X184061165Y-78812136D01*
X184059086Y-78809709D01*
X184056930Y-78807281D01*
X184054698Y-78804854D01*
X184052388Y-78802427D01*
X184050000Y-78800000D01*
X187600000Y-81450000D02*
X187597090Y-81452896D01*
X187594185Y-81455758D01*
X187591295Y-81458579D01*
X187588410Y-81461365D01*
X187585539Y-81464111D01*
X187582674Y-81466824D01*
X187579822Y-81469497D01*
X187576975Y-81472137D01*
X187574142Y-81474737D01*
X187571315Y-81477305D01*
X187568500Y-81479835D01*
X187565691Y-81482332D01*
X187562895Y-81484791D01*
X187560104Y-81487220D01*
X187557326Y-81489610D01*
X187554554Y-81491970D01*
X187551793Y-81494292D01*
X187549038Y-81496585D01*
X187546296Y-81498841D01*
X187543558Y-81501066D01*
X187540833Y-81503257D01*
X187538112Y-81505417D01*
X187535404Y-81507543D01*
X187532700Y-81509640D01*
X187530009Y-81511702D01*
X187527322Y-81513735D01*
X187524646Y-81515734D01*
X187521976Y-81517705D01*
X187519316Y-81519643D01*
X187516662Y-81521552D01*
X187514018Y-81523430D01*
X187511379Y-81525279D01*
X187508751Y-81527096D01*
X187506127Y-81528886D01*
X187503514Y-81530644D01*
X187500906Y-81532376D01*
X187498308Y-81534076D01*
X187495714Y-81535750D01*
X187493130Y-81537394D01*
X187490551Y-81539011D01*
X187487982Y-81540598D01*
X187485417Y-81542159D01*
X187482861Y-81543691D01*
X187480310Y-81545197D01*
X187477768Y-81546675D01*
X187475231Y-81548126D01*
X187472702Y-81549550D01*
X187470177Y-81550949D01*
X187467661Y-81552320D01*
X187465150Y-81553665D01*
X187462646Y-81554984D01*
X187460147Y-81556278D01*
X187457656Y-81557546D01*
X187455169Y-81558788D01*
X187452690Y-81560005D01*
X187450215Y-81561197D01*
X187447747Y-81562364D01*
X187445283Y-81563507D01*
X187442826Y-81564624D01*
X187440374Y-81565718D01*
X187437928Y-81566787D01*
X187435486Y-81567832D01*
X187433050Y-81568853D01*
X187430619Y-81569850D01*
X187428193Y-81570824D01*
X187425772Y-81571774D01*
X187423356Y-81572701D01*
X187420944Y-81573605D01*
X187418538Y-81574485D01*
X187416135Y-81575343D01*
X187413737Y-81576178D01*
X187411344Y-81576990D01*
X187408955Y-81577780D01*
X187406569Y-81578547D01*
X187404188Y-81579292D01*
X187401811Y-81580015D01*
X187399438Y-81580716D01*
X187397068Y-81581395D01*
X187394702Y-81582053D01*
X187392340Y-81582688D01*
X187389981Y-81583302D01*
X187387626Y-81583895D01*
X187385273Y-81584466D01*
X187382924Y-81585015D01*
X187380577Y-81585544D01*
X187378235Y-81586052D01*
X187375893Y-81586538D01*
X187373556Y-81587004D01*
X187371220Y-81587449D01*
X187368889Y-81587872D01*
X187364231Y-81588658D01*
X187359581Y-81589362D01*
X187354939Y-81589983D01*
X187350305Y-81590524D01*
X187345676Y-81590983D01*
X187341053Y-81591362D01*
X187336433Y-81591661D01*
X187331818Y-81591880D01*
X187327204Y-81592018D01*
X187322592Y-81592077D01*
X187317981Y-81592056D01*
X187313369Y-81591956D01*
X187308756Y-81591775D01*
X187304141Y-81591515D01*
X187299522Y-81591175D01*
X187294899Y-81590754D01*
X187290271Y-81590254D01*
X187285637Y-81589672D01*
X187280996Y-81589009D01*
X187276346Y-81588264D01*
X187271687Y-81587437D01*
X187267018Y-81586527D01*
X187262338Y-81585534D01*
X187257645Y-81584456D01*
X187252939Y-81583294D01*
X187248218Y-81582046D01*
X187243481Y-81580711D01*
X187238728Y-81579289D01*
X187233957Y-81577779D01*
X187229167Y-81576178D01*
X187224356Y-81574487D01*
X187219525Y-81572704D01*
X187214670Y-81570827D01*
X187209792Y-81568856D01*
X187204888Y-81566788D01*
X187199957Y-81564623D01*
X187194999Y-81562359D01*
X187190011Y-81559993D01*
X187184991Y-81557524D01*
X187179940Y-81554951D01*
X187174854Y-81552271D01*
X187169732Y-81549482D01*
X187164573Y-81546581D01*
X187159374Y-81543567D01*
X187154134Y-81540437D01*
X187148849Y-81537188D01*
X187143519Y-81533818D01*
X187138141Y-81530322D01*
X187132712Y-81526699D01*
X187127229Y-81522945D01*
X187121689Y-81519055D01*
X187116090Y-81515026D01*
X187110427Y-81510853D01*
X187104698Y-81506533D01*
X187098896Y-81502059D01*
X187093019Y-81497426D01*
X187087060Y-81492628D01*
X187081014Y-81487658D01*
X187074875Y-81482508D01*
X187068634Y-81477170D01*
X187062283Y-81471633D01*
X187055813Y-81465888D01*
X187049211Y-81459920D01*
X187042465Y-81453715D01*
X187035557Y-81447254D01*
X187028469Y-81440516D01*
X187021175Y-81433476D01*
X187013646Y-81426098D01*
X187005841Y-81418341D01*
X186997709Y-81410149D01*
X186989177Y-81401443D01*
X186980138Y-81392110D01*
X186970428Y-81381974D01*
X186959762Y-81370731D01*
X186947556Y-81357760D01*
X186932160Y-81341300D01*
X186928427Y-81337302D01*
X186917105Y-81325181D01*
X186905883Y-81313208D01*
X186894760Y-81301418D01*
X186889233Y-81295603D01*
X186883730Y-81289847D01*
X186878250Y-81284155D01*
X186872792Y-81278530D01*
X186867356Y-81272979D01*
X186861941Y-81267504D01*
X186856548Y-81262111D01*
X186851175Y-81256805D01*
X186845823Y-81251588D01*
X186840491Y-81246467D01*
X186835178Y-81241445D01*
X186829884Y-81236527D01*
X186824609Y-81231717D01*
X186819352Y-81227020D01*
X186814113Y-81222441D01*
X186811501Y-81220196D01*
X186808892Y-81217983D01*
X186806288Y-81215801D01*
X186803688Y-81213651D01*
X186801092Y-81211535D01*
X186798500Y-81209451D01*
X186795913Y-81207401D01*
X186793329Y-81205385D01*
X186790749Y-81203405D01*
X186788173Y-81201460D01*
X186785602Y-81199551D01*
X186783033Y-81197678D01*
X186780469Y-81195843D01*
X186777908Y-81194045D01*
X186775352Y-81192286D01*
X186772798Y-81190566D01*
X186770248Y-81188885D01*
X186767702Y-81187244D01*
X186765159Y-81185643D01*
X186762620Y-81184083D01*
X186760084Y-81182566D01*
X186757551Y-81181090D01*
X186755021Y-81179657D01*
X186752495Y-81178267D01*
X186749972Y-81176922D01*
X186747452Y-81175620D01*
X186744935Y-81174364D01*
X186742421Y-81173153D01*
X186739910Y-81171989D01*
X186737402Y-81170871D01*
X186734896Y-81169800D01*
X186732394Y-81168777D01*
X186729894Y-81167802D01*
X186727397Y-81166877D01*
X186724902Y-81166000D01*
X186722411Y-81165174D01*
X186719921Y-81164399D01*
X186717434Y-81163674D01*
X186714950Y-81163001D01*
X186712468Y-81162381D01*
X186709988Y-81161813D01*
X186707511Y-81161299D01*
X186705036Y-81160838D01*
X186702563Y-81160432D01*
X186700092Y-81160082D01*
X186697624Y-81159786D01*
X186695157Y-81159547D01*
X186692692Y-81159365D01*
X186690229Y-81159240D01*
X186687768Y-81159173D01*
X186685309Y-81159164D01*
X186682852Y-81159214D01*
X186680397Y-81159324D01*
X186677943Y-81159494D01*
X186675490Y-81159724D01*
X186673040Y-81160016D01*
X186670591Y-81160369D01*
X186668143Y-81160785D01*
X186665697Y-81161264D01*
X186663252Y-81161806D01*
X186660808Y-81162412D01*
X186658366Y-81163082D01*
X186655925Y-81163818D01*
X186653485Y-81164620D01*
X186651046Y-81165487D01*
X186648608Y-81166422D01*
X186646172Y-81167424D01*
X186643736Y-81168493D01*
X186641301Y-81169632D01*
X186638867Y-81170839D01*
X186636434Y-81172116D01*
X186634002Y-81173463D01*
X186631570Y-81174880D01*
X186629139Y-81176369D01*
X186626709Y-81177930D01*
X186624279Y-81179563D01*
X186621849Y-81181270D01*
X186619421Y-81183049D01*
X186616992Y-81184903D01*
X186614564Y-81186831D01*
X186612136Y-81188835D01*
X186609709Y-81190914D01*
X186607281Y-81193070D01*
X186604854Y-81195302D01*
X186602427Y-81197612D01*
X186600000Y-81200000D01*
D11*
X157949819Y-118878458D02*
X156949819Y-118878458D01*
X156949819Y-118478459D02*
X156949819Y-118364173D01*
X156949819Y-118364173D02*
X156997438Y-118307030D01*
X156997438Y-118307030D02*
X157092676Y-118249887D01*
X157092676Y-118249887D02*
X157283152Y-118221316D01*
X157283152Y-118221316D02*
X157616485Y-118221316D01*
X157616485Y-118221316D02*
X157806961Y-118249887D01*
X157806961Y-118249887D02*
X157902200Y-118307030D01*
X157902200Y-118307030D02*
X157949819Y-118364173D01*
X157949819Y-118364173D02*
X157949819Y-118478459D01*
X157949819Y-118478459D02*
X157902200Y-118535602D01*
X157902200Y-118535602D02*
X157806961Y-118592744D01*
X157806961Y-118592744D02*
X157616485Y-118621316D01*
X157616485Y-118621316D02*
X157283152Y-118621316D01*
X157283152Y-118621316D02*
X157092676Y-118592744D01*
X157092676Y-118592744D02*
X156997438Y-118535602D01*
X156997438Y-118535602D02*
X156949819Y-118478459D01*
X157949819Y-117621316D02*
X157473628Y-117821316D01*
X157949819Y-117964173D02*
X156949819Y-117964173D01*
X156949819Y-117964173D02*
X156949819Y-117735602D01*
X156949819Y-117735602D02*
X156997438Y-117678459D01*
X156997438Y-117678459D02*
X157045057Y-117649888D01*
X157045057Y-117649888D02*
X157140295Y-117621316D01*
X157140295Y-117621316D02*
X157283152Y-117621316D01*
X157283152Y-117621316D02*
X157378390Y-117649888D01*
X157378390Y-117649888D02*
X157426009Y-117678459D01*
X157426009Y-117678459D02*
X157473628Y-117735602D01*
X157473628Y-117735602D02*
X157473628Y-117964173D01*
X157426009Y-117364173D02*
X157426009Y-117164173D01*
X157949819Y-117078459D02*
X157949819Y-117364173D01*
X157949819Y-117364173D02*
X156949819Y-117364173D01*
X156949819Y-117364173D02*
X156949819Y-117078459D01*
X157426009Y-116621316D02*
X157426009Y-116821316D01*
X157949819Y-116821316D02*
X156949819Y-116821316D01*
X156949819Y-116821316D02*
X156949819Y-116535602D01*
X160449819Y-118535601D02*
X159973628Y-118735601D01*
X160449819Y-118878458D02*
X159449819Y-118878458D01*
X159449819Y-118878458D02*
X159449819Y-118649887D01*
X159449819Y-118649887D02*
X159497438Y-118592744D01*
X159497438Y-118592744D02*
X159545057Y-118564173D01*
X159545057Y-118564173D02*
X159640295Y-118535601D01*
X159640295Y-118535601D02*
X159783152Y-118535601D01*
X159783152Y-118535601D02*
X159878390Y-118564173D01*
X159878390Y-118564173D02*
X159926009Y-118592744D01*
X159926009Y-118592744D02*
X159973628Y-118649887D01*
X159973628Y-118649887D02*
X159973628Y-118878458D01*
X159926009Y-118278458D02*
X159926009Y-118078458D01*
X160449819Y-117992744D02*
X160449819Y-118278458D01*
X160449819Y-118278458D02*
X159449819Y-118278458D01*
X159449819Y-118278458D02*
X159449819Y-117992744D01*
X160402200Y-117764173D02*
X160449819Y-117678459D01*
X160449819Y-117678459D02*
X160449819Y-117535601D01*
X160449819Y-117535601D02*
X160402200Y-117478459D01*
X160402200Y-117478459D02*
X160354580Y-117449887D01*
X160354580Y-117449887D02*
X160259342Y-117421316D01*
X160259342Y-117421316D02*
X160164104Y-117421316D01*
X160164104Y-117421316D02*
X160068866Y-117449887D01*
X160068866Y-117449887D02*
X160021247Y-117478459D01*
X160021247Y-117478459D02*
X159973628Y-117535601D01*
X159973628Y-117535601D02*
X159926009Y-117649887D01*
X159926009Y-117649887D02*
X159878390Y-117707030D01*
X159878390Y-117707030D02*
X159830771Y-117735601D01*
X159830771Y-117735601D02*
X159735533Y-117764173D01*
X159735533Y-117764173D02*
X159640295Y-117764173D01*
X159640295Y-117764173D02*
X159545057Y-117735601D01*
X159545057Y-117735601D02*
X159497438Y-117707030D01*
X159497438Y-117707030D02*
X159449819Y-117649887D01*
X159449819Y-117649887D02*
X159449819Y-117507030D01*
X159449819Y-117507030D02*
X159497438Y-117421316D01*
X159926009Y-117164172D02*
X159926009Y-116964172D01*
X160449819Y-116878458D02*
X160449819Y-117164172D01*
X160449819Y-117164172D02*
X159449819Y-117164172D01*
X159449819Y-117164172D02*
X159449819Y-116878458D01*
X159449819Y-116707030D02*
X159449819Y-116364173D01*
X160449819Y-116535601D02*
X159449819Y-116535601D01*
D12*
X174838771Y-102240339D02*
X174838771Y-101240339D01*
X174838771Y-101240339D02*
X175105438Y-101240339D01*
X175105438Y-101240339D02*
X175172105Y-101287958D01*
X175172105Y-101287958D02*
X175205438Y-101335577D01*
X175205438Y-101335577D02*
X175238771Y-101430815D01*
X175238771Y-101430815D02*
X175238771Y-101573672D01*
X175238771Y-101573672D02*
X175205438Y-101668910D01*
X175205438Y-101668910D02*
X175172105Y-101716529D01*
X175172105Y-101716529D02*
X175105438Y-101764148D01*
X175105438Y-101764148D02*
X174838771Y-101764148D01*
X175938771Y-102240339D02*
X175705438Y-101764148D01*
X175538771Y-102240339D02*
X175538771Y-101240339D01*
X175538771Y-101240339D02*
X175805438Y-101240339D01*
X175805438Y-101240339D02*
X175872105Y-101287958D01*
X175872105Y-101287958D02*
X175905438Y-101335577D01*
X175905438Y-101335577D02*
X175938771Y-101430815D01*
X175938771Y-101430815D02*
X175938771Y-101573672D01*
X175938771Y-101573672D02*
X175905438Y-101668910D01*
X175905438Y-101668910D02*
X175872105Y-101716529D01*
X175872105Y-101716529D02*
X175805438Y-101764148D01*
X175805438Y-101764148D02*
X175538771Y-101764148D01*
X176238771Y-102240339D02*
X176238771Y-101240339D01*
X176572104Y-102240339D02*
X176572104Y-101240339D01*
X176572104Y-101240339D02*
X176972104Y-102240339D01*
X176972104Y-102240339D02*
X176972104Y-101240339D01*
X177705437Y-102145100D02*
X177672104Y-102192720D01*
X177672104Y-102192720D02*
X177572104Y-102240339D01*
X177572104Y-102240339D02*
X177505437Y-102240339D01*
X177505437Y-102240339D02*
X177405437Y-102192720D01*
X177405437Y-102192720D02*
X177338771Y-102097481D01*
X177338771Y-102097481D02*
X177305437Y-102002243D01*
X177305437Y-102002243D02*
X177272104Y-101811767D01*
X177272104Y-101811767D02*
X177272104Y-101668910D01*
X177272104Y-101668910D02*
X177305437Y-101478434D01*
X177305437Y-101478434D02*
X177338771Y-101383196D01*
X177338771Y-101383196D02*
X177405437Y-101287958D01*
X177405437Y-101287958D02*
X177505437Y-101240339D01*
X177505437Y-101240339D02*
X177572104Y-101240339D01*
X177572104Y-101240339D02*
X177672104Y-101287958D01*
X177672104Y-101287958D02*
X177705437Y-101335577D01*
X178005437Y-101716529D02*
X178238771Y-101716529D01*
X178338771Y-102240339D02*
X178005437Y-102240339D01*
X178005437Y-102240339D02*
X178005437Y-101240339D01*
X178005437Y-101240339D02*
X178338771Y-101240339D01*
X179072103Y-101240339D02*
X179472103Y-101240339D01*
X179272103Y-102240339D02*
X179272103Y-101240339D01*
X179705436Y-101716529D02*
X179938770Y-101716529D01*
X180038770Y-102240339D02*
X179705436Y-102240339D01*
X179705436Y-102240339D02*
X179705436Y-101240339D01*
X179705436Y-101240339D02*
X180038770Y-101240339D01*
X180238769Y-101240339D02*
X180638769Y-101240339D01*
X180438769Y-102240339D02*
X180438769Y-101240339D01*
X180772102Y-101240339D02*
X181172102Y-101240339D01*
X180972102Y-102240339D02*
X180972102Y-101240339D01*
X181405435Y-101716529D02*
X181638769Y-101716529D01*
X181738769Y-102240339D02*
X181405435Y-102240339D01*
X181405435Y-102240339D02*
X181405435Y-101240339D01*
X181405435Y-101240339D02*
X181738769Y-101240339D01*
X182038768Y-102240339D02*
X182038768Y-101240339D01*
X182038768Y-101716529D02*
X182438768Y-101716529D01*
X182438768Y-102240339D02*
X182438768Y-101240339D01*
X182772101Y-101859386D02*
X183305435Y-101859386D01*
X183638768Y-101716529D02*
X183872102Y-101716529D01*
X183972102Y-102240339D02*
X183638768Y-102240339D01*
X183638768Y-102240339D02*
X183638768Y-101240339D01*
X183638768Y-101240339D02*
X183972102Y-101240339D01*
X184272101Y-102240339D02*
X184272101Y-101240339D01*
X184672101Y-102240339D02*
X184372101Y-101668910D01*
X184672101Y-101240339D02*
X184272101Y-101811767D01*
X184972101Y-101240339D02*
X184972101Y-102049862D01*
X184972101Y-102049862D02*
X185005435Y-102145100D01*
X185005435Y-102145100D02*
X185038768Y-102192720D01*
X185038768Y-102192720D02*
X185105435Y-102240339D01*
X185105435Y-102240339D02*
X185238768Y-102240339D01*
X185238768Y-102240339D02*
X185305435Y-102192720D01*
X185305435Y-102192720D02*
X185338768Y-102145100D01*
X185338768Y-102145100D02*
X185372101Y-102049862D01*
X185372101Y-102049862D02*
X185372101Y-101240339D01*
D13*
X177169673Y-81667219D02*
X177169673Y-80667219D01*
X177169673Y-80667219D02*
X177407768Y-80667219D01*
X177407768Y-80667219D02*
X177550625Y-80714838D01*
X177550625Y-80714838D02*
X177645863Y-80810076D01*
X177645863Y-80810076D02*
X177693482Y-80905314D01*
X177693482Y-80905314D02*
X177741101Y-81095790D01*
X177741101Y-81095790D02*
X177741101Y-81238647D01*
X177741101Y-81238647D02*
X177693482Y-81429123D01*
X177693482Y-81429123D02*
X177645863Y-81524361D01*
X177645863Y-81524361D02*
X177550625Y-81619600D01*
X177550625Y-81619600D02*
X177407768Y-81667219D01*
X177407768Y-81667219D02*
X177169673Y-81667219D01*
X178169673Y-81667219D02*
X178169673Y-80667219D01*
X179169672Y-80714838D02*
X179074434Y-80667219D01*
X179074434Y-80667219D02*
X178931577Y-80667219D01*
X178931577Y-80667219D02*
X178788720Y-80714838D01*
X178788720Y-80714838D02*
X178693482Y-80810076D01*
X178693482Y-80810076D02*
X178645863Y-80905314D01*
X178645863Y-80905314D02*
X178598244Y-81095790D01*
X178598244Y-81095790D02*
X178598244Y-81238647D01*
X178598244Y-81238647D02*
X178645863Y-81429123D01*
X178645863Y-81429123D02*
X178693482Y-81524361D01*
X178693482Y-81524361D02*
X178788720Y-81619600D01*
X178788720Y-81619600D02*
X178931577Y-81667219D01*
X178931577Y-81667219D02*
X179026815Y-81667219D01*
X179026815Y-81667219D02*
X179169672Y-81619600D01*
X179169672Y-81619600D02*
X179217291Y-81571980D01*
X179217291Y-81571980D02*
X179217291Y-81238647D01*
X179217291Y-81238647D02*
X179026815Y-81238647D01*
X179645863Y-81667219D02*
X179645863Y-80667219D01*
X179979196Y-80667219D02*
X180550624Y-80667219D01*
X180264910Y-81667219D02*
X180264910Y-80667219D01*
X180836339Y-81381504D02*
X181312529Y-81381504D01*
X180741101Y-81667219D02*
X181074434Y-80667219D01*
X181074434Y-80667219D02*
X181407767Y-81667219D01*
X182217291Y-81667219D02*
X181741101Y-81667219D01*
X181741101Y-81667219D02*
X181741101Y-80667219D01*
X182836339Y-82048171D02*
X182788720Y-82000552D01*
X182788720Y-82000552D02*
X182693482Y-81857695D01*
X182693482Y-81857695D02*
X182645863Y-81762457D01*
X182645863Y-81762457D02*
X182598244Y-81619600D01*
X182598244Y-81619600D02*
X182550625Y-81381504D01*
X182550625Y-81381504D02*
X182550625Y-81191028D01*
X182550625Y-81191028D02*
X182598244Y-80952933D01*
X182598244Y-80952933D02*
X182645863Y-80810076D01*
X182645863Y-80810076D02*
X182693482Y-80714838D01*
X182693482Y-80714838D02*
X182788720Y-80571980D01*
X182788720Y-80571980D02*
X182836339Y-80524361D01*
X183217292Y-81667219D02*
X183217292Y-80667219D01*
X183217292Y-80667219D02*
X183598244Y-80667219D01*
X183598244Y-80667219D02*
X183693482Y-80714838D01*
X183693482Y-80714838D02*
X183741101Y-80762457D01*
X183741101Y-80762457D02*
X183788720Y-80857695D01*
X183788720Y-80857695D02*
X183788720Y-81000552D01*
X183788720Y-81000552D02*
X183741101Y-81095790D01*
X183741101Y-81095790D02*
X183693482Y-81143409D01*
X183693482Y-81143409D02*
X183598244Y-81191028D01*
X183598244Y-81191028D02*
X183217292Y-81191028D01*
X184122054Y-80667219D02*
X184360149Y-81667219D01*
X184360149Y-81667219D02*
X184550625Y-80952933D01*
X184550625Y-80952933D02*
X184741101Y-81667219D01*
X184741101Y-81667219D02*
X184979197Y-80667219D01*
X185360149Y-81667219D02*
X185360149Y-80667219D01*
X185360149Y-80667219D02*
X185693482Y-81381504D01*
X185693482Y-81381504D02*
X186026815Y-80667219D01*
X186026815Y-80667219D02*
X186026815Y-81667219D01*
X187931578Y-82048171D02*
X187979197Y-82000552D01*
X187979197Y-82000552D02*
X188074435Y-81857695D01*
X188074435Y-81857695D02*
X188122054Y-81762457D01*
X188122054Y-81762457D02*
X188169673Y-81619600D01*
X188169673Y-81619600D02*
X188217292Y-81381504D01*
X188217292Y-81381504D02*
X188217292Y-81191028D01*
X188217292Y-81191028D02*
X188169673Y-80952933D01*
X188169673Y-80952933D02*
X188122054Y-80810076D01*
X188122054Y-80810076D02*
X188074435Y-80714838D01*
X188074435Y-80714838D02*
X187979197Y-80571980D01*
X187979197Y-80571980D02*
X187931578Y-80524361D01*
X150981504Y-80677945D02*
X150981504Y-80201755D01*
X151267219Y-80773183D02*
X150267219Y-80439850D01*
X150267219Y-80439850D02*
X151267219Y-80106517D01*
X151267219Y-79201755D02*
X150791028Y-79535088D01*
X151267219Y-79773183D02*
X150267219Y-79773183D01*
X150267219Y-79773183D02*
X150267219Y-79392231D01*
X150267219Y-79392231D02*
X150314838Y-79296993D01*
X150314838Y-79296993D02*
X150362457Y-79249374D01*
X150362457Y-79249374D02*
X150457695Y-79201755D01*
X150457695Y-79201755D02*
X150600552Y-79201755D01*
X150600552Y-79201755D02*
X150695790Y-79249374D01*
X150695790Y-79249374D02*
X150743409Y-79296993D01*
X150743409Y-79296993D02*
X150791028Y-79392231D01*
X150791028Y-79392231D02*
X150791028Y-79773183D01*
X150743409Y-78773183D02*
X150743409Y-78439850D01*
X151267219Y-78296993D02*
X151267219Y-78773183D01*
X151267219Y-78773183D02*
X150267219Y-78773183D01*
X150267219Y-78773183D02*
X150267219Y-78296993D01*
X150743409Y-77535088D02*
X150743409Y-77868421D01*
X151267219Y-77868421D02*
X150267219Y-77868421D01*
X150267219Y-77868421D02*
X150267219Y-77392231D01*
X152714838Y-79506517D02*
X152667219Y-79601755D01*
X152667219Y-79601755D02*
X152667219Y-79744612D01*
X152667219Y-79744612D02*
X152714838Y-79887469D01*
X152714838Y-79887469D02*
X152810076Y-79982707D01*
X152810076Y-79982707D02*
X152905314Y-80030326D01*
X152905314Y-80030326D02*
X153095790Y-80077945D01*
X153095790Y-80077945D02*
X153238647Y-80077945D01*
X153238647Y-80077945D02*
X153429123Y-80030326D01*
X153429123Y-80030326D02*
X153524361Y-79982707D01*
X153524361Y-79982707D02*
X153619600Y-79887469D01*
X153619600Y-79887469D02*
X153667219Y-79744612D01*
X153667219Y-79744612D02*
X153667219Y-79649374D01*
X153667219Y-79649374D02*
X153619600Y-79506517D01*
X153619600Y-79506517D02*
X153571980Y-79458898D01*
X153571980Y-79458898D02*
X153238647Y-79458898D01*
X153238647Y-79458898D02*
X153238647Y-79649374D01*
X153667219Y-79030326D02*
X152667219Y-79030326D01*
X152667219Y-79030326D02*
X153667219Y-78458898D01*
X153667219Y-78458898D02*
X152667219Y-78458898D01*
X153667219Y-77982707D02*
X152667219Y-77982707D01*
X152667219Y-77982707D02*
X152667219Y-77744612D01*
X152667219Y-77744612D02*
X152714838Y-77601755D01*
X152714838Y-77601755D02*
X152810076Y-77506517D01*
X152810076Y-77506517D02*
X152905314Y-77458898D01*
X152905314Y-77458898D02*
X153095790Y-77411279D01*
X153095790Y-77411279D02*
X153238647Y-77411279D01*
X153238647Y-77411279D02*
X153429123Y-77458898D01*
X153429123Y-77458898D02*
X153524361Y-77506517D01*
X153524361Y-77506517D02*
X153619600Y-77601755D01*
X153619600Y-77601755D02*
X153667219Y-77744612D01*
X153667219Y-77744612D02*
X153667219Y-77982707D01*
X156267219Y-78506517D02*
X156267219Y-79077945D01*
X156267219Y-78792231D02*
X155267219Y-78792231D01*
X155267219Y-78792231D02*
X155410076Y-78887469D01*
X155410076Y-78887469D02*
X155505314Y-78982707D01*
X155505314Y-78982707D02*
X155552933Y-79077945D01*
X155267219Y-78173183D02*
X155267219Y-77554136D01*
X155267219Y-77554136D02*
X155648171Y-77887469D01*
X155648171Y-77887469D02*
X155648171Y-77744612D01*
X155648171Y-77744612D02*
X155695790Y-77649374D01*
X155695790Y-77649374D02*
X155743409Y-77601755D01*
X155743409Y-77601755D02*
X155838647Y-77554136D01*
X155838647Y-77554136D02*
X156076742Y-77554136D01*
X156076742Y-77554136D02*
X156171980Y-77601755D01*
X156171980Y-77601755D02*
X156219600Y-77649374D01*
X156219600Y-77649374D02*
X156267219Y-77744612D01*
X156267219Y-77744612D02*
X156267219Y-78030326D01*
X156267219Y-78030326D02*
X156219600Y-78125564D01*
X156219600Y-78125564D02*
X156171980Y-78173183D01*
X158667219Y-78306517D02*
X158667219Y-78877945D01*
X158667219Y-78592231D02*
X157667219Y-78592231D01*
X157667219Y-78592231D02*
X157810076Y-78687469D01*
X157810076Y-78687469D02*
X157905314Y-78782707D01*
X157905314Y-78782707D02*
X157952933Y-78877945D01*
X157762457Y-77925564D02*
X157714838Y-77877945D01*
X157714838Y-77877945D02*
X157667219Y-77782707D01*
X157667219Y-77782707D02*
X157667219Y-77544612D01*
X157667219Y-77544612D02*
X157714838Y-77449374D01*
X157714838Y-77449374D02*
X157762457Y-77401755D01*
X157762457Y-77401755D02*
X157857695Y-77354136D01*
X157857695Y-77354136D02*
X157952933Y-77354136D01*
X157952933Y-77354136D02*
X158095790Y-77401755D01*
X158095790Y-77401755D02*
X158667219Y-77973183D01*
X158667219Y-77973183D02*
X158667219Y-77354136D01*
X161267219Y-78506517D02*
X161267219Y-79077945D01*
X161267219Y-78792231D02*
X160267219Y-78792231D01*
X160267219Y-78792231D02*
X160410076Y-78887469D01*
X160410076Y-78887469D02*
X160505314Y-78982707D01*
X160505314Y-78982707D02*
X160552933Y-79077945D01*
X161267219Y-77554136D02*
X161267219Y-78125564D01*
X161267219Y-77839850D02*
X160267219Y-77839850D01*
X160267219Y-77839850D02*
X160410076Y-77935088D01*
X160410076Y-77935088D02*
X160505314Y-78030326D01*
X160505314Y-78030326D02*
X160552933Y-78125564D01*
X161947219Y-118595564D02*
X161947219Y-117976517D01*
X161947219Y-117976517D02*
X162328171Y-118309850D01*
X162328171Y-118309850D02*
X162328171Y-118166993D01*
X162328171Y-118166993D02*
X162375790Y-118071755D01*
X162375790Y-118071755D02*
X162423409Y-118024136D01*
X162423409Y-118024136D02*
X162518647Y-117976517D01*
X162518647Y-117976517D02*
X162756742Y-117976517D01*
X162756742Y-117976517D02*
X162851980Y-118024136D01*
X162851980Y-118024136D02*
X162899600Y-118071755D01*
X162899600Y-118071755D02*
X162947219Y-118166993D01*
X162947219Y-118166993D02*
X162947219Y-118452707D01*
X162947219Y-118452707D02*
X162899600Y-118547945D01*
X162899600Y-118547945D02*
X162851980Y-118595564D01*
X162851980Y-117547945D02*
X162899600Y-117500326D01*
X162899600Y-117500326D02*
X162947219Y-117547945D01*
X162947219Y-117547945D02*
X162899600Y-117595564D01*
X162899600Y-117595564D02*
X162851980Y-117547945D01*
X162851980Y-117547945D02*
X162947219Y-117547945D01*
X161947219Y-117166993D02*
X161947219Y-116547946D01*
X161947219Y-116547946D02*
X162328171Y-116881279D01*
X162328171Y-116881279D02*
X162328171Y-116738422D01*
X162328171Y-116738422D02*
X162375790Y-116643184D01*
X162375790Y-116643184D02*
X162423409Y-116595565D01*
X162423409Y-116595565D02*
X162518647Y-116547946D01*
X162518647Y-116547946D02*
X162756742Y-116547946D01*
X162756742Y-116547946D02*
X162851980Y-116595565D01*
X162851980Y-116595565D02*
X162899600Y-116643184D01*
X162899600Y-116643184D02*
X162947219Y-116738422D01*
X162947219Y-116738422D02*
X162947219Y-117024136D01*
X162947219Y-117024136D02*
X162899600Y-117119374D01*
X162899600Y-117119374D02*
X162851980Y-117166993D01*
X161947219Y-116262231D02*
X162947219Y-115928898D01*
X162947219Y-115928898D02*
X161947219Y-115595565D01*
X163867219Y-78506517D02*
X163867219Y-79077945D01*
X163867219Y-78792231D02*
X162867219Y-78792231D01*
X162867219Y-78792231D02*
X163010076Y-78887469D01*
X163010076Y-78887469D02*
X163105314Y-78982707D01*
X163105314Y-78982707D02*
X163152933Y-79077945D01*
X162867219Y-77887469D02*
X162867219Y-77792231D01*
X162867219Y-77792231D02*
X162914838Y-77696993D01*
X162914838Y-77696993D02*
X162962457Y-77649374D01*
X162962457Y-77649374D02*
X163057695Y-77601755D01*
X163057695Y-77601755D02*
X163248171Y-77554136D01*
X163248171Y-77554136D02*
X163486266Y-77554136D01*
X163486266Y-77554136D02*
X163676742Y-77601755D01*
X163676742Y-77601755D02*
X163771980Y-77649374D01*
X163771980Y-77649374D02*
X163819600Y-77696993D01*
X163819600Y-77696993D02*
X163867219Y-77792231D01*
X163867219Y-77792231D02*
X163867219Y-77887469D01*
X163867219Y-77887469D02*
X163819600Y-77982707D01*
X163819600Y-77982707D02*
X163771980Y-78030326D01*
X163771980Y-78030326D02*
X163676742Y-78077945D01*
X163676742Y-78077945D02*
X163486266Y-78125564D01*
X163486266Y-78125564D02*
X163248171Y-78125564D01*
X163248171Y-78125564D02*
X163057695Y-78077945D01*
X163057695Y-78077945D02*
X162962457Y-78030326D01*
X162962457Y-78030326D02*
X162914838Y-77982707D01*
X162914838Y-77982707D02*
X162867219Y-77887469D01*
X164947219Y-117524136D02*
X164947219Y-118000326D01*
X164947219Y-118000326D02*
X165423409Y-118047945D01*
X165423409Y-118047945D02*
X165375790Y-118000326D01*
X165375790Y-118000326D02*
X165328171Y-117905088D01*
X165328171Y-117905088D02*
X165328171Y-117666993D01*
X165328171Y-117666993D02*
X165375790Y-117571755D01*
X165375790Y-117571755D02*
X165423409Y-117524136D01*
X165423409Y-117524136D02*
X165518647Y-117476517D01*
X165518647Y-117476517D02*
X165756742Y-117476517D01*
X165756742Y-117476517D02*
X165851980Y-117524136D01*
X165851980Y-117524136D02*
X165899600Y-117571755D01*
X165899600Y-117571755D02*
X165947219Y-117666993D01*
X165947219Y-117666993D02*
X165947219Y-117905088D01*
X165947219Y-117905088D02*
X165899600Y-118000326D01*
X165899600Y-118000326D02*
X165851980Y-118047945D01*
X164947219Y-117190802D02*
X165947219Y-116857469D01*
X165947219Y-116857469D02*
X164947219Y-116524136D01*
X166367219Y-78582707D02*
X166367219Y-78392231D01*
X166367219Y-78392231D02*
X166319600Y-78296993D01*
X166319600Y-78296993D02*
X166271980Y-78249374D01*
X166271980Y-78249374D02*
X166129123Y-78154136D01*
X166129123Y-78154136D02*
X165938647Y-78106517D01*
X165938647Y-78106517D02*
X165557695Y-78106517D01*
X165557695Y-78106517D02*
X165462457Y-78154136D01*
X165462457Y-78154136D02*
X165414838Y-78201755D01*
X165414838Y-78201755D02*
X165367219Y-78296993D01*
X165367219Y-78296993D02*
X165367219Y-78487469D01*
X165367219Y-78487469D02*
X165414838Y-78582707D01*
X165414838Y-78582707D02*
X165462457Y-78630326D01*
X165462457Y-78630326D02*
X165557695Y-78677945D01*
X165557695Y-78677945D02*
X165795790Y-78677945D01*
X165795790Y-78677945D02*
X165891028Y-78630326D01*
X165891028Y-78630326D02*
X165938647Y-78582707D01*
X165938647Y-78582707D02*
X165986266Y-78487469D01*
X165986266Y-78487469D02*
X165986266Y-78296993D01*
X165986266Y-78296993D02*
X165938647Y-78201755D01*
X165938647Y-78201755D02*
X165891028Y-78154136D01*
X165891028Y-78154136D02*
X165795790Y-78106517D01*
X168295790Y-78487469D02*
X168248171Y-78582707D01*
X168248171Y-78582707D02*
X168200552Y-78630326D01*
X168200552Y-78630326D02*
X168105314Y-78677945D01*
X168105314Y-78677945D02*
X168057695Y-78677945D01*
X168057695Y-78677945D02*
X167962457Y-78630326D01*
X167962457Y-78630326D02*
X167914838Y-78582707D01*
X167914838Y-78582707D02*
X167867219Y-78487469D01*
X167867219Y-78487469D02*
X167867219Y-78296993D01*
X167867219Y-78296993D02*
X167914838Y-78201755D01*
X167914838Y-78201755D02*
X167962457Y-78154136D01*
X167962457Y-78154136D02*
X168057695Y-78106517D01*
X168057695Y-78106517D02*
X168105314Y-78106517D01*
X168105314Y-78106517D02*
X168200552Y-78154136D01*
X168200552Y-78154136D02*
X168248171Y-78201755D01*
X168248171Y-78201755D02*
X168295790Y-78296993D01*
X168295790Y-78296993D02*
X168295790Y-78487469D01*
X168295790Y-78487469D02*
X168343409Y-78582707D01*
X168343409Y-78582707D02*
X168391028Y-78630326D01*
X168391028Y-78630326D02*
X168486266Y-78677945D01*
X168486266Y-78677945D02*
X168676742Y-78677945D01*
X168676742Y-78677945D02*
X168771980Y-78630326D01*
X168771980Y-78630326D02*
X168819600Y-78582707D01*
X168819600Y-78582707D02*
X168867219Y-78487469D01*
X168867219Y-78487469D02*
X168867219Y-78296993D01*
X168867219Y-78296993D02*
X168819600Y-78201755D01*
X168819600Y-78201755D02*
X168771980Y-78154136D01*
X168771980Y-78154136D02*
X168676742Y-78106517D01*
X168676742Y-78106517D02*
X168486266Y-78106517D01*
X168486266Y-78106517D02*
X168391028Y-78154136D01*
X168391028Y-78154136D02*
X168343409Y-78201755D01*
X168343409Y-78201755D02*
X168295790Y-78296993D01*
X167994838Y-117976517D02*
X167947219Y-118071755D01*
X167947219Y-118071755D02*
X167947219Y-118214612D01*
X167947219Y-118214612D02*
X167994838Y-118357469D01*
X167994838Y-118357469D02*
X168090076Y-118452707D01*
X168090076Y-118452707D02*
X168185314Y-118500326D01*
X168185314Y-118500326D02*
X168375790Y-118547945D01*
X168375790Y-118547945D02*
X168518647Y-118547945D01*
X168518647Y-118547945D02*
X168709123Y-118500326D01*
X168709123Y-118500326D02*
X168804361Y-118452707D01*
X168804361Y-118452707D02*
X168899600Y-118357469D01*
X168899600Y-118357469D02*
X168947219Y-118214612D01*
X168947219Y-118214612D02*
X168947219Y-118119374D01*
X168947219Y-118119374D02*
X168899600Y-117976517D01*
X168899600Y-117976517D02*
X168851980Y-117928898D01*
X168851980Y-117928898D02*
X168518647Y-117928898D01*
X168518647Y-117928898D02*
X168518647Y-118119374D01*
X168947219Y-117500326D02*
X167947219Y-117500326D01*
X167947219Y-117500326D02*
X168947219Y-116928898D01*
X168947219Y-116928898D02*
X167947219Y-116928898D01*
X168947219Y-116452707D02*
X167947219Y-116452707D01*
X167947219Y-116452707D02*
X167947219Y-116214612D01*
X167947219Y-116214612D02*
X167994838Y-116071755D01*
X167994838Y-116071755D02*
X168090076Y-115976517D01*
X168090076Y-115976517D02*
X168185314Y-115928898D01*
X168185314Y-115928898D02*
X168375790Y-115881279D01*
X168375790Y-115881279D02*
X168518647Y-115881279D01*
X168518647Y-115881279D02*
X168709123Y-115928898D01*
X168709123Y-115928898D02*
X168804361Y-115976517D01*
X168804361Y-115976517D02*
X168899600Y-116071755D01*
X168899600Y-116071755D02*
X168947219Y-116214612D01*
X168947219Y-116214612D02*
X168947219Y-116452707D01*
X170994838Y-117976517D02*
X170947219Y-118071755D01*
X170947219Y-118071755D02*
X170947219Y-118214612D01*
X170947219Y-118214612D02*
X170994838Y-118357469D01*
X170994838Y-118357469D02*
X171090076Y-118452707D01*
X171090076Y-118452707D02*
X171185314Y-118500326D01*
X171185314Y-118500326D02*
X171375790Y-118547945D01*
X171375790Y-118547945D02*
X171518647Y-118547945D01*
X171518647Y-118547945D02*
X171709123Y-118500326D01*
X171709123Y-118500326D02*
X171804361Y-118452707D01*
X171804361Y-118452707D02*
X171899600Y-118357469D01*
X171899600Y-118357469D02*
X171947219Y-118214612D01*
X171947219Y-118214612D02*
X171947219Y-118119374D01*
X171947219Y-118119374D02*
X171899600Y-117976517D01*
X171899600Y-117976517D02*
X171851980Y-117928898D01*
X171851980Y-117928898D02*
X171518647Y-117928898D01*
X171518647Y-117928898D02*
X171518647Y-118119374D01*
X171947219Y-117500326D02*
X170947219Y-117500326D01*
X170947219Y-117500326D02*
X171947219Y-116928898D01*
X171947219Y-116928898D02*
X170947219Y-116928898D01*
X171947219Y-116452707D02*
X170947219Y-116452707D01*
X170947219Y-116452707D02*
X170947219Y-116214612D01*
X170947219Y-116214612D02*
X170994838Y-116071755D01*
X170994838Y-116071755D02*
X171090076Y-115976517D01*
X171090076Y-115976517D02*
X171185314Y-115928898D01*
X171185314Y-115928898D02*
X171375790Y-115881279D01*
X171375790Y-115881279D02*
X171518647Y-115881279D01*
X171518647Y-115881279D02*
X171709123Y-115928898D01*
X171709123Y-115928898D02*
X171804361Y-115976517D01*
X171804361Y-115976517D02*
X171899600Y-116071755D01*
X171899600Y-116071755D02*
X171947219Y-116214612D01*
X171947219Y-116214612D02*
X171947219Y-116452707D01*
X173367219Y-78475564D02*
X173367219Y-77808898D01*
X173367219Y-77808898D02*
X174367219Y-78237469D01*
X175867219Y-77951755D02*
X175867219Y-78142231D01*
X175867219Y-78142231D02*
X175914838Y-78237469D01*
X175914838Y-78237469D02*
X175962457Y-78285088D01*
X175962457Y-78285088D02*
X176105314Y-78380326D01*
X176105314Y-78380326D02*
X176295790Y-78427945D01*
X176295790Y-78427945D02*
X176676742Y-78427945D01*
X176676742Y-78427945D02*
X176771980Y-78380326D01*
X176771980Y-78380326D02*
X176819600Y-78332707D01*
X176819600Y-78332707D02*
X176867219Y-78237469D01*
X176867219Y-78237469D02*
X176867219Y-78046993D01*
X176867219Y-78046993D02*
X176819600Y-77951755D01*
X176819600Y-77951755D02*
X176771980Y-77904136D01*
X176771980Y-77904136D02*
X176676742Y-77856517D01*
X176676742Y-77856517D02*
X176438647Y-77856517D01*
X176438647Y-77856517D02*
X176343409Y-77904136D01*
X176343409Y-77904136D02*
X176295790Y-77951755D01*
X176295790Y-77951755D02*
X176248171Y-78046993D01*
X176248171Y-78046993D02*
X176248171Y-78237469D01*
X176248171Y-78237469D02*
X176295790Y-78332707D01*
X176295790Y-78332707D02*
X176343409Y-78380326D01*
X176343409Y-78380326D02*
X176438647Y-78427945D01*
X178661504Y-118547945D02*
X178661504Y-118071755D01*
X178947219Y-118643183D02*
X177947219Y-118309850D01*
X177947219Y-118309850D02*
X178947219Y-117976517D01*
X177947219Y-117452707D02*
X177947219Y-117357469D01*
X177947219Y-117357469D02*
X177994838Y-117262231D01*
X177994838Y-117262231D02*
X178042457Y-117214612D01*
X178042457Y-117214612D02*
X178137695Y-117166993D01*
X178137695Y-117166993D02*
X178328171Y-117119374D01*
X178328171Y-117119374D02*
X178566266Y-117119374D01*
X178566266Y-117119374D02*
X178756742Y-117166993D01*
X178756742Y-117166993D02*
X178851980Y-117214612D01*
X178851980Y-117214612D02*
X178899600Y-117262231D01*
X178899600Y-117262231D02*
X178947219Y-117357469D01*
X178947219Y-117357469D02*
X178947219Y-117452707D01*
X178947219Y-117452707D02*
X178899600Y-117547945D01*
X178899600Y-117547945D02*
X178851980Y-117595564D01*
X178851980Y-117595564D02*
X178756742Y-117643183D01*
X178756742Y-117643183D02*
X178566266Y-117690802D01*
X178566266Y-117690802D02*
X178328171Y-117690802D01*
X178328171Y-117690802D02*
X178137695Y-117643183D01*
X178137695Y-117643183D02*
X178042457Y-117595564D01*
X178042457Y-117595564D02*
X177994838Y-117547945D01*
X177994838Y-117547945D02*
X177947219Y-117452707D01*
X178617219Y-77904136D02*
X178617219Y-78380326D01*
X178617219Y-78380326D02*
X179093409Y-78427945D01*
X179093409Y-78427945D02*
X179045790Y-78380326D01*
X179045790Y-78380326D02*
X178998171Y-78285088D01*
X178998171Y-78285088D02*
X178998171Y-78046993D01*
X178998171Y-78046993D02*
X179045790Y-77951755D01*
X179045790Y-77951755D02*
X179093409Y-77904136D01*
X179093409Y-77904136D02*
X179188647Y-77856517D01*
X179188647Y-77856517D02*
X179426742Y-77856517D01*
X179426742Y-77856517D02*
X179521980Y-77904136D01*
X179521980Y-77904136D02*
X179569600Y-77951755D01*
X179569600Y-77951755D02*
X179617219Y-78046993D01*
X179617219Y-78046993D02*
X179617219Y-78285088D01*
X179617219Y-78285088D02*
X179569600Y-78380326D01*
X179569600Y-78380326D02*
X179521980Y-78427945D01*
X181161504Y-118547945D02*
X181161504Y-118071755D01*
X181447219Y-118643183D02*
X180447219Y-118309850D01*
X180447219Y-118309850D02*
X181447219Y-117976517D01*
X181447219Y-117119374D02*
X181447219Y-117690802D01*
X181447219Y-117405088D02*
X180447219Y-117405088D01*
X180447219Y-117405088D02*
X180590076Y-117500326D01*
X180590076Y-117500326D02*
X180685314Y-117595564D01*
X180685314Y-117595564D02*
X180732933Y-117690802D01*
X181450552Y-77951755D02*
X182117219Y-77951755D01*
X181069600Y-78189850D02*
X181783885Y-78427945D01*
X181783885Y-78427945D02*
X181783885Y-77808898D01*
X183911504Y-118547945D02*
X183911504Y-118071755D01*
X184197219Y-118643183D02*
X183197219Y-118309850D01*
X183197219Y-118309850D02*
X184197219Y-117976517D01*
X183292457Y-117690802D02*
X183244838Y-117643183D01*
X183244838Y-117643183D02*
X183197219Y-117547945D01*
X183197219Y-117547945D02*
X183197219Y-117309850D01*
X183197219Y-117309850D02*
X183244838Y-117214612D01*
X183244838Y-117214612D02*
X183292457Y-117166993D01*
X183292457Y-117166993D02*
X183387695Y-117119374D01*
X183387695Y-117119374D02*
X183482933Y-117119374D01*
X183482933Y-117119374D02*
X183625790Y-117166993D01*
X183625790Y-117166993D02*
X184197219Y-117738421D01*
X184197219Y-117738421D02*
X184197219Y-117119374D01*
X183367219Y-78225564D02*
X183367219Y-77606517D01*
X183367219Y-77606517D02*
X183748171Y-77939850D01*
X183748171Y-77939850D02*
X183748171Y-77796993D01*
X183748171Y-77796993D02*
X183795790Y-77701755D01*
X183795790Y-77701755D02*
X183843409Y-77654136D01*
X183843409Y-77654136D02*
X183938647Y-77606517D01*
X183938647Y-77606517D02*
X184176742Y-77606517D01*
X184176742Y-77606517D02*
X184271980Y-77654136D01*
X184271980Y-77654136D02*
X184319600Y-77701755D01*
X184319600Y-77701755D02*
X184367219Y-77796993D01*
X184367219Y-77796993D02*
X184367219Y-78082707D01*
X184367219Y-78082707D02*
X184319600Y-78177945D01*
X184319600Y-78177945D02*
X184271980Y-78225564D01*
X186411504Y-118547945D02*
X186411504Y-118071755D01*
X186697219Y-118643183D02*
X185697219Y-118309850D01*
X185697219Y-118309850D02*
X186697219Y-117976517D01*
X185697219Y-117738421D02*
X185697219Y-117119374D01*
X185697219Y-117119374D02*
X186078171Y-117452707D01*
X186078171Y-117452707D02*
X186078171Y-117309850D01*
X186078171Y-117309850D02*
X186125790Y-117214612D01*
X186125790Y-117214612D02*
X186173409Y-117166993D01*
X186173409Y-117166993D02*
X186268647Y-117119374D01*
X186268647Y-117119374D02*
X186506742Y-117119374D01*
X186506742Y-117119374D02*
X186601980Y-117166993D01*
X186601980Y-117166993D02*
X186649600Y-117214612D01*
X186649600Y-117214612D02*
X186697219Y-117309850D01*
X186697219Y-117309850D02*
X186697219Y-117595564D01*
X186697219Y-117595564D02*
X186649600Y-117690802D01*
X186649600Y-117690802D02*
X186601980Y-117738421D01*
X185962457Y-78177945D02*
X185914838Y-78130326D01*
X185914838Y-78130326D02*
X185867219Y-78035088D01*
X185867219Y-78035088D02*
X185867219Y-77796993D01*
X185867219Y-77796993D02*
X185914838Y-77701755D01*
X185914838Y-77701755D02*
X185962457Y-77654136D01*
X185962457Y-77654136D02*
X186057695Y-77606517D01*
X186057695Y-77606517D02*
X186152933Y-77606517D01*
X186152933Y-77606517D02*
X186295790Y-77654136D01*
X186295790Y-77654136D02*
X186867219Y-78225564D01*
X186867219Y-78225564D02*
X186867219Y-77606517D01*
X189161504Y-118547945D02*
X189161504Y-118071755D01*
X189447219Y-118643183D02*
X188447219Y-118309850D01*
X188447219Y-118309850D02*
X189447219Y-117976517D01*
X188780552Y-117214612D02*
X189447219Y-117214612D01*
X188399600Y-117452707D02*
X189113885Y-117690802D01*
X189113885Y-117690802D02*
X189113885Y-117071755D01*
X188867219Y-80773183D02*
X188867219Y-80201755D01*
X189867219Y-80487469D02*
X188867219Y-80487469D01*
X188867219Y-79963659D02*
X189867219Y-79296993D01*
X188867219Y-79296993D02*
X189867219Y-79963659D01*
X189486266Y-78916040D02*
X189486266Y-78154136D01*
X189867219Y-77154136D02*
X189867219Y-77725564D01*
X189867219Y-77439850D02*
X188867219Y-77439850D01*
X188867219Y-77439850D02*
X189010076Y-77535088D01*
X189010076Y-77535088D02*
X189105314Y-77630326D01*
X189105314Y-77630326D02*
X189152933Y-77725564D01*
X192197219Y-80428898D02*
X191721028Y-80762231D01*
X192197219Y-81000326D02*
X191197219Y-81000326D01*
X191197219Y-81000326D02*
X191197219Y-80619374D01*
X191197219Y-80619374D02*
X191244838Y-80524136D01*
X191244838Y-80524136D02*
X191292457Y-80476517D01*
X191292457Y-80476517D02*
X191387695Y-80428898D01*
X191387695Y-80428898D02*
X191530552Y-80428898D01*
X191530552Y-80428898D02*
X191625790Y-80476517D01*
X191625790Y-80476517D02*
X191673409Y-80524136D01*
X191673409Y-80524136D02*
X191721028Y-80619374D01*
X191721028Y-80619374D02*
X191721028Y-81000326D01*
X191197219Y-80095564D02*
X192197219Y-79428898D01*
X191197219Y-79428898D02*
X192197219Y-80095564D01*
X191816266Y-79047945D02*
X191816266Y-78286041D01*
X191197219Y-77619374D02*
X191197219Y-77524136D01*
X191197219Y-77524136D02*
X191244838Y-77428898D01*
X191244838Y-77428898D02*
X191292457Y-77381279D01*
X191292457Y-77381279D02*
X191387695Y-77333660D01*
X191387695Y-77333660D02*
X191578171Y-77286041D01*
X191578171Y-77286041D02*
X191816266Y-77286041D01*
X191816266Y-77286041D02*
X192006742Y-77333660D01*
X192006742Y-77333660D02*
X192101980Y-77381279D01*
X192101980Y-77381279D02*
X192149600Y-77428898D01*
X192149600Y-77428898D02*
X192197219Y-77524136D01*
X192197219Y-77524136D02*
X192197219Y-77619374D01*
X192197219Y-77619374D02*
X192149600Y-77714612D01*
X192149600Y-77714612D02*
X192101980Y-77762231D01*
X192101980Y-77762231D02*
X192006742Y-77809850D01*
X192006742Y-77809850D02*
X191816266Y-77857469D01*
X191816266Y-77857469D02*
X191578171Y-77857469D01*
X191578171Y-77857469D02*
X191387695Y-77809850D01*
X191387695Y-77809850D02*
X191292457Y-77762231D01*
X191292457Y-77762231D02*
X191244838Y-77714612D01*
X191244838Y-77714612D02*
X191197219Y-77619374D01*
X191911504Y-118547945D02*
X191911504Y-118071755D01*
X192197219Y-118643183D02*
X191197219Y-118309850D01*
X191197219Y-118309850D02*
X192197219Y-117976517D01*
X191197219Y-117166993D02*
X191197219Y-117643183D01*
X191197219Y-117643183D02*
X191673409Y-117690802D01*
X191673409Y-117690802D02*
X191625790Y-117643183D01*
X191625790Y-117643183D02*
X191578171Y-117547945D01*
X191578171Y-117547945D02*
X191578171Y-117309850D01*
X191578171Y-117309850D02*
X191625790Y-117214612D01*
X191625790Y-117214612D02*
X191673409Y-117166993D01*
X191673409Y-117166993D02*
X191768647Y-117119374D01*
X191768647Y-117119374D02*
X192006742Y-117119374D01*
X192006742Y-117119374D02*
X192101980Y-117166993D01*
X192101980Y-117166993D02*
X192149600Y-117214612D01*
X192149600Y-117214612D02*
X192197219Y-117309850D01*
X192197219Y-117309850D02*
X192197219Y-117547945D01*
X192197219Y-117547945D02*
X192149600Y-117643183D01*
X192149600Y-117643183D02*
X192101980Y-117690802D01*
D14*
X173944619Y-118360288D02*
X174944619Y-118026955D01*
X174944619Y-118026955D02*
X173944619Y-117693622D01*
X174944619Y-117360288D02*
X173944619Y-117360288D01*
X174944619Y-116884098D02*
X173944619Y-116884098D01*
X173944619Y-116884098D02*
X174944619Y-116312670D01*
X174944619Y-116312670D02*
X173944619Y-116312670D01*
D11*
X170803809Y-96898628D02*
X170803809Y-97374819D01*
X170470476Y-96374819D02*
X170803809Y-96898628D01*
X170803809Y-96898628D02*
X171137142Y-96374819D01*
X171422857Y-96470057D02*
X171470476Y-96422438D01*
X171470476Y-96422438D02*
X171565714Y-96374819D01*
X171565714Y-96374819D02*
X171803809Y-96374819D01*
X171803809Y-96374819D02*
X171899047Y-96422438D01*
X171899047Y-96422438D02*
X171946666Y-96470057D01*
X171946666Y-96470057D02*
X171994285Y-96565295D01*
X171994285Y-96565295D02*
X171994285Y-96660533D01*
X171994285Y-96660533D02*
X171946666Y-96803390D01*
X171946666Y-96803390D02*
X171375238Y-97374819D01*
X171375238Y-97374819D02*
X171994285Y-97374819D01*
X160913333Y-96479580D02*
X160865714Y-96527200D01*
X160865714Y-96527200D02*
X160722857Y-96574819D01*
X160722857Y-96574819D02*
X160627619Y-96574819D01*
X160627619Y-96574819D02*
X160484762Y-96527200D01*
X160484762Y-96527200D02*
X160389524Y-96431961D01*
X160389524Y-96431961D02*
X160341905Y-96336723D01*
X160341905Y-96336723D02*
X160294286Y-96146247D01*
X160294286Y-96146247D02*
X160294286Y-96003390D01*
X160294286Y-96003390D02*
X160341905Y-95812914D01*
X160341905Y-95812914D02*
X160389524Y-95717676D01*
X160389524Y-95717676D02*
X160484762Y-95622438D01*
X160484762Y-95622438D02*
X160627619Y-95574819D01*
X160627619Y-95574819D02*
X160722857Y-95574819D01*
X160722857Y-95574819D02*
X160865714Y-95622438D01*
X160865714Y-95622438D02*
X160913333Y-95670057D01*
X161818095Y-95574819D02*
X161341905Y-95574819D01*
X161341905Y-95574819D02*
X161294286Y-96051009D01*
X161294286Y-96051009D02*
X161341905Y-96003390D01*
X161341905Y-96003390D02*
X161437143Y-95955771D01*
X161437143Y-95955771D02*
X161675238Y-95955771D01*
X161675238Y-95955771D02*
X161770476Y-96003390D01*
X161770476Y-96003390D02*
X161818095Y-96051009D01*
X161818095Y-96051009D02*
X161865714Y-96146247D01*
X161865714Y-96146247D02*
X161865714Y-96384342D01*
X161865714Y-96384342D02*
X161818095Y-96479580D01*
X161818095Y-96479580D02*
X161770476Y-96527200D01*
X161770476Y-96527200D02*
X161675238Y-96574819D01*
X161675238Y-96574819D02*
X161437143Y-96574819D01*
X161437143Y-96574819D02*
X161341905Y-96527200D01*
X161341905Y-96527200D02*
X161294286Y-96479580D01*
X145534819Y-80703333D02*
X146249104Y-80703333D01*
X146249104Y-80703333D02*
X146391961Y-80750952D01*
X146391961Y-80750952D02*
X146487200Y-80846190D01*
X146487200Y-80846190D02*
X146534819Y-80989047D01*
X146534819Y-80989047D02*
X146534819Y-81084285D01*
X145534819Y-79750952D02*
X145534819Y-80227142D01*
X145534819Y-80227142D02*
X146011009Y-80274761D01*
X146011009Y-80274761D02*
X145963390Y-80227142D01*
X145963390Y-80227142D02*
X145915771Y-80131904D01*
X145915771Y-80131904D02*
X145915771Y-79893809D01*
X145915771Y-79893809D02*
X145963390Y-79798571D01*
X145963390Y-79798571D02*
X146011009Y-79750952D01*
X146011009Y-79750952D02*
X146106247Y-79703333D01*
X146106247Y-79703333D02*
X146344342Y-79703333D01*
X146344342Y-79703333D02*
X146439580Y-79750952D01*
X146439580Y-79750952D02*
X146487200Y-79798571D01*
X146487200Y-79798571D02*
X146534819Y-79893809D01*
X146534819Y-79893809D02*
X146534819Y-80131904D01*
X146534819Y-80131904D02*
X146487200Y-80227142D01*
X146487200Y-80227142D02*
X146439580Y-80274761D01*
X192976666Y-98244819D02*
X192976666Y-98959104D01*
X192976666Y-98959104D02*
X192929047Y-99101961D01*
X192929047Y-99101961D02*
X192833809Y-99197200D01*
X192833809Y-99197200D02*
X192690952Y-99244819D01*
X192690952Y-99244819D02*
X192595714Y-99244819D01*
X193357619Y-98244819D02*
X193976666Y-98244819D01*
X193976666Y-98244819D02*
X193643333Y-98625771D01*
X193643333Y-98625771D02*
X193786190Y-98625771D01*
X193786190Y-98625771D02*
X193881428Y-98673390D01*
X193881428Y-98673390D02*
X193929047Y-98721009D01*
X193929047Y-98721009D02*
X193976666Y-98816247D01*
X193976666Y-98816247D02*
X193976666Y-99054342D01*
X193976666Y-99054342D02*
X193929047Y-99149580D01*
X193929047Y-99149580D02*
X193881428Y-99197200D01*
X193881428Y-99197200D02*
X193786190Y-99244819D01*
X193786190Y-99244819D02*
X193500476Y-99244819D01*
X193500476Y-99244819D02*
X193405238Y-99197200D01*
X193405238Y-99197200D02*
X193357619Y-99149580D01*
X129296666Y-121117319D02*
X129296666Y-121831604D01*
X129296666Y-121831604D02*
X129249047Y-121974461D01*
X129249047Y-121974461D02*
X129153809Y-122069700D01*
X129153809Y-122069700D02*
X129010952Y-122117319D01*
X129010952Y-122117319D02*
X128915714Y-122117319D01*
X129725238Y-121212557D02*
X129772857Y-121164938D01*
X129772857Y-121164938D02*
X129868095Y-121117319D01*
X129868095Y-121117319D02*
X130106190Y-121117319D01*
X130106190Y-121117319D02*
X130201428Y-121164938D01*
X130201428Y-121164938D02*
X130249047Y-121212557D01*
X130249047Y-121212557D02*
X130296666Y-121307795D01*
X130296666Y-121307795D02*
X130296666Y-121403033D01*
X130296666Y-121403033D02*
X130249047Y-121545890D01*
X130249047Y-121545890D02*
X129677619Y-122117319D01*
X129677619Y-122117319D02*
X130296666Y-122117319D01*
X146837261Y-94004819D02*
X146503928Y-93528628D01*
X146265833Y-94004819D02*
X146265833Y-93004819D01*
X146265833Y-93004819D02*
X146646785Y-93004819D01*
X146646785Y-93004819D02*
X146742023Y-93052438D01*
X146742023Y-93052438D02*
X146789642Y-93100057D01*
X146789642Y-93100057D02*
X146837261Y-93195295D01*
X146837261Y-93195295D02*
X146837261Y-93338152D01*
X146837261Y-93338152D02*
X146789642Y-93433390D01*
X146789642Y-93433390D02*
X146742023Y-93481009D01*
X146742023Y-93481009D02*
X146646785Y-93528628D01*
X146646785Y-93528628D02*
X146265833Y-93528628D01*
X147122976Y-93004819D02*
X147456309Y-94004819D01*
X147456309Y-94004819D02*
X147789642Y-93004819D01*
X148075357Y-93100057D02*
X148122976Y-93052438D01*
X148122976Y-93052438D02*
X148218214Y-93004819D01*
X148218214Y-93004819D02*
X148456309Y-93004819D01*
X148456309Y-93004819D02*
X148551547Y-93052438D01*
X148551547Y-93052438D02*
X148599166Y-93100057D01*
X148599166Y-93100057D02*
X148646785Y-93195295D01*
X148646785Y-93195295D02*
X148646785Y-93290533D01*
X148646785Y-93290533D02*
X148599166Y-93433390D01*
X148599166Y-93433390D02*
X148027738Y-94004819D01*
X148027738Y-94004819D02*
X148646785Y-94004819D01*
X140669819Y-86083333D02*
X141384104Y-86083333D01*
X141384104Y-86083333D02*
X141526961Y-86130952D01*
X141526961Y-86130952D02*
X141622200Y-86226190D01*
X141622200Y-86226190D02*
X141669819Y-86369047D01*
X141669819Y-86369047D02*
X141669819Y-86464285D01*
X141669819Y-85083333D02*
X141669819Y-85654761D01*
X141669819Y-85369047D02*
X140669819Y-85369047D01*
X140669819Y-85369047D02*
X140812676Y-85464285D01*
X140812676Y-85464285D02*
X140907914Y-85559523D01*
X140907914Y-85559523D02*
X140955533Y-85654761D01*
X155068095Y-83624819D02*
X155068095Y-84434342D01*
X155068095Y-84434342D02*
X155115714Y-84529580D01*
X155115714Y-84529580D02*
X155163333Y-84577200D01*
X155163333Y-84577200D02*
X155258571Y-84624819D01*
X155258571Y-84624819D02*
X155449047Y-84624819D01*
X155449047Y-84624819D02*
X155544285Y-84577200D01*
X155544285Y-84577200D02*
X155591904Y-84529580D01*
X155591904Y-84529580D02*
X155639523Y-84434342D01*
X155639523Y-84434342D02*
X155639523Y-83624819D01*
X156591904Y-83624819D02*
X156115714Y-83624819D01*
X156115714Y-83624819D02*
X156068095Y-84101009D01*
X156068095Y-84101009D02*
X156115714Y-84053390D01*
X156115714Y-84053390D02*
X156210952Y-84005771D01*
X156210952Y-84005771D02*
X156449047Y-84005771D01*
X156449047Y-84005771D02*
X156544285Y-84053390D01*
X156544285Y-84053390D02*
X156591904Y-84101009D01*
X156591904Y-84101009D02*
X156639523Y-84196247D01*
X156639523Y-84196247D02*
X156639523Y-84434342D01*
X156639523Y-84434342D02*
X156591904Y-84529580D01*
X156591904Y-84529580D02*
X156544285Y-84577200D01*
X156544285Y-84577200D02*
X156449047Y-84624819D01*
X156449047Y-84624819D02*
X156210952Y-84624819D01*
X156210952Y-84624819D02*
X156115714Y-84577200D01*
X156115714Y-84577200D02*
X156068095Y-84529580D01*
X136749867Y-99378338D02*
X136749867Y-99712151D01*
X137274431Y-99712151D02*
X136272990Y-99712151D01*
X136272990Y-99712151D02*
X136272990Y-99235275D01*
X137274431Y-98329209D02*
X137274431Y-98901461D01*
X137274431Y-98615335D02*
X136272990Y-98615335D01*
X136272990Y-98615335D02*
X136416053Y-98710710D01*
X136416053Y-98710710D02*
X136511429Y-98806086D01*
X136511429Y-98806086D02*
X136559116Y-98901461D01*
X151341905Y-89074819D02*
X151913333Y-89074819D01*
X151627619Y-90074819D02*
X151627619Y-89074819D01*
X152151429Y-89074819D02*
X152818095Y-90074819D01*
X152818095Y-89074819D02*
X152151429Y-90074819D01*
X153722857Y-90074819D02*
X153151429Y-90074819D01*
X153437143Y-90074819D02*
X153437143Y-89074819D01*
X153437143Y-89074819D02*
X153341905Y-89217676D01*
X153341905Y-89217676D02*
X153246667Y-89312914D01*
X153246667Y-89312914D02*
X153151429Y-89360533D01*
X160901428Y-98574819D02*
X160568095Y-98098628D01*
X160330000Y-98574819D02*
X160330000Y-97574819D01*
X160330000Y-97574819D02*
X160710952Y-97574819D01*
X160710952Y-97574819D02*
X160806190Y-97622438D01*
X160806190Y-97622438D02*
X160853809Y-97670057D01*
X160853809Y-97670057D02*
X160901428Y-97765295D01*
X160901428Y-97765295D02*
X160901428Y-97908152D01*
X160901428Y-97908152D02*
X160853809Y-98003390D01*
X160853809Y-98003390D02*
X160806190Y-98051009D01*
X160806190Y-98051009D02*
X160710952Y-98098628D01*
X160710952Y-98098628D02*
X160330000Y-98098628D01*
X161330000Y-98051009D02*
X161663333Y-98051009D01*
X161806190Y-98574819D02*
X161330000Y-98574819D01*
X161330000Y-98574819D02*
X161330000Y-97574819D01*
X161330000Y-97574819D02*
X161806190Y-97574819D01*
X162187143Y-98527200D02*
X162330000Y-98574819D01*
X162330000Y-98574819D02*
X162568095Y-98574819D01*
X162568095Y-98574819D02*
X162663333Y-98527200D01*
X162663333Y-98527200D02*
X162710952Y-98479580D01*
X162710952Y-98479580D02*
X162758571Y-98384342D01*
X162758571Y-98384342D02*
X162758571Y-98289104D01*
X162758571Y-98289104D02*
X162710952Y-98193866D01*
X162710952Y-98193866D02*
X162663333Y-98146247D01*
X162663333Y-98146247D02*
X162568095Y-98098628D01*
X162568095Y-98098628D02*
X162377619Y-98051009D01*
X162377619Y-98051009D02*
X162282381Y-98003390D01*
X162282381Y-98003390D02*
X162234762Y-97955771D01*
X162234762Y-97955771D02*
X162187143Y-97860533D01*
X162187143Y-97860533D02*
X162187143Y-97765295D01*
X162187143Y-97765295D02*
X162234762Y-97670057D01*
X162234762Y-97670057D02*
X162282381Y-97622438D01*
X162282381Y-97622438D02*
X162377619Y-97574819D01*
X162377619Y-97574819D02*
X162615714Y-97574819D01*
X162615714Y-97574819D02*
X162758571Y-97622438D01*
X163187143Y-98051009D02*
X163520476Y-98051009D01*
X163663333Y-98574819D02*
X163187143Y-98574819D01*
X163187143Y-98574819D02*
X163187143Y-97574819D01*
X163187143Y-97574819D02*
X163663333Y-97574819D01*
X163949048Y-97574819D02*
X164520476Y-97574819D01*
X164234762Y-98574819D02*
X164234762Y-97574819D01*
X165377619Y-98574819D02*
X164806191Y-98574819D01*
X165091905Y-98574819D02*
X165091905Y-97574819D01*
X165091905Y-97574819D02*
X164996667Y-97717676D01*
X164996667Y-97717676D02*
X164901429Y-97812914D01*
X164901429Y-97812914D02*
X164806191Y-97860533D01*
X143759580Y-107174166D02*
X143807200Y-107221785D01*
X143807200Y-107221785D02*
X143854819Y-107364642D01*
X143854819Y-107364642D02*
X143854819Y-107459880D01*
X143854819Y-107459880D02*
X143807200Y-107602737D01*
X143807200Y-107602737D02*
X143711961Y-107697975D01*
X143711961Y-107697975D02*
X143616723Y-107745594D01*
X143616723Y-107745594D02*
X143426247Y-107793213D01*
X143426247Y-107793213D02*
X143283390Y-107793213D01*
X143283390Y-107793213D02*
X143092914Y-107745594D01*
X143092914Y-107745594D02*
X142997676Y-107697975D01*
X142997676Y-107697975D02*
X142902438Y-107602737D01*
X142902438Y-107602737D02*
X142854819Y-107459880D01*
X142854819Y-107459880D02*
X142854819Y-107364642D01*
X142854819Y-107364642D02*
X142902438Y-107221785D01*
X142902438Y-107221785D02*
X142950057Y-107174166D01*
X143854819Y-106221785D02*
X143854819Y-106793213D01*
X143854819Y-106507499D02*
X142854819Y-106507499D01*
X142854819Y-106507499D02*
X142997676Y-106602737D01*
X142997676Y-106602737D02*
X143092914Y-106697975D01*
X143092914Y-106697975D02*
X143140533Y-106793213D01*
X142800833Y-93299580D02*
X142753214Y-93347200D01*
X142753214Y-93347200D02*
X142610357Y-93394819D01*
X142610357Y-93394819D02*
X142515119Y-93394819D01*
X142515119Y-93394819D02*
X142372262Y-93347200D01*
X142372262Y-93347200D02*
X142277024Y-93251961D01*
X142277024Y-93251961D02*
X142229405Y-93156723D01*
X142229405Y-93156723D02*
X142181786Y-92966247D01*
X142181786Y-92966247D02*
X142181786Y-92823390D01*
X142181786Y-92823390D02*
X142229405Y-92632914D01*
X142229405Y-92632914D02*
X142277024Y-92537676D01*
X142277024Y-92537676D02*
X142372262Y-92442438D01*
X142372262Y-92442438D02*
X142515119Y-92394819D01*
X142515119Y-92394819D02*
X142610357Y-92394819D01*
X142610357Y-92394819D02*
X142753214Y-92442438D01*
X142753214Y-92442438D02*
X142800833Y-92490057D01*
X143277024Y-93394819D02*
X143467500Y-93394819D01*
X143467500Y-93394819D02*
X143562738Y-93347200D01*
X143562738Y-93347200D02*
X143610357Y-93299580D01*
X143610357Y-93299580D02*
X143705595Y-93156723D01*
X143705595Y-93156723D02*
X143753214Y-92966247D01*
X143753214Y-92966247D02*
X143753214Y-92585295D01*
X143753214Y-92585295D02*
X143705595Y-92490057D01*
X143705595Y-92490057D02*
X143657976Y-92442438D01*
X143657976Y-92442438D02*
X143562738Y-92394819D01*
X143562738Y-92394819D02*
X143372262Y-92394819D01*
X143372262Y-92394819D02*
X143277024Y-92442438D01*
X143277024Y-92442438D02*
X143229405Y-92490057D01*
X143229405Y-92490057D02*
X143181786Y-92585295D01*
X143181786Y-92585295D02*
X143181786Y-92823390D01*
X143181786Y-92823390D02*
X143229405Y-92918628D01*
X143229405Y-92918628D02*
X143277024Y-92966247D01*
X143277024Y-92966247D02*
X143372262Y-93013866D01*
X143372262Y-93013866D02*
X143562738Y-93013866D01*
X143562738Y-93013866D02*
X143657976Y-92966247D01*
X143657976Y-92966247D02*
X143705595Y-92918628D01*
X143705595Y-92918628D02*
X143753214Y-92823390D01*
X168550833Y-112799580D02*
X168503214Y-112847200D01*
X168503214Y-112847200D02*
X168360357Y-112894819D01*
X168360357Y-112894819D02*
X168265119Y-112894819D01*
X168265119Y-112894819D02*
X168122262Y-112847200D01*
X168122262Y-112847200D02*
X168027024Y-112751961D01*
X168027024Y-112751961D02*
X167979405Y-112656723D01*
X167979405Y-112656723D02*
X167931786Y-112466247D01*
X167931786Y-112466247D02*
X167931786Y-112323390D01*
X167931786Y-112323390D02*
X167979405Y-112132914D01*
X167979405Y-112132914D02*
X168027024Y-112037676D01*
X168027024Y-112037676D02*
X168122262Y-111942438D01*
X168122262Y-111942438D02*
X168265119Y-111894819D01*
X168265119Y-111894819D02*
X168360357Y-111894819D01*
X168360357Y-111894819D02*
X168503214Y-111942438D01*
X168503214Y-111942438D02*
X168550833Y-111990057D01*
X169407976Y-111894819D02*
X169217500Y-111894819D01*
X169217500Y-111894819D02*
X169122262Y-111942438D01*
X169122262Y-111942438D02*
X169074643Y-111990057D01*
X169074643Y-111990057D02*
X168979405Y-112132914D01*
X168979405Y-112132914D02*
X168931786Y-112323390D01*
X168931786Y-112323390D02*
X168931786Y-112704342D01*
X168931786Y-112704342D02*
X168979405Y-112799580D01*
X168979405Y-112799580D02*
X169027024Y-112847200D01*
X169027024Y-112847200D02*
X169122262Y-112894819D01*
X169122262Y-112894819D02*
X169312738Y-112894819D01*
X169312738Y-112894819D02*
X169407976Y-112847200D01*
X169407976Y-112847200D02*
X169455595Y-112799580D01*
X169455595Y-112799580D02*
X169503214Y-112704342D01*
X169503214Y-112704342D02*
X169503214Y-112466247D01*
X169503214Y-112466247D02*
X169455595Y-112371009D01*
X169455595Y-112371009D02*
X169407976Y-112323390D01*
X169407976Y-112323390D02*
X169312738Y-112275771D01*
X169312738Y-112275771D02*
X169122262Y-112275771D01*
X169122262Y-112275771D02*
X169027024Y-112323390D01*
X169027024Y-112323390D02*
X168979405Y-112371009D01*
X168979405Y-112371009D02*
X168931786Y-112466247D01*
X187284819Y-94458094D02*
X186284819Y-94458094D01*
X186284819Y-94458094D02*
X186284819Y-94219999D01*
X186284819Y-94219999D02*
X186332438Y-94077142D01*
X186332438Y-94077142D02*
X186427676Y-93981904D01*
X186427676Y-93981904D02*
X186522914Y-93934285D01*
X186522914Y-93934285D02*
X186713390Y-93886666D01*
X186713390Y-93886666D02*
X186856247Y-93886666D01*
X186856247Y-93886666D02*
X187046723Y-93934285D01*
X187046723Y-93934285D02*
X187141961Y-93981904D01*
X187141961Y-93981904D02*
X187237200Y-94077142D01*
X187237200Y-94077142D02*
X187284819Y-94219999D01*
X187284819Y-94219999D02*
X187284819Y-94458094D01*
X186380057Y-93505713D02*
X186332438Y-93458094D01*
X186332438Y-93458094D02*
X186284819Y-93362856D01*
X186284819Y-93362856D02*
X186284819Y-93124761D01*
X186284819Y-93124761D02*
X186332438Y-93029523D01*
X186332438Y-93029523D02*
X186380057Y-92981904D01*
X186380057Y-92981904D02*
X186475295Y-92934285D01*
X186475295Y-92934285D02*
X186570533Y-92934285D01*
X186570533Y-92934285D02*
X186713390Y-92981904D01*
X186713390Y-92981904D02*
X187284819Y-93553332D01*
X187284819Y-93553332D02*
X187284819Y-92934285D01*
X153163333Y-84074819D02*
X152687143Y-84074819D01*
X152687143Y-84074819D02*
X152687143Y-83074819D01*
X153449048Y-83170057D02*
X153496667Y-83122438D01*
X153496667Y-83122438D02*
X153591905Y-83074819D01*
X153591905Y-83074819D02*
X153830000Y-83074819D01*
X153830000Y-83074819D02*
X153925238Y-83122438D01*
X153925238Y-83122438D02*
X153972857Y-83170057D01*
X153972857Y-83170057D02*
X154020476Y-83265295D01*
X154020476Y-83265295D02*
X154020476Y-83360533D01*
X154020476Y-83360533D02*
X153972857Y-83503390D01*
X153972857Y-83503390D02*
X153401429Y-84074819D01*
X153401429Y-84074819D02*
X154020476Y-84074819D01*
X145651905Y-123794819D02*
X145651905Y-122794819D01*
X145651905Y-122794819D02*
X145890000Y-122794819D01*
X145890000Y-122794819D02*
X146032857Y-122842438D01*
X146032857Y-122842438D02*
X146128095Y-122937676D01*
X146128095Y-122937676D02*
X146175714Y-123032914D01*
X146175714Y-123032914D02*
X146223333Y-123223390D01*
X146223333Y-123223390D02*
X146223333Y-123366247D01*
X146223333Y-123366247D02*
X146175714Y-123556723D01*
X146175714Y-123556723D02*
X146128095Y-123651961D01*
X146128095Y-123651961D02*
X146032857Y-123747200D01*
X146032857Y-123747200D02*
X145890000Y-123794819D01*
X145890000Y-123794819D02*
X145651905Y-123794819D01*
X147080476Y-123128152D02*
X147080476Y-123794819D01*
X146842381Y-122747200D02*
X146604286Y-123461485D01*
X146604286Y-123461485D02*
X147223333Y-123461485D01*
X149938095Y-123424819D02*
X149938095Y-122424819D01*
X150509523Y-123424819D02*
X150080952Y-122853390D01*
X150509523Y-122424819D02*
X149938095Y-122996247D01*
X157964819Y-115308094D02*
X156964819Y-115308094D01*
X156964819Y-115308094D02*
X156964819Y-114927142D01*
X156964819Y-114927142D02*
X157012438Y-114831904D01*
X157012438Y-114831904D02*
X157060057Y-114784285D01*
X157060057Y-114784285D02*
X157155295Y-114736666D01*
X157155295Y-114736666D02*
X157298152Y-114736666D01*
X157298152Y-114736666D02*
X157393390Y-114784285D01*
X157393390Y-114784285D02*
X157441009Y-114831904D01*
X157441009Y-114831904D02*
X157488628Y-114927142D01*
X157488628Y-114927142D02*
X157488628Y-115308094D01*
X157869580Y-113736666D02*
X157917200Y-113784285D01*
X157917200Y-113784285D02*
X157964819Y-113927142D01*
X157964819Y-113927142D02*
X157964819Y-114022380D01*
X157964819Y-114022380D02*
X157917200Y-114165237D01*
X157917200Y-114165237D02*
X157821961Y-114260475D01*
X157821961Y-114260475D02*
X157726723Y-114308094D01*
X157726723Y-114308094D02*
X157536247Y-114355713D01*
X157536247Y-114355713D02*
X157393390Y-114355713D01*
X157393390Y-114355713D02*
X157202914Y-114308094D01*
X157202914Y-114308094D02*
X157107676Y-114260475D01*
X157107676Y-114260475D02*
X157012438Y-114165237D01*
X157012438Y-114165237D02*
X156964819Y-114022380D01*
X156964819Y-114022380D02*
X156964819Y-113927142D01*
X156964819Y-113927142D02*
X157012438Y-113784285D01*
X157012438Y-113784285D02*
X157060057Y-113736666D01*
X157060057Y-113355713D02*
X157012438Y-113308094D01*
X157012438Y-113308094D02*
X156964819Y-113212856D01*
X156964819Y-113212856D02*
X156964819Y-112974761D01*
X156964819Y-112974761D02*
X157012438Y-112879523D01*
X157012438Y-112879523D02*
X157060057Y-112831904D01*
X157060057Y-112831904D02*
X157155295Y-112784285D01*
X157155295Y-112784285D02*
X157250533Y-112784285D01*
X157250533Y-112784285D02*
X157393390Y-112831904D01*
X157393390Y-112831904D02*
X157964819Y-113403332D01*
X157964819Y-113403332D02*
X157964819Y-112784285D01*
X148818095Y-104424819D02*
X148818095Y-105234342D01*
X148818095Y-105234342D02*
X148865714Y-105329580D01*
X148865714Y-105329580D02*
X148913333Y-105377200D01*
X148913333Y-105377200D02*
X149008571Y-105424819D01*
X149008571Y-105424819D02*
X149199047Y-105424819D01*
X149199047Y-105424819D02*
X149294285Y-105377200D01*
X149294285Y-105377200D02*
X149341904Y-105329580D01*
X149341904Y-105329580D02*
X149389523Y-105234342D01*
X149389523Y-105234342D02*
X149389523Y-104424819D01*
X150294285Y-104424819D02*
X150103809Y-104424819D01*
X150103809Y-104424819D02*
X150008571Y-104472438D01*
X150008571Y-104472438D02*
X149960952Y-104520057D01*
X149960952Y-104520057D02*
X149865714Y-104662914D01*
X149865714Y-104662914D02*
X149818095Y-104853390D01*
X149818095Y-104853390D02*
X149818095Y-105234342D01*
X149818095Y-105234342D02*
X149865714Y-105329580D01*
X149865714Y-105329580D02*
X149913333Y-105377200D01*
X149913333Y-105377200D02*
X150008571Y-105424819D01*
X150008571Y-105424819D02*
X150199047Y-105424819D01*
X150199047Y-105424819D02*
X150294285Y-105377200D01*
X150294285Y-105377200D02*
X150341904Y-105329580D01*
X150341904Y-105329580D02*
X150389523Y-105234342D01*
X150389523Y-105234342D02*
X150389523Y-104996247D01*
X150389523Y-104996247D02*
X150341904Y-104901009D01*
X150341904Y-104901009D02*
X150294285Y-104853390D01*
X150294285Y-104853390D02*
X150199047Y-104805771D01*
X150199047Y-104805771D02*
X150008571Y-104805771D01*
X150008571Y-104805771D02*
X149913333Y-104853390D01*
X149913333Y-104853390D02*
X149865714Y-104901009D01*
X149865714Y-104901009D02*
X149818095Y-104996247D01*
X138818095Y-100724819D02*
X139389523Y-100724819D01*
X139103809Y-101724819D02*
X139103809Y-100724819D01*
X140246666Y-101724819D02*
X139675238Y-101724819D01*
X139960952Y-101724819D02*
X139960952Y-100724819D01*
X139960952Y-100724819D02*
X139865714Y-100867676D01*
X139865714Y-100867676D02*
X139770476Y-100962914D01*
X139770476Y-100962914D02*
X139675238Y-101010533D01*
X192954819Y-74333333D02*
X193669104Y-74333333D01*
X193669104Y-74333333D02*
X193811961Y-74380952D01*
X193811961Y-74380952D02*
X193907200Y-74476190D01*
X193907200Y-74476190D02*
X193954819Y-74619047D01*
X193954819Y-74619047D02*
X193954819Y-74714285D01*
X193288152Y-73428571D02*
X193954819Y-73428571D01*
X192907200Y-73666666D02*
X193621485Y-73904761D01*
X193621485Y-73904761D02*
X193621485Y-73285714D01*
X146614819Y-121808094D02*
X145614819Y-121808094D01*
X145614819Y-121808094D02*
X145614819Y-121427142D01*
X145614819Y-121427142D02*
X145662438Y-121331904D01*
X145662438Y-121331904D02*
X145710057Y-121284285D01*
X145710057Y-121284285D02*
X145805295Y-121236666D01*
X145805295Y-121236666D02*
X145948152Y-121236666D01*
X145948152Y-121236666D02*
X146043390Y-121284285D01*
X146043390Y-121284285D02*
X146091009Y-121331904D01*
X146091009Y-121331904D02*
X146138628Y-121427142D01*
X146138628Y-121427142D02*
X146138628Y-121808094D01*
X146519580Y-120236666D02*
X146567200Y-120284285D01*
X146567200Y-120284285D02*
X146614819Y-120427142D01*
X146614819Y-120427142D02*
X146614819Y-120522380D01*
X146614819Y-120522380D02*
X146567200Y-120665237D01*
X146567200Y-120665237D02*
X146471961Y-120760475D01*
X146471961Y-120760475D02*
X146376723Y-120808094D01*
X146376723Y-120808094D02*
X146186247Y-120855713D01*
X146186247Y-120855713D02*
X146043390Y-120855713D01*
X146043390Y-120855713D02*
X145852914Y-120808094D01*
X145852914Y-120808094D02*
X145757676Y-120760475D01*
X145757676Y-120760475D02*
X145662438Y-120665237D01*
X145662438Y-120665237D02*
X145614819Y-120522380D01*
X145614819Y-120522380D02*
X145614819Y-120427142D01*
X145614819Y-120427142D02*
X145662438Y-120284285D01*
X145662438Y-120284285D02*
X145710057Y-120236666D01*
X146614819Y-119284285D02*
X146614819Y-119855713D01*
X146614819Y-119569999D02*
X145614819Y-119569999D01*
X145614819Y-119569999D02*
X145757676Y-119665237D01*
X145757676Y-119665237D02*
X145852914Y-119760475D01*
X145852914Y-119760475D02*
X145900533Y-119855713D01*
X137034819Y-78486666D02*
X137034819Y-78962856D01*
X137034819Y-78962856D02*
X136034819Y-78962856D01*
X137034819Y-77629523D02*
X137034819Y-78200951D01*
X137034819Y-77915237D02*
X136034819Y-77915237D01*
X136034819Y-77915237D02*
X136177676Y-78010475D01*
X136177676Y-78010475D02*
X136272914Y-78105713D01*
X136272914Y-78105713D02*
X136320533Y-78200951D01*
X193304819Y-108821904D02*
X194114342Y-108821904D01*
X194114342Y-108821904D02*
X194209580Y-108774285D01*
X194209580Y-108774285D02*
X194257200Y-108726666D01*
X194257200Y-108726666D02*
X194304819Y-108631428D01*
X194304819Y-108631428D02*
X194304819Y-108440952D01*
X194304819Y-108440952D02*
X194257200Y-108345714D01*
X194257200Y-108345714D02*
X194209580Y-108298095D01*
X194209580Y-108298095D02*
X194114342Y-108250476D01*
X194114342Y-108250476D02*
X193304819Y-108250476D01*
X193638152Y-107345714D02*
X194304819Y-107345714D01*
X193257200Y-107583809D02*
X193971485Y-107821904D01*
X193971485Y-107821904D02*
X193971485Y-107202857D01*
D15*
X170724809Y-75261904D02*
X170224809Y-75261904D01*
X170224809Y-74928571D02*
X170224809Y-74833333D01*
X170224809Y-74833333D02*
X170248619Y-74785714D01*
X170248619Y-74785714D02*
X170296238Y-74738095D01*
X170296238Y-74738095D02*
X170391476Y-74714285D01*
X170391476Y-74714285D02*
X170558142Y-74714285D01*
X170558142Y-74714285D02*
X170653380Y-74738095D01*
X170653380Y-74738095D02*
X170701000Y-74785714D01*
X170701000Y-74785714D02*
X170724809Y-74833333D01*
X170724809Y-74833333D02*
X170724809Y-74928571D01*
X170724809Y-74928571D02*
X170701000Y-74976190D01*
X170701000Y-74976190D02*
X170653380Y-75023809D01*
X170653380Y-75023809D02*
X170558142Y-75047618D01*
X170558142Y-75047618D02*
X170391476Y-75047618D01*
X170391476Y-75047618D02*
X170296238Y-75023809D01*
X170296238Y-75023809D02*
X170248619Y-74976190D01*
X170248619Y-74976190D02*
X170224809Y-74928571D01*
X170724809Y-74499999D02*
X170224809Y-74499999D01*
X170462904Y-74499999D02*
X170462904Y-74214285D01*
X170724809Y-74214285D02*
X170224809Y-74214285D01*
X170724809Y-73714284D02*
X170724809Y-73999998D01*
X170724809Y-73857141D02*
X170224809Y-73857141D01*
X170224809Y-73857141D02*
X170296238Y-73904760D01*
X170296238Y-73904760D02*
X170343857Y-73952379D01*
X170343857Y-73952379D02*
X170367666Y-73999998D01*
D11*
X128737200Y-77853332D02*
X128784819Y-77710475D01*
X128784819Y-77710475D02*
X128784819Y-77472380D01*
X128784819Y-77472380D02*
X128737200Y-77377142D01*
X128737200Y-77377142D02*
X128689580Y-77329523D01*
X128689580Y-77329523D02*
X128594342Y-77281904D01*
X128594342Y-77281904D02*
X128499104Y-77281904D01*
X128499104Y-77281904D02*
X128403866Y-77329523D01*
X128403866Y-77329523D02*
X128356247Y-77377142D01*
X128356247Y-77377142D02*
X128308628Y-77472380D01*
X128308628Y-77472380D02*
X128261009Y-77662856D01*
X128261009Y-77662856D02*
X128213390Y-77758094D01*
X128213390Y-77758094D02*
X128165771Y-77805713D01*
X128165771Y-77805713D02*
X128070533Y-77853332D01*
X128070533Y-77853332D02*
X127975295Y-77853332D01*
X127975295Y-77853332D02*
X127880057Y-77805713D01*
X127880057Y-77805713D02*
X127832438Y-77758094D01*
X127832438Y-77758094D02*
X127784819Y-77662856D01*
X127784819Y-77662856D02*
X127784819Y-77424761D01*
X127784819Y-77424761D02*
X127832438Y-77281904D01*
X127784819Y-76948570D02*
X128784819Y-76710475D01*
X128784819Y-76710475D02*
X128070533Y-76519999D01*
X128070533Y-76519999D02*
X128784819Y-76329523D01*
X128784819Y-76329523D02*
X127784819Y-76091428D01*
X127880057Y-75758094D02*
X127832438Y-75710475D01*
X127832438Y-75710475D02*
X127784819Y-75615237D01*
X127784819Y-75615237D02*
X127784819Y-75377142D01*
X127784819Y-75377142D02*
X127832438Y-75281904D01*
X127832438Y-75281904D02*
X127880057Y-75234285D01*
X127880057Y-75234285D02*
X127975295Y-75186666D01*
X127975295Y-75186666D02*
X128070533Y-75186666D01*
X128070533Y-75186666D02*
X128213390Y-75234285D01*
X128213390Y-75234285D02*
X128784819Y-75805713D01*
X128784819Y-75805713D02*
X128784819Y-75186666D01*
X151937142Y-92574819D02*
X151603809Y-92098628D01*
X151365714Y-92574819D02*
X151365714Y-91574819D01*
X151365714Y-91574819D02*
X151746666Y-91574819D01*
X151746666Y-91574819D02*
X151841904Y-91622438D01*
X151841904Y-91622438D02*
X151889523Y-91670057D01*
X151889523Y-91670057D02*
X151937142Y-91765295D01*
X151937142Y-91765295D02*
X151937142Y-91908152D01*
X151937142Y-91908152D02*
X151889523Y-92003390D01*
X151889523Y-92003390D02*
X151841904Y-92051009D01*
X151841904Y-92051009D02*
X151746666Y-92098628D01*
X151746666Y-92098628D02*
X151365714Y-92098628D01*
X152270476Y-91574819D02*
X152937142Y-92574819D01*
X152937142Y-91574819D02*
X152270476Y-92574819D01*
X153841904Y-92574819D02*
X153270476Y-92574819D01*
X153556190Y-92574819D02*
X153556190Y-91574819D01*
X153556190Y-91574819D02*
X153460952Y-91717676D01*
X153460952Y-91717676D02*
X153365714Y-91812914D01*
X153365714Y-91812914D02*
X153270476Y-91860533D01*
%TO.C,Y2*%
D16*
X169280000Y-98170000D02*
X169280000Y-100170000D01*
X169280000Y-100170000D02*
X169280000Y-100570000D01*
X169480000Y-98170000D02*
X169630000Y-98170000D01*
X169480000Y-100170000D02*
X169480000Y-98170000D01*
X169480000Y-100170000D02*
X169480000Y-100570000D01*
X169480000Y-100570000D02*
X169630000Y-100570000D01*
X170530000Y-100570000D02*
X170480000Y-100570000D01*
X170530000Y-100570000D02*
X170530000Y-100970000D01*
X173080000Y-98170000D02*
X172930000Y-98170000D01*
X173080000Y-98170000D02*
X173080000Y-100170000D01*
X173080000Y-100170000D02*
X173080000Y-100570000D01*
X173080000Y-100570000D02*
X172930000Y-100570000D01*
%TO.C,C5*%
X158321233Y-95610000D02*
X158613767Y-95610000D01*
X158321233Y-96630000D02*
X158613767Y-96630000D01*
%TO.C,J5*%
X141012500Y-77950000D02*
X148852500Y-77950000D01*
X141012500Y-80600000D02*
X141012500Y-77950000D01*
X141012500Y-83250000D02*
X141012500Y-81870000D01*
X142392500Y-83250000D02*
X141012500Y-83250000D01*
X143662500Y-80600000D02*
X141012500Y-80600000D01*
X143662500Y-83250000D02*
X143662500Y-80600000D01*
X143662500Y-83250000D02*
X148852500Y-83250000D01*
X148852500Y-83250000D02*
X148852500Y-77950000D01*
%TO.C,J3*%
X190660000Y-97790000D02*
X190660000Y-89950000D01*
X193310000Y-95140000D02*
X193310000Y-97790000D01*
X193310000Y-97790000D02*
X190660000Y-97790000D01*
X195960000Y-89950000D02*
X190660000Y-89950000D01*
X195960000Y-95140000D02*
X193310000Y-95140000D01*
X195960000Y-95140000D02*
X195960000Y-89950000D01*
X195960000Y-96410000D02*
X195960000Y-97790000D01*
X195960000Y-97790000D02*
X194580000Y-97790000D01*
%TO.C,J2*%
X124280000Y-111312500D02*
X138980000Y-111312500D01*
X124280000Y-120512500D02*
X124280000Y-111312500D01*
X133080000Y-120512500D02*
X124280000Y-120512500D01*
X138130000Y-111112500D02*
X139180000Y-111112500D01*
X138980000Y-111312500D02*
X138980000Y-113912500D01*
X138980000Y-117812500D02*
X138980000Y-120512500D01*
X138980000Y-120512500D02*
X137080000Y-120512500D01*
X139180000Y-112162500D02*
X139180000Y-111112500D01*
%TO.C,J1*%
D13*
X122180000Y-82525000D02*
X130570000Y-82525000D01*
X122180000Y-94625000D02*
X122180000Y-82525000D01*
X130570000Y-94625000D02*
X122180000Y-94625000D01*
X134590000Y-82525000D02*
X138380000Y-82525000D01*
X138380000Y-82525000D02*
X138380000Y-94625000D01*
X138380000Y-94625000D02*
X134590000Y-94625000D01*
X137380000Y-95325000D02*
G75*
G02*
X137180000Y-95325000I-100000J0D01*
G01*
X137180000Y-95325000D02*
G75*
G02*
X137380000Y-95325000I100000J0D01*
G01*
%TO.C,U5*%
D16*
X154220000Y-85010000D02*
X157440000Y-85010000D01*
X154220000Y-85185000D02*
X154220000Y-85010000D01*
X154220000Y-88230000D02*
X154220000Y-88055000D01*
X157440000Y-85010000D02*
X157440000Y-85185000D01*
X157440000Y-88055000D02*
X157440000Y-88230000D01*
X157440000Y-88230000D02*
X154220000Y-88230000D01*
X153670000Y-85180000D02*
X153430000Y-84850000D01*
X153910000Y-84850000D01*
X153670000Y-85180000D01*
G36*
X153670000Y-85180000D02*
G01*
X153430000Y-84850000D01*
X153910000Y-84850000D01*
X153670000Y-85180000D01*
G37*
%TO.C,Y1*%
X146630000Y-95685000D02*
X153030000Y-95685000D01*
X153030000Y-100555000D02*
X146630000Y-100555000D01*
X146630000Y-100555000D02*
G75*
G02*
X146630000Y-95685000I0J2435000D01*
G01*
X153030000Y-95685000D02*
G75*
G02*
X153030000Y-100555000I0J-2435000D01*
G01*
%TO.C,GREEN1*%
X185945000Y-86410000D02*
X185945000Y-88330000D01*
X185945000Y-88330000D02*
X188805000Y-88330000D01*
X188805000Y-86410000D02*
X185945000Y-86410000D01*
%TO.C,J8*%
X145215000Y-83955000D02*
X146395000Y-83955000D01*
X145215000Y-84765000D02*
X145215000Y-83955000D01*
X145215000Y-85575000D02*
X145215000Y-86780000D01*
X145215000Y-85575000D02*
X145728292Y-85575000D01*
X145215000Y-86780000D02*
X146077077Y-86780000D01*
X146712923Y-86780000D02*
X147347077Y-86780000D01*
X147982923Y-84020000D02*
X148845000Y-84020000D01*
X147982923Y-86780000D02*
X148845000Y-86780000D01*
X148845000Y-84020000D02*
X148845000Y-86780000D01*
%TO.C,F1*%
D17*
X132480000Y-100470000D02*
X132480000Y-98270000D01*
X135680000Y-98270000D02*
X135680000Y-100470000D01*
X135743500Y-96170000D02*
G75*
G02*
X135616500Y-96170000I-63500J0D01*
G01*
X135616500Y-96170000D02*
G75*
G02*
X135743500Y-96170000I63500J0D01*
G01*
%TO.C,TX1*%
D16*
X153945000Y-88660000D02*
X153945000Y-90580000D01*
X153945000Y-90580000D02*
X156805000Y-90580000D01*
X156805000Y-88660000D02*
X153945000Y-88660000D01*
%TO.C,RESET1*%
X157030000Y-98420000D02*
X157030000Y-97820000D01*
X157730000Y-97120000D02*
X159130000Y-97120000D01*
X159130000Y-99120000D02*
X157730000Y-99120000D01*
X159830000Y-97820000D02*
X159830000Y-98420000D01*
X157030000Y-97820000D02*
G75*
G02*
X157730000Y-97120000I699999J1D01*
G01*
X157730000Y-99120000D02*
G75*
G02*
X157030000Y-98420000I-1J699999D01*
G01*
X159130000Y-97120000D02*
G75*
G02*
X159830000Y-97820000I0J-700000D01*
G01*
X159830000Y-98420000D02*
G75*
G02*
X159130000Y-99120000I-700000J0D01*
G01*
%TO.C,C1*%
X144320000Y-107153767D02*
X144320000Y-106861233D01*
X145340000Y-107153767D02*
X145340000Y-106861233D01*
%TO.C,C9*%
X142821233Y-93860000D02*
X143113767Y-93860000D01*
X142821233Y-94880000D02*
X143113767Y-94880000D01*
%TO.C,U5*%
X158470000Y-99760000D02*
X161690000Y-99760000D01*
X158470000Y-99935000D02*
X158470000Y-99760000D01*
X158470000Y-102980000D02*
X158470000Y-102805000D01*
X161690000Y-99760000D02*
X161690000Y-99935000D01*
X161690000Y-102805000D02*
X161690000Y-102980000D01*
X161690000Y-102980000D02*
X158470000Y-102980000D01*
X157920000Y-99930000D02*
X157680000Y-99600000D01*
X158160000Y-99600000D01*
X157920000Y-99930000D01*
G36*
X157920000Y-99930000D02*
G01*
X157680000Y-99600000D01*
X158160000Y-99600000D01*
X157920000Y-99930000D01*
G37*
%TO.C,C6*%
X168571233Y-113360000D02*
X168863767Y-113360000D01*
X168571233Y-114380000D02*
X168863767Y-114380000D01*
%TO.C,D2*%
X187830000Y-96080000D02*
X187830000Y-92070000D01*
X187830000Y-96080000D02*
X189830000Y-96080000D01*
X189830000Y-96080000D02*
X189830000Y-92070000D01*
%TO.C,U7*%
X138790000Y-88190000D02*
X142010000Y-88190000D01*
X138790000Y-88365000D02*
X138790000Y-88190000D01*
X138790000Y-91410000D02*
X138790000Y-91235000D01*
X142010000Y-88190000D02*
X142010000Y-88365000D01*
X142010000Y-91235000D02*
X142010000Y-91410000D01*
X142010000Y-91410000D02*
X138790000Y-91410000D01*
X138240000Y-88360000D02*
X138000000Y-88030000D01*
X138480000Y-88030000D01*
X138240000Y-88360000D01*
G36*
X138240000Y-88360000D02*
G01*
X138000000Y-88030000D01*
X138480000Y-88030000D01*
X138240000Y-88360000D01*
G37*
%TO.C,L2*%
X154195000Y-82660000D02*
X154195000Y-84580000D01*
X154195000Y-84580000D02*
X157055000Y-84580000D01*
X157055000Y-82660000D02*
X154195000Y-82660000D01*
%TO.C,D4*%
X143670000Y-119400000D02*
X143670000Y-119530000D01*
X143670000Y-122340000D02*
X143670000Y-122210000D01*
X148090000Y-122340000D02*
X148090000Y-119400000D01*
X148210000Y-122340000D02*
X148210000Y-119400000D01*
X148330000Y-122340000D02*
X148330000Y-119400000D01*
X149110000Y-119400000D02*
X143670000Y-119400000D01*
X149110000Y-119530000D02*
X149110000Y-119400000D01*
X149110000Y-122210000D02*
X149110000Y-122340000D01*
X149110000Y-122340000D02*
X143670000Y-122340000D01*
%TO.C,PC2*%
X149750000Y-111724437D02*
X149750000Y-117480000D01*
X149750000Y-117480000D02*
X152100000Y-117480000D01*
X150814437Y-110660000D02*
X149750000Y-111724437D01*
X150814437Y-110660000D02*
X152100000Y-110660000D01*
X155007500Y-109632500D02*
X155007500Y-110420000D01*
X155401250Y-110026250D02*
X154613750Y-110026250D01*
X155505563Y-110660000D02*
X154220000Y-110660000D01*
X155505563Y-110660000D02*
X156570000Y-111724437D01*
X156570000Y-111724437D02*
X156570000Y-117480000D01*
X156570000Y-117480000D02*
X154220000Y-117480000D01*
%TO.C,U6*%
X148670000Y-105810000D02*
X150490000Y-105810000D01*
X148670000Y-105860000D02*
X148670000Y-105810000D01*
X148670000Y-108930000D02*
X148670000Y-108880000D01*
X150490000Y-105810000D02*
X150490000Y-105860000D01*
X150490000Y-106980000D02*
X150490000Y-107760000D01*
X150490000Y-108880000D02*
X150490000Y-108930000D01*
X150490000Y-108930000D02*
X148670000Y-108930000D01*
X148130000Y-105860000D02*
X147890000Y-105530000D01*
X148370000Y-105530000D01*
X148130000Y-105860000D01*
G36*
X148130000Y-105860000D02*
G01*
X147890000Y-105530000D01*
X148370000Y-105530000D01*
X148130000Y-105860000D01*
G37*
%TO.C,T1*%
X138820000Y-97310000D02*
X140340000Y-97310000D01*
X138820000Y-98310000D02*
X138820000Y-97310000D01*
X138820000Y-100430000D02*
X138820000Y-99430000D01*
X140340000Y-97310000D02*
X140340000Y-97360000D01*
X140340000Y-98480000D02*
X140340000Y-99260000D01*
X140340000Y-100380000D02*
X140340000Y-100430000D01*
X140340000Y-100430000D02*
X138820000Y-100430000D01*
X140880000Y-99250000D02*
X140640000Y-98920000D01*
X141120000Y-98920000D01*
X140880000Y-99250000D01*
G36*
X140880000Y-99250000D02*
G01*
X140640000Y-98920000D01*
X141120000Y-98920000D01*
X140880000Y-99250000D01*
G37*
%TO.C,D3*%
X138330000Y-78410000D02*
X138330000Y-82420000D01*
X140330000Y-78410000D02*
X138330000Y-78410000D01*
X140330000Y-78410000D02*
X140330000Y-82420000D01*
%TO.C,J4*%
X172470000Y-74040000D02*
X172470000Y-76700000D01*
X190310000Y-74040000D02*
X172470000Y-74040000D01*
X190310000Y-74040000D02*
X190310000Y-76700000D01*
X190310000Y-76700000D02*
X172470000Y-76700000D01*
X192910000Y-75370000D02*
X192910000Y-76700000D01*
X192910000Y-76700000D02*
X191580000Y-76700000D01*
%TO.C,PC1*%
X142250000Y-111524437D02*
X142250000Y-117280000D01*
X142250000Y-117280000D02*
X144600000Y-117280000D01*
X143314437Y-110460000D02*
X142250000Y-111524437D01*
X143314437Y-110460000D02*
X144600000Y-110460000D01*
X147507500Y-109432500D02*
X147507500Y-110220000D01*
X147901250Y-109826250D02*
X147113750Y-109826250D01*
X148005563Y-110460000D02*
X146720000Y-110460000D01*
X148005563Y-110460000D02*
X149070000Y-111524437D01*
X149070000Y-111524437D02*
X149070000Y-117280000D01*
X149070000Y-117280000D02*
X146720000Y-117280000D01*
%TO.C,RN1C1*%
X139772936Y-84465000D02*
X140227064Y-84465000D01*
X139772936Y-85935000D02*
X140227064Y-85935000D01*
%TO.C,L1*%
X136020000Y-75059758D02*
X136020000Y-75880242D01*
X137140000Y-75059758D02*
X137140000Y-75880242D01*
%TO.C,U3*%
X145032500Y-87822500D02*
X145507500Y-87822500D01*
X145032500Y-88297500D02*
X145032500Y-87822500D01*
X145032500Y-93042500D02*
X145032500Y-92567500D01*
X145507500Y-93042500D02*
X145032500Y-93042500D01*
X149777500Y-87822500D02*
X150252500Y-87822500D01*
X150252500Y-87822500D02*
X150252500Y-88297500D01*
X150252500Y-92567500D02*
X150252500Y-93042500D01*
X150252500Y-93042500D02*
X149777500Y-93042500D01*
X145892500Y-93572500D02*
X146132500Y-93902500D01*
X145652500Y-93902500D01*
X145892500Y-93572500D01*
G36*
X146132500Y-93902500D02*
G01*
X145652500Y-93902500D01*
X145892500Y-93572500D01*
X146132500Y-93902500D01*
G37*
%TO.C,J6*%
X155470000Y-119540000D02*
X156800000Y-119540000D01*
X155470000Y-120870000D02*
X155470000Y-119540000D01*
X158070000Y-119540000D02*
X175910000Y-119540000D01*
X158070000Y-122200000D02*
X158070000Y-119540000D01*
X158070000Y-122200000D02*
X175910000Y-122200000D01*
X175910000Y-122200000D02*
X175910000Y-119540000D01*
%TO.C,U4*%
X157170000Y-105410000D02*
X157170000Y-110710000D01*
X157170000Y-110710000D02*
X192850000Y-110710000D01*
X192850000Y-105410000D02*
X157170000Y-105410000D01*
X192850000Y-107060000D02*
X192850000Y-105410000D01*
X192850000Y-110710000D02*
X192850000Y-109060000D01*
X192850000Y-109060000D02*
G75*
G02*
X192850000Y-107060000I0J1000000D01*
G01*
%TO.C,C11*%
X158683767Y-93690000D02*
X158391233Y-93690000D01*
X158683767Y-94710000D02*
X158391233Y-94710000D01*
%TO.C,IOH1*%
X144130000Y-74040000D02*
X144130000Y-76700000D01*
X167050000Y-74040000D02*
X144130000Y-74040000D01*
X167050000Y-74040000D02*
X167050000Y-76700000D01*
X167050000Y-76700000D02*
X144130000Y-76700000D01*
X169650000Y-75370000D02*
X169650000Y-76700000D01*
X169650000Y-76700000D02*
X168320000Y-76700000D01*
%TO.C,SW2*%
X129530000Y-74120000D02*
X130530000Y-74120000D01*
X129530000Y-74720000D02*
X129530000Y-74120000D01*
X129530000Y-78320000D02*
X129530000Y-78920000D01*
X129530000Y-78920000D02*
X130530000Y-78920000D01*
X132330000Y-77520000D02*
X132330000Y-75520000D01*
%TO.C,U2*%
X132320000Y-103460000D02*
X132320000Y-104720000D01*
X132320000Y-110280000D02*
X132320000Y-109020000D01*
X136080000Y-103460000D02*
X132320000Y-103460000D01*
X136080000Y-110280000D02*
X132320000Y-110280000D01*
X137360000Y-110180000D02*
X137600000Y-110510000D01*
X137120000Y-110510000D01*
X137360000Y-110180000D01*
G36*
X137600000Y-110510000D02*
G01*
X137120000Y-110510000D01*
X137360000Y-110180000D01*
X137600000Y-110510000D01*
G37*
%TO.C,RX1*%
X153945000Y-91160000D02*
X153945000Y-93080000D01*
X153945000Y-93080000D02*
X156805000Y-93080000D01*
X156805000Y-91160000D02*
X153945000Y-91160000D01*
%TO.C,AD1*%
X177330000Y-119540000D02*
X178660000Y-119540000D01*
X177330000Y-120870000D02*
X177330000Y-119540000D01*
X179930000Y-119540000D02*
X192690000Y-119540000D01*
X179930000Y-122200000D02*
X179930000Y-119540000D01*
X179930000Y-122200000D02*
X192690000Y-122200000D01*
X192690000Y-122200000D02*
X192690000Y-119540000D01*
%TO.C,U5*%
X144470000Y-101260000D02*
X147690000Y-101260000D01*
X144470000Y-101435000D02*
X144470000Y-101260000D01*
X144470000Y-104480000D02*
X144470000Y-104305000D01*
X147690000Y-101260000D02*
X147690000Y-101435000D01*
X147690000Y-104305000D02*
X147690000Y-104480000D01*
X147690000Y-104480000D02*
X144470000Y-104480000D01*
X143920000Y-101430000D02*
X143680000Y-101100000D01*
X144160000Y-101100000D01*
X143920000Y-101430000D01*
G36*
X143920000Y-101430000D02*
G01*
X143680000Y-101100000D01*
X144160000Y-101100000D01*
X143920000Y-101430000D01*
G37*
%TD*%
M02*
