%TF.GenerationSoftware,KiCad,Pcbnew,10.0.3*%
%TF.CreationDate,2026-08-12T00:28:43+00:00*%
%TF.ProjectId,Arduino Uno,41726475-696e-46f2-9055-6e6f2e6b6963,rev?*%
%TF.SameCoordinates,Original*%
%TF.FileFunction,Copper,L1,Top*%
%TF.FilePolarity,Positive*%
%FSLAX46Y46*%
G04 Gerber Fmt 4.6, Leading zero omitted, Abs format (unit mm)*
G04 Created by KiCad (PCBNEW 10.0.3) date 2026-08-12 00:28:43*
%MOMM*%
%LPD*%
G01*
G04 APERTURE LIST*
G04 Aperture macros list*
%AMRoundRect*
0 Rectangle with rounded corners*
0 $1 Rounding radius*
0 $2 $3 $4 $5 $6 $7 $8 $9 X,Y pos of 4 corners*
0 Add a 4 corners polygon primitive as box body*
4,1,4,$2,$3,$4,$5,$6,$7,$8,$9,$2,$3,0*
0 Add four circle primitives for the rounded corners*
1,1,$1+$1,$2,$3*
1,1,$1+$1,$4,$5*
1,1,$1+$1,$6,$7*
1,1,$1+$1,$8,$9*
0 Add four rect primitives between the rounded corners*
20,1,$1+$1,$2,$3,$4,$5,0*
20,1,$1+$1,$4,$5,$6,$7,0*
20,1,$1+$1,$6,$7,$8,$9,0*
20,1,$1+$1,$8,$9,$2,$3,0*%
%AMFreePoly0*
4,1,23,0.500000,-0.750000,0.000000,-0.750000,0.000000,-0.745722,-0.065263,-0.745722,-0.191342,-0.711940,-0.304381,-0.646677,-0.396677,-0.554381,-0.461940,-0.441342,-0.495722,-0.315263,-0.495722,-0.250000,-0.500000,-0.250000,-0.500000,0.250000,-0.495722,0.250000,-0.495722,0.315263,-0.461940,0.441342,-0.396677,0.554381,-0.304381,0.646677,-0.191342,0.711940,-0.065263,0.745722,0.000000,0.745722,
0.000000,0.750000,0.500000,0.750000,0.500000,-0.750000,0.500000,-0.750000,$1*%
%AMFreePoly1*
4,1,23,0.000000,0.745722,0.065263,0.745722,0.191342,0.711940,0.304381,0.646677,0.396677,0.554381,0.461940,0.441342,0.495722,0.315263,0.495722,0.250000,0.500000,0.250000,0.500000,-0.250000,0.495722,-0.250000,0.495722,-0.315263,0.461940,-0.441342,0.396677,-0.554381,0.304381,-0.646677,0.191342,-0.711940,0.065263,-0.745722,0.000000,-0.745722,0.000000,-0.750000,-0.500000,-0.750000,
-0.500000,0.750000,0.000000,0.750000,0.000000,0.745722,0.000000,0.745722,$1*%
G04 Aperture macros list end*
%TA.AperFunction,SMDPad,CuDef*%
%ADD10R,0.400000X3.200000*%
%TD*%
%TA.AperFunction,SMDPad,CuDef*%
%ADD11RoundRect,0.237500X-0.300000X-0.237500X0.300000X-0.237500X0.300000X0.237500X-0.300000X0.237500X0*%
%TD*%
%TA.AperFunction,SMDPad,CuDef*%
%ADD12RoundRect,0.100000X-0.217500X-0.100000X0.217500X-0.100000X0.217500X0.100000X-0.217500X0.100000X0*%
%TD*%
%TA.AperFunction,ComponentPad*%
%ADD13R,1.700000X1.700000*%
%TD*%
%TA.AperFunction,ComponentPad*%
%ADD14C,1.700000*%
%TD*%
%TA.AperFunction,ComponentPad*%
%ADD15R,3.500000X3.500000*%
%TD*%
%TA.AperFunction,ComponentPad*%
%ADD16RoundRect,0.750000X-0.750000X-1.000000X0.750000X-1.000000X0.750000X1.000000X-0.750000X1.000000X0*%
%TD*%
%TA.AperFunction,ComponentPad*%
%ADD17RoundRect,0.875000X-0.875000X-0.875000X0.875000X-0.875000X0.875000X0.875000X-0.875000X0.875000X0*%
%TD*%
%TA.AperFunction,ComponentPad*%
%ADD18R,1.408000X1.408000*%
%TD*%
%TA.AperFunction,ComponentPad*%
%ADD19C,1.408000*%
%TD*%
%TA.AperFunction,ComponentPad*%
%ADD20C,3.316000*%
%TD*%
%TA.AperFunction,SMDPad,CuDef*%
%ADD21RoundRect,0.100000X-0.712500X-0.100000X0.712500X-0.100000X0.712500X0.100000X-0.712500X0.100000X0*%
%TD*%
%TA.AperFunction,ComponentPad*%
%ADD22C,1.500000*%
%TD*%
%TA.AperFunction,SMDPad,CuDef*%
%ADD23RoundRect,0.250000X-0.325000X-0.450000X0.325000X-0.450000X0.325000X0.450000X-0.325000X0.450000X0*%
%TD*%
%TA.AperFunction,ComponentPad*%
%ADD24R,1.000000X1.000000*%
%TD*%
%TA.AperFunction,ComponentPad*%
%ADD25C,1.000000*%
%TD*%
%TA.AperFunction,SMDPad,CuDef*%
%ADD26R,3.200000X1.500000*%
%TD*%
%TA.AperFunction,SMDPad,CuDef*%
%ADD27FreePoly0,0.000000*%
%TD*%
%TA.AperFunction,SMDPad,CuDef*%
%ADD28FreePoly1,0.000000*%
%TD*%
%TA.AperFunction,SMDPad,CuDef*%
%ADD29RoundRect,0.237500X0.237500X-0.300000X0.237500X0.300000X-0.237500X0.300000X-0.237500X-0.300000X0*%
%TD*%
%TA.AperFunction,SMDPad,CuDef*%
%ADD30RoundRect,0.225000X0.375000X-0.225000X0.375000X0.225000X-0.375000X0.225000X-0.375000X-0.225000X0*%
%TD*%
%TA.AperFunction,SMDPad,CuDef*%
%ADD31RoundRect,0.075000X-0.075000X0.125000X-0.075000X-0.125000X0.075000X-0.125000X0.075000X0.125000X0*%
%TD*%
%TA.AperFunction,ComponentPad*%
%ADD32RoundRect,0.249999X0.850001X0.850001X-0.850001X0.850001X-0.850001X-0.850001X0.850001X-0.850001X0*%
%TD*%
%TA.AperFunction,ComponentPad*%
%ADD33C,2.200000*%
%TD*%
%TA.AperFunction,SMDPad,CuDef*%
%ADD34RoundRect,0.250000X-0.550000X1.500000X-0.550000X-1.500000X0.550000X-1.500000X0.550000X1.500000X0*%
%TD*%
%TA.AperFunction,SMDPad,CuDef*%
%ADD35RoundRect,0.150000X-0.512500X-0.150000X0.512500X-0.150000X0.512500X0.150000X-0.512500X0.150000X0*%
%TD*%
%TA.AperFunction,SMDPad,CuDef*%
%ADD36RoundRect,0.150000X0.587500X0.150000X-0.587500X0.150000X-0.587500X-0.150000X0.587500X-0.150000X0*%
%TD*%
%TA.AperFunction,SMDPad,CuDef*%
%ADD37RoundRect,0.225000X-0.375000X0.225000X-0.375000X-0.225000X0.375000X-0.225000X0.375000X0.225000X0*%
%TD*%
%TA.AperFunction,SMDPad,CuDef*%
%ADD38RoundRect,0.250000X-0.350000X-0.450000X0.350000X-0.450000X0.350000X0.450000X-0.350000X0.450000X0*%
%TD*%
%TA.AperFunction,SMDPad,CuDef*%
%ADD39RoundRect,0.250000X-0.350000X0.275000X-0.350000X-0.275000X0.350000X-0.275000X0.350000X0.275000X0*%
%TD*%
%TA.AperFunction,SMDPad,CuDef*%
%ADD40RoundRect,0.062500X0.062500X-0.375000X0.062500X0.375000X-0.062500X0.375000X-0.062500X-0.375000X0*%
%TD*%
%TA.AperFunction,SMDPad,CuDef*%
%ADD41RoundRect,0.062500X0.375000X-0.062500X0.375000X0.062500X-0.375000X0.062500X-0.375000X-0.062500X0*%
%TD*%
%TA.AperFunction,HeatsinkPad*%
%ADD42R,3.300000X3.300000*%
%TD*%
%TA.AperFunction,ComponentPad*%
%ADD43RoundRect,0.250000X-0.550000X0.550000X-0.550000X-0.550000X0.550000X-0.550000X0.550000X0.550000X0*%
%TD*%
%TA.AperFunction,ComponentPad*%
%ADD44C,1.600000*%
%TD*%
%TA.AperFunction,SMDPad,CuDef*%
%ADD45RoundRect,0.237500X0.300000X0.237500X-0.300000X0.237500X-0.300000X-0.237500X0.300000X-0.237500X0*%
%TD*%
%TA.AperFunction,SMDPad,CuDef*%
%ADD46RoundRect,0.187500X0.712500X-0.187500X0.712500X0.187500X-0.712500X0.187500X-0.712500X-0.187500X0*%
%TD*%
%TA.AperFunction,SMDPad,CuDef*%
%ADD47RoundRect,0.150000X0.750000X-0.150000X0.750000X0.150000X-0.750000X0.150000X-0.750000X-0.150000X0*%
%TD*%
%TA.AperFunction,SMDPad,CuDef*%
%ADD48RoundRect,0.225000X0.225000X-0.425000X0.225000X0.425000X-0.225000X0.425000X-0.225000X-0.425000X0*%
%TD*%
%TA.AperFunction,SMDPad,CuDef*%
%ADD49RoundRect,0.375000X0.625000X0.375000X-0.625000X0.375000X-0.625000X-0.375000X0.625000X-0.375000X0*%
%TD*%
%TA.AperFunction,SMDPad,CuDef*%
%ADD50RoundRect,0.500000X0.500000X1.400000X-0.500000X1.400000X-0.500000X-1.400000X0.500000X-1.400000X0*%
%TD*%
%TA.AperFunction,ViaPad*%
%ADD51C,0.600000*%
%TD*%
%TA.AperFunction,Conductor*%
%ADD52C,0.200000*%
%TD*%
G04 APERTURE END LIST*
D10*
%TO.P,Y2,1,1_1*%
%TO.N,Net-(U4-XTAL2{slash}PB7)*%
X170080000Y-99370000D03*
%TO.P,Y2,2,2_2*%
%TO.N,GNDD*%
X171280000Y-99370000D03*
%TO.P,Y2,3,3_3*%
%TO.N,Net-(U4-XTAL1{slash}PB6)*%
X172480000Y-99370000D03*
%TD*%
D11*
%TO.P,C5,1*%
%TO.N,Net-(U3-~{HWB}{slash}PD7)*%
X157605000Y-96120000D03*
%TO.P,C5,2*%
%TO.N,Net-(D2-A)*%
X159330000Y-96120000D03*
%TD*%
D12*
%TO.P,RN3A1,1*%
%TO.N,/D-*%
X139560000Y-87400000D03*
%TO.P,RN3A1,2*%
%TO.N,/RD-*%
X140375000Y-87400000D03*
%TD*%
D13*
%TO.P,J5,1,Pin_1_1*%
%TO.N,Net-(J5-Pin_1)*%
X142392500Y-81870000D03*
D14*
%TO.P,J5,2,Pin_2_2*%
%TO.N,+5V*%
X142392500Y-79330000D03*
%TO.P,J5,3,Pin_3_3*%
%TO.N,Net-(D3-A)*%
X144932500Y-81870000D03*
%TO.P,J5,4,Pin_4_4*%
%TO.N,Net-(J5-Pin_4)*%
X144932500Y-79330000D03*
%TO.P,J5,5,Pin_5_5*%
%TO.N,Net-(J5-Pin_5)*%
X147472500Y-81870000D03*
%TO.P,J5,6,Pin_6_6*%
%TO.N,GNDD*%
X147472500Y-79330000D03*
%TD*%
D13*
%TO.P,J3,1,Pin_1_1*%
%TO.N,Net-(IOH1-Pin_5)*%
X194580000Y-96410000D03*
D14*
%TO.P,J3,2,Pin_2_2*%
%TO.N,+5V*%
X192040000Y-96410000D03*
%TO.P,J3,3,Pin_3_3*%
%TO.N,Net-(IOH1-Pin_6)*%
X194580000Y-93870000D03*
%TO.P,J3,4,Pin_4_4*%
%TO.N,Net-(IOH1-Pin_4)*%
X192040000Y-93870000D03*
%TO.P,J3,5,Pin_5_5*%
%TO.N,Net-(D2-A)*%
X194580000Y-91330000D03*
%TO.P,J3,6,Pin_6_6*%
%TO.N,GNDD*%
X192040000Y-91330000D03*
%TD*%
D15*
%TO.P,J2,1*%
%TO.N,Net-(D4-A)*%
X138080000Y-115912500D03*
D16*
%TO.P,J2,2*%
%TO.N,GNDD*%
X132080000Y-115912500D03*
D17*
%TO.P,J2,3*%
%TO.N,N/C*%
X135080000Y-120612500D03*
%TD*%
D12*
%TO.P,RV2,1*%
%TO.N,/D+*%
X147025000Y-94600000D03*
%TO.P,RV2,2*%
%TO.N,Net-(J1-Shield)*%
X147840000Y-94600000D03*
%TD*%
D18*
%TO.P,J1,1,VBUS_1*%
%TO.N,/XUSB*%
X137280000Y-89825000D03*
D19*
%TO.P,J1,2,D-_2*%
%TO.N,/D-*%
X137280000Y-87325000D03*
%TO.P,J1,3,D+_3*%
%TO.N,/D+*%
X135280000Y-87325000D03*
%TO.P,J1,4,GND_4*%
%TO.N,Net-(GND1-A)*%
X135280000Y-89825000D03*
D20*
%TO.P,J1,SH,Shield_SH*%
%TO.N,Net-(J1-Shield)*%
X132580000Y-82555000D03*
X132580000Y-94595000D03*
%TD*%
D21*
%TO.P,U5,1*%
%TO.N,N/C*%
X153717500Y-85645000D03*
%TO.P,U5,2*%
X153717500Y-86295000D03*
%TO.P,U5,3*%
X153717500Y-86945000D03*
%TO.P,U5,4,V-_4*%
%TO.N,GNDD*%
X153717500Y-87595000D03*
%TO.P,U5,5,+_5*%
%TO.N,SCK*%
X157942500Y-87595000D03*
%TO.P,U5,6,-_6*%
%TO.N,/13*%
X157942500Y-86945000D03*
%TO.P,U5,7*%
X157942500Y-86295000D03*
%TO.P,U5,8,V+_8*%
%TO.N,+5V*%
X157942500Y-85645000D03*
%TD*%
D22*
%TO.P,Y1,1,1_1*%
%TO.N,Net-(U3-PC0{slash}XTAL2)*%
X147390000Y-98120000D03*
%TO.P,Y1,2,2_2*%
%TO.N,Net-(U3-XTAL1)*%
X152270000Y-98120000D03*
%TD*%
D23*
%TO.P,GREEN1,1,K_1*%
%TO.N,GNDD*%
X186780000Y-87370000D03*
%TO.P,GREEN1,2,A_2*%
%TO.N,Net-(GREEN1-A)*%
X188830000Y-87370000D03*
%TD*%
D24*
%TO.P,J8,1,Pin_1_1*%
%TO.N,Net-(J8-Pin_1)*%
X146395000Y-84765000D03*
D25*
%TO.P,J8,2,Pin_2_2*%
%TO.N,Net-(J8-Pin_2)*%
X147665000Y-84765000D03*
%TO.P,J8,3,Pin_3_3*%
%TO.N,Net-(J8-Pin_3)*%
X146395000Y-86035000D03*
%TO.P,J8,4,Pin_4_4*%
%TO.N,Net-(J8-Pin_4)*%
X147665000Y-86035000D03*
%TD*%
D26*
%TO.P,F1,1,1_1*%
%TO.N,/XUSB*%
X134080000Y-97270000D03*
%TO.P,F1,2,2_2*%
%TO.N,USBVCC*%
X134080000Y-101470000D03*
%TD*%
D12*
%TO.P,RN3D1,1*%
%TO.N,/D+*%
X139240000Y-92370000D03*
%TO.P,RN3D1,2*%
%TO.N,/RD+*%
X140055000Y-92370000D03*
%TD*%
D23*
%TO.P,TX1,1,K_1*%
%TO.N,Net-(TX1-K)*%
X154780000Y-89620000D03*
%TO.P,TX1,2,A_2*%
%TO.N,Net-(TX1-A)*%
X156830000Y-89620000D03*
%TD*%
D27*
%TO.P,RESET1,1,A_1*%
%TO.N,Net-(D2-A)*%
X157780000Y-98120000D03*
D28*
%TO.P,RESET1,2,B_2*%
X159080000Y-98120000D03*
%TD*%
D29*
%TO.P,C1,1*%
%TO.N,+5V*%
X144830000Y-107870000D03*
%TO.P,C1,2*%
%TO.N,GNDD*%
X144830000Y-106145000D03*
%TD*%
D11*
%TO.P,C9,1*%
%TO.N,GNDD*%
X142105000Y-94370000D03*
%TO.P,C9,2*%
%TO.N,Net-(U3-PC0{slash}XTAL2)*%
X143830000Y-94370000D03*
%TD*%
D21*
%TO.P,U5,1*%
%TO.N,N/C*%
X157967500Y-100395000D03*
%TO.P,U5,2*%
X157967500Y-101045000D03*
%TO.P,U5,3*%
X157967500Y-101695000D03*
%TO.P,U5,4,V-_4*%
X157967500Y-102345000D03*
%TO.P,U5,5,+_5*%
X162192500Y-102345000D03*
%TO.P,U5,6,-_6*%
X162192500Y-101695000D03*
%TO.P,U5,7*%
X162192500Y-101045000D03*
%TO.P,U5,8,V+_8*%
X162192500Y-100395000D03*
%TD*%
D12*
%TO.P,R1,1*%
%TO.N,Net-(U3-PC0{slash}XTAL2)*%
X149525000Y-94600000D03*
%TO.P,R1,2*%
%TO.N,Net-(U3-XTAL1)*%
X150340000Y-94600000D03*
%TD*%
D11*
%TO.P,C6,1*%
%TO.N,+5V*%
X167855000Y-113870000D03*
%TO.P,C6,2*%
%TO.N,GNDD*%
X169580000Y-113870000D03*
%TD*%
D30*
%TO.P,D2,1,K_1*%
%TO.N,+5V*%
X188830000Y-95370000D03*
%TO.P,D2,2,A_2*%
%TO.N,Net-(D2-A)*%
X188830000Y-92070000D03*
%TD*%
D31*
%TO.P,C3,1*%
%TO.N,Net-(U6-VOUT)*%
X152580000Y-106845000D03*
%TO.P,C3,2*%
%TO.N,GNDD*%
X152580000Y-107345000D03*
%TD*%
D12*
%TO.P,R2,1*%
%TO.N,Net-(U4-XTAL2{slash}PB7)*%
X170605000Y-102370000D03*
%TO.P,R2,2*%
%TO.N,Net-(U4-XTAL1{slash}PB6)*%
X171420000Y-102370000D03*
%TD*%
D21*
%TO.P,U7,1*%
%TO.N,N/C*%
X138287500Y-88825000D03*
%TO.P,U7,2*%
X138287500Y-89475000D03*
%TO.P,U7,3*%
X138287500Y-90125000D03*
%TO.P,U7,4*%
X138287500Y-90775000D03*
%TO.P,U7,5,+_5*%
%TO.N,/CMP*%
X142512500Y-90775000D03*
%TO.P,U7,6,-_6*%
%TO.N,+3V3(2)*%
X142512500Y-90125000D03*
%TO.P,U7,7*%
%TO.N,Net-(T1-G)*%
X142512500Y-89475000D03*
%TO.P,U7,8*%
%TO.N,N/C*%
X142512500Y-88825000D03*
%TD*%
D23*
%TO.P,L2,1,K_1*%
%TO.N,GNDD*%
X155030000Y-83620000D03*
%TO.P,L2,2,A_2*%
%TO.N,Net-(L2-A)*%
X157080000Y-83620000D03*
%TD*%
D32*
%TO.P,D4,1,K_1*%
%TO.N,Net-(D4-K)*%
X150200000Y-120870000D03*
D33*
%TO.P,D4,2,A_2*%
%TO.N,Net-(D4-A)*%
X142580000Y-120870000D03*
%TD*%
D12*
%TO.P,RV3,1*%
%TO.N,/D-*%
X151775000Y-94600000D03*
%TO.P,RV3,2*%
%TO.N,Net-(J1-Shield)*%
X152590000Y-94600000D03*
%TD*%
D34*
%TO.P,PC2,1*%
%TO.N,+5V*%
X153160000Y-111270000D03*
%TO.P,PC2,2*%
%TO.N,GNDD*%
X153160000Y-116870000D03*
%TD*%
D35*
%TO.P,U6,1,VIN_1*%
%TO.N,+5V*%
X148442500Y-106420000D03*
%TO.P,U6,2,GND_2*%
%TO.N,GNDD*%
X148442500Y-107370000D03*
%TO.P,U6,3,ON/~{OFF}_3*%
%TO.N,+5V*%
X148442500Y-108320000D03*
%TO.P,U6,4,BP_4*%
%TO.N,unconnected-(U6-BP-Pad4)*%
X150717500Y-108320000D03*
%TO.P,U6,5,VOUT_5*%
%TO.N,Net-(U6-VOUT)*%
X150717500Y-106420000D03*
%TD*%
D36*
%TO.P,T1,1,G_1*%
%TO.N,Net-(T1-G)*%
X140517500Y-99820000D03*
%TO.P,T1,2,S_2*%
%TO.N,+5V*%
X140517500Y-97920000D03*
%TO.P,T1,3,D_3*%
%TO.N,USBVCC*%
X138642500Y-98870000D03*
%TD*%
D37*
%TO.P,D3,1,K_1*%
%TO.N,+5V*%
X139330000Y-79120000D03*
%TO.P,D3,2,A_2*%
%TO.N,Net-(D3-A)*%
X139330000Y-82420000D03*
%TD*%
D13*
%TO.P,J4,1,Pin_1_1*%
%TO.N,Net-(J4-Pin_1)*%
X191580000Y-75370000D03*
D14*
%TO.P,J4,2,Pin_2_2*%
%TO.N,Net-(J4-Pin_2)*%
X189040000Y-75370000D03*
%TO.P,J4,3,Pin_3_3*%
%TO.N,Net-(J4-Pin_3)*%
X186500000Y-75370000D03*
%TO.P,J4,4,Pin_4_4*%
%TO.N,Net-(J4-Pin_4)*%
X183960000Y-75370000D03*
%TO.P,J4,5,Pin_5_5*%
%TO.N,Net-(J4-Pin_5)*%
X181420000Y-75370000D03*
%TO.P,J4,6,Pin_6_6*%
%TO.N,Net-(J4-Pin_6)*%
X178880000Y-75370000D03*
%TO.P,J4,7,Pin_7_7*%
%TO.N,Net-(J4-Pin_7)*%
X176340000Y-75370000D03*
%TO.P,J4,8,Pin_8_8*%
%TO.N,Net-(J4-Pin_8)*%
X173800000Y-75370000D03*
%TD*%
D34*
%TO.P,PC1,1*%
%TO.N,Net-(D4-K)*%
X145660000Y-111070000D03*
%TO.P,PC1,2*%
%TO.N,GNDD*%
X145660000Y-116670000D03*
%TD*%
D38*
%TO.P,RN1C1,1*%
%TO.N,Net-(D3-A)*%
X139000000Y-85200000D03*
%TO.P,RN1C1,2*%
%TO.N,+5V*%
X141000000Y-85200000D03*
%TD*%
D39*
%TO.P,L1,1*%
%TO.N,Net-(J1-Shield)*%
X136580000Y-74320000D03*
%TO.P,L1,2*%
%TO.N,Net-(GND1-A)*%
X136580000Y-76620000D03*
%TD*%
D40*
%TO.P,U3,1,XTAL1_1*%
%TO.N,Net-(U3-XTAL1)*%
X145892500Y-92870000D03*
%TO.P,U3,2,PC0/XTAL2_2*%
%TO.N,Net-(U3-PC0{slash}XTAL2)*%
X146392500Y-92870000D03*
%TO.P,U3,3,GND_3*%
%TO.N,GNDD*%
X146892500Y-92870000D03*
%TO.P,U3,4,VCC_4*%
%TO.N,+5V*%
X147392500Y-92870000D03*
%TO.P,U3,5,PC2_5*%
%TO.N,unconnected-(U3-PC2-Pad5)*%
X147892500Y-92870000D03*
%TO.P,U3,6,PD0_6*%
%TO.N,unconnected-(U3-PD0-Pad6)*%
X148392500Y-92870000D03*
%TO.P,U3,7,PD1_7*%
%TO.N,unconnected-(U3-PD1-Pad7)*%
X148892500Y-92870000D03*
%TO.P,U3,8,PD2_8*%
%TO.N,Net-(U3-PD2)*%
X149392500Y-92870000D03*
D41*
%TO.P,U3,9,PD3_9*%
%TO.N,Net-(U3-PD3)*%
X150080000Y-92182500D03*
%TO.P,U3,10,PD4_10*%
%TO.N,Net-(RX1-K)*%
X150080000Y-91682500D03*
%TO.P,U3,11,PD5_11*%
%TO.N,Net-(TX1-K)*%
X150080000Y-91182500D03*
%TO.P,U3,12,PD6_12*%
%TO.N,unconnected-(U3-PD6-Pad12)*%
X150080000Y-90682500D03*
%TO.P,U3,13,~{HWB}/PD7_13*%
%TO.N,Net-(U3-~{HWB}{slash}PD7)*%
X150080000Y-90182500D03*
%TO.P,U3,14,PB0_14*%
%TO.N,unconnected-(U3-PB0-Pad14)*%
X150080000Y-89682500D03*
%TO.P,U3,15,PB1_15*%
%TO.N,Net-(D3-A)*%
X150080000Y-89182500D03*
%TO.P,U3,16,PB2_16*%
%TO.N,Net-(J5-Pin_4)*%
X150080000Y-88682500D03*
D40*
%TO.P,U3,17,PB3_17*%
%TO.N,Net-(J5-Pin_1)*%
X149392500Y-87995000D03*
%TO.P,U3,18,PB4_18*%
%TO.N,Net-(J8-Pin_1)*%
X148892500Y-87995000D03*
%TO.P,U3,19,PB5_19*%
%TO.N,Net-(J8-Pin_3)*%
X148392500Y-87995000D03*
%TO.P,U3,20,PB6_20*%
%TO.N,Net-(J8-Pin_2)*%
X147892500Y-87995000D03*
%TO.P,U3,21,PB7_21*%
%TO.N,Net-(J8-Pin_4)*%
X147392500Y-87995000D03*
%TO.P,U3,22,PC7_22*%
%TO.N,unconnected-(U3-PC7-Pad22)*%
X146892500Y-87995000D03*
%TO.P,U3,23,PC6_23*%
%TO.N,unconnected-(U3-PC6-Pad23)*%
X146392500Y-87995000D03*
%TO.P,U3,24,PC1/~{RESET}_24*%
%TO.N,Net-(J5-Pin_5)*%
X145892500Y-87995000D03*
D41*
%TO.P,U3,25,PC5_25*%
%TO.N,unconnected-(U3-PC5-Pad25)*%
X145205000Y-88682500D03*
%TO.P,U3,26,PC4_26*%
%TO.N,unconnected-(U3-PC4-Pad26)*%
X145205000Y-89182500D03*
%TO.P,U3,27,UCAP_27*%
%TO.N,Net-(U3-UCAP)*%
X145205000Y-89682500D03*
%TO.P,U3,28,UGND_28*%
%TO.N,Net-(GND1-A)*%
X145205000Y-90182500D03*
%TO.P,U3,29,D+_29*%
%TO.N,/RD+*%
X145205000Y-90682500D03*
%TO.P,U3,30,D-_30*%
%TO.N,/RD-*%
X145205000Y-91182500D03*
%TO.P,U3,31,UVCC_31*%
%TO.N,USBVCC*%
X145205000Y-91682500D03*
%TO.P,U3,32,AVCC_32*%
%TO.N,+5V*%
X145205000Y-92182500D03*
D42*
%TO.P,U3,33,GND_33*%
%TO.N,GNDD*%
X147642500Y-90432500D03*
%TD*%
D13*
%TO.P,J6,1,Pin_1_1*%
%TO.N,unconnected-(J6-Pin_1-Pad1)*%
X156800000Y-120870000D03*
D14*
%TO.P,J6,2,Pin_2_2*%
%TO.N,+5V*%
X159340000Y-120870000D03*
%TO.P,J6,3,Pin_3_3*%
%TO.N,Net-(D2-A)*%
X161880000Y-120870000D03*
%TO.P,J6,4,Pin_4_4*%
%TO.N,+3V3(2)*%
X164420000Y-120870000D03*
%TO.P,J6,5,Pin_5_5*%
%TO.N,+5V*%
X166960000Y-120870000D03*
%TO.P,J6,6,Pin_6_6*%
%TO.N,GNDD*%
X169500000Y-120870000D03*
%TO.P,J6,7,Pin_7_7*%
X172040000Y-120870000D03*
%TO.P,J6,8,Pin_8_8*%
%TO.N,VIN(8)*%
X174580000Y-120870000D03*
%TD*%
D43*
%TO.P,U4,1,~{RESET}/PC6_1*%
%TO.N,Net-(D2-A)*%
X191520000Y-104250000D03*
D44*
%TO.P,U4,2,PD0_2*%
%TO.N,Net-(J4-Pin_1)*%
X188980000Y-104250000D03*
%TO.P,U4,3,PD1_3*%
%TO.N,Net-(J4-Pin_2)*%
X186440000Y-104250000D03*
%TO.P,U4,4,PD2_4*%
%TO.N,Net-(J4-Pin_3)*%
X183900000Y-104250000D03*
%TO.P,U4,5,PD3_5*%
%TO.N,Net-(J4-Pin_4)*%
X181360000Y-104250000D03*
%TO.P,U4,6,PD4_6*%
%TO.N,Net-(J4-Pin_5)*%
X178820000Y-104250000D03*
%TO.P,U4,7,VCC_7*%
%TO.N,+5V*%
X176280000Y-104250000D03*
%TO.P,U4,8,GND_8*%
%TO.N,GNDD*%
X173740000Y-104250000D03*
%TO.P,U4,9,XTAL1/PB6_9*%
%TO.N,Net-(U4-XTAL1{slash}PB6)*%
X171200000Y-104250000D03*
%TO.P,U4,10,XTAL2/PB7_10*%
%TO.N,Net-(U4-XTAL2{slash}PB7)*%
X168660000Y-104250000D03*
%TO.P,U4,11,PD5_11*%
%TO.N,Net-(J4-Pin_6)*%
X166120000Y-104250000D03*
%TO.P,U4,12,PD6_12*%
%TO.N,Net-(J4-Pin_7)*%
X163580000Y-104250000D03*
%TO.P,U4,13,PD7_13*%
%TO.N,Net-(J4-Pin_8)*%
X161040000Y-104250000D03*
%TO.P,U4,14,PB0_14*%
%TO.N,Net-(IOH1-Pin_1)*%
X158500000Y-104250000D03*
%TO.P,U4,15,PB1_15*%
%TO.N,Net-(IOH1-Pin_2)*%
X158500000Y-111870000D03*
%TO.P,U4,16,PB2_16*%
%TO.N,Net-(IOH1-Pin_3)*%
X161040000Y-111870000D03*
%TO.P,U4,17,PB3_17*%
%TO.N,Net-(IOH1-Pin_4)*%
X163580000Y-111870000D03*
%TO.P,U4,18,PB4_18*%
%TO.N,Net-(IOH1-Pin_5)*%
X166120000Y-111870000D03*
%TO.P,U4,19,PB5_19*%
%TO.N,Net-(IOH1-Pin_6)*%
X168660000Y-111870000D03*
%TO.P,U4,20,AVCC_20*%
%TO.N,+5V*%
X171200000Y-111870000D03*
%TO.P,U4,21,AREF_21*%
%TO.N,AREF(21)*%
X173740000Y-111870000D03*
%TO.P,U4,22,AGND_22*%
%TO.N,GNDD*%
X176280000Y-111870000D03*
%TO.P,U4,23,PC0_23*%
%TO.N,Net-(AD1-Pin_1)*%
X178820000Y-111870000D03*
%TO.P,U4,24,PC1_24*%
%TO.N,Net-(AD1-Pin_2)*%
X181360000Y-111870000D03*
%TO.P,U4,25,PC2_25*%
%TO.N,Net-(AD1-Pin_3)*%
X183900000Y-111870000D03*
%TO.P,U4,26,PC3_26*%
%TO.N,Net-(AD1-Pin_4)*%
X186440000Y-111870000D03*
%TO.P,U4,27,PC4_27*%
%TO.N,Net-(AD1-Pin_5)*%
X188980000Y-111870000D03*
%TO.P,U4,28,PC5_28*%
%TO.N,SCI*%
X191520000Y-111870000D03*
%TD*%
D45*
%TO.P,C11,1*%
%TO.N,GNDD*%
X159400000Y-94200000D03*
%TO.P,C11,2*%
%TO.N,Net-(U3-XTAL1)*%
X157675000Y-94200000D03*
%TD*%
D13*
%TO.P,IOH1,1,Pin_1_1*%
%TO.N,Net-(IOH1-Pin_1)*%
X168320000Y-75370000D03*
D14*
%TO.P,IOH1,2,Pin_2_2*%
%TO.N,Net-(IOH1-Pin_2)*%
X165780000Y-75370000D03*
%TO.P,IOH1,3,Pin_3_3*%
%TO.N,Net-(IOH1-Pin_3)*%
X163240000Y-75370000D03*
%TO.P,IOH1,4,Pin_4_4*%
%TO.N,Net-(IOH1-Pin_4)*%
X160700000Y-75370000D03*
%TO.P,IOH1,5,Pin_5_5*%
%TO.N,Net-(IOH1-Pin_5)*%
X158160000Y-75370000D03*
%TO.P,IOH1,6,Pin_6_6*%
%TO.N,Net-(IOH1-Pin_6)*%
X155620000Y-75370000D03*
%TO.P,IOH1,7,Pin_7_7*%
%TO.N,SCK*%
X153080000Y-75370000D03*
%TO.P,IOH1,8,Pin_8_8*%
%TO.N,Net-(IOH1-Pin_8)*%
X150540000Y-75370000D03*
%TO.P,IOH1,9,Pin_9_9*%
%TO.N,AREF(21)*%
X148000000Y-75370000D03*
%TO.P,IOH1,10,Pin_10_10*%
%TO.N,SCI*%
X145460000Y-75370000D03*
%TD*%
D46*
%TO.P,SW2,1,1_1*%
%TO.N,Net-(D2-A)*%
X130130000Y-77745000D03*
X130130000Y-75295000D03*
D47*
%TO.P,SW2,2,2_2*%
%TO.N,GNDD*%
X130130000Y-76520000D03*
D48*
%TO.P,SW2,MP*%
%TO.N,N/C*%
X132080000Y-78370000D03*
X132080000Y-74670000D03*
%TD*%
D49*
%TO.P,U2,1,GND_1*%
%TO.N,GNDD*%
X137380000Y-109170000D03*
%TO.P,U2,2,VO_2*%
%TO.N,+5V*%
X137380000Y-106870000D03*
D50*
X131080000Y-106870000D03*
D49*
%TO.P,U2,3,VI_3*%
%TO.N,Net-(D4-K)*%
X137380000Y-104570000D03*
%TD*%
D23*
%TO.P,RX1,1,K_1*%
%TO.N,Net-(RX1-K)*%
X154780000Y-92120000D03*
%TO.P,RX1,2,A_2*%
%TO.N,Net-(RX1-A)*%
X156830000Y-92120000D03*
%TD*%
D13*
%TO.P,AD1,1,Pin_1_1*%
%TO.N,Net-(AD1-Pin_1)*%
X178660000Y-120870000D03*
D14*
%TO.P,AD1,2,Pin_2_2*%
%TO.N,Net-(AD1-Pin_2)*%
X181200000Y-120870000D03*
%TO.P,AD1,3,Pin_3_3*%
%TO.N,Net-(AD1-Pin_3)*%
X183740000Y-120870000D03*
%TO.P,AD1,4,Pin_4_4*%
%TO.N,Net-(AD1-Pin_4)*%
X186280000Y-120870000D03*
%TO.P,AD1,5,Pin_5_5*%
%TO.N,Net-(AD1-Pin_5)*%
X188820000Y-120870000D03*
%TO.P,AD1,6,Pin_6_6*%
%TO.N,SCI*%
X191360000Y-120870000D03*
%TD*%
D21*
%TO.P,U5,1*%
%TO.N,Net-(T1-G)*%
X143967500Y-101895000D03*
%TO.P,U5,2,-_2*%
%TO.N,+3V3(2)*%
X143967500Y-102545000D03*
%TO.P,U5,3,+_3*%
%TO.N,/CMP*%
X143967500Y-103195000D03*
%TO.P,U5,4,V-_4*%
%TO.N,GNDD*%
X143967500Y-103845000D03*
%TO.P,U5,5,+_5*%
%TO.N,SCK*%
X148192500Y-103845000D03*
%TO.P,U5,6,-_6*%
%TO.N,/13*%
X148192500Y-103195000D03*
%TO.P,U5,7*%
X148192500Y-102545000D03*
%TO.P,U5,8,V+_8*%
%TO.N,+5V*%
X148192500Y-101895000D03*
%TD*%
D51*
%TO.N,Net-(D2-A)*%
X189600000Y-85000000D03*
X191400000Y-83200000D03*
%TO.N,+5V*%
X177600000Y-99800000D03*
X150200000Y-83400000D03*
X186600000Y-95600000D03*
X157942500Y-85595000D03*
%TO.N,Net-(IOH1-Pin_5)*%
X175295000Y-92505000D03*
%TO.N,Net-(IOH1-Pin_6)*%
X174800000Y-93800000D03*
X174800000Y-93800000D03*
X174600000Y-98200000D03*
%TO.N,Net-(IOH1-Pin_4)*%
X176800000Y-92600000D03*
X191075027Y-93682843D03*
%TO.N,Net-(J1-Shield)*%
X145800000Y-94800000D03*
X138400000Y-74200000D03*
X141400000Y-92400000D03*
%TO.N,Net-(GND1-A)*%
X136580000Y-76620000D03*
X138200000Y-76800000D03*
%TO.N,Net-(U3-PC0{slash}XTAL2)*%
X148800000Y-95000000D03*
%TO.N,Net-(U3-XTAL1)*%
X152270000Y-96800000D03*
X155600000Y-94000000D03*
%TO.N,USBVCC*%
X143200000Y-92200000D03*
%TO.N,+3V3(2)*%
X145006108Y-102591283D03*
X142800000Y-99000000D03*
X141400000Y-90200000D03*
X141400000Y-90200000D03*
%TO.N,Net-(J4-Pin_3)*%
X183200000Y-94600000D03*
X183200000Y-94600000D03*
%TO.N,Net-(J4-Pin_4)*%
X195400000Y-98800000D03*
X180978552Y-102821447D03*
%TO.N,Net-(J4-Pin_5)*%
X176000000Y-95600000D03*
X179227082Y-99372918D03*
X175277203Y-89286319D03*
%TO.N,Net-(J4-Pin_6)*%
X174743878Y-88690023D03*
%TO.N,Net-(J4-Pin_7)*%
X174065687Y-88265687D03*
X165200000Y-95800000D03*
X174065687Y-88265687D03*
%TO.N,Net-(J4-Pin_8)*%
X173500000Y-87700000D03*
X161400000Y-103200000D03*
%TO.N,Net-(IOH1-Pin_1)*%
X159200000Y-103600000D03*
X164600000Y-100800000D03*
X172765687Y-87365688D03*
%TO.N,Net-(IOH1-Pin_2)*%
X164000000Y-102600000D03*
X172200000Y-86800000D03*
%TO.N,Net-(IOH1-Pin_3)*%
X161600000Y-110200000D03*
X171424265Y-86375735D03*
%TO.N,AREF(21)*%
X173400000Y-93400000D03*
X173600000Y-96400000D03*
%TD*%
%TO.N,Net-(D2-A)*%
D52*
X148128529Y-80480000D02*
X152605000Y-84956471D01*
X140415256Y-81553952D02*
X138430000Y-79568696D01*
X159330000Y-97750000D02*
X159330000Y-96120000D01*
X142992500Y-94836722D02*
X142992500Y-93637571D01*
X144067500Y-92562571D02*
X144067500Y-92062572D01*
X158190000Y-117565256D02*
X153944744Y-113320000D01*
X157780000Y-98120000D02*
X159080000Y-98120000D01*
X188830000Y-92070000D02*
X190720000Y-90180000D01*
X129814448Y-77745000D02*
X130130000Y-77745000D01*
X151634315Y-81200000D02*
X147834315Y-77400000D01*
X153944744Y-113320000D02*
X134491358Y-113320000D01*
X152605000Y-84956471D02*
X152605000Y-92945000D01*
X144983654Y-74220000D02*
X182136346Y-74220000D01*
X193430000Y-90180000D02*
X194580000Y-91330000D01*
X159080000Y-98120000D02*
X159080000Y-98000000D01*
X160730000Y-122020000D02*
X158863654Y-122020000D01*
X141626471Y-91275000D02*
X140800000Y-90448529D01*
X138430000Y-79568696D02*
X138430000Y-78671304D01*
X141151471Y-86936215D02*
X140100000Y-85884744D01*
X182136346Y-74220000D02*
X182810000Y-74893654D01*
X134289448Y-104670000D02*
X139739448Y-99220000D01*
X139480000Y-97579448D02*
X141914448Y-95145000D01*
X142684222Y-95145000D02*
X142992500Y-94836722D01*
X160250000Y-95200000D02*
X160250000Y-81810051D01*
X159080000Y-98000000D02*
X159330000Y-97750000D01*
X151200000Y-78800000D02*
X151200000Y-93200000D01*
X138921304Y-78180000D02*
X142868846Y-78180000D01*
X143279929Y-91275000D02*
X141626471Y-91275000D01*
X134491358Y-113320000D02*
X129780000Y-108608642D01*
X159330000Y-96120000D02*
X160250000Y-95200000D01*
X194600000Y-91400000D02*
X194600000Y-90000000D01*
X159639949Y-81200000D02*
X151634315Y-81200000D01*
X182810000Y-86050000D02*
X188830000Y-92070000D01*
X152605000Y-92945000D02*
X157780000Y-98120000D01*
X194580000Y-91330000D02*
X194580000Y-91380000D01*
X151200000Y-93200000D02*
X152800000Y-93200000D01*
X144216154Y-80480000D02*
X148128529Y-80480000D01*
X135995256Y-77445000D02*
X149755000Y-77445000D01*
X128930000Y-76860552D02*
X129814448Y-77745000D01*
X139480000Y-98260552D02*
X139480000Y-97579448D01*
X130130000Y-77745000D02*
X130455000Y-77420000D01*
X143542500Y-78853654D02*
X143542500Y-79806346D01*
X156060000Y-96400000D02*
X157780000Y-98120000D01*
X182810000Y-74893654D02*
X182810000Y-86050000D01*
X144067500Y-92062572D02*
X143279929Y-91275000D01*
X139739448Y-99220000D02*
X139739448Y-98520000D01*
X190720000Y-90180000D02*
X193430000Y-90180000D01*
X130241358Y-104670000D02*
X134289448Y-104670000D01*
X161880000Y-120870000D02*
X160730000Y-122020000D01*
X141151471Y-89600000D02*
X141151471Y-86936215D01*
X160250000Y-81810051D02*
X159639949Y-81200000D01*
X140800000Y-89951471D02*
X141151471Y-89600000D01*
X152800000Y-93200000D02*
X156000000Y-96400000D01*
X149755000Y-77445000D02*
X149800000Y-77400000D01*
X129780000Y-105131358D02*
X130241358Y-104670000D01*
X156000000Y-96400000D02*
X156060000Y-96400000D01*
X142992500Y-93637571D02*
X144067500Y-92562571D01*
X140100000Y-85884744D02*
X140100000Y-84515256D01*
X140800000Y-90448529D02*
X140800000Y-89951471D01*
X144310000Y-74893654D02*
X144983654Y-74220000D01*
X158863654Y-122020000D02*
X158190000Y-121346346D01*
X191400000Y-83200000D02*
X196980000Y-88780000D01*
X129230000Y-75295000D02*
X128930000Y-75595000D01*
X130130000Y-75295000D02*
X129230000Y-75295000D01*
X135970256Y-77420000D02*
X135995256Y-77445000D01*
X196980000Y-88780000D02*
X196980000Y-98790000D01*
X140100000Y-84515256D02*
X140415256Y-84200000D01*
X145863654Y-77400000D02*
X144310000Y-75846346D01*
X147834315Y-77400000D02*
X145863654Y-77400000D01*
X141914448Y-95145000D02*
X142684222Y-95145000D01*
X196980000Y-98790000D02*
X191520000Y-104250000D01*
X144310000Y-75846346D02*
X144310000Y-74893654D01*
X149800000Y-77400000D02*
X151200000Y-78800000D01*
X130455000Y-77420000D02*
X135970256Y-77420000D01*
X194600000Y-90000000D02*
X189600000Y-85000000D01*
X142868846Y-78180000D02*
X143542500Y-78853654D01*
X143542500Y-79806346D02*
X144216154Y-80480000D01*
X128930000Y-75595000D02*
X128930000Y-76860552D01*
X194580000Y-91380000D02*
X194600000Y-91400000D01*
X129780000Y-108608642D02*
X129780000Y-105131358D01*
X138430000Y-78671304D02*
X138921304Y-78180000D01*
X158190000Y-121346346D02*
X158190000Y-117565256D01*
X139739448Y-98520000D02*
X139480000Y-98260552D01*
X140415256Y-84200000D02*
X140415256Y-81553952D01*
%TO.N,+5V*%
X141000000Y-85200000D02*
X141000000Y-80722500D01*
X174195635Y-112970000D02*
X175180000Y-111985635D01*
X149305000Y-102195001D02*
X149004999Y-101895000D01*
X142392500Y-79330000D02*
X139540000Y-79330000D01*
X144467500Y-88468114D02*
X145678114Y-87257500D01*
X149405000Y-108019999D02*
X149104999Y-108320000D01*
X176280000Y-101120000D02*
X177600000Y-99800000D01*
X145205000Y-93134386D02*
X145678114Y-93607500D01*
X144753114Y-92182500D02*
X143625000Y-91054386D01*
X131080000Y-106870000D02*
X137380000Y-106870000D01*
X145205000Y-94299222D02*
X145205000Y-92182500D01*
X145678114Y-93607500D02*
X147106886Y-93607500D01*
X192040000Y-96410000D02*
X191000000Y-95370000D01*
X166960000Y-120870000D02*
X167855000Y-119975000D01*
X172300000Y-112970000D02*
X174195635Y-112970000D01*
X159340000Y-117450000D02*
X159340000Y-120870000D01*
X144467500Y-92396886D02*
X144467500Y-88468114D01*
X149405000Y-107029448D02*
X149405000Y-108019999D01*
X147106886Y-93607500D02*
X147392500Y-93321886D01*
X141584222Y-97920000D02*
X145205000Y-94299222D01*
X168630000Y-113095000D02*
X169975000Y-113095000D01*
X150200000Y-84800000D02*
X150200000Y-83400000D01*
X145205000Y-92182500D02*
X144753114Y-92182500D01*
X148442500Y-106420000D02*
X148795552Y-106420000D01*
X169975000Y-113095000D02*
X171200000Y-111870000D01*
X159340000Y-120870000D02*
X160490000Y-119720000D01*
X149104999Y-108320000D02*
X148442500Y-108320000D01*
X141000000Y-80722500D02*
X142392500Y-79330000D01*
X150810000Y-108920000D02*
X153160000Y-111270000D01*
X171200000Y-111870000D02*
X172300000Y-112970000D01*
X167855000Y-119975000D02*
X167855000Y-113870000D01*
X147392500Y-93321886D02*
X147392500Y-92870000D01*
X144830000Y-107870000D02*
X146280000Y-106420000D01*
X165810000Y-119720000D02*
X166960000Y-120870000D01*
X141555000Y-98957500D02*
X140517500Y-97920000D01*
X145205000Y-92182500D02*
X145205000Y-93134386D01*
X141555000Y-102695000D02*
X141555000Y-98957500D01*
X191000000Y-95370000D02*
X188830000Y-95370000D01*
X149305000Y-105557500D02*
X149305000Y-102195001D01*
X148442500Y-106420000D02*
X149305000Y-105557500D01*
X148442500Y-108320000D02*
X149042500Y-108920000D01*
X153160000Y-111270000D02*
X159340000Y-117450000D01*
X145678114Y-93607500D02*
X144467500Y-92396886D01*
X137380000Y-106870000D02*
X141555000Y-102695000D01*
X175180000Y-105350000D02*
X176280000Y-104250000D01*
X146280000Y-106420000D02*
X148442500Y-106420000D01*
X143625000Y-91054386D02*
X143625000Y-87825000D01*
X176280000Y-104250000D02*
X176280000Y-101120000D01*
X139540000Y-79330000D02*
X139330000Y-79120000D01*
X145678114Y-87257500D02*
X147742500Y-87257500D01*
X137380000Y-106870000D02*
X143830000Y-106870000D01*
X160490000Y-119720000D02*
X165810000Y-119720000D01*
X143625000Y-87825000D02*
X141000000Y-85200000D01*
X149004999Y-101895000D02*
X148192500Y-101895000D01*
X148795552Y-106420000D02*
X149405000Y-107029448D01*
X175180000Y-111985635D02*
X175180000Y-105350000D01*
X140517500Y-97920000D02*
X141584222Y-97920000D01*
X143830000Y-106870000D02*
X144830000Y-107870000D01*
X147742500Y-87257500D02*
X150200000Y-84800000D01*
X149042500Y-108920000D02*
X150810000Y-108920000D01*
X167855000Y-113870000D02*
X168630000Y-113095000D01*
%TO.N,Net-(IOH1-Pin_5)*%
X195056346Y-92720000D02*
X195730000Y-93393654D01*
X176190000Y-93400000D02*
X176200000Y-93400000D01*
X190509340Y-93400000D02*
X191189340Y-92720000D01*
X195730000Y-93393654D02*
X195730000Y-95260000D01*
X195730000Y-95260000D02*
X194580000Y-96410000D01*
X175295000Y-92505000D02*
X176190000Y-93400000D01*
X158160000Y-75370000D02*
X175295000Y-92505000D01*
X176190000Y-93400000D02*
X190509340Y-93400000D01*
X191189340Y-92720000D02*
X195056346Y-92720000D01*
%TO.N,Net-(IOH1-Pin_6)*%
X193250000Y-95200000D02*
X194580000Y-93870000D01*
X174600000Y-96551471D02*
X173848529Y-95800000D01*
X191743654Y-95200000D02*
X193250000Y-95200000D01*
X173848529Y-95800000D02*
X173351471Y-95800000D01*
X169760000Y-104134365D02*
X169760000Y-110770000D01*
X171655635Y-103150000D02*
X170744365Y-103150000D01*
X170744365Y-103150000D02*
X169760000Y-104134365D01*
X173000000Y-96151471D02*
X173000000Y-101805635D01*
X155620000Y-75370000D02*
X156370000Y-75370000D01*
X156370000Y-75370000D02*
X174800000Y-93800000D01*
X173000000Y-101805635D02*
X171655635Y-103150000D01*
X173351471Y-95800000D02*
X173000000Y-96151471D01*
X174600000Y-98200000D02*
X174600000Y-96551471D01*
X169760000Y-110770000D02*
X168660000Y-111870000D01*
X190343654Y-93800000D02*
X191743654Y-95200000D01*
X174800000Y-93800000D02*
X190343654Y-93800000D01*
%TO.N,Net-(IOH1-Pin_4)*%
X160700000Y-76500000D02*
X176800000Y-92600000D01*
X191121322Y-93682843D02*
X191308479Y-93870000D01*
X191308479Y-93870000D02*
X192040000Y-93870000D01*
X160700000Y-75370000D02*
X160700000Y-76500000D01*
X191075027Y-93682843D02*
X191121322Y-93682843D01*
%TO.N,Net-(J1-Shield)*%
X147840000Y-94760000D02*
X147840000Y-94600000D01*
X136700000Y-74200000D02*
X136580000Y-74320000D01*
X129870000Y-93640000D02*
X140160000Y-93640000D01*
X145800000Y-94800000D02*
X146100000Y-95100000D01*
X147500000Y-95100000D02*
X147840000Y-94760000D01*
X138400000Y-74200000D02*
X136700000Y-74200000D01*
X140160000Y-93640000D02*
X141400000Y-92400000D01*
X129870000Y-81600000D02*
X128370000Y-83100000D01*
X146100000Y-95100000D02*
X147500000Y-95100000D01*
X128370000Y-83100000D02*
X128370000Y-92140000D01*
X128370000Y-92140000D02*
X129870000Y-93640000D01*
%TO.N,Net-(GND1-A)*%
X136760000Y-76800000D02*
X136580000Y-76620000D01*
X138200000Y-76800000D02*
X136760000Y-76800000D01*
%TO.N,Net-(U3-PC0{slash}XTAL2)*%
X148800000Y-95000000D02*
X149125000Y-95000000D01*
X149125000Y-95000000D02*
X149525000Y-94600000D01*
%TO.N,Net-(U3-XTAL1)*%
X152270000Y-98120000D02*
X152270000Y-96800000D01*
X157675000Y-94200000D02*
X155800000Y-94200000D01*
X152270000Y-96530000D02*
X150340000Y-94600000D01*
X152270000Y-96800000D02*
X152270000Y-96530000D01*
X155800000Y-94200000D02*
X155600000Y-94000000D01*
%TO.N,USBVCC*%
X143200000Y-92200000D02*
X143200000Y-92185389D01*
X136042500Y-101470000D02*
X138642500Y-98870000D01*
X138642500Y-96528278D02*
X142970778Y-92200000D01*
X138642500Y-98870000D02*
X138642500Y-96528278D01*
X142970778Y-92200000D02*
X143200000Y-92200000D01*
X134080000Y-101470000D02*
X136042500Y-101470000D01*
%TO.N,+3V3(2)*%
X143155001Y-102545000D02*
X142800000Y-102189999D01*
X144013783Y-102591283D02*
X143967500Y-102545000D01*
X142800000Y-102189999D02*
X142800000Y-99000000D01*
X141475000Y-90125000D02*
X141400000Y-90200000D01*
X145006108Y-102591283D02*
X144013783Y-102591283D01*
X142512500Y-90125000D02*
X141475000Y-90125000D01*
X143967500Y-102545000D02*
X143155001Y-102545000D01*
%TO.N,Net-(J4-Pin_3)*%
X183900000Y-95300000D02*
X183200000Y-94600000D01*
X183900000Y-104250000D02*
X183900000Y-95300000D01*
%TO.N,Net-(J4-Pin_4)*%
X196400000Y-97800000D02*
X196400000Y-89800000D01*
X180978552Y-102821447D02*
X180978552Y-103868552D01*
X180978552Y-103868552D02*
X181360000Y-104250000D01*
X183960000Y-77360000D02*
X183960000Y-75370000D01*
X195400000Y-98800000D02*
X196400000Y-97800000D01*
X196400000Y-89800000D02*
X183960000Y-77360000D01*
%TO.N,Net-(J4-Pin_5)*%
X181420000Y-75370000D02*
X179400000Y-77390000D01*
X175200000Y-89209116D02*
X175277203Y-89286319D01*
X179200000Y-99400000D02*
X179227082Y-99372918D01*
X179400000Y-85000000D02*
X175200000Y-89200000D01*
X176000000Y-95600000D02*
X176000000Y-96200000D01*
X176000000Y-96200000D02*
X179200000Y-99400000D01*
X179400000Y-77390000D02*
X179400000Y-85000000D01*
X175200000Y-89200000D02*
X175200000Y-89209116D01*
%TO.N,Net-(J4-Pin_6)*%
X174489951Y-88689952D02*
X174743807Y-88689952D01*
X174743807Y-88689952D02*
X174743878Y-88690023D01*
X178880000Y-75370000D02*
X178880000Y-84299903D01*
X178880000Y-84299903D02*
X174489951Y-88689952D01*
%TO.N,Net-(J4-Pin_7)*%
X165200000Y-95800000D02*
X165200000Y-102630000D01*
X174400000Y-77310000D02*
X174400000Y-87800000D01*
X174400000Y-87800000D02*
X174000000Y-88200000D01*
X174000000Y-88200000D02*
X174065687Y-88265687D01*
X176340000Y-75370000D02*
X174400000Y-77310000D01*
X165200000Y-102630000D02*
X163580000Y-104250000D01*
%TO.N,Net-(J4-Pin_8)*%
X161400000Y-103890000D02*
X161040000Y-104250000D01*
X173800000Y-75370000D02*
X173800000Y-87400000D01*
X173800000Y-87400000D02*
X173400000Y-87800000D01*
X161400000Y-103200000D02*
X161400000Y-103890000D01*
%TO.N,Net-(IOH1-Pin_1)*%
X168320000Y-75370000D02*
X168320000Y-81720000D01*
X172800000Y-86200000D02*
X172800000Y-87048529D01*
X159200000Y-102006544D02*
X161311544Y-99895000D01*
X159200000Y-103600000D02*
X159200000Y-102006544D01*
X163695000Y-99895000D02*
X164600000Y-100800000D01*
X172624264Y-87224265D02*
X172765687Y-87365688D01*
X172800000Y-87048529D02*
X172624264Y-87224265D01*
X161311544Y-99895000D02*
X163695000Y-99895000D01*
X168320000Y-81720000D02*
X172800000Y-86200000D01*
%TO.N,Net-(IOH1-Pin_2)*%
X166531373Y-80634314D02*
X172200000Y-86302941D01*
X162200000Y-104074365D02*
X162200000Y-108170000D01*
X163674365Y-102600000D02*
X162200000Y-104074365D01*
X165780000Y-80448628D02*
X165965686Y-80634314D01*
X165780000Y-75370000D02*
X165780000Y-80448628D01*
X165965686Y-80634314D02*
X166531373Y-80634314D01*
X172200000Y-86302941D02*
X172200000Y-86800000D01*
X164000000Y-102600000D02*
X163674365Y-102600000D01*
X162200000Y-108170000D02*
X158500000Y-111870000D01*
%TO.N,Net-(IOH1-Pin_3)*%
X163240000Y-78474314D02*
X171165686Y-86400000D01*
X161600000Y-110200000D02*
X161600000Y-111310000D01*
X171165686Y-86400000D02*
X171400000Y-86400000D01*
X171400000Y-86400000D02*
X171424265Y-86375735D01*
X161600000Y-111310000D02*
X161040000Y-111870000D01*
X163240000Y-75370000D02*
X163240000Y-78474314D01*
%TO.N,AREF(21)*%
X148000000Y-75370000D02*
X148901372Y-75370000D01*
X172640000Y-110770000D02*
X173740000Y-111870000D01*
X173600000Y-102834365D02*
X172640000Y-103794365D01*
X173600000Y-96400000D02*
X173600000Y-102834365D01*
X152200000Y-78668628D02*
X152200000Y-80400000D01*
X160400000Y-80400000D02*
X173400000Y-93400000D01*
X152200000Y-80400000D02*
X160400000Y-80400000D01*
X172640000Y-103794365D02*
X172640000Y-110770000D01*
X148901372Y-75370000D02*
X152200000Y-78668628D01*
%TO.N,SCI*%
X145460000Y-75370000D02*
X147090000Y-77000000D01*
X191520000Y-111870000D02*
X191520000Y-120710000D01*
X185000000Y-105350000D02*
X191520000Y-111870000D01*
X183444365Y-105350000D02*
X185000000Y-105350000D01*
X151800000Y-80800000D02*
X159805635Y-80800000D01*
X182800000Y-103794365D02*
X182800000Y-104705635D01*
X191520000Y-120710000D02*
X191360000Y-120870000D01*
X147090000Y-77000000D02*
X149965686Y-77000000D01*
X182800000Y-104705635D02*
X183444365Y-105350000D01*
X151800000Y-78834314D02*
X151800000Y-80800000D01*
X149965686Y-77000000D02*
X151800000Y-78834314D01*
X159805635Y-80800000D02*
X182800000Y-103794365D01*
%TO.N,Net-(IOH1-Pin_8)*%
X152600000Y-77430000D02*
X152600000Y-79800000D01*
X150540000Y-75370000D02*
X152600000Y-77430000D01*
%TD*%
%TA.AperFunction,Conductor*%
%TO.N,GNDD*%
G36*
X128285703Y-92905384D02*
G01*
X128292181Y-92911416D01*
X129385139Y-94004374D01*
X129385149Y-94004385D01*
X129389479Y-94008715D01*
X129389480Y-94008716D01*
X129501284Y-94120520D01*
X129501286Y-94120521D01*
X129501290Y-94120524D01*
X129596419Y-94175446D01*
X129638216Y-94199577D01*
X129727629Y-94223535D01*
X129790942Y-94240500D01*
X129790943Y-94240500D01*
X130308151Y-94240500D01*
X130375190Y-94260185D01*
X130420945Y-94312989D01*
X130431089Y-94380684D01*
X130428481Y-94400500D01*
X130421500Y-94453516D01*
X130421500Y-94736483D01*
X130447148Y-94931290D01*
X130458433Y-95017006D01*
X130462684Y-95032872D01*
X130531665Y-95290314D01*
X130639944Y-95551721D01*
X130639948Y-95551731D01*
X130781421Y-95796770D01*
X130953670Y-96021249D01*
X130953676Y-96021256D01*
X131153743Y-96221323D01*
X131153750Y-96221329D01*
X131378229Y-96393578D01*
X131623268Y-96535051D01*
X131623278Y-96535056D01*
X131884674Y-96643330D01*
X131884684Y-96643334D01*
X131887592Y-96644113D01*
X131888359Y-96644580D01*
X131888519Y-96644635D01*
X131888506Y-96644670D01*
X131947253Y-96680477D01*
X131977783Y-96743324D01*
X131979500Y-96763888D01*
X131979500Y-98067870D01*
X131979501Y-98067876D01*
X131985908Y-98127483D01*
X132036202Y-98262328D01*
X132036206Y-98262335D01*
X132122452Y-98377544D01*
X132122455Y-98377547D01*
X132237664Y-98463793D01*
X132237671Y-98463797D01*
X132372517Y-98514091D01*
X132372516Y-98514091D01*
X132379444Y-98514835D01*
X132432127Y-98520500D01*
X135727872Y-98520499D01*
X135787483Y-98514091D01*
X135922331Y-98463796D01*
X136037546Y-98377546D01*
X136123796Y-98262331D01*
X136174091Y-98127483D01*
X136180500Y-98067873D01*
X136180499Y-96472128D01*
X136174091Y-96412517D01*
X136171915Y-96406684D01*
X136123797Y-96277671D01*
X136123793Y-96277664D01*
X136037547Y-96162455D01*
X136037544Y-96162452D01*
X135922335Y-96076206D01*
X135922328Y-96076202D01*
X135787482Y-96025908D01*
X135787483Y-96025908D01*
X135727883Y-96019501D01*
X135727881Y-96019500D01*
X135727873Y-96019500D01*
X135727865Y-96019500D01*
X134459119Y-96019500D01*
X134392080Y-95999815D01*
X134346325Y-95947011D01*
X134336381Y-95877853D01*
X134360744Y-95820013D01*
X134378578Y-95796771D01*
X134386670Y-95782755D01*
X134520053Y-95551728D01*
X134628334Y-95290316D01*
X134701567Y-95017006D01*
X134738500Y-94736476D01*
X134738500Y-94453524D01*
X134728910Y-94380684D01*
X134739675Y-94311651D01*
X134786055Y-94259395D01*
X134851849Y-94240500D01*
X139781681Y-94240500D01*
X139848720Y-94260185D01*
X139894475Y-94312989D01*
X139904419Y-94382147D01*
X139875394Y-94445703D01*
X139869363Y-94452179D01*
X139066593Y-95254949D01*
X138273786Y-96047756D01*
X138161981Y-96159560D01*
X138161979Y-96159563D01*
X138151215Y-96178207D01*
X138121008Y-96230528D01*
X138082923Y-96296493D01*
X138041999Y-96449221D01*
X138041999Y-96449223D01*
X138041999Y-96617324D01*
X138042000Y-96617337D01*
X138042000Y-97953277D01*
X138022315Y-98020316D01*
X137969511Y-98066071D01*
X137952596Y-98072353D01*
X137794604Y-98118254D01*
X137794603Y-98118255D01*
X137653137Y-98201917D01*
X137653129Y-98201923D01*
X137536923Y-98318129D01*
X137536917Y-98318137D01*
X137453255Y-98459603D01*
X137453254Y-98459606D01*
X137407402Y-98617426D01*
X137407401Y-98617432D01*
X137404500Y-98654298D01*
X137404500Y-99085701D01*
X137407401Y-99122563D01*
X137407401Y-99122566D01*
X137407402Y-99122569D01*
X137408847Y-99127544D01*
X137416950Y-99155435D01*
X137416749Y-99225305D01*
X137385554Y-99277709D01*
X136251441Y-100411822D01*
X136190118Y-100445307D01*
X136120426Y-100440323D01*
X136064493Y-100398451D01*
X136037546Y-100362455D01*
X136037546Y-100362454D01*
X136037545Y-100362453D01*
X136037544Y-100362452D01*
X135922335Y-100276206D01*
X135922328Y-100276202D01*
X135787482Y-100225908D01*
X135787483Y-100225908D01*
X135727883Y-100219501D01*
X135727881Y-100219500D01*
X135727873Y-100219500D01*
X135727864Y-100219500D01*
X132432129Y-100219500D01*
X132432123Y-100219501D01*
X132372516Y-100225908D01*
X132237671Y-100276202D01*
X132237664Y-100276206D01*
X132122455Y-100362452D01*
X132122452Y-100362455D01*
X132036206Y-100477664D01*
X132036202Y-100477671D01*
X131985908Y-100612517D01*
X131979501Y-100672116D01*
X131979500Y-100672135D01*
X131979500Y-102267870D01*
X131979501Y-102267876D01*
X131985908Y-102327483D01*
X132036202Y-102462328D01*
X132036206Y-102462335D01*
X132122452Y-102577544D01*
X132122455Y-102577547D01*
X132237664Y-102663793D01*
X132237671Y-102663797D01*
X132372517Y-102714091D01*
X132372516Y-102714091D01*
X132379444Y-102714835D01*
X132432127Y-102720500D01*
X135090351Y-102720499D01*
X135157390Y-102740184D01*
X135203145Y-102792987D01*
X135213089Y-102862146D01*
X135184064Y-102925702D01*
X135178032Y-102932180D01*
X134077032Y-104033181D01*
X134015709Y-104066666D01*
X133989351Y-104069500D01*
X130328028Y-104069500D01*
X130328012Y-104069499D01*
X130320416Y-104069499D01*
X130162301Y-104069499D01*
X130085937Y-104089961D01*
X130009572Y-104110423D01*
X130009567Y-104110426D01*
X129872648Y-104189475D01*
X129872640Y-104189481D01*
X129404217Y-104657904D01*
X129404214Y-104657906D01*
X129404215Y-104657907D01*
X129299478Y-104762644D01*
X129275850Y-104803570D01*
X129264035Y-104824035D01*
X129220423Y-104899573D01*
X129179499Y-105052301D01*
X129179499Y-105052303D01*
X129179499Y-105220404D01*
X129179500Y-105220417D01*
X129179500Y-108521972D01*
X129179499Y-108521990D01*
X129179499Y-108687696D01*
X129179498Y-108687696D01*
X129220423Y-108840427D01*
X129238574Y-108871865D01*
X129238573Y-108871865D01*
X129238574Y-108871866D01*
X129299475Y-108977351D01*
X129299481Y-108977359D01*
X129418349Y-109096227D01*
X129418355Y-109096232D01*
X134006497Y-113684374D01*
X134006507Y-113684385D01*
X134010837Y-113688715D01*
X134010838Y-113688716D01*
X134122642Y-113800520D01*
X134122644Y-113800521D01*
X134122648Y-113800524D01*
X134243069Y-113870048D01*
X134259574Y-113879577D01*
X134371377Y-113909534D01*
X134412300Y-113920500D01*
X134412301Y-113920500D01*
X135712325Y-113920500D01*
X135779364Y-113940185D01*
X135825119Y-113992989D01*
X135835614Y-114057752D01*
X135829500Y-114114627D01*
X135829500Y-114114628D01*
X135829500Y-114114632D01*
X135829500Y-117710370D01*
X135829501Y-117710376D01*
X135835908Y-117769983D01*
X135886202Y-117904828D01*
X135886206Y-117904835D01*
X135972452Y-118020044D01*
X135972455Y-118020047D01*
X136087664Y-118106293D01*
X136087673Y-118106298D01*
X136134937Y-118123926D01*
X136190871Y-118165796D01*
X136215289Y-118231260D01*
X136200438Y-118299533D01*
X136151033Y-118348939D01*
X136085028Y-118363933D01*
X136048657Y-118362001D01*
X136048628Y-118362000D01*
X136048622Y-118362000D01*
X134111378Y-118362000D01*
X134111370Y-118362000D01*
X134111347Y-118362001D01*
X134058756Y-118364795D01*
X134058755Y-118364795D01*
X133828878Y-118409254D01*
X133828876Y-118409254D01*
X133828874Y-118409255D01*
X133754933Y-118437159D01*
X133609810Y-118491925D01*
X133407868Y-118610429D01*
X133407861Y-118610434D01*
X133228858Y-118761356D01*
X133228856Y-118761358D01*
X133077934Y-118940361D01*
X133077929Y-118940368D01*
X132959425Y-119142310D01*
X132922755Y-119239481D01*
X132876755Y-119361374D01*
X132876754Y-119361376D01*
X132876754Y-119361378D01*
X132832295Y-119591255D01*
X132832295Y-119591256D01*
X132829501Y-119643847D01*
X132829500Y-119643886D01*
X132829500Y-121581113D01*
X132829501Y-121581152D01*
X132832295Y-121633743D01*
X132832295Y-121633744D01*
X132876754Y-121863621D01*
X132876755Y-121863626D01*
X132922661Y-121985269D01*
X132959425Y-122082689D01*
X133077929Y-122284631D01*
X133077934Y-122284638D01*
X133228856Y-122463641D01*
X133228858Y-122463643D01*
X133407861Y-122614565D01*
X133407868Y-122614570D01*
X133448739Y-122638554D01*
X133496596Y-122689461D01*
X133509333Y-122758160D01*
X133482907Y-122822839D01*
X133425707Y-122862964D01*
X133385981Y-122869500D01*
X128204500Y-122869500D01*
X128137461Y-122849815D01*
X128091706Y-122797011D01*
X128080500Y-122745500D01*
X128080500Y-114848303D01*
X130080000Y-114848303D01*
X130080000Y-115662500D01*
X131580000Y-115662500D01*
X131580000Y-116162500D01*
X130080001Y-116162500D01*
X130080001Y-116976697D01*
X130090400Y-117108832D01*
X130145377Y-117327019D01*
X130238428Y-117531874D01*
X130238431Y-117531880D01*
X130366559Y-117716823D01*
X130366569Y-117716835D01*
X130525664Y-117875930D01*
X130525676Y-117875940D01*
X130710619Y-118004068D01*
X130710625Y-118004071D01*
X130915480Y-118097122D01*
X131133667Y-118152099D01*
X131265810Y-118162499D01*
X131829999Y-118162499D01*
X131830000Y-118162498D01*
X131830000Y-117345512D01*
X131887007Y-117378425D01*
X132014174Y-117412500D01*
X132145826Y-117412500D01*
X132272993Y-117378425D01*
X132330000Y-117345512D01*
X132330000Y-118162499D01*
X132894182Y-118162499D01*
X132894197Y-118162498D01*
X133026332Y-118152099D01*
X133244519Y-118097122D01*
X133449374Y-118004071D01*
X133449380Y-118004068D01*
X133634323Y-117875940D01*
X133634335Y-117875930D01*
X133793430Y-117716835D01*
X133793440Y-117716823D01*
X133921568Y-117531880D01*
X133921571Y-117531874D01*
X134014622Y-117327019D01*
X134069599Y-117108832D01*
X134079999Y-116976696D01*
X134080000Y-116976684D01*
X134080000Y-116162500D01*
X132580000Y-116162500D01*
X132580000Y-115662500D01*
X134079999Y-115662500D01*
X134079999Y-114848317D01*
X134079998Y-114848302D01*
X134069599Y-114716167D01*
X134014622Y-114497980D01*
X133921571Y-114293125D01*
X133921568Y-114293119D01*
X133793440Y-114108176D01*
X133793430Y-114108164D01*
X133634335Y-113949069D01*
X133634323Y-113949059D01*
X133449380Y-113820931D01*
X133449374Y-113820928D01*
X133244519Y-113727877D01*
X133026332Y-113672900D01*
X132894196Y-113662500D01*
X132330000Y-113662500D01*
X132330000Y-114479488D01*
X132272993Y-114446575D01*
X132145826Y-114412500D01*
X132014174Y-114412500D01*
X131887007Y-114446575D01*
X131830000Y-114479488D01*
X131830000Y-113662500D01*
X131265817Y-113662500D01*
X131265802Y-113662501D01*
X131133667Y-113672900D01*
X130915480Y-113727877D01*
X130710625Y-113820928D01*
X130710619Y-113820931D01*
X130525676Y-113949059D01*
X130525664Y-113949069D01*
X130366569Y-114108164D01*
X130366559Y-114108176D01*
X130238431Y-114293119D01*
X130238428Y-114293125D01*
X130145377Y-114497980D01*
X130090400Y-114716167D01*
X130080000Y-114848303D01*
X128080500Y-114848303D01*
X128080500Y-92999097D01*
X128100185Y-92932058D01*
X128152989Y-92886303D01*
X128222147Y-92876359D01*
X128285703Y-92905384D01*
G37*
%TD.AperFunction*%
%TA.AperFunction,Conductor*%
G36*
X196998834Y-99722914D02*
G01*
X197054767Y-99764786D01*
X197079184Y-99830250D01*
X197079500Y-99839096D01*
X197079500Y-113860397D01*
X197059815Y-113927436D01*
X197007011Y-113973191D01*
X196937853Y-113983135D01*
X196899206Y-113970882D01*
X196701308Y-113870048D01*
X196459008Y-113791320D01*
X196373722Y-113777812D01*
X196207381Y-113751466D01*
X195952619Y-113751466D01*
X195826805Y-113771393D01*
X195700991Y-113791320D01*
X195614263Y-113819500D01*
X195458699Y-113870046D01*
X195458696Y-113870047D01*
X195458694Y-113870048D01*
X195231701Y-113985706D01*
X195231698Y-113985708D01*
X195132536Y-114057754D01*
X195025596Y-114135451D01*
X195025594Y-114135453D01*
X195025593Y-114135453D01*
X194845453Y-114315593D01*
X194845453Y-114315594D01*
X194845451Y-114315596D01*
X194776027Y-114411149D01*
X194695708Y-114521698D01*
X194695706Y-114521701D01*
X194580048Y-114748694D01*
X194580047Y-114748696D01*
X194580046Y-114748699D01*
X194501320Y-114990992D01*
X194461466Y-115242619D01*
X194461466Y-115309471D01*
X194461466Y-115497381D01*
X194501320Y-115749008D01*
X194580046Y-115991301D01*
X194695705Y-116218297D01*
X194845451Y-116424404D01*
X195025596Y-116604549D01*
X195231703Y-116754295D01*
X195458699Y-116869954D01*
X195578372Y-116908838D01*
X195636047Y-116948276D01*
X195663245Y-117012635D01*
X195651330Y-117081481D01*
X195627734Y-117114450D01*
X193772686Y-118969500D01*
X193679502Y-119062683D01*
X193679500Y-119062686D01*
X193613608Y-119176812D01*
X193579500Y-119304108D01*
X193579500Y-122745500D01*
X193559815Y-122812539D01*
X193507011Y-122858294D01*
X193455500Y-122869500D01*
X141089603Y-122869500D01*
X141022564Y-122849815D01*
X140976809Y-122797011D01*
X140966865Y-122727853D01*
X140979118Y-122689206D01*
X141079951Y-122491308D01*
X141079951Y-122491304D01*
X141079954Y-122491301D01*
X141158680Y-122249008D01*
X141194017Y-122025899D01*
X141223945Y-121962768D01*
X141283256Y-121925836D01*
X141353119Y-121926834D01*
X141404170Y-121957619D01*
X141537345Y-122090794D01*
X141537350Y-122090798D01*
X141692826Y-122203757D01*
X141741155Y-122238870D01*
X141884184Y-122311747D01*
X141965616Y-122353239D01*
X141965618Y-122353239D01*
X141965621Y-122353241D01*
X142205215Y-122431090D01*
X142454038Y-122470500D01*
X142454039Y-122470500D01*
X142705961Y-122470500D01*
X142705962Y-122470500D01*
X142954785Y-122431090D01*
X143194379Y-122353241D01*
X143418845Y-122238870D01*
X143622656Y-122090793D01*
X143800793Y-121912656D01*
X143948870Y-121708845D01*
X144063241Y-121484379D01*
X144141090Y-121244785D01*
X144180500Y-120995962D01*
X144180500Y-120744038D01*
X144141090Y-120495215D01*
X144063241Y-120255621D01*
X144063239Y-120255618D01*
X144063239Y-120255616D01*
X143948869Y-120031154D01*
X143948865Y-120031148D01*
X143904426Y-119969982D01*
X148599500Y-119969982D01*
X148599500Y-121770017D01*
X148610000Y-121872796D01*
X148665185Y-122039332D01*
X148665187Y-122039337D01*
X148688755Y-122077546D01*
X148757288Y-122188656D01*
X148881344Y-122312712D01*
X149030665Y-122404814D01*
X149197202Y-122459999D01*
X149299990Y-122470500D01*
X149299995Y-122470500D01*
X151100005Y-122470500D01*
X151100010Y-122470500D01*
X151202798Y-122459999D01*
X151369335Y-122404814D01*
X151518656Y-122312712D01*
X151642712Y-122188656D01*
X151734814Y-122039335D01*
X151789999Y-121872798D01*
X151800500Y-121770010D01*
X151800500Y-119969990D01*
X151789999Y-119867202D01*
X151734814Y-119700665D01*
X151642712Y-119551344D01*
X151518656Y-119427288D01*
X151411799Y-119361378D01*
X151369337Y-119335187D01*
X151369332Y-119335185D01*
X151367863Y-119334698D01*
X151202798Y-119280001D01*
X151202796Y-119280000D01*
X151100017Y-119269500D01*
X151100010Y-119269500D01*
X149299990Y-119269500D01*
X149299982Y-119269500D01*
X149197203Y-119280000D01*
X149197202Y-119280001D01*
X149124452Y-119304108D01*
X149030667Y-119335185D01*
X149030662Y-119335187D01*
X148881342Y-119427289D01*
X148757289Y-119551342D01*
X148665187Y-119700662D01*
X148665185Y-119700667D01*
X148647271Y-119754728D01*
X148610001Y-119867202D01*
X148610001Y-119867203D01*
X148610000Y-119867203D01*
X148599500Y-119969982D01*
X143904426Y-119969982D01*
X143800798Y-119827350D01*
X143800794Y-119827345D01*
X143622654Y-119649205D01*
X143622649Y-119649201D01*
X143418848Y-119501132D01*
X143418847Y-119501131D01*
X143418845Y-119501130D01*
X143343106Y-119462539D01*
X143194383Y-119386760D01*
X142954785Y-119308910D01*
X142705962Y-119269500D01*
X142454038Y-119269500D01*
X142387738Y-119280001D01*
X142205214Y-119308910D01*
X141965616Y-119386760D01*
X141741151Y-119501132D01*
X141537350Y-119649201D01*
X141537345Y-119649205D01*
X141359205Y-119827345D01*
X141359201Y-119827350D01*
X141211132Y-120031151D01*
X141096760Y-120255616D01*
X141018909Y-120495214D01*
X140985232Y-120707842D01*
X140955302Y-120770977D01*
X140895991Y-120807908D01*
X140826128Y-120806910D01*
X140775078Y-120776125D01*
X140634406Y-120635453D01*
X140634404Y-120635451D01*
X140428297Y-120485705D01*
X140201301Y-120370046D01*
X139959008Y-120291320D01*
X139707381Y-120251466D01*
X139452619Y-120251466D01*
X139326805Y-120271393D01*
X139200991Y-120291320D01*
X139111185Y-120320500D01*
X138958699Y-120370046D01*
X138958696Y-120370047D01*
X138958694Y-120370048D01*
X138731701Y-120485706D01*
X138731698Y-120485708D01*
X138638038Y-120553757D01*
X138525596Y-120635451D01*
X138525594Y-120635453D01*
X138525593Y-120635453D01*
X138345453Y-120815593D01*
X138345453Y-120815594D01*
X138345451Y-120815596D01*
X138276027Y-120911149D01*
X138195708Y-121021698D01*
X138195706Y-121021701D01*
X138080048Y-121248694D01*
X138080047Y-121248696D01*
X138080046Y-121248699D01*
X138040633Y-121370000D01*
X138001320Y-121490991D01*
X137996092Y-121523999D01*
X137961466Y-121742619D01*
X137961466Y-121809471D01*
X137961466Y-121997381D01*
X137985643Y-122150026D01*
X138001320Y-122249008D01*
X138080048Y-122491308D01*
X138180882Y-122689206D01*
X138193778Y-122757875D01*
X138167501Y-122822615D01*
X138110395Y-122862872D01*
X138070397Y-122869500D01*
X136774019Y-122869500D01*
X136706980Y-122849815D01*
X136661225Y-122797011D01*
X136651281Y-122727853D01*
X136680306Y-122664297D01*
X136711261Y-122638554D01*
X136752132Y-122614570D01*
X136887398Y-122500524D01*
X136931141Y-122463643D01*
X136931143Y-122463641D01*
X137082065Y-122284638D01*
X137082065Y-122284637D01*
X137082070Y-122284632D01*
X137200574Y-122082690D01*
X137283245Y-121863626D01*
X137327705Y-121633741D01*
X137330500Y-121581122D01*
X137330500Y-119643878D01*
X137327705Y-119591259D01*
X137283245Y-119361374D01*
X137200574Y-119142310D01*
X137082070Y-118940368D01*
X137082065Y-118940361D01*
X136931143Y-118761358D01*
X136931141Y-118761356D01*
X136752138Y-118610434D01*
X136752131Y-118610429D01*
X136550189Y-118491925D01*
X136452513Y-118455064D01*
X136331126Y-118409255D01*
X136331121Y-118409254D01*
X136331116Y-118409252D01*
X136328470Y-118408740D01*
X136327451Y-118408213D01*
X136326050Y-118407817D01*
X136326130Y-118407531D01*
X136266392Y-118376677D01*
X136231503Y-118316141D01*
X136234881Y-118246353D01*
X136253687Y-118219986D01*
X144360001Y-118219986D01*
X144370494Y-118322697D01*
X144425641Y-118489119D01*
X144425643Y-118489124D01*
X144517684Y-118638345D01*
X144641654Y-118762315D01*
X144790875Y-118854356D01*
X144790880Y-118854358D01*
X144957302Y-118909505D01*
X144957309Y-118909506D01*
X145060019Y-118919999D01*
X145409999Y-118919999D01*
X145910000Y-118919999D01*
X146259972Y-118919999D01*
X146259986Y-118919998D01*
X146362697Y-118909505D01*
X146529119Y-118854358D01*
X146529124Y-118854356D01*
X146678345Y-118762315D01*
X146802315Y-118638345D01*
X146894356Y-118489124D01*
X146894358Y-118489119D01*
X146917266Y-118419986D01*
X151860001Y-118419986D01*
X151870494Y-118522697D01*
X151925641Y-118689119D01*
X151925643Y-118689124D01*
X152017684Y-118838345D01*
X152141654Y-118962315D01*
X152290875Y-119054356D01*
X152290880Y-119054358D01*
X152457302Y-119109505D01*
X152457309Y-119109506D01*
X152560019Y-119119999D01*
X152909999Y-119119999D01*
X153410000Y-119119999D01*
X153759972Y-119119999D01*
X153759986Y-119119998D01*
X153862697Y-119109505D01*
X154029119Y-119054358D01*
X154029124Y-119054356D01*
X154178345Y-118962315D01*
X154302315Y-118838345D01*
X154394356Y-118689124D01*
X154394358Y-118689119D01*
X154449505Y-118522697D01*
X154449506Y-118522690D01*
X154459999Y-118419986D01*
X154460000Y-118419973D01*
X154460000Y-117120000D01*
X153410000Y-117120000D01*
X153410000Y-119119999D01*
X152909999Y-119119999D01*
X152910000Y-119119998D01*
X152910000Y-117120000D01*
X151860001Y-117120000D01*
X151860001Y-118419986D01*
X146917266Y-118419986D01*
X146949505Y-118322697D01*
X146949506Y-118322690D01*
X146959999Y-118219986D01*
X146960000Y-118219973D01*
X146960000Y-116920000D01*
X145910000Y-116920000D01*
X145910000Y-118919999D01*
X145409999Y-118919999D01*
X145410000Y-118919998D01*
X145410000Y-116920000D01*
X144360001Y-116920000D01*
X144360001Y-118219986D01*
X136253687Y-118219986D01*
X136275452Y-118189470D01*
X136340337Y-118163552D01*
X136352009Y-118162999D01*
X139877872Y-118162999D01*
X139937483Y-118156591D01*
X140072331Y-118106296D01*
X140187546Y-118020046D01*
X140273796Y-117904831D01*
X140324091Y-117769983D01*
X140330500Y-117710373D01*
X140330499Y-115120013D01*
X144360000Y-115120013D01*
X144360000Y-116420000D01*
X145410000Y-116420000D01*
X145910000Y-116420000D01*
X146959999Y-116420000D01*
X146959999Y-115320013D01*
X151860000Y-115320013D01*
X151860000Y-116620000D01*
X152910000Y-116620000D01*
X153410000Y-116620000D01*
X154459999Y-116620000D01*
X154459999Y-115320028D01*
X154459998Y-115320013D01*
X154449505Y-115217302D01*
X154394358Y-115050880D01*
X154394356Y-115050875D01*
X154302315Y-114901654D01*
X154178345Y-114777684D01*
X154029124Y-114685643D01*
X154029119Y-114685641D01*
X153862697Y-114630494D01*
X153862690Y-114630493D01*
X153759986Y-114620000D01*
X153410000Y-114620000D01*
X153410000Y-116620000D01*
X152910000Y-116620000D01*
X152910000Y-114620000D01*
X152560028Y-114620000D01*
X152560012Y-114620001D01*
X152457302Y-114630494D01*
X152290880Y-114685641D01*
X152290875Y-114685643D01*
X152141654Y-114777684D01*
X152017684Y-114901654D01*
X151925643Y-115050875D01*
X151925641Y-115050880D01*
X151870494Y-115217302D01*
X151870493Y-115217309D01*
X151860000Y-115320013D01*
X146959999Y-115320013D01*
X146959999Y-115120028D01*
X146959998Y-115120013D01*
X146949505Y-115017302D01*
X146894358Y-114850880D01*
X146894356Y-114850875D01*
X146802315Y-114701654D01*
X146678345Y-114577684D01*
X146529124Y-114485643D01*
X146529119Y-114485641D01*
X146362697Y-114430494D01*
X146362690Y-114430493D01*
X146259986Y-114420000D01*
X145910000Y-114420000D01*
X145910000Y-116420000D01*
X145410000Y-116420000D01*
X145410000Y-114420000D01*
X145060028Y-114420000D01*
X145060012Y-114420001D01*
X144957302Y-114430494D01*
X144790880Y-114485641D01*
X144790875Y-114485643D01*
X144641654Y-114577684D01*
X144517684Y-114701654D01*
X144425643Y-114850875D01*
X144425641Y-114850880D01*
X144370494Y-115017302D01*
X144370493Y-115017309D01*
X144360000Y-115120013D01*
X140330499Y-115120013D01*
X140330499Y-114114628D01*
X140324385Y-114057753D01*
X140336792Y-113988994D01*
X140384403Y-113937858D01*
X140447675Y-113920500D01*
X153644647Y-113920500D01*
X153711686Y-113940185D01*
X153732328Y-113956819D01*
X157553181Y-117777672D01*
X157586666Y-117838995D01*
X157589500Y-117865353D01*
X157589500Y-119395500D01*
X157569815Y-119462539D01*
X157517011Y-119508294D01*
X157465500Y-119519500D01*
X155902129Y-119519500D01*
X155902123Y-119519501D01*
X155842516Y-119525908D01*
X155707671Y-119576202D01*
X155707664Y-119576206D01*
X155592455Y-119662452D01*
X155592452Y-119662455D01*
X155506206Y-119777664D01*
X155506202Y-119777671D01*
X155455908Y-119912517D01*
X155449501Y-119972116D01*
X155449500Y-119972135D01*
X155449500Y-121767870D01*
X155449501Y-121767876D01*
X155455908Y-121827483D01*
X155506202Y-121962328D01*
X155506206Y-121962335D01*
X155592452Y-122077544D01*
X155592455Y-122077547D01*
X155707664Y-122163793D01*
X155707671Y-122163797D01*
X155842517Y-122214091D01*
X155842516Y-122214091D01*
X155849444Y-122214835D01*
X155902127Y-122220500D01*
X157697872Y-122220499D01*
X157757483Y-122214091D01*
X157892331Y-122163796D01*
X157895927Y-122161104D01*
X157958371Y-122114359D01*
X158023835Y-122089941D01*
X158092108Y-122104792D01*
X158120362Y-122125943D01*
X158494938Y-122500520D01*
X158494940Y-122500521D01*
X158494944Y-122500524D01*
X158631863Y-122579573D01*
X158631870Y-122579577D01*
X158784597Y-122620501D01*
X158784599Y-122620501D01*
X158950308Y-122620501D01*
X158950324Y-122620500D01*
X160643331Y-122620500D01*
X160643347Y-122620501D01*
X160650943Y-122620501D01*
X160809054Y-122620501D01*
X160809057Y-122620501D01*
X160961785Y-122579577D01*
X161011904Y-122550639D01*
X161098716Y-122500520D01*
X161210520Y-122388716D01*
X161210520Y-122388714D01*
X161220728Y-122378507D01*
X161220730Y-122378504D01*
X161395478Y-122203755D01*
X161456799Y-122170272D01*
X161521473Y-122173506D01*
X161563757Y-122187246D01*
X161773713Y-122220500D01*
X161773714Y-122220500D01*
X161986286Y-122220500D01*
X161986287Y-122220500D01*
X162196243Y-122187246D01*
X162398412Y-122121557D01*
X162587816Y-122025051D01*
X162674138Y-121962335D01*
X162759786Y-121900109D01*
X162759788Y-121900106D01*
X162759792Y-121900104D01*
X162910104Y-121749792D01*
X162910106Y-121749788D01*
X162910109Y-121749786D01*
X163035048Y-121577820D01*
X163035047Y-121577820D01*
X163035051Y-121577816D01*
X163039514Y-121569054D01*
X163087488Y-121518259D01*
X163155308Y-121501463D01*
X163221444Y-121523999D01*
X163260486Y-121569056D01*
X163264951Y-121577820D01*
X163389890Y-121749786D01*
X163540213Y-121900109D01*
X163712179Y-122025048D01*
X163712181Y-122025049D01*
X163712184Y-122025051D01*
X163901588Y-122121557D01*
X164103757Y-122187246D01*
X164313713Y-122220500D01*
X164313714Y-122220500D01*
X164526286Y-122220500D01*
X164526287Y-122220500D01*
X164736243Y-122187246D01*
X164938412Y-122121557D01*
X165127816Y-122025051D01*
X165214138Y-121962335D01*
X165299786Y-121900109D01*
X165299788Y-121900106D01*
X165299792Y-121900104D01*
X165450104Y-121749792D01*
X165450106Y-121749788D01*
X165450109Y-121749786D01*
X165575048Y-121577820D01*
X165575047Y-121577820D01*
X165575051Y-121577816D01*
X165579514Y-121569054D01*
X165627488Y-121518259D01*
X165695308Y-121501463D01*
X165761444Y-121523999D01*
X165800486Y-121569056D01*
X165804951Y-121577820D01*
X165929890Y-121749786D01*
X166080213Y-121900109D01*
X166252179Y-122025048D01*
X166252181Y-122025049D01*
X166252184Y-122025051D01*
X166441588Y-122121557D01*
X166643757Y-122187246D01*
X166853713Y-122220500D01*
X166853714Y-122220500D01*
X167066286Y-122220500D01*
X167066287Y-122220500D01*
X167276243Y-122187246D01*
X167478412Y-122121557D01*
X167667816Y-122025051D01*
X167754138Y-121962335D01*
X167839786Y-121900109D01*
X167839788Y-121900106D01*
X167839792Y-121900104D01*
X167990104Y-121749792D01*
X167990106Y-121749788D01*
X167990109Y-121749786D01*
X168075890Y-121631717D01*
X168115051Y-121577816D01*
X168119793Y-121568508D01*
X168167763Y-121517711D01*
X168235583Y-121500911D01*
X168301719Y-121523445D01*
X168340763Y-121568500D01*
X168345373Y-121577547D01*
X168384728Y-121631716D01*
X169017037Y-120999408D01*
X169034075Y-121062993D01*
X169099901Y-121177007D01*
X169192993Y-121270099D01*
X169307007Y-121335925D01*
X169370590Y-121352962D01*
X168738282Y-121985269D01*
X168738282Y-121985270D01*
X168792449Y-122024624D01*
X168981782Y-122121095D01*
X169183870Y-122186757D01*
X169393754Y-122220000D01*
X169606246Y-122220000D01*
X169816127Y-122186757D01*
X169816130Y-122186757D01*
X170018217Y-122121095D01*
X170207554Y-122024622D01*
X170261716Y-121985270D01*
X170261717Y-121985270D01*
X169629408Y-121352962D01*
X169692993Y-121335925D01*
X169807007Y-121270099D01*
X169900099Y-121177007D01*
X169965925Y-121062993D01*
X169982962Y-120999409D01*
X170615270Y-121631717D01*
X170615270Y-121631716D01*
X170654622Y-121577554D01*
X170659514Y-121567954D01*
X170707488Y-121517157D01*
X170775308Y-121500361D01*
X170841444Y-121522897D01*
X170880486Y-121567954D01*
X170885375Y-121577550D01*
X170924728Y-121631716D01*
X171557037Y-120999408D01*
X171574075Y-121062993D01*
X171639901Y-121177007D01*
X171732993Y-121270099D01*
X171847007Y-121335925D01*
X171910590Y-121352962D01*
X171278282Y-121985269D01*
X171278282Y-121985270D01*
X171332449Y-122024624D01*
X171521782Y-122121095D01*
X171723870Y-122186757D01*
X171933754Y-122220000D01*
X172146246Y-122220000D01*
X172356127Y-122186757D01*
X172356130Y-122186757D01*
X172558217Y-122121095D01*
X172747554Y-122024622D01*
X172801716Y-121985270D01*
X172801717Y-121985270D01*
X172169408Y-121352962D01*
X172232993Y-121335925D01*
X172347007Y-121270099D01*
X172440099Y-121177007D01*
X172505925Y-121062993D01*
X172522962Y-120999408D01*
X173155270Y-121631717D01*
X173155270Y-121631716D01*
X173194622Y-121577555D01*
X173199232Y-121568507D01*
X173247205Y-121517709D01*
X173315025Y-121500912D01*
X173381161Y-121523447D01*
X173420204Y-121568504D01*
X173424949Y-121577817D01*
X173549890Y-121749786D01*
X173700213Y-121900109D01*
X173872179Y-122025048D01*
X173872181Y-122025049D01*
X173872184Y-122025051D01*
X174061588Y-122121557D01*
X174263757Y-122187246D01*
X174473713Y-122220500D01*
X174473714Y-122220500D01*
X174686286Y-122220500D01*
X174686287Y-122220500D01*
X174896243Y-122187246D01*
X175098412Y-122121557D01*
X175287816Y-122025051D01*
X175374138Y-121962335D01*
X175459786Y-121900109D01*
X175459788Y-121900106D01*
X175459792Y-121900104D01*
X175610104Y-121749792D01*
X175610106Y-121749788D01*
X175610109Y-121749786D01*
X175735048Y-121577820D01*
X175735047Y-121577820D01*
X175735051Y-121577816D01*
X175831557Y-121388412D01*
X175897246Y-121186243D01*
X175930500Y-120976287D01*
X175930500Y-120763713D01*
X175897246Y-120553757D01*
X175831557Y-120351588D01*
X175735051Y-120162184D01*
X175735049Y-120162181D01*
X175735048Y-120162179D01*
X175610109Y-119990213D01*
X175459786Y-119839890D01*
X175287820Y-119714951D01*
X175098414Y-119618444D01*
X175098413Y-119618443D01*
X175098412Y-119618443D01*
X174896243Y-119552754D01*
X174896241Y-119552753D01*
X174896240Y-119552753D01*
X174731102Y-119526598D01*
X174686287Y-119519500D01*
X174473713Y-119519500D01*
X174428898Y-119526598D01*
X174263760Y-119552753D01*
X174061585Y-119618444D01*
X173872179Y-119714951D01*
X173700213Y-119839890D01*
X173549890Y-119990213D01*
X173424949Y-120162182D01*
X173420202Y-120171499D01*
X173372227Y-120222293D01*
X173304405Y-120239087D01*
X173238271Y-120216548D01*
X173199234Y-120171495D01*
X173194626Y-120162452D01*
X173155270Y-120108282D01*
X173155269Y-120108282D01*
X172522962Y-120740590D01*
X172505925Y-120677007D01*
X172440099Y-120562993D01*
X172347007Y-120469901D01*
X172232993Y-120404075D01*
X172169409Y-120387037D01*
X172801716Y-119754728D01*
X172747550Y-119715375D01*
X172558217Y-119618904D01*
X172356129Y-119553242D01*
X172146246Y-119520000D01*
X171933754Y-119520000D01*
X171723872Y-119553242D01*
X171723869Y-119553242D01*
X171521782Y-119618904D01*
X171332439Y-119715380D01*
X171278282Y-119754727D01*
X171278282Y-119754728D01*
X171910591Y-120387037D01*
X171847007Y-120404075D01*
X171732993Y-120469901D01*
X171639901Y-120562993D01*
X171574075Y-120677007D01*
X171557037Y-120740591D01*
X170924728Y-120108282D01*
X170924727Y-120108282D01*
X170885380Y-120162440D01*
X170880483Y-120172051D01*
X170832506Y-120222845D01*
X170764684Y-120239638D01*
X170698550Y-120217098D01*
X170659516Y-120172048D01*
X170654626Y-120162452D01*
X170615270Y-120108282D01*
X170615269Y-120108282D01*
X169982962Y-120740590D01*
X169965925Y-120677007D01*
X169900099Y-120562993D01*
X169807007Y-120469901D01*
X169692993Y-120404075D01*
X169629408Y-120387037D01*
X170261716Y-119754728D01*
X170207550Y-119715375D01*
X170018217Y-119618904D01*
X169816129Y-119553242D01*
X169606246Y-119520000D01*
X169393754Y-119520000D01*
X169183872Y-119553242D01*
X169183869Y-119553242D01*
X168981782Y-119618904D01*
X168792442Y-119715379D01*
X168652385Y-119817136D01*
X168586579Y-119840616D01*
X168518525Y-119824790D01*
X168469830Y-119774684D01*
X168455500Y-119716818D01*
X168455500Y-114858451D01*
X168457534Y-114851521D01*
X168456298Y-114844407D01*
X168467247Y-114818444D01*
X168475185Y-114791412D01*
X168481306Y-114785108D01*
X168483449Y-114780028D01*
X168502139Y-114763655D01*
X168509434Y-114756144D01*
X168511873Y-114754473D01*
X168615850Y-114690340D01*
X168638305Y-114667884D01*
X168647787Y-114661391D01*
X168670511Y-114653988D01*
X168691489Y-114642533D01*
X168703126Y-114643364D01*
X168714221Y-114639751D01*
X168737340Y-114645810D01*
X168761181Y-114647514D01*
X168773121Y-114655187D01*
X168781808Y-114657464D01*
X168789231Y-114665540D01*
X168805534Y-114676017D01*
X168819461Y-114689944D01*
X168819465Y-114689947D01*
X168966188Y-114780448D01*
X168966199Y-114780453D01*
X169129847Y-114834680D01*
X169230851Y-114844999D01*
X169830000Y-114844999D01*
X169929140Y-114844999D01*
X169929154Y-114844998D01*
X170030152Y-114834680D01*
X170193800Y-114780453D01*
X170193811Y-114780448D01*
X170340534Y-114689947D01*
X170340538Y-114689944D01*
X170462444Y-114568038D01*
X170462447Y-114568034D01*
X170552948Y-114421311D01*
X170552953Y-114421300D01*
X170607180Y-114257652D01*
X170617499Y-114156654D01*
X170617500Y-114156641D01*
X170617500Y-114120000D01*
X169830000Y-114120000D01*
X169830000Y-114844999D01*
X169230851Y-114844999D01*
X169330000Y-114844998D01*
X169330000Y-113994000D01*
X169349685Y-113926961D01*
X169402489Y-113881206D01*
X169454000Y-113870000D01*
X169580000Y-113870000D01*
X169580000Y-113819500D01*
X169582550Y-113810814D01*
X169581262Y-113801853D01*
X169592240Y-113777812D01*
X169599685Y-113752461D01*
X169606525Y-113746533D01*
X169610287Y-113738297D01*
X169632521Y-113724007D01*
X169652489Y-113706706D01*
X169663003Y-113704418D01*
X169669065Y-113700523D01*
X169704000Y-113695500D01*
X169888331Y-113695500D01*
X169888347Y-113695501D01*
X169895943Y-113695501D01*
X170054054Y-113695501D01*
X170054057Y-113695501D01*
X170206785Y-113654577D01*
X170237894Y-113636614D01*
X170299898Y-113620000D01*
X170617499Y-113620000D01*
X170617499Y-113583360D01*
X170617498Y-113583345D01*
X170607180Y-113482348D01*
X170588853Y-113427040D01*
X170588317Y-113411472D01*
X170582875Y-113396881D01*
X170587141Y-113377270D01*
X170586451Y-113357211D01*
X170594621Y-113342885D01*
X170597727Y-113328608D01*
X170618869Y-113300364D01*
X170755160Y-113164073D01*
X170816479Y-113130592D01*
X170881151Y-113133825D01*
X170895466Y-113138477D01*
X170895471Y-113138477D01*
X170895472Y-113138478D01*
X170905953Y-113140138D01*
X171097648Y-113170500D01*
X171097649Y-113170500D01*
X171302351Y-113170500D01*
X171302352Y-113170500D01*
X171504534Y-113138477D01*
X171518842Y-113133827D01*
X171534054Y-113133392D01*
X171548315Y-113128074D01*
X171568268Y-113132414D01*
X171588682Y-113131831D01*
X171602769Y-113139920D01*
X171616588Y-113142926D01*
X171644842Y-113164077D01*
X171815139Y-113334374D01*
X171815149Y-113334385D01*
X171819479Y-113338715D01*
X171819480Y-113338716D01*
X171931284Y-113450520D01*
X172018095Y-113500639D01*
X172018097Y-113500641D01*
X172056151Y-113522611D01*
X172068215Y-113529577D01*
X172220943Y-113570501D01*
X172220946Y-113570501D01*
X172386653Y-113570501D01*
X172386669Y-113570500D01*
X174108966Y-113570500D01*
X174108982Y-113570501D01*
X174116578Y-113570501D01*
X174274689Y-113570501D01*
X174274692Y-113570501D01*
X174427420Y-113529577D01*
X174477539Y-113500639D01*
X174564351Y-113450520D01*
X174676155Y-113338716D01*
X174676155Y-113338714D01*
X174686363Y-113328507D01*
X174686365Y-113328504D01*
X175538506Y-112476363D01*
X175538511Y-112476359D01*
X175548714Y-112466155D01*
X175548716Y-112466155D01*
X175660520Y-112354351D01*
X175739577Y-112217419D01*
X175780500Y-112064692D01*
X175780500Y-112064683D01*
X175781561Y-112056632D01*
X175783557Y-112056894D01*
X175800185Y-112000269D01*
X175816819Y-111979627D01*
X175880000Y-111916446D01*
X175880000Y-111922661D01*
X175907259Y-112024394D01*
X175959920Y-112115606D01*
X176034394Y-112190080D01*
X176125606Y-112242741D01*
X176227339Y-112270000D01*
X176233553Y-112270000D01*
X175554076Y-112949474D01*
X175598650Y-112981859D01*
X175780968Y-113074755D01*
X175975582Y-113137990D01*
X176177683Y-113170000D01*
X176382317Y-113170000D01*
X176584417Y-113137990D01*
X176779031Y-113074755D01*
X176961349Y-112981859D01*
X177005921Y-112949474D01*
X176326447Y-112270000D01*
X176332661Y-112270000D01*
X176434394Y-112242741D01*
X176525606Y-112190080D01*
X176600080Y-112115606D01*
X176652741Y-112024394D01*
X176680000Y-111922661D01*
X176680000Y-111916447D01*
X177359474Y-112595921D01*
X177391861Y-112551347D01*
X177391861Y-112551346D01*
X177439234Y-112458371D01*
X177487208Y-112407575D01*
X177555028Y-112390779D01*
X177621164Y-112413316D01*
X177660203Y-112458369D01*
X177707713Y-112551611D01*
X177828028Y-112717213D01*
X177972786Y-112861971D01*
X178127749Y-112974556D01*
X178138390Y-112982287D01*
X178219499Y-113023614D01*
X178320776Y-113075218D01*
X178320778Y-113075218D01*
X178320781Y-113075220D01*
X178395818Y-113099601D01*
X178515465Y-113138477D01*
X178543555Y-113142926D01*
X178717648Y-113170500D01*
X178717649Y-113170500D01*
X178922351Y-113170500D01*
X178922352Y-113170500D01*
X179124534Y-113138477D01*
X179319219Y-113075220D01*
X179501610Y-112982287D01*
X179622438Y-112894501D01*
X179667213Y-112861971D01*
X179667215Y-112861968D01*
X179667219Y-112861966D01*
X179811966Y-112717219D01*
X179811968Y-112717215D01*
X179811971Y-112717213D01*
X179932284Y-112551614D01*
X179932286Y-112551611D01*
X179932287Y-112551610D01*
X179979516Y-112458917D01*
X180027489Y-112408123D01*
X180095310Y-112391328D01*
X180161445Y-112413865D01*
X180200483Y-112458917D01*
X180204172Y-112466156D01*
X180247715Y-112551614D01*
X180368028Y-112717213D01*
X180512786Y-112861971D01*
X180667749Y-112974556D01*
X180678390Y-112982287D01*
X180759499Y-113023614D01*
X180860776Y-113075218D01*
X180860778Y-113075218D01*
X180860781Y-113075220D01*
X180935818Y-113099601D01*
X181055465Y-113138477D01*
X181083555Y-113142926D01*
X181257648Y-113170500D01*
X181257649Y-113170500D01*
X181462351Y-113170500D01*
X181462352Y-113170500D01*
X181664534Y-113138477D01*
X181859219Y-113075220D01*
X182041610Y-112982287D01*
X182162438Y-112894501D01*
X182207213Y-112861971D01*
X182207215Y-112861968D01*
X182207219Y-112861966D01*
X182351966Y-112717219D01*
X182351968Y-112717215D01*
X182351971Y-112717213D01*
X182472284Y-112551614D01*
X182472286Y-112551611D01*
X182472287Y-112551610D01*
X182519516Y-112458917D01*
X182567489Y-112408123D01*
X182635310Y-112391328D01*
X182701445Y-112413865D01*
X182740483Y-112458917D01*
X182744172Y-112466156D01*
X182787715Y-112551614D01*
X182908028Y-112717213D01*
X183052786Y-112861971D01*
X183207749Y-112974556D01*
X183218390Y-112982287D01*
X183299499Y-113023614D01*
X183400776Y-113075218D01*
X183400778Y-113075218D01*
X183400781Y-113075220D01*
X183475818Y-113099601D01*
X183595465Y-113138477D01*
X183623555Y-113142926D01*
X183797648Y-113170500D01*
X183797649Y-113170500D01*
X184002351Y-113170500D01*
X184002352Y-113170500D01*
X184204534Y-113138477D01*
X184399219Y-113075220D01*
X184581610Y-112982287D01*
X184702438Y-112894501D01*
X184747213Y-112861971D01*
X184747215Y-112861968D01*
X184747219Y-112861966D01*
X184891966Y-112717219D01*
X184891968Y-112717215D01*
X184891971Y-112717213D01*
X185012284Y-112551614D01*
X185012286Y-112551611D01*
X185012287Y-112551610D01*
X185059516Y-112458917D01*
X185107489Y-112408123D01*
X185175310Y-112391328D01*
X185241445Y-112413865D01*
X185280483Y-112458917D01*
X185284172Y-112466156D01*
X185327715Y-112551614D01*
X185448028Y-112717213D01*
X185592786Y-112861971D01*
X185747749Y-112974556D01*
X185758390Y-112982287D01*
X185839499Y-113023614D01*
X185940776Y-113075218D01*
X185940778Y-113075218D01*
X185940781Y-113075220D01*
X186015818Y-113099601D01*
X186135465Y-113138477D01*
X186163555Y-113142926D01*
X186337648Y-113170500D01*
X186337649Y-113170500D01*
X186542351Y-113170500D01*
X186542352Y-113170500D01*
X186744534Y-113138477D01*
X186939219Y-113075220D01*
X187121610Y-112982287D01*
X187242438Y-112894501D01*
X187287213Y-112861971D01*
X187287215Y-112861968D01*
X187287219Y-112861966D01*
X187431966Y-112717219D01*
X187431968Y-112717215D01*
X187431971Y-112717213D01*
X187552284Y-112551614D01*
X187552286Y-112551611D01*
X187552287Y-112551610D01*
X187599516Y-112458917D01*
X187647489Y-112408123D01*
X187715310Y-112391328D01*
X187781445Y-112413865D01*
X187820483Y-112458917D01*
X187824172Y-112466156D01*
X187867715Y-112551614D01*
X187988028Y-112717213D01*
X188132786Y-112861971D01*
X188287749Y-112974556D01*
X188298390Y-112982287D01*
X188379499Y-113023614D01*
X188480776Y-113075218D01*
X188480778Y-113075218D01*
X188480781Y-113075220D01*
X188555818Y-113099601D01*
X188675465Y-113138477D01*
X188703555Y-113142926D01*
X188877648Y-113170500D01*
X188877649Y-113170500D01*
X189082351Y-113170500D01*
X189082352Y-113170500D01*
X189284534Y-113138477D01*
X189479219Y-113075220D01*
X189661610Y-112982287D01*
X189782438Y-112894501D01*
X189827213Y-112861971D01*
X189827215Y-112861968D01*
X189827219Y-112861966D01*
X189971966Y-112717219D01*
X189971968Y-112717215D01*
X189971971Y-112717213D01*
X190092284Y-112551614D01*
X190092286Y-112551611D01*
X190092287Y-112551610D01*
X190139516Y-112458917D01*
X190187489Y-112408123D01*
X190255310Y-112391328D01*
X190321445Y-112413865D01*
X190360483Y-112458917D01*
X190364172Y-112466156D01*
X190407715Y-112551614D01*
X190528028Y-112717213D01*
X190528034Y-112717219D01*
X190672781Y-112861966D01*
X190838390Y-112982287D01*
X190851793Y-112989116D01*
X190902589Y-113037088D01*
X190919500Y-113099601D01*
X190919500Y-119503316D01*
X190899815Y-119570355D01*
X190847011Y-119616110D01*
X190842956Y-119617876D01*
X190841589Y-119618442D01*
X190652179Y-119714951D01*
X190480213Y-119839890D01*
X190329890Y-119990213D01*
X190204949Y-120162182D01*
X190200484Y-120170946D01*
X190152509Y-120221742D01*
X190084688Y-120238536D01*
X190018553Y-120215998D01*
X189979516Y-120170946D01*
X189975050Y-120162182D01*
X189850109Y-119990213D01*
X189699786Y-119839890D01*
X189527820Y-119714951D01*
X189338414Y-119618444D01*
X189338413Y-119618443D01*
X189338412Y-119618443D01*
X189136243Y-119552754D01*
X189136241Y-119552753D01*
X189136240Y-119552753D01*
X188971102Y-119526598D01*
X188926287Y-119519500D01*
X188713713Y-119519500D01*
X188668898Y-119526598D01*
X188503760Y-119552753D01*
X188301585Y-119618444D01*
X188112179Y-119714951D01*
X187940213Y-119839890D01*
X187789890Y-119990213D01*
X187664949Y-120162182D01*
X187660484Y-120170946D01*
X187612509Y-120221742D01*
X187544688Y-120238536D01*
X187478553Y-120215998D01*
X187439516Y-120170946D01*
X187435050Y-120162182D01*
X187310109Y-119990213D01*
X187159786Y-119839890D01*
X186987820Y-119714951D01*
X186798414Y-119618444D01*
X186798413Y-119618443D01*
X186798412Y-119618443D01*
X186596243Y-119552754D01*
X186596241Y-119552753D01*
X186596240Y-119552753D01*
X186431102Y-119526598D01*
X186386287Y-119519500D01*
X186173713Y-119519500D01*
X186128898Y-119526598D01*
X185963760Y-119552753D01*
X185761585Y-119618444D01*
X185572179Y-119714951D01*
X185400213Y-119839890D01*
X185249890Y-119990213D01*
X185124949Y-120162182D01*
X185120484Y-120170946D01*
X185072509Y-120221742D01*
X185004688Y-120238536D01*
X184938553Y-120215998D01*
X184899516Y-120170946D01*
X184895050Y-120162182D01*
X184770109Y-119990213D01*
X184619786Y-119839890D01*
X184447820Y-119714951D01*
X184258414Y-119618444D01*
X184258413Y-119618443D01*
X184258412Y-119618443D01*
X184056243Y-119552754D01*
X184056241Y-119552753D01*
X184056240Y-119552753D01*
X183891102Y-119526598D01*
X183846287Y-119519500D01*
X183633713Y-119519500D01*
X183588898Y-119526598D01*
X183423760Y-119552753D01*
X183221585Y-119618444D01*
X183032179Y-119714951D01*
X182860213Y-119839890D01*
X182709890Y-119990213D01*
X182584949Y-120162182D01*
X182580484Y-120170946D01*
X182532509Y-120221742D01*
X182464688Y-120238536D01*
X182398553Y-120215998D01*
X182359516Y-120170946D01*
X182355050Y-120162182D01*
X182230109Y-119990213D01*
X182079786Y-119839890D01*
X181907820Y-119714951D01*
X181718414Y-119618444D01*
X181718413Y-119618443D01*
X181718412Y-119618443D01*
X181516243Y-119552754D01*
X181516241Y-119552753D01*
X181516240Y-119552753D01*
X181351102Y-119526598D01*
X181306287Y-119519500D01*
X181093713Y-119519500D01*
X181048898Y-119526598D01*
X180883760Y-119552753D01*
X180681585Y-119618444D01*
X180492179Y-119714951D01*
X180320215Y-119839889D01*
X180206673Y-119953431D01*
X180145350Y-119986915D01*
X180075658Y-119981931D01*
X180019725Y-119940059D01*
X180002810Y-119909082D01*
X179953797Y-119777671D01*
X179953793Y-119777664D01*
X179867547Y-119662455D01*
X179867544Y-119662452D01*
X179752335Y-119576206D01*
X179752328Y-119576202D01*
X179617482Y-119525908D01*
X179617483Y-119525908D01*
X179557883Y-119519501D01*
X179557881Y-119519500D01*
X179557873Y-119519500D01*
X179557864Y-119519500D01*
X177762129Y-119519500D01*
X177762123Y-119519501D01*
X177702516Y-119525908D01*
X177567671Y-119576202D01*
X177567664Y-119576206D01*
X177452455Y-119662452D01*
X177452452Y-119662455D01*
X177366206Y-119777664D01*
X177366202Y-119777671D01*
X177315908Y-119912517D01*
X177309501Y-119972116D01*
X177309500Y-119972135D01*
X177309500Y-121767870D01*
X177309501Y-121767876D01*
X177315908Y-121827483D01*
X177366202Y-121962328D01*
X177366206Y-121962335D01*
X177452452Y-122077544D01*
X177452455Y-122077547D01*
X177567664Y-122163793D01*
X177567671Y-122163797D01*
X177702517Y-122214091D01*
X177702516Y-122214091D01*
X177709444Y-122214835D01*
X177762127Y-122220500D01*
X179557872Y-122220499D01*
X179617483Y-122214091D01*
X179752331Y-122163796D01*
X179867546Y-122077546D01*
X179953796Y-121962331D01*
X180002810Y-121830916D01*
X180044681Y-121774984D01*
X180110145Y-121750566D01*
X180178418Y-121765417D01*
X180206673Y-121786569D01*
X180320213Y-121900109D01*
X180492179Y-122025048D01*
X180492181Y-122025049D01*
X180492184Y-122025051D01*
X180681588Y-122121557D01*
X180883757Y-122187246D01*
X181093713Y-122220500D01*
X181093714Y-122220500D01*
X181306286Y-122220500D01*
X181306287Y-122220500D01*
X181516243Y-122187246D01*
X181718412Y-122121557D01*
X181907816Y-122025051D01*
X181994138Y-121962335D01*
X182079786Y-121900109D01*
X182079788Y-121900106D01*
X182079792Y-121900104D01*
X182230104Y-121749792D01*
X182230106Y-121749788D01*
X182230109Y-121749786D01*
X182355048Y-121577820D01*
X182355047Y-121577820D01*
X182355051Y-121577816D01*
X182359514Y-121569054D01*
X182407488Y-121518259D01*
X182475308Y-121501463D01*
X182541444Y-121523999D01*
X182580486Y-121569056D01*
X182584951Y-121577820D01*
X182709890Y-121749786D01*
X182860213Y-121900109D01*
X183032179Y-122025048D01*
X183032181Y-122025049D01*
X183032184Y-122025051D01*
X183221588Y-122121557D01*
X183423757Y-122187246D01*
X183633713Y-122220500D01*
X183633714Y-122220500D01*
X183846286Y-122220500D01*
X183846287Y-122220500D01*
X184056243Y-122187246D01*
X184258412Y-122121557D01*
X184447816Y-122025051D01*
X184534138Y-121962335D01*
X184619786Y-121900109D01*
X184619788Y-121900106D01*
X184619792Y-121900104D01*
X184770104Y-121749792D01*
X184770106Y-121749788D01*
X184770109Y-121749786D01*
X184895048Y-121577820D01*
X184895047Y-121577820D01*
X184895051Y-121577816D01*
X184899514Y-121569054D01*
X184947488Y-121518259D01*
X185015308Y-121501463D01*
X185081444Y-121523999D01*
X185120486Y-121569056D01*
X185124951Y-121577820D01*
X185249890Y-121749786D01*
X185400213Y-121900109D01*
X185572179Y-122025048D01*
X185572181Y-122025049D01*
X185572184Y-122025051D01*
X185761588Y-122121557D01*
X185963757Y-122187246D01*
X186173713Y-122220500D01*
X186173714Y-122220500D01*
X186386286Y-122220500D01*
X186386287Y-122220500D01*
X186596243Y-122187246D01*
X186798412Y-122121557D01*
X186987816Y-122025051D01*
X187074138Y-121962335D01*
X187159786Y-121900109D01*
X187159788Y-121900106D01*
X187159792Y-121900104D01*
X187310104Y-121749792D01*
X187310106Y-121749788D01*
X187310109Y-121749786D01*
X187435048Y-121577820D01*
X187435047Y-121577820D01*
X187435051Y-121577816D01*
X187439514Y-121569054D01*
X187487488Y-121518259D01*
X187555308Y-121501463D01*
X187621444Y-121523999D01*
X187660486Y-121569056D01*
X187664951Y-121577820D01*
X187789890Y-121749786D01*
X187940213Y-121900109D01*
X188112179Y-122025048D01*
X188112181Y-122025049D01*
X188112184Y-122025051D01*
X188301588Y-122121557D01*
X188503757Y-122187246D01*
X188713713Y-122220500D01*
X188713714Y-122220500D01*
X188926286Y-122220500D01*
X188926287Y-122220500D01*
X189136243Y-122187246D01*
X189338412Y-122121557D01*
X189527816Y-122025051D01*
X189614138Y-121962335D01*
X189699786Y-121900109D01*
X189699788Y-121900106D01*
X189699792Y-121900104D01*
X189850104Y-121749792D01*
X189850106Y-121749788D01*
X189850109Y-121749786D01*
X189975048Y-121577820D01*
X189975047Y-121577820D01*
X189975051Y-121577816D01*
X189979514Y-121569054D01*
X190027488Y-121518259D01*
X190095308Y-121501463D01*
X190161444Y-121523999D01*
X190200486Y-121569056D01*
X190204951Y-121577820D01*
X190329890Y-121749786D01*
X190480213Y-121900109D01*
X190652179Y-122025048D01*
X190652181Y-122025049D01*
X190652184Y-122025051D01*
X190841588Y-122121557D01*
X191043757Y-122187246D01*
X191253713Y-122220500D01*
X191253714Y-122220500D01*
X191466286Y-122220500D01*
X191466287Y-122220500D01*
X191676243Y-122187246D01*
X191878412Y-122121557D01*
X192067816Y-122025051D01*
X192154138Y-121962335D01*
X192239786Y-121900109D01*
X192239788Y-121900106D01*
X192239792Y-121900104D01*
X192390104Y-121749792D01*
X192390106Y-121749788D01*
X192390109Y-121749786D01*
X192515048Y-121577820D01*
X192515047Y-121577820D01*
X192515051Y-121577816D01*
X192611557Y-121388412D01*
X192677246Y-121186243D01*
X192710500Y-120976287D01*
X192710500Y-120763713D01*
X192677246Y-120553757D01*
X192611557Y-120351588D01*
X192515051Y-120162184D01*
X192515049Y-120162181D01*
X192515048Y-120162179D01*
X192390109Y-119990213D01*
X192239791Y-119839895D01*
X192171613Y-119790360D01*
X192128948Y-119735030D01*
X192120500Y-119690043D01*
X192120500Y-113099601D01*
X192140185Y-113032562D01*
X192188206Y-112989116D01*
X192201610Y-112982287D01*
X192367219Y-112861966D01*
X192511966Y-112717219D01*
X192511968Y-112717215D01*
X192511971Y-112717213D01*
X192564732Y-112644590D01*
X192632287Y-112551610D01*
X192725220Y-112369219D01*
X192788477Y-112174534D01*
X192820500Y-111972352D01*
X192820500Y-111767648D01*
X192805018Y-111669902D01*
X192788477Y-111565465D01*
X192725218Y-111370776D01*
X192679515Y-111281080D01*
X192632287Y-111188390D01*
X192600092Y-111144077D01*
X192511971Y-111022786D01*
X192367213Y-110878028D01*
X192201613Y-110757715D01*
X192201612Y-110757714D01*
X192201610Y-110757713D01*
X192144653Y-110728691D01*
X192019223Y-110664781D01*
X191824534Y-110601522D01*
X191649995Y-110573878D01*
X191622352Y-110569500D01*
X191417648Y-110569500D01*
X191379599Y-110575526D01*
X191215468Y-110601522D01*
X191206717Y-110604365D01*
X191201154Y-110606173D01*
X191131313Y-110608167D01*
X191075157Y-110575922D01*
X186261416Y-105762181D01*
X186227931Y-105700858D01*
X186232915Y-105631166D01*
X186274787Y-105575233D01*
X186340251Y-105550816D01*
X186349097Y-105550500D01*
X186542351Y-105550500D01*
X186542352Y-105550500D01*
X186744534Y-105518477D01*
X186939219Y-105455220D01*
X187121610Y-105362287D01*
X187214590Y-105294732D01*
X187287213Y-105241971D01*
X187287215Y-105241968D01*
X187287219Y-105241966D01*
X187431966Y-105097219D01*
X187431968Y-105097215D01*
X187431971Y-105097213D01*
X187552284Y-104931614D01*
X187552285Y-104931613D01*
X187552287Y-104931610D01*
X187599516Y-104838917D01*
X187647489Y-104788123D01*
X187715310Y-104771328D01*
X187781445Y-104793865D01*
X187820483Y-104838917D01*
X187826139Y-104850016D01*
X187867715Y-104931614D01*
X187988028Y-105097213D01*
X188132786Y-105241971D01*
X188246300Y-105324442D01*
X188298390Y-105362287D01*
X188410274Y-105419295D01*
X188480776Y-105455218D01*
X188480778Y-105455218D01*
X188480781Y-105455220D01*
X188552254Y-105478443D01*
X188675465Y-105518477D01*
X188755719Y-105531188D01*
X188877648Y-105550500D01*
X188877649Y-105550500D01*
X189082351Y-105550500D01*
X189082352Y-105550500D01*
X189284534Y-105518477D01*
X189479219Y-105455220D01*
X189661610Y-105362287D01*
X189754590Y-105294732D01*
X189827213Y-105241971D01*
X189827215Y-105241968D01*
X189827219Y-105241966D01*
X189971966Y-105097219D01*
X190040021Y-105003547D01*
X190095349Y-104960882D01*
X190164963Y-104954902D01*
X190226758Y-104987507D01*
X190258044Y-105037427D01*
X190284815Y-105118215D01*
X190285186Y-105119333D01*
X190285187Y-105119336D01*
X190306387Y-105153707D01*
X190377288Y-105268656D01*
X190501344Y-105392712D01*
X190650666Y-105484814D01*
X190817203Y-105539999D01*
X190919991Y-105550500D01*
X192120008Y-105550499D01*
X192222797Y-105539999D01*
X192389334Y-105484814D01*
X192538656Y-105392712D01*
X192662712Y-105268656D01*
X192754814Y-105119334D01*
X192809999Y-104952797D01*
X192820500Y-104850009D01*
X192820499Y-103850095D01*
X192840183Y-103783057D01*
X192856813Y-103762420D01*
X196867821Y-99751413D01*
X196929142Y-99717930D01*
X196998834Y-99722914D01*
G37*
%TD.AperFunction*%
%TA.AperFunction,Conductor*%
G36*
X161055703Y-82899749D02*
G01*
X161062181Y-82905781D01*
X173186389Y-95029989D01*
X173201210Y-95057133D01*
X173217829Y-95083230D01*
X173217811Y-95087534D01*
X173219874Y-95091312D01*
X173217667Y-95122167D01*
X173217539Y-95153099D01*
X173215197Y-95156709D01*
X173214890Y-95161004D01*
X173196350Y-95185768D01*
X173179520Y-95211720D01*
X173174557Y-95214879D01*
X173173018Y-95216937D01*
X173165890Y-95220399D01*
X173149750Y-95230678D01*
X173140553Y-95234831D01*
X173119686Y-95240423D01*
X173094527Y-95254949D01*
X173089190Y-95258029D01*
X173089186Y-95258032D01*
X172982756Y-95319479D01*
X172982753Y-95319481D01*
X172519479Y-95782755D01*
X172509235Y-95800500D01*
X172486186Y-95840423D01*
X172485243Y-95842057D01*
X172440423Y-95919685D01*
X172440423Y-95919686D01*
X172399499Y-96072414D01*
X172399499Y-96072416D01*
X172399499Y-96240517D01*
X172399500Y-96240530D01*
X172399500Y-97145500D01*
X172379815Y-97212539D01*
X172327011Y-97258294D01*
X172275503Y-97269500D01*
X172232131Y-97269500D01*
X172232123Y-97269501D01*
X172172516Y-97275908D01*
X172037671Y-97326202D01*
X172037669Y-97326204D01*
X171953894Y-97388918D01*
X171888430Y-97413335D01*
X171820157Y-97398484D01*
X171805272Y-97388918D01*
X171722088Y-97326646D01*
X171722086Y-97326645D01*
X171587379Y-97276403D01*
X171587372Y-97276401D01*
X171527844Y-97270000D01*
X171480000Y-97270000D01*
X171480000Y-99246000D01*
X171477449Y-99254685D01*
X171478738Y-99263647D01*
X171467759Y-99287687D01*
X171460315Y-99313039D01*
X171453474Y-99318966D01*
X171449713Y-99327203D01*
X171427478Y-99341492D01*
X171407511Y-99358794D01*
X171396996Y-99361081D01*
X171390935Y-99364977D01*
X171356000Y-99370000D01*
X171204000Y-99370000D01*
X171136961Y-99350315D01*
X171091206Y-99297511D01*
X171080000Y-99246000D01*
X171080000Y-97270000D01*
X171032155Y-97270000D01*
X170972627Y-97276401D01*
X170972620Y-97276403D01*
X170837913Y-97326645D01*
X170837910Y-97326647D01*
X170754727Y-97388918D01*
X170689262Y-97413335D01*
X170620989Y-97398483D01*
X170606106Y-97388918D01*
X170522331Y-97326204D01*
X170522328Y-97326202D01*
X170387486Y-97275910D01*
X170387485Y-97275909D01*
X170387483Y-97275909D01*
X170327873Y-97269500D01*
X170327863Y-97269500D01*
X169832129Y-97269500D01*
X169832123Y-97269501D01*
X169772516Y-97275908D01*
X169637671Y-97326202D01*
X169637664Y-97326206D01*
X169522455Y-97412452D01*
X169522452Y-97412455D01*
X169436206Y-97527664D01*
X169436202Y-97527671D01*
X169385908Y-97662517D01*
X169379501Y-97722116D01*
X169379500Y-97722135D01*
X169379500Y-101017870D01*
X169379501Y-101017876D01*
X169385908Y-101077483D01*
X169436202Y-101212328D01*
X169436206Y-101212335D01*
X169522452Y-101327544D01*
X169522455Y-101327547D01*
X169637664Y-101413793D01*
X169637671Y-101413797D01*
X169659091Y-101421786D01*
X169772517Y-101464091D01*
X169832127Y-101470500D01*
X170125093Y-101470499D01*
X170192131Y-101490183D01*
X170237886Y-101542987D01*
X170247830Y-101612146D01*
X170218805Y-101675701D01*
X170172545Y-101709060D01*
X170084660Y-101745463D01*
X169959218Y-101841718D01*
X169862963Y-101967160D01*
X169802456Y-102113237D01*
X169802455Y-102113239D01*
X169787000Y-102230638D01*
X169787000Y-102509363D01*
X169802453Y-102626753D01*
X169802456Y-102626762D01*
X169855701Y-102755308D01*
X169862964Y-102772841D01*
X169959218Y-102898282D01*
X169959221Y-102898284D01*
X169959224Y-102898288D01*
X169964969Y-102904034D01*
X169962553Y-102906449D01*
X169994436Y-102950173D01*
X169998546Y-103019922D01*
X169965401Y-103079727D01*
X169734838Y-103310291D01*
X169673515Y-103343776D01*
X169603824Y-103338792D01*
X169559476Y-103310291D01*
X169507213Y-103258028D01*
X169341613Y-103137715D01*
X169341612Y-103137714D01*
X169341610Y-103137713D01*
X169281898Y-103107288D01*
X169159223Y-103044781D01*
X168964534Y-102981522D01*
X168789995Y-102953878D01*
X168762352Y-102949500D01*
X168557648Y-102949500D01*
X168533329Y-102953351D01*
X168355465Y-102981522D01*
X168160776Y-103044781D01*
X167978386Y-103137715D01*
X167812786Y-103258028D01*
X167668028Y-103402786D01*
X167547715Y-103568386D01*
X167500485Y-103661080D01*
X167452510Y-103711876D01*
X167384689Y-103728671D01*
X167318554Y-103706134D01*
X167279515Y-103661080D01*
X167271321Y-103644998D01*
X167232287Y-103568390D01*
X167200092Y-103524077D01*
X167111971Y-103402786D01*
X166967213Y-103258028D01*
X166801613Y-103137715D01*
X166801612Y-103137714D01*
X166801610Y-103137713D01*
X166741898Y-103107288D01*
X166619223Y-103044781D01*
X166424534Y-102981522D01*
X166249995Y-102953878D01*
X166222352Y-102949500D01*
X166017648Y-102949500D01*
X165912185Y-102966203D01*
X165842892Y-102957248D01*
X165789440Y-102912252D01*
X165768801Y-102845500D01*
X165773013Y-102811641D01*
X165800501Y-102709057D01*
X165800501Y-102550943D01*
X165800501Y-102543348D01*
X165800500Y-102543330D01*
X165800500Y-96379765D01*
X165820185Y-96312726D01*
X165821398Y-96310874D01*
X165831009Y-96296491D01*
X165909394Y-96179179D01*
X165916323Y-96162452D01*
X165937929Y-96110288D01*
X165969737Y-96033497D01*
X166000500Y-95878842D01*
X166000500Y-95721158D01*
X166000500Y-95721155D01*
X166000499Y-95721153D01*
X165992417Y-95680521D01*
X165969737Y-95566503D01*
X165947334Y-95512416D01*
X165909397Y-95420827D01*
X165909390Y-95420814D01*
X165821789Y-95289711D01*
X165821786Y-95289707D01*
X165710292Y-95178213D01*
X165710288Y-95178210D01*
X165579185Y-95090609D01*
X165579172Y-95090602D01*
X165433501Y-95030264D01*
X165433489Y-95030261D01*
X165278845Y-94999500D01*
X165278842Y-94999500D01*
X165121158Y-94999500D01*
X165121155Y-94999500D01*
X164966510Y-95030261D01*
X164966498Y-95030264D01*
X164820827Y-95090602D01*
X164820814Y-95090609D01*
X164689711Y-95178210D01*
X164689707Y-95178213D01*
X164578213Y-95289707D01*
X164578210Y-95289711D01*
X164490609Y-95420814D01*
X164490602Y-95420827D01*
X164430264Y-95566498D01*
X164430261Y-95566510D01*
X164399500Y-95721153D01*
X164399500Y-95878846D01*
X164430261Y-96033489D01*
X164430264Y-96033501D01*
X164490602Y-96179172D01*
X164490609Y-96179185D01*
X164578602Y-96310874D01*
X164599480Y-96377551D01*
X164599500Y-96379765D01*
X164599500Y-99650903D01*
X164579815Y-99717942D01*
X164527011Y-99763697D01*
X164457853Y-99773641D01*
X164394297Y-99744616D01*
X164387819Y-99738584D01*
X164182590Y-99533355D01*
X164182588Y-99533352D01*
X164063717Y-99414481D01*
X164063716Y-99414480D01*
X163976904Y-99364360D01*
X163976904Y-99364359D01*
X163976900Y-99364358D01*
X163926785Y-99335423D01*
X163774057Y-99294499D01*
X163615943Y-99294499D01*
X163608347Y-99294499D01*
X163608331Y-99294500D01*
X161390601Y-99294500D01*
X161232487Y-99294500D01*
X161079759Y-99335423D01*
X161079758Y-99335423D01*
X161079756Y-99335424D01*
X161079753Y-99335425D01*
X161029640Y-99364359D01*
X161029639Y-99364360D01*
X161010346Y-99375499D01*
X160942829Y-99414479D01*
X160942826Y-99414481D01*
X160831022Y-99526286D01*
X159478212Y-100879095D01*
X159473172Y-100881846D01*
X159469979Y-100886619D01*
X159442847Y-100898405D01*
X159416889Y-100912580D01*
X159411161Y-100912170D01*
X159405896Y-100914458D01*
X159376706Y-100909706D01*
X159347197Y-100907596D01*
X159342599Y-100904154D01*
X159336934Y-100903232D01*
X159314944Y-100883451D01*
X159291264Y-100865724D01*
X159288143Y-100859342D01*
X159284989Y-100856505D01*
X159280273Y-100843247D01*
X159270926Y-100824133D01*
X159268696Y-100815982D01*
X159265044Y-100788238D01*
X159253449Y-100760246D01*
X159251390Y-100752719D01*
X159251899Y-100725276D01*
X159248965Y-100697986D01*
X159252638Y-100685475D01*
X159252687Y-100682862D01*
X159253967Y-100680948D01*
X159256435Y-100672545D01*
X159256613Y-100672116D01*
X159265044Y-100651762D01*
X159280500Y-100534361D01*
X159280499Y-100255640D01*
X159280499Y-100255638D01*
X159280499Y-100255636D01*
X159265046Y-100138246D01*
X159265044Y-100138239D01*
X159265044Y-100138238D01*
X159204536Y-99992159D01*
X159108282Y-99866718D01*
X158982841Y-99770464D01*
X158938511Y-99752102D01*
X158836762Y-99709956D01*
X158836760Y-99709955D01*
X158719370Y-99694501D01*
X158719367Y-99694500D01*
X158719361Y-99694500D01*
X158719354Y-99694500D01*
X157215636Y-99694500D01*
X157098246Y-99709953D01*
X157098237Y-99709956D01*
X156952160Y-99770463D01*
X156826718Y-99866718D01*
X156730463Y-99992160D01*
X156669956Y-100138237D01*
X156669955Y-100138239D01*
X156654500Y-100255638D01*
X156654500Y-100534363D01*
X156669953Y-100651753D01*
X156669957Y-100651765D01*
X156678566Y-100672550D01*
X156686033Y-100742019D01*
X156678566Y-100767450D01*
X156669957Y-100788234D01*
X156669955Y-100788239D01*
X156654500Y-100905638D01*
X156654500Y-101184363D01*
X156669953Y-101301753D01*
X156669957Y-101301765D01*
X156678566Y-101322550D01*
X156686033Y-101392019D01*
X156678566Y-101417450D01*
X156669957Y-101438234D01*
X156669955Y-101438239D01*
X156654500Y-101555638D01*
X156654500Y-101834363D01*
X156669953Y-101951753D01*
X156669957Y-101951765D01*
X156678566Y-101972550D01*
X156686033Y-102042019D01*
X156678566Y-102067450D01*
X156669957Y-102088234D01*
X156669955Y-102088239D01*
X156654500Y-102205638D01*
X156654500Y-102484363D01*
X156669953Y-102601753D01*
X156669956Y-102601762D01*
X156719138Y-102720499D01*
X156730464Y-102747841D01*
X156826718Y-102873282D01*
X156952159Y-102969536D01*
X157098238Y-103030044D01*
X157215639Y-103045500D01*
X157565954Y-103045499D01*
X157632992Y-103065183D01*
X157678747Y-103117987D01*
X157688691Y-103187146D01*
X157659666Y-103250701D01*
X157653635Y-103257180D01*
X157508027Y-103402788D01*
X157387715Y-103568386D01*
X157294781Y-103750776D01*
X157231522Y-103945465D01*
X157205878Y-104107377D01*
X157199500Y-104147648D01*
X157199500Y-104352352D01*
X157202704Y-104372580D01*
X157231522Y-104554534D01*
X157294781Y-104749223D01*
X157346135Y-104850009D01*
X157371389Y-104899573D01*
X157387715Y-104931613D01*
X157508028Y-105097213D01*
X157652786Y-105241971D01*
X157766300Y-105324442D01*
X157818390Y-105362287D01*
X157930274Y-105419295D01*
X158000776Y-105455218D01*
X158000778Y-105455218D01*
X158000781Y-105455220D01*
X158072254Y-105478443D01*
X158195465Y-105518477D01*
X158275719Y-105531188D01*
X158397648Y-105550500D01*
X158397649Y-105550500D01*
X158602351Y-105550500D01*
X158602352Y-105550500D01*
X158804534Y-105518477D01*
X158999219Y-105455220D01*
X159181610Y-105362287D01*
X159274590Y-105294732D01*
X159347213Y-105241971D01*
X159347215Y-105241968D01*
X159347219Y-105241966D01*
X159491966Y-105097219D01*
X159491968Y-105097215D01*
X159491971Y-105097213D01*
X159612284Y-104931614D01*
X159612285Y-104931613D01*
X159612287Y-104931610D01*
X159659516Y-104838917D01*
X159707489Y-104788123D01*
X159775310Y-104771328D01*
X159841445Y-104793865D01*
X159880483Y-104838917D01*
X159886139Y-104850016D01*
X159927715Y-104931614D01*
X160048028Y-105097213D01*
X160192786Y-105241971D01*
X160306300Y-105324442D01*
X160358390Y-105362287D01*
X160470274Y-105419295D01*
X160540776Y-105455218D01*
X160540778Y-105455218D01*
X160540781Y-105455220D01*
X160612254Y-105478443D01*
X160735465Y-105518477D01*
X160815719Y-105531188D01*
X160937648Y-105550500D01*
X160937649Y-105550500D01*
X161142351Y-105550500D01*
X161142352Y-105550500D01*
X161344534Y-105518477D01*
X161437181Y-105488373D01*
X161507023Y-105486379D01*
X161566856Y-105522459D01*
X161597684Y-105585160D01*
X161599500Y-105606305D01*
X161599500Y-107869902D01*
X161579815Y-107936941D01*
X161563181Y-107957583D01*
X158944842Y-110575921D01*
X158883519Y-110609406D01*
X158818848Y-110606173D01*
X158804534Y-110601522D01*
X158629995Y-110573878D01*
X158602352Y-110569500D01*
X158397648Y-110569500D01*
X158373329Y-110573351D01*
X158195465Y-110601522D01*
X158000776Y-110664781D01*
X157818386Y-110757715D01*
X157652786Y-110878028D01*
X157508028Y-111022786D01*
X157387715Y-111188386D01*
X157294781Y-111370776D01*
X157231522Y-111565465D01*
X157199500Y-111767648D01*
X157199500Y-111972351D01*
X157231522Y-112174534D01*
X157294781Y-112369223D01*
X157349375Y-112476367D01*
X157387578Y-112551346D01*
X157387715Y-112551613D01*
X157508028Y-112717213D01*
X157652786Y-112861971D01*
X157807749Y-112974556D01*
X157818390Y-112982287D01*
X157899499Y-113023614D01*
X158000776Y-113075218D01*
X158000778Y-113075218D01*
X158000781Y-113075220D01*
X158075818Y-113099601D01*
X158195465Y-113138477D01*
X158223555Y-113142926D01*
X158397648Y-113170500D01*
X158397649Y-113170500D01*
X158602351Y-113170500D01*
X158602352Y-113170500D01*
X158804534Y-113138477D01*
X158999219Y-113075220D01*
X159181610Y-112982287D01*
X159302438Y-112894501D01*
X159347213Y-112861971D01*
X159347215Y-112861968D01*
X159347219Y-112861966D01*
X159491966Y-112717219D01*
X159491968Y-112717215D01*
X159491971Y-112717213D01*
X159612284Y-112551614D01*
X159612286Y-112551611D01*
X159612287Y-112551610D01*
X159659516Y-112458917D01*
X159707489Y-112408123D01*
X159775310Y-112391328D01*
X159841445Y-112413865D01*
X159880483Y-112458917D01*
X159884172Y-112466156D01*
X159927715Y-112551614D01*
X160048028Y-112717213D01*
X160192786Y-112861971D01*
X160347749Y-112974556D01*
X160358390Y-112982287D01*
X160439499Y-113023614D01*
X160540776Y-113075218D01*
X160540778Y-113075218D01*
X160540781Y-113075220D01*
X160615818Y-113099601D01*
X160735465Y-113138477D01*
X160763555Y-113142926D01*
X160937648Y-113170500D01*
X160937649Y-113170500D01*
X161142351Y-113170500D01*
X161142352Y-113170500D01*
X161344534Y-113138477D01*
X161539219Y-113075220D01*
X161721610Y-112982287D01*
X161842438Y-112894501D01*
X161887213Y-112861971D01*
X161887215Y-112861968D01*
X161887219Y-112861966D01*
X162031966Y-112717219D01*
X162031968Y-112717215D01*
X162031971Y-112717213D01*
X162152284Y-112551614D01*
X162152286Y-112551611D01*
X162152287Y-112551610D01*
X162199516Y-112458917D01*
X162247489Y-112408123D01*
X162315310Y-112391328D01*
X162381445Y-112413865D01*
X162420483Y-112458917D01*
X162424172Y-112466156D01*
X162467715Y-112551614D01*
X162588028Y-112717213D01*
X162732786Y-112861971D01*
X162887749Y-112974556D01*
X162898390Y-112982287D01*
X162979499Y-113023614D01*
X163080776Y-113075218D01*
X163080778Y-113075218D01*
X163080781Y-113075220D01*
X163155818Y-113099601D01*
X163275465Y-113138477D01*
X163303555Y-113142926D01*
X163477648Y-113170500D01*
X163477649Y-113170500D01*
X163682351Y-113170500D01*
X163682352Y-113170500D01*
X163884534Y-113138477D01*
X164079219Y-113075220D01*
X164261610Y-112982287D01*
X164382438Y-112894501D01*
X164427213Y-112861971D01*
X164427215Y-112861968D01*
X164427219Y-112861966D01*
X164571966Y-112717219D01*
X164571968Y-112717215D01*
X164571971Y-112717213D01*
X164692284Y-112551614D01*
X164692286Y-112551611D01*
X164692287Y-112551610D01*
X164739516Y-112458917D01*
X164787489Y-112408123D01*
X164855310Y-112391328D01*
X164921445Y-112413865D01*
X164960483Y-112458917D01*
X164964172Y-112466156D01*
X165007715Y-112551614D01*
X165128028Y-112717213D01*
X165272786Y-112861971D01*
X165427749Y-112974556D01*
X165438390Y-112982287D01*
X165519499Y-113023614D01*
X165620776Y-113075218D01*
X165620778Y-113075218D01*
X165620781Y-113075220D01*
X165695818Y-113099601D01*
X165815465Y-113138477D01*
X165843555Y-113142926D01*
X166017648Y-113170500D01*
X166017649Y-113170500D01*
X166222351Y-113170500D01*
X166222352Y-113170500D01*
X166424534Y-113138477D01*
X166619219Y-113075220D01*
X166801610Y-112982287D01*
X166843105Y-112952139D01*
X166908909Y-112928660D01*
X166976963Y-112944485D01*
X167025658Y-112994590D01*
X167039534Y-113063068D01*
X167014185Y-113128178D01*
X167003671Y-113140138D01*
X166972161Y-113171648D01*
X166881593Y-113318481D01*
X166881591Y-113318486D01*
X166873506Y-113342885D01*
X166827326Y-113482247D01*
X166827326Y-113482248D01*
X166827325Y-113482248D01*
X166817000Y-113583315D01*
X166817000Y-114156669D01*
X166817001Y-114156687D01*
X166827325Y-114257752D01*
X166846493Y-114315596D01*
X166881520Y-114421300D01*
X166881592Y-114421515D01*
X166881593Y-114421518D01*
X166915895Y-114477129D01*
X166972160Y-114568350D01*
X167094150Y-114690340D01*
X167195596Y-114752912D01*
X167242321Y-114804860D01*
X167254500Y-114858451D01*
X167254500Y-119404125D01*
X167234815Y-119471164D01*
X167182011Y-119516919D01*
X167112853Y-119526863D01*
X167111102Y-119526598D01*
X167106752Y-119525909D01*
X167066287Y-119519500D01*
X166853713Y-119519500D01*
X166825006Y-119524046D01*
X166643757Y-119552753D01*
X166601473Y-119566492D01*
X166531632Y-119568486D01*
X166475476Y-119536241D01*
X166297590Y-119358355D01*
X166297588Y-119358352D01*
X166178717Y-119239481D01*
X166178716Y-119239480D01*
X166091904Y-119189360D01*
X166091904Y-119189359D01*
X166091900Y-119189358D01*
X166041785Y-119160423D01*
X165889057Y-119119499D01*
X165730943Y-119119499D01*
X165723347Y-119119499D01*
X165723331Y-119119500D01*
X160576670Y-119119500D01*
X160576654Y-119119499D01*
X160569058Y-119119499D01*
X160410943Y-119119499D01*
X160325813Y-119142310D01*
X160258215Y-119160423D01*
X160126499Y-119236469D01*
X160058599Y-119252941D01*
X159992572Y-119230088D01*
X159949382Y-119175166D01*
X159940500Y-119129081D01*
X159940500Y-117539059D01*
X159940501Y-117539046D01*
X159940501Y-117370945D01*
X159940501Y-117370943D01*
X159899577Y-117218215D01*
X159870639Y-117168095D01*
X159820520Y-117081284D01*
X159708716Y-116969480D01*
X159708715Y-116969479D01*
X159704385Y-116965149D01*
X159704374Y-116965139D01*
X154496818Y-111757583D01*
X154463333Y-111696260D01*
X154460499Y-111669902D01*
X154460499Y-109719998D01*
X154460498Y-109719981D01*
X154449999Y-109617203D01*
X154449998Y-109617200D01*
X154437078Y-109578210D01*
X154394814Y-109450666D01*
X154302712Y-109301344D01*
X154178656Y-109177288D01*
X154069070Y-109109695D01*
X154029336Y-109085187D01*
X154029331Y-109085185D01*
X154027862Y-109084698D01*
X153862797Y-109030001D01*
X153862795Y-109030000D01*
X153760010Y-109019500D01*
X152559998Y-109019500D01*
X152559981Y-109019501D01*
X152457203Y-109030000D01*
X152457200Y-109030001D01*
X152290668Y-109085185D01*
X152290663Y-109085187D01*
X152219398Y-109129144D01*
X152141344Y-109177288D01*
X152141343Y-109177289D01*
X152116613Y-109202019D01*
X152108666Y-109206357D01*
X152103243Y-109213603D01*
X152078486Y-109222836D01*
X152055289Y-109235503D01*
X152046259Y-109234856D01*
X152037779Y-109238020D01*
X152011958Y-109232402D01*
X151985597Y-109230517D01*
X151976544Y-109224699D01*
X151969506Y-109223168D01*
X151941252Y-109202017D01*
X151765188Y-109025953D01*
X151731703Y-108964630D01*
X151736687Y-108894938D01*
X151746137Y-108875151D01*
X151748079Y-108871866D01*
X151748081Y-108871865D01*
X151831744Y-108730398D01*
X151877598Y-108572569D01*
X151880500Y-108535694D01*
X151880500Y-108104306D01*
X151877598Y-108067431D01*
X151841565Y-107943405D01*
X151841764Y-107873538D01*
X151879705Y-107814868D01*
X151943344Y-107786024D01*
X152012473Y-107796165D01*
X152059016Y-107833324D01*
X152094904Y-107880093D01*
X152215021Y-107972263D01*
X152354896Y-108030200D01*
X152354901Y-108030201D01*
X152429998Y-108040087D01*
X152430000Y-108040086D01*
X152430000Y-107669500D01*
X152432550Y-107660814D01*
X152431262Y-107651853D01*
X152442240Y-107627812D01*
X152449685Y-107602461D01*
X152456525Y-107596533D01*
X152460287Y-107588297D01*
X152482521Y-107574007D01*
X152502489Y-107556706D01*
X152513003Y-107554418D01*
X152519065Y-107550523D01*
X152554000Y-107545500D01*
X152606000Y-107545500D01*
X152673039Y-107565185D01*
X152718794Y-107617989D01*
X152730000Y-107669500D01*
X152730000Y-108040086D01*
X152730001Y-108040087D01*
X152805098Y-108030201D01*
X152805103Y-108030200D01*
X152944978Y-107972263D01*
X153065094Y-107880094D01*
X153157263Y-107759978D01*
X153215198Y-107620108D01*
X153215199Y-107620104D01*
X153229999Y-107507697D01*
X153230000Y-107507683D01*
X153230000Y-107495000D01*
X153229002Y-107495000D01*
X153216796Y-107491416D01*
X153204119Y-107492478D01*
X153183907Y-107481758D01*
X153161963Y-107475315D01*
X153153633Y-107465702D01*
X153142393Y-107459741D01*
X153131185Y-107439795D01*
X153116208Y-107422511D01*
X153114397Y-107409920D01*
X153108165Y-107398829D01*
X153109519Y-107375993D01*
X153106264Y-107353353D01*
X153111646Y-107340131D01*
X153112302Y-107329082D01*
X153127420Y-107301386D01*
X153128839Y-107297902D01*
X153129725Y-107296687D01*
X153157698Y-107260233D01*
X153159494Y-107255896D01*
X153166788Y-107245902D01*
X153189449Y-107228503D01*
X153210127Y-107208787D01*
X153217443Y-107207011D01*
X153219788Y-107205211D01*
X153230000Y-107195000D01*
X153230000Y-107182316D01*
X153229999Y-107182302D01*
X153220888Y-107113099D01*
X153220888Y-107080727D01*
X153221435Y-107076579D01*
X153230500Y-107007720D01*
X153230500Y-106682280D01*
X153215687Y-106569764D01*
X153157698Y-106429767D01*
X153065451Y-106309549D01*
X152945233Y-106217302D01*
X152945229Y-106217300D01*
X152881801Y-106191027D01*
X152805236Y-106159313D01*
X152791171Y-106157461D01*
X152692727Y-106144500D01*
X152692720Y-106144500D01*
X152467280Y-106144500D01*
X152467272Y-106144500D01*
X152354764Y-106159313D01*
X152354763Y-106159313D01*
X152214770Y-106217300D01*
X152214767Y-106217301D01*
X152214767Y-106217302D01*
X152094549Y-106309549D01*
X152094544Y-106309553D01*
X152092181Y-106311917D01*
X152089695Y-106313274D01*
X152088102Y-106314497D01*
X152087911Y-106314248D01*
X152030858Y-106345402D01*
X151961166Y-106340418D01*
X151905233Y-106298546D01*
X151880816Y-106233082D01*
X151880500Y-106224236D01*
X151880500Y-106204313D01*
X151880499Y-106204298D01*
X151877598Y-106167432D01*
X151877597Y-106167426D01*
X151831745Y-106009606D01*
X151831744Y-106009603D01*
X151831744Y-106009602D01*
X151748081Y-105868135D01*
X151748079Y-105868133D01*
X151748076Y-105868129D01*
X151631870Y-105751923D01*
X151631862Y-105751917D01*
X151490396Y-105668255D01*
X151490393Y-105668254D01*
X151332573Y-105622402D01*
X151332567Y-105622401D01*
X151295701Y-105619500D01*
X151295694Y-105619500D01*
X150139306Y-105619500D01*
X150139298Y-105619500D01*
X150102432Y-105622401D01*
X150064094Y-105633540D01*
X149994225Y-105633340D01*
X149935555Y-105595397D01*
X149906712Y-105531759D01*
X149905500Y-105514463D01*
X149905500Y-102115945D01*
X149905499Y-102115942D01*
X149904457Y-102112053D01*
X149904454Y-102112040D01*
X149893303Y-102070423D01*
X149864577Y-101963217D01*
X149822657Y-101890608D01*
X149785524Y-101826291D01*
X149785521Y-101826287D01*
X149785520Y-101826285D01*
X149673716Y-101714481D01*
X149673715Y-101714480D01*
X149669385Y-101710150D01*
X149669374Y-101710140D01*
X149492805Y-101533571D01*
X149485520Y-101526286D01*
X149485519Y-101526284D01*
X149373715Y-101414480D01*
X149372310Y-101413669D01*
X149365487Y-101406879D01*
X149363661Y-101403555D01*
X149354578Y-101394470D01*
X149333284Y-101366721D01*
X149333282Y-101366718D01*
X149207841Y-101270464D01*
X149061762Y-101209956D01*
X149061760Y-101209955D01*
X148944370Y-101194501D01*
X148944367Y-101194500D01*
X148944361Y-101194500D01*
X148944354Y-101194500D01*
X147440636Y-101194500D01*
X147323246Y-101209953D01*
X147323237Y-101209956D01*
X147177160Y-101270463D01*
X147051718Y-101366718D01*
X146955463Y-101492160D01*
X146894956Y-101638237D01*
X146894955Y-101638239D01*
X146879500Y-101755638D01*
X146879500Y-102034363D01*
X146894953Y-102151753D01*
X146894957Y-102151765D01*
X146903566Y-102172550D01*
X146911033Y-102242019D01*
X146903566Y-102267450D01*
X146894957Y-102288234D01*
X146894955Y-102288239D01*
X146879500Y-102405638D01*
X146879500Y-102684363D01*
X146894953Y-102801753D01*
X146894957Y-102801765D01*
X146903566Y-102822550D01*
X146911033Y-102892019D01*
X146903566Y-102917450D01*
X146894957Y-102938234D01*
X146894955Y-102938239D01*
X146879500Y-103055638D01*
X146879500Y-103334363D01*
X146894953Y-103451753D01*
X146894957Y-103451765D01*
X146903566Y-103472550D01*
X146911033Y-103542019D01*
X146903566Y-103567450D01*
X146894957Y-103588234D01*
X146894955Y-103588239D01*
X146879500Y-103705638D01*
X146879500Y-103984363D01*
X146894953Y-104101753D01*
X146894956Y-104101762D01*
X146898543Y-104110423D01*
X146955464Y-104247841D01*
X147051718Y-104373282D01*
X147177159Y-104469536D01*
X147323238Y-104530044D01*
X147440639Y-104545500D01*
X148580500Y-104545499D01*
X148647539Y-104565184D01*
X148693294Y-104617987D01*
X148704500Y-104669499D01*
X148704500Y-105257403D01*
X148684815Y-105324442D01*
X148668181Y-105345084D01*
X148430084Y-105583181D01*
X148368761Y-105616666D01*
X148342403Y-105619500D01*
X147864298Y-105619500D01*
X147827432Y-105622401D01*
X147827426Y-105622402D01*
X147669606Y-105668254D01*
X147669603Y-105668255D01*
X147528137Y-105751917D01*
X147528129Y-105751923D01*
X147496874Y-105783180D01*
X147435552Y-105816666D01*
X147409192Y-105819500D01*
X146366670Y-105819500D01*
X146366654Y-105819499D01*
X146359058Y-105819499D01*
X146200943Y-105819499D01*
X146124579Y-105839961D01*
X146048214Y-105860423D01*
X146048211Y-105860425D01*
X145990662Y-105893650D01*
X145922761Y-105910121D01*
X145856735Y-105887268D01*
X145813546Y-105832346D01*
X145805306Y-105798863D01*
X145794680Y-105694847D01*
X145740453Y-105531199D01*
X145740448Y-105531188D01*
X145649947Y-105384465D01*
X145649944Y-105384461D01*
X145528038Y-105262555D01*
X145528034Y-105262552D01*
X145381311Y-105172051D01*
X145381300Y-105172046D01*
X145217652Y-105117819D01*
X145116654Y-105107500D01*
X145080000Y-105107500D01*
X145080000Y-106021000D01*
X145060315Y-106088039D01*
X145007511Y-106133794D01*
X144956000Y-106145000D01*
X144830000Y-106145000D01*
X144830000Y-106271000D01*
X144810315Y-106338039D01*
X144757511Y-106383794D01*
X144706000Y-106395000D01*
X144241503Y-106395000D01*
X144226014Y-106390850D01*
X144212271Y-106391505D01*
X144179504Y-106378388D01*
X144111904Y-106339360D01*
X144111902Y-106339358D01*
X144111901Y-106339358D01*
X144061785Y-106310423D01*
X143909057Y-106269499D01*
X143750943Y-106269499D01*
X143743347Y-106269499D01*
X143743331Y-106269500D01*
X139129096Y-106269500D01*
X139062057Y-106249815D01*
X139016302Y-106197011D01*
X139006358Y-106127853D01*
X139035383Y-106064297D01*
X139041415Y-106057819D01*
X139303389Y-105795845D01*
X143855000Y-105795845D01*
X143855000Y-105895000D01*
X144580000Y-105895000D01*
X144580000Y-105107500D01*
X144543361Y-105107500D01*
X144543343Y-105107501D01*
X144442347Y-105117819D01*
X144278699Y-105172046D01*
X144278688Y-105172051D01*
X144131965Y-105262552D01*
X144131961Y-105262555D01*
X144010055Y-105384461D01*
X144010052Y-105384465D01*
X143919551Y-105531188D01*
X143919546Y-105531199D01*
X143865319Y-105694847D01*
X143855000Y-105795845D01*
X139303389Y-105795845D01*
X139394219Y-105705015D01*
X139637433Y-105461801D01*
X142035520Y-103063716D01*
X142114577Y-102926784D01*
X142155501Y-102774057D01*
X142155501Y-102694098D01*
X142161739Y-102672852D01*
X142163319Y-102650765D01*
X142171391Y-102639981D01*
X142175186Y-102627059D01*
X142191917Y-102612560D01*
X142205190Y-102594831D01*
X142217812Y-102590123D01*
X142227990Y-102581304D01*
X142249905Y-102578152D01*
X142270654Y-102570414D01*
X142283815Y-102573276D01*
X142297148Y-102571360D01*
X142317289Y-102580558D01*
X142338927Y-102585265D01*
X142356653Y-102598535D01*
X142360704Y-102600385D01*
X142367167Y-102606402D01*
X142431284Y-102670519D01*
X142431286Y-102670520D01*
X142438356Y-102677590D01*
X142630095Y-102869329D01*
X142663580Y-102930652D01*
X142665353Y-102973194D01*
X142654500Y-103055636D01*
X142654500Y-103334363D01*
X142669953Y-103451753D01*
X142669956Y-103451762D01*
X142678837Y-103473203D01*
X142686304Y-103542673D01*
X142678838Y-103568103D01*
X142670443Y-103588370D01*
X142662987Y-103645000D01*
X142705500Y-103645000D01*
X142772539Y-103664685D01*
X142786761Y-103675338D01*
X142796239Y-103683561D01*
X142826718Y-103723282D01*
X142952159Y-103819536D01*
X142953701Y-103820175D01*
X142961958Y-103827338D01*
X142978892Y-103853724D01*
X142997386Y-103879052D01*
X142997615Y-103882896D01*
X142999696Y-103886139D01*
X142999676Y-103917496D01*
X143001541Y-103948798D01*
X142999654Y-103952157D01*
X142999652Y-103956009D01*
X142982689Y-103982367D01*
X142967329Y-104009719D01*
X142963924Y-104011525D01*
X142961841Y-104014763D01*
X142933313Y-104027770D01*
X142905611Y-104042471D01*
X142899770Y-104043063D01*
X142898268Y-104043749D01*
X142896102Y-104043436D01*
X142880697Y-104045000D01*
X142662990Y-104045000D01*
X142662988Y-104045001D01*
X142670442Y-104101627D01*
X142670444Y-104101633D01*
X142730899Y-104247585D01*
X142827075Y-104372924D01*
X142952413Y-104469100D01*
X143098365Y-104529554D01*
X143098369Y-104529555D01*
X143215676Y-104544999D01*
X143767499Y-104544999D01*
X143767500Y-104544998D01*
X143767500Y-104019499D01*
X143770050Y-104010813D01*
X143768762Y-104001852D01*
X143779740Y-103977811D01*
X143787185Y-103952460D01*
X143794025Y-103946532D01*
X143797787Y-103938296D01*
X143820021Y-103924006D01*
X143839989Y-103906705D01*
X143850503Y-103904417D01*
X143856565Y-103900522D01*
X143891496Y-103895499D01*
X144043501Y-103895499D01*
X144110539Y-103915184D01*
X144156294Y-103967988D01*
X144167500Y-104019499D01*
X144167500Y-104544999D01*
X144719324Y-104544999D01*
X144836628Y-104529557D01*
X144836633Y-104529555D01*
X144982585Y-104469100D01*
X145107924Y-104372924D01*
X145204100Y-104247586D01*
X145264555Y-104101631D01*
X145272012Y-104045000D01*
X145054303Y-104045000D01*
X145028983Y-104037565D01*
X145002862Y-104033826D01*
X144995987Y-104027876D01*
X144987264Y-104025315D01*
X144969985Y-104005374D01*
X144950029Y-103988104D01*
X144947461Y-103979380D01*
X144941509Y-103972511D01*
X144937753Y-103946393D01*
X144930303Y-103921077D01*
X144932858Y-103912352D01*
X144931565Y-103903353D01*
X144942527Y-103879348D01*
X144949946Y-103854025D01*
X144958184Y-103845064D01*
X144960590Y-103839797D01*
X144973042Y-103827338D01*
X144981298Y-103820175D01*
X144982841Y-103819536D01*
X145108282Y-103723282D01*
X145138760Y-103683561D01*
X145148239Y-103675338D01*
X145169059Y-103665813D01*
X145187553Y-103652310D01*
X145205365Y-103649205D01*
X145211777Y-103646273D01*
X145217496Y-103647091D01*
X145229500Y-103645000D01*
X145272010Y-103645000D01*
X145272011Y-103644998D01*
X145264558Y-103588377D01*
X145264554Y-103588365D01*
X145256163Y-103568106D01*
X145248694Y-103498637D01*
X145250364Y-103490830D01*
X145252601Y-103481801D01*
X145265044Y-103451762D01*
X145270710Y-103408718D01*
X145272380Y-103401981D01*
X145286631Y-103377573D01*
X145298066Y-103351725D01*
X145304443Y-103347067D01*
X145307611Y-103341644D01*
X145321701Y-103334467D01*
X145345287Y-103317245D01*
X145385287Y-103300677D01*
X145516397Y-103213072D01*
X145627897Y-103101572D01*
X145715502Y-102970462D01*
X145719836Y-102960000D01*
X145739008Y-102913713D01*
X145775845Y-102824780D01*
X145806608Y-102670125D01*
X145806608Y-102512441D01*
X145806608Y-102512438D01*
X145806607Y-102512436D01*
X145792651Y-102442274D01*
X145775845Y-102357786D01*
X145747038Y-102288239D01*
X145715505Y-102212110D01*
X145715498Y-102212097D01*
X145627897Y-102080994D01*
X145627894Y-102080990D01*
X145516400Y-101969496D01*
X145516396Y-101969493D01*
X145385293Y-101881892D01*
X145385284Y-101881887D01*
X145357043Y-101870189D01*
X145302641Y-101826346D01*
X145280578Y-101760052D01*
X145280499Y-101755638D01*
X145265046Y-101638246D01*
X145265044Y-101638239D01*
X145265044Y-101638238D01*
X145204536Y-101492159D01*
X145108282Y-101366718D01*
X144982841Y-101270464D01*
X144836762Y-101209956D01*
X144836760Y-101209955D01*
X144719370Y-101194501D01*
X144719367Y-101194500D01*
X144719361Y-101194500D01*
X144719354Y-101194500D01*
X143524500Y-101194500D01*
X143457461Y-101174815D01*
X143411706Y-101122011D01*
X143400500Y-101070500D01*
X143400500Y-99579765D01*
X143420185Y-99512726D01*
X143421398Y-99510874D01*
X143460896Y-99451762D01*
X143509394Y-99379179D01*
X143569737Y-99233497D01*
X143600500Y-99078842D01*
X143600500Y-98921158D01*
X143600500Y-98921155D01*
X143600499Y-98921153D01*
X143595459Y-98895815D01*
X143569737Y-98766503D01*
X143539635Y-98693829D01*
X143509397Y-98620827D01*
X143509390Y-98620814D01*
X143421789Y-98489711D01*
X143421786Y-98489707D01*
X143310292Y-98378213D01*
X143310288Y-98378210D01*
X143179185Y-98290609D01*
X143179172Y-98290602D01*
X143033501Y-98230264D01*
X143033489Y-98230261D01*
X142878845Y-98199500D01*
X142878842Y-98199500D01*
X142721158Y-98199500D01*
X142721155Y-98199500D01*
X142566510Y-98230261D01*
X142566498Y-98230264D01*
X142420827Y-98290602D01*
X142420811Y-98290611D01*
X142388827Y-98311982D01*
X142322150Y-98332859D01*
X142254770Y-98314374D01*
X142208080Y-98262394D01*
X142196905Y-98193424D01*
X142224792Y-98129361D01*
X142232246Y-98121209D01*
X142331878Y-98021577D01*
X146139500Y-98021577D01*
X146139500Y-98218422D01*
X146170290Y-98412826D01*
X146231117Y-98600029D01*
X146292833Y-98721153D01*
X146320476Y-98775405D01*
X146436172Y-98934646D01*
X146575354Y-99073828D01*
X146734595Y-99189524D01*
X146770619Y-99207879D01*
X146909970Y-99278882D01*
X146909972Y-99278882D01*
X146909975Y-99278884D01*
X146958033Y-99294499D01*
X147097173Y-99339709D01*
X147291578Y-99370500D01*
X147291583Y-99370500D01*
X147488422Y-99370500D01*
X147682826Y-99339709D01*
X147721315Y-99327203D01*
X147870025Y-99278884D01*
X148045405Y-99189524D01*
X148204646Y-99073828D01*
X148343828Y-98934646D01*
X148459524Y-98775405D01*
X148548884Y-98600025D01*
X148609709Y-98412826D01*
X148615191Y-98378213D01*
X148640500Y-98218422D01*
X148640500Y-98021577D01*
X148609709Y-97827173D01*
X148577240Y-97727246D01*
X148548884Y-97639975D01*
X148548882Y-97639972D01*
X148548882Y-97639970D01*
X148491663Y-97527671D01*
X148459524Y-97464595D01*
X148343828Y-97305354D01*
X148204646Y-97166172D01*
X148045405Y-97050476D01*
X148032891Y-97044100D01*
X147870029Y-96961117D01*
X147682826Y-96900290D01*
X147488422Y-96869500D01*
X147488417Y-96869500D01*
X147291583Y-96869500D01*
X147291578Y-96869500D01*
X147097173Y-96900290D01*
X146909970Y-96961117D01*
X146734594Y-97050476D01*
X146654800Y-97108451D01*
X146575354Y-97166172D01*
X146575352Y-97166174D01*
X146575351Y-97166174D01*
X146436174Y-97305351D01*
X146436174Y-97305352D01*
X146436172Y-97305354D01*
X146395827Y-97360884D01*
X146320476Y-97464594D01*
X146231117Y-97639970D01*
X146170290Y-97827173D01*
X146139500Y-98021577D01*
X142331878Y-98021577D01*
X145023009Y-95330446D01*
X145084330Y-95296963D01*
X145154022Y-95301947D01*
X145198369Y-95330448D01*
X145289707Y-95421786D01*
X145289711Y-95421789D01*
X145420814Y-95509390D01*
X145420827Y-95509397D01*
X145515799Y-95548735D01*
X145566503Y-95569737D01*
X145719132Y-95600097D01*
X145721153Y-95600499D01*
X145721156Y-95600500D01*
X145721158Y-95600500D01*
X145732665Y-95600500D01*
X145794665Y-95617113D01*
X145836313Y-95641158D01*
X145868215Y-95659577D01*
X146020943Y-95700500D01*
X147413331Y-95700500D01*
X147413347Y-95700501D01*
X147420943Y-95700501D01*
X147579054Y-95700501D01*
X147579057Y-95700501D01*
X147731785Y-95659577D01*
X147817211Y-95610256D01*
X147868716Y-95580520D01*
X147979111Y-95470124D01*
X147982951Y-95466864D01*
X148010445Y-95454636D01*
X148036857Y-95440215D01*
X148042041Y-95440585D01*
X148046792Y-95438473D01*
X148076538Y-95443052D01*
X148106549Y-95445199D01*
X148110710Y-95448313D01*
X148115848Y-95449105D01*
X148138391Y-95469035D01*
X148162483Y-95487070D01*
X148166319Y-95492491D01*
X148178212Y-95510291D01*
X148289707Y-95621786D01*
X148289711Y-95621789D01*
X148420814Y-95709390D01*
X148420827Y-95709397D01*
X148514831Y-95748334D01*
X148566503Y-95769737D01*
X148702406Y-95796770D01*
X148721153Y-95800499D01*
X148721156Y-95800500D01*
X148721158Y-95800500D01*
X148878844Y-95800500D01*
X148878845Y-95800499D01*
X149033497Y-95769737D01*
X149179179Y-95709394D01*
X149310289Y-95621789D01*
X149382430Y-95549646D01*
X149408113Y-95529941D01*
X149415825Y-95525489D01*
X149423336Y-95521154D01*
X149493709Y-95480524D01*
X149493708Y-95480524D01*
X149493716Y-95480520D01*
X149605520Y-95368716D01*
X149605520Y-95368714D01*
X149615725Y-95358510D01*
X149615729Y-95358504D01*
X149637418Y-95336816D01*
X149698742Y-95303332D01*
X149725097Y-95300499D01*
X149781863Y-95300499D01*
X149899255Y-95285045D01*
X149899255Y-95285044D01*
X149899262Y-95285044D01*
X149899267Y-95285041D01*
X149900400Y-95284739D01*
X149903613Y-95284472D01*
X149907321Y-95283984D01*
X149907344Y-95284162D01*
X149944395Y-95281084D01*
X149959750Y-95282563D01*
X149965738Y-95285044D01*
X150083139Y-95300500D01*
X150145865Y-95300499D01*
X150151797Y-95301071D01*
X150178907Y-95311951D01*
X150206940Y-95320182D01*
X150214406Y-95326198D01*
X150216639Y-95327095D01*
X150218141Y-95329209D01*
X150227583Y-95336818D01*
X151446262Y-96555497D01*
X151479747Y-96616820D01*
X151480199Y-96667368D01*
X151469500Y-96721159D01*
X151469500Y-96878846D01*
X151501451Y-97039472D01*
X151499594Y-97039841D01*
X151500137Y-97100903D01*
X151462886Y-97160014D01*
X151457641Y-97164218D01*
X151455351Y-97166174D01*
X151316174Y-97305351D01*
X151316174Y-97305352D01*
X151316172Y-97305354D01*
X151275827Y-97360884D01*
X151200476Y-97464594D01*
X151111117Y-97639970D01*
X151050290Y-97827173D01*
X151019500Y-98021577D01*
X151019500Y-98218422D01*
X151050290Y-98412826D01*
X151111117Y-98600029D01*
X151172833Y-98721153D01*
X151200476Y-98775405D01*
X151316172Y-98934646D01*
X151455354Y-99073828D01*
X151614595Y-99189524D01*
X151650619Y-99207879D01*
X151789970Y-99278882D01*
X151789972Y-99278882D01*
X151789975Y-99278884D01*
X151838033Y-99294499D01*
X151977173Y-99339709D01*
X152171578Y-99370500D01*
X152171583Y-99370500D01*
X152368422Y-99370500D01*
X152562826Y-99339709D01*
X152601315Y-99327203D01*
X152750025Y-99278884D01*
X152925405Y-99189524D01*
X153084646Y-99073828D01*
X153223828Y-98934646D01*
X153339524Y-98775405D01*
X153428884Y-98600025D01*
X153489709Y-98412826D01*
X153495191Y-98378213D01*
X153520500Y-98218422D01*
X153520500Y-98021577D01*
X153489709Y-97827173D01*
X153457240Y-97727246D01*
X153428884Y-97639975D01*
X153428882Y-97639972D01*
X153428882Y-97639970D01*
X153371663Y-97527671D01*
X153339524Y-97464595D01*
X153223828Y-97305354D01*
X153084646Y-97166172D01*
X153084644Y-97166170D01*
X153080933Y-97163000D01*
X153081974Y-97161781D01*
X153043599Y-97112027D01*
X153037612Y-97042414D01*
X153039270Y-97035845D01*
X153060640Y-96928412D01*
X153070500Y-96878842D01*
X153070500Y-96721158D01*
X153070500Y-96721155D01*
X153070499Y-96721153D01*
X153060626Y-96671518D01*
X153039737Y-96566503D01*
X153015402Y-96507753D01*
X152979397Y-96420827D01*
X152979390Y-96420814D01*
X152891789Y-96289711D01*
X152891786Y-96289707D01*
X152780292Y-96178213D01*
X152780284Y-96178207D01*
X152751741Y-96159135D01*
X152732955Y-96143719D01*
X152638716Y-96049480D01*
X152638713Y-96049478D01*
X152084069Y-95494834D01*
X152050584Y-95433511D01*
X152055568Y-95363819D01*
X152097440Y-95307886D01*
X152142091Y-95289714D01*
X152141404Y-95287150D01*
X152150400Y-95284739D01*
X152154318Y-95284738D01*
X152155628Y-95284206D01*
X152157382Y-95283976D01*
X152157482Y-95284738D01*
X152207580Y-95284737D01*
X152207680Y-95283983D01*
X152213407Y-95284737D01*
X152214591Y-95284737D01*
X152215734Y-95285043D01*
X152215736Y-95285043D01*
X152215738Y-95285044D01*
X152333139Y-95300500D01*
X152846860Y-95300499D01*
X152846863Y-95300499D01*
X152964253Y-95285046D01*
X152964257Y-95285044D01*
X152964262Y-95285044D01*
X153110341Y-95224536D01*
X153235782Y-95128282D01*
X153332036Y-95002841D01*
X153384493Y-94876197D01*
X153428334Y-94821795D01*
X153494628Y-94799730D01*
X153562327Y-94817009D01*
X153586735Y-94835970D01*
X155515139Y-96764374D01*
X155515149Y-96764385D01*
X155519479Y-96768715D01*
X155519480Y-96768716D01*
X155631284Y-96880520D01*
X155631286Y-96880521D01*
X155631287Y-96880522D01*
X155759110Y-96954320D01*
X155784791Y-96974026D01*
X156738181Y-97927416D01*
X156771666Y-97988739D01*
X156774500Y-98015097D01*
X156774500Y-98435833D01*
X156787701Y-98536099D01*
X156791725Y-98566662D01*
X156815210Y-98654306D01*
X156825800Y-98693829D01*
X156876302Y-98815750D01*
X156876303Y-98815751D01*
X156942120Y-98929749D01*
X156942132Y-98929767D01*
X157022455Y-99034444D01*
X157022459Y-99034449D01*
X157115551Y-99127541D01*
X157115555Y-99127544D01*
X157220232Y-99207867D01*
X157220236Y-99207869D01*
X157220243Y-99207875D01*
X157220250Y-99207879D01*
X157334248Y-99273696D01*
X157334249Y-99273697D01*
X157334252Y-99273698D01*
X157334257Y-99273701D01*
X157456171Y-99324200D01*
X157583338Y-99358275D01*
X157714174Y-99375500D01*
X157714181Y-99375500D01*
X158280000Y-99375500D01*
X158351940Y-99370355D01*
X158389259Y-99359396D01*
X158441841Y-99355636D01*
X158580000Y-99375500D01*
X158580003Y-99375500D01*
X159145819Y-99375500D01*
X159145826Y-99375500D01*
X159276662Y-99358275D01*
X159403829Y-99324200D01*
X159525743Y-99273701D01*
X159639757Y-99207875D01*
X159744449Y-99127541D01*
X159837541Y-99034449D01*
X159917875Y-98929757D01*
X159983701Y-98815743D01*
X160034200Y-98693829D01*
X160068275Y-98566662D01*
X160085500Y-98435826D01*
X160085500Y-97804174D01*
X160068275Y-97673338D01*
X160034200Y-97546171D01*
X159983701Y-97424257D01*
X159983698Y-97424252D01*
X159983697Y-97424249D01*
X159983696Y-97424248D01*
X159947113Y-97360884D01*
X159942962Y-97345395D01*
X159935523Y-97333819D01*
X159930500Y-97298884D01*
X159930500Y-97108451D01*
X159950185Y-97041412D01*
X159989402Y-97002913D01*
X160090850Y-96940340D01*
X160212840Y-96818350D01*
X160303408Y-96671516D01*
X160357674Y-96507753D01*
X160368000Y-96406677D01*
X160367999Y-95982595D01*
X160387683Y-95915557D01*
X160404313Y-95894920D01*
X160608506Y-95690728D01*
X160608511Y-95690724D01*
X160618714Y-95680520D01*
X160618716Y-95680520D01*
X160730520Y-95568716D01*
X160809577Y-95431784D01*
X160843475Y-95305276D01*
X160850500Y-95279058D01*
X160850500Y-95120943D01*
X160850500Y-82993462D01*
X160870185Y-82926423D01*
X160922989Y-82880668D01*
X160992147Y-82870724D01*
X161055703Y-82899749D01*
G37*
%TD.AperFunction*%
%TA.AperFunction,Conductor*%
G36*
X135880123Y-107490185D02*
G01*
X135925878Y-107542989D01*
X135927574Y-107547112D01*
X136012967Y-107719292D01*
X136012969Y-107719295D01*
X136132277Y-107867721D01*
X136132278Y-107867722D01*
X136201884Y-107923673D01*
X136241803Y-107981016D01*
X136244383Y-108050838D01*
X136208804Y-108110971D01*
X136201885Y-108116967D01*
X136132631Y-108172635D01*
X136013392Y-108320974D01*
X136013390Y-108320977D01*
X135928831Y-108491476D01*
X135882897Y-108676175D01*
X135880000Y-108718903D01*
X135880000Y-108920000D01*
X138880000Y-108920000D01*
X138880000Y-108718903D01*
X138877102Y-108676175D01*
X138831168Y-108491476D01*
X138746609Y-108320977D01*
X138746607Y-108320974D01*
X138627367Y-108172633D01*
X138627366Y-108172632D01*
X138558115Y-108116967D01*
X138518196Y-108059624D01*
X138515616Y-107989802D01*
X138551194Y-107929669D01*
X138558089Y-107923694D01*
X138627722Y-107867722D01*
X138747030Y-107719296D01*
X138755528Y-107702161D01*
X138834628Y-107542671D01*
X138836535Y-107543617D01*
X138872131Y-107495590D01*
X138937478Y-107470860D01*
X138946916Y-107470500D01*
X143529903Y-107470500D01*
X143596942Y-107490185D01*
X143617584Y-107506819D01*
X143818181Y-107707416D01*
X143851666Y-107768739D01*
X143854500Y-107795097D01*
X143854500Y-108219169D01*
X143854501Y-108219187D01*
X143864825Y-108320252D01*
X143867405Y-108328037D01*
X143904334Y-108439481D01*
X143919092Y-108484015D01*
X143919093Y-108484018D01*
X143947197Y-108529581D01*
X144009660Y-108630850D01*
X144131650Y-108752840D01*
X144278484Y-108843408D01*
X144442247Y-108897674D01*
X144442257Y-108897675D01*
X144448871Y-108899092D01*
X144448223Y-108902116D01*
X144500346Y-108923273D01*
X144540602Y-108980380D01*
X144543593Y-109050186D01*
X144520500Y-109097281D01*
X144517291Y-109101339D01*
X144425187Y-109250663D01*
X144425185Y-109250668D01*
X144408393Y-109301344D01*
X144370001Y-109417203D01*
X144370001Y-109417204D01*
X144370000Y-109417204D01*
X144359500Y-109519983D01*
X144359500Y-109519996D01*
X144359501Y-112595500D01*
X144339816Y-112662539D01*
X144287012Y-112708294D01*
X144235501Y-112719500D01*
X134791455Y-112719500D01*
X134724416Y-112699815D01*
X134703774Y-112683181D01*
X131641689Y-109621096D01*
X135880000Y-109621096D01*
X135882897Y-109663824D01*
X135928831Y-109848523D01*
X136013390Y-110019022D01*
X136013392Y-110019025D01*
X136132632Y-110167366D01*
X136132633Y-110167367D01*
X136280974Y-110286607D01*
X136280977Y-110286609D01*
X136451476Y-110371168D01*
X136636175Y-110417102D01*
X136678903Y-110420000D01*
X137130000Y-110420000D01*
X137630000Y-110420000D01*
X138081097Y-110420000D01*
X138123824Y-110417102D01*
X138308523Y-110371168D01*
X138479022Y-110286609D01*
X138479025Y-110286607D01*
X138627366Y-110167367D01*
X138627367Y-110167366D01*
X138746607Y-110019025D01*
X138746609Y-110019022D01*
X138831168Y-109848523D01*
X138877102Y-109663824D01*
X138880000Y-109621096D01*
X138880000Y-109420000D01*
X137630000Y-109420000D01*
X137630000Y-110420000D01*
X137130000Y-110420000D01*
X137130000Y-109420000D01*
X135880000Y-109420000D01*
X135880000Y-109621096D01*
X131641689Y-109621096D01*
X131502773Y-109482180D01*
X131495309Y-109468511D01*
X131483894Y-109457911D01*
X131478904Y-109438468D01*
X131469288Y-109420857D01*
X131470398Y-109405322D01*
X131466527Y-109390234D01*
X131472840Y-109371182D01*
X131474272Y-109351165D01*
X131483606Y-109338696D01*
X131488506Y-109323911D01*
X131504117Y-109311297D01*
X131516144Y-109295232D01*
X131531486Y-109289184D01*
X131542853Y-109280000D01*
X131567020Y-109275176D01*
X131577039Y-109271227D01*
X131583729Y-109270499D01*
X131638036Y-109270499D01*
X131757418Y-109259886D01*
X131953049Y-109203909D01*
X132133407Y-109109698D01*
X132291109Y-108981109D01*
X132419698Y-108823407D01*
X132513909Y-108643049D01*
X132569886Y-108447418D01*
X132580500Y-108328037D01*
X132580500Y-107594500D01*
X132600185Y-107527461D01*
X132652989Y-107481706D01*
X132704500Y-107470500D01*
X135813084Y-107470500D01*
X135880123Y-107490185D01*
G37*
%TD.AperFunction*%
%TA.AperFunction,Conductor*%
G36*
X147169734Y-107024417D02*
G01*
X147183611Y-107023524D01*
X147202597Y-107034067D01*
X147223432Y-107040185D01*
X147232536Y-107050692D01*
X147244695Y-107057444D01*
X147254967Y-107076579D01*
X147269187Y-107092989D01*
X147271842Y-107108012D01*
X147272146Y-107108577D01*
X147282705Y-107120000D01*
X147548185Y-107120000D01*
X147611306Y-107137268D01*
X147669602Y-107171744D01*
X147705943Y-107182302D01*
X147827426Y-107217597D01*
X147827429Y-107217597D01*
X147827431Y-107217598D01*
X147864306Y-107220500D01*
X148318500Y-107220500D01*
X148327185Y-107223050D01*
X148336147Y-107221762D01*
X148360187Y-107232740D01*
X148385539Y-107240185D01*
X148391466Y-107247025D01*
X148399703Y-107250787D01*
X148413992Y-107273021D01*
X148431294Y-107292989D01*
X148433581Y-107303503D01*
X148437477Y-107309565D01*
X148442500Y-107344500D01*
X148442500Y-107395500D01*
X148422815Y-107462539D01*
X148370011Y-107508294D01*
X148318500Y-107519500D01*
X147864298Y-107519500D01*
X147827432Y-107522401D01*
X147827426Y-107522402D01*
X147669606Y-107568254D01*
X147669603Y-107568255D01*
X147611306Y-107602732D01*
X147548185Y-107620000D01*
X147282705Y-107620000D01*
X147282704Y-107620001D01*
X147282899Y-107622488D01*
X147282900Y-107622494D01*
X147328716Y-107780193D01*
X147328720Y-107780203D01*
X147329427Y-107781398D01*
X147329695Y-107782454D01*
X147331816Y-107787356D01*
X147331024Y-107787698D01*
X147346603Y-107849123D01*
X147330993Y-107902284D01*
X147331355Y-107902441D01*
X147330087Y-107905369D01*
X147329427Y-107907620D01*
X147328259Y-107909594D01*
X147328254Y-107909607D01*
X147282402Y-108067426D01*
X147282401Y-108067432D01*
X147279500Y-108104298D01*
X147279500Y-108535701D01*
X147282401Y-108572567D01*
X147282402Y-108572573D01*
X147328254Y-108730393D01*
X147328255Y-108730396D01*
X147411917Y-108871862D01*
X147411923Y-108871870D01*
X147528129Y-108988076D01*
X147528133Y-108988079D01*
X147528135Y-108988081D01*
X147669602Y-109071744D01*
X147711224Y-109083836D01*
X147827426Y-109117597D01*
X147827429Y-109117597D01*
X147827431Y-109117598D01*
X147864306Y-109120500D01*
X148342403Y-109120500D01*
X148371843Y-109129144D01*
X148401830Y-109135668D01*
X148406845Y-109139422D01*
X148409442Y-109140185D01*
X148430084Y-109156819D01*
X148557639Y-109284374D01*
X148557649Y-109284385D01*
X148561979Y-109288715D01*
X148561980Y-109288716D01*
X148673784Y-109400520D01*
X148725302Y-109430263D01*
X148760595Y-109450639D01*
X148760597Y-109450641D01*
X148791549Y-109468511D01*
X148810715Y-109479577D01*
X148963443Y-109520500D01*
X150509903Y-109520500D01*
X150576942Y-109540185D01*
X150597584Y-109556819D01*
X151823181Y-110782416D01*
X151856666Y-110843739D01*
X151859500Y-110870097D01*
X151859500Y-111767648D01*
X151859501Y-112595500D01*
X151839816Y-112662539D01*
X151787013Y-112708294D01*
X151735501Y-112719500D01*
X147084500Y-112719500D01*
X147017461Y-112699815D01*
X146971706Y-112647011D01*
X146960500Y-112595500D01*
X146960499Y-109519998D01*
X146960498Y-109519981D01*
X146949999Y-109417203D01*
X146949998Y-109417200D01*
X146914905Y-109311297D01*
X146894814Y-109250666D01*
X146802712Y-109101344D01*
X146678656Y-108977288D01*
X146556782Y-108902116D01*
X146529336Y-108885187D01*
X146529331Y-108885185D01*
X146489137Y-108871866D01*
X146362797Y-108830001D01*
X146362795Y-108830000D01*
X146260016Y-108819500D01*
X146260009Y-108819500D01*
X145756154Y-108819500D01*
X145689115Y-108799815D01*
X145643360Y-108747011D01*
X145633416Y-108677853D01*
X145650613Y-108630405D01*
X145740908Y-108484016D01*
X145795174Y-108320253D01*
X145805500Y-108219177D01*
X145805499Y-107795096D01*
X145825183Y-107728058D01*
X145841813Y-107707421D01*
X146492417Y-107056819D01*
X146553740Y-107023334D01*
X146580098Y-107020500D01*
X147156393Y-107020500D01*
X147169734Y-107024417D01*
G37*
%TD.AperFunction*%
%TA.AperFunction,Conductor*%
G36*
X180161445Y-104793865D02*
G01*
X180200483Y-104838917D01*
X180206139Y-104850016D01*
X180247715Y-104931614D01*
X180368028Y-105097213D01*
X180512786Y-105241971D01*
X180626300Y-105324442D01*
X180678390Y-105362287D01*
X180790274Y-105419295D01*
X180860776Y-105455218D01*
X180860778Y-105455218D01*
X180860781Y-105455220D01*
X180932254Y-105478443D01*
X181055465Y-105518477D01*
X181135719Y-105531188D01*
X181257648Y-105550500D01*
X181257649Y-105550500D01*
X181462351Y-105550500D01*
X181462352Y-105550500D01*
X181664534Y-105518477D01*
X181859219Y-105455220D01*
X182041610Y-105362287D01*
X182134590Y-105294732D01*
X182207213Y-105241971D01*
X182207215Y-105241968D01*
X182207219Y-105241966D01*
X182259476Y-105189709D01*
X182267411Y-105185375D01*
X182272832Y-105178133D01*
X182297603Y-105168889D01*
X182320799Y-105156224D01*
X182329818Y-105156869D01*
X182338293Y-105153707D01*
X182364124Y-105159322D01*
X182390491Y-105161208D01*
X182399536Y-105167020D01*
X182406568Y-105168549D01*
X182419247Y-105178039D01*
X182419454Y-105177730D01*
X182419457Y-105177732D01*
X182425967Y-105183069D01*
X182434788Y-105189671D01*
X182434825Y-105189695D01*
X182438344Y-105193214D01*
X182438345Y-105193216D01*
X182438349Y-105193220D01*
X182438354Y-105193224D01*
X183075649Y-105830520D01*
X183075651Y-105830521D01*
X183075655Y-105830524D01*
X183212574Y-105909573D01*
X183212581Y-105909577D01*
X183365308Y-105950501D01*
X183365310Y-105950501D01*
X183531019Y-105950501D01*
X183531035Y-105950500D01*
X184699903Y-105950500D01*
X184766942Y-105970185D01*
X184787584Y-105986819D01*
X189158584Y-110357819D01*
X189192069Y-110419142D01*
X189187085Y-110488834D01*
X189145213Y-110544767D01*
X189079749Y-110569184D01*
X189070903Y-110569500D01*
X188877648Y-110569500D01*
X188853329Y-110573351D01*
X188675465Y-110601522D01*
X188480776Y-110664781D01*
X188298386Y-110757715D01*
X188132786Y-110878028D01*
X187988028Y-111022786D01*
X187867715Y-111188386D01*
X187820485Y-111281080D01*
X187772510Y-111331876D01*
X187704689Y-111348671D01*
X187638554Y-111326134D01*
X187599515Y-111281080D01*
X187585015Y-111252622D01*
X187552287Y-111188390D01*
X187520092Y-111144077D01*
X187431971Y-111022786D01*
X187287213Y-110878028D01*
X187121613Y-110757715D01*
X187121612Y-110757714D01*
X187121610Y-110757713D01*
X187064653Y-110728691D01*
X186939223Y-110664781D01*
X186744534Y-110601522D01*
X186569995Y-110573878D01*
X186542352Y-110569500D01*
X186337648Y-110569500D01*
X186313329Y-110573351D01*
X186135465Y-110601522D01*
X185940776Y-110664781D01*
X185758386Y-110757715D01*
X185592786Y-110878028D01*
X185448028Y-111022786D01*
X185327715Y-111188386D01*
X185280485Y-111281080D01*
X185232510Y-111331876D01*
X185164689Y-111348671D01*
X185098554Y-111326134D01*
X185059515Y-111281080D01*
X185045015Y-111252622D01*
X185012287Y-111188390D01*
X184980092Y-111144077D01*
X184891971Y-111022786D01*
X184747213Y-110878028D01*
X184581613Y-110757715D01*
X184581612Y-110757714D01*
X184581610Y-110757713D01*
X184524653Y-110728691D01*
X184399223Y-110664781D01*
X184204534Y-110601522D01*
X184029995Y-110573878D01*
X184002352Y-110569500D01*
X183797648Y-110569500D01*
X183773329Y-110573351D01*
X183595465Y-110601522D01*
X183400776Y-110664781D01*
X183218386Y-110757715D01*
X183052786Y-110878028D01*
X182908028Y-111022786D01*
X182787715Y-111188386D01*
X182740485Y-111281080D01*
X182692510Y-111331876D01*
X182624689Y-111348671D01*
X182558554Y-111326134D01*
X182519515Y-111281080D01*
X182505015Y-111252622D01*
X182472287Y-111188390D01*
X182440092Y-111144077D01*
X182351971Y-111022786D01*
X182207213Y-110878028D01*
X182041613Y-110757715D01*
X182041612Y-110757714D01*
X182041610Y-110757713D01*
X181984653Y-110728691D01*
X181859223Y-110664781D01*
X181664534Y-110601522D01*
X181489995Y-110573878D01*
X181462352Y-110569500D01*
X181257648Y-110569500D01*
X181233329Y-110573351D01*
X181055465Y-110601522D01*
X180860776Y-110664781D01*
X180678386Y-110757715D01*
X180512786Y-110878028D01*
X180368028Y-111022786D01*
X180247715Y-111188386D01*
X180200485Y-111281080D01*
X180152510Y-111331876D01*
X180084689Y-111348671D01*
X180018554Y-111326134D01*
X179979515Y-111281080D01*
X179965015Y-111252622D01*
X179932287Y-111188390D01*
X179900092Y-111144077D01*
X179811971Y-111022786D01*
X179667213Y-110878028D01*
X179501613Y-110757715D01*
X179501612Y-110757714D01*
X179501610Y-110757713D01*
X179444653Y-110728691D01*
X179319223Y-110664781D01*
X179124534Y-110601522D01*
X178949995Y-110573878D01*
X178922352Y-110569500D01*
X178717648Y-110569500D01*
X178693329Y-110573351D01*
X178515465Y-110601522D01*
X178320776Y-110664781D01*
X178138386Y-110757715D01*
X177972786Y-110878028D01*
X177828028Y-111022786D01*
X177707713Y-111188388D01*
X177660203Y-111281630D01*
X177612228Y-111332426D01*
X177544407Y-111349220D01*
X177478272Y-111326682D01*
X177439234Y-111281628D01*
X177391861Y-111188652D01*
X177359474Y-111144077D01*
X177359474Y-111144076D01*
X176680000Y-111823551D01*
X176680000Y-111817339D01*
X176652741Y-111715606D01*
X176600080Y-111624394D01*
X176525606Y-111549920D01*
X176434394Y-111497259D01*
X176332661Y-111470000D01*
X176326446Y-111470000D01*
X177005922Y-110790524D01*
X177005921Y-110790523D01*
X176961359Y-110758147D01*
X176961350Y-110758141D01*
X176779031Y-110665244D01*
X176584417Y-110602009D01*
X176382317Y-110570000D01*
X176177683Y-110570000D01*
X175975581Y-110602010D01*
X175975574Y-110602011D01*
X175942817Y-110612655D01*
X175872976Y-110614650D01*
X175813143Y-110578569D01*
X175782316Y-110515868D01*
X175780500Y-110494724D01*
X175780500Y-105650097D01*
X175789144Y-105620656D01*
X175795668Y-105590670D01*
X175799422Y-105585654D01*
X175800185Y-105583058D01*
X175816819Y-105562416D01*
X175835158Y-105544077D01*
X175896481Y-105510592D01*
X175961157Y-105513827D01*
X175975466Y-105518477D01*
X176177648Y-105550500D01*
X176177649Y-105550500D01*
X176382351Y-105550500D01*
X176382352Y-105550500D01*
X176584534Y-105518477D01*
X176779219Y-105455220D01*
X176961610Y-105362287D01*
X177054590Y-105294732D01*
X177127213Y-105241971D01*
X177127215Y-105241968D01*
X177127219Y-105241966D01*
X177271966Y-105097219D01*
X177271968Y-105097215D01*
X177271971Y-105097213D01*
X177392284Y-104931614D01*
X177392285Y-104931613D01*
X177392287Y-104931610D01*
X177439516Y-104838917D01*
X177487489Y-104788123D01*
X177555310Y-104771328D01*
X177621445Y-104793865D01*
X177660483Y-104838917D01*
X177666139Y-104850016D01*
X177707715Y-104931614D01*
X177828028Y-105097213D01*
X177972786Y-105241971D01*
X178086300Y-105324442D01*
X178138390Y-105362287D01*
X178250274Y-105419295D01*
X178320776Y-105455218D01*
X178320778Y-105455218D01*
X178320781Y-105455220D01*
X178392254Y-105478443D01*
X178515465Y-105518477D01*
X178595719Y-105531188D01*
X178717648Y-105550500D01*
X178717649Y-105550500D01*
X178922351Y-105550500D01*
X178922352Y-105550500D01*
X179124534Y-105518477D01*
X179319219Y-105455220D01*
X179501610Y-105362287D01*
X179594590Y-105294732D01*
X179667213Y-105241971D01*
X179667215Y-105241968D01*
X179667219Y-105241966D01*
X179811966Y-105097219D01*
X179811968Y-105097215D01*
X179811971Y-105097213D01*
X179932284Y-104931614D01*
X179932285Y-104931613D01*
X179932287Y-104931610D01*
X179979516Y-104838917D01*
X180027489Y-104788123D01*
X180095310Y-104771328D01*
X180161445Y-104793865D01*
G37*
%TD.AperFunction*%
%TA.AperFunction,Conductor*%
G36*
X175405703Y-97249749D02*
G01*
X175412181Y-97255781D01*
X177129677Y-98973277D01*
X177163162Y-99034600D01*
X177158178Y-99104292D01*
X177116306Y-99160225D01*
X177110890Y-99164058D01*
X177089712Y-99178209D01*
X177089707Y-99178213D01*
X176978213Y-99289707D01*
X176978210Y-99289711D01*
X176890609Y-99420814D01*
X176890602Y-99420827D01*
X176830264Y-99566498D01*
X176830261Y-99566508D01*
X176799361Y-99721850D01*
X176766976Y-99783761D01*
X176765425Y-99785339D01*
X175799481Y-100751282D01*
X175799479Y-100751284D01*
X175784483Y-100777258D01*
X175778145Y-100788238D01*
X175743217Y-100848735D01*
X175723174Y-100883451D01*
X175720423Y-100888215D01*
X175679499Y-101040943D01*
X175679499Y-101040945D01*
X175679499Y-101209046D01*
X175679500Y-101209059D01*
X175679500Y-103020397D01*
X175659815Y-103087436D01*
X175611800Y-103130879D01*
X175598389Y-103137712D01*
X175432786Y-103258028D01*
X175288028Y-103402786D01*
X175167713Y-103568388D01*
X175120203Y-103661630D01*
X175072228Y-103712426D01*
X175004407Y-103729220D01*
X174938272Y-103706682D01*
X174899234Y-103661628D01*
X174851861Y-103568652D01*
X174819474Y-103524077D01*
X174819474Y-103524076D01*
X174140000Y-104203551D01*
X174140000Y-104197339D01*
X174112741Y-104095606D01*
X174060080Y-104004394D01*
X173985606Y-103929920D01*
X173894394Y-103877259D01*
X173792661Y-103850000D01*
X173786446Y-103850000D01*
X174465922Y-103170524D01*
X174465921Y-103170523D01*
X174421359Y-103138147D01*
X174421350Y-103138141D01*
X174263519Y-103057722D01*
X174212723Y-103009747D01*
X174195848Y-102944326D01*
X174196196Y-102929486D01*
X174200501Y-102913422D01*
X174200501Y-102755308D01*
X174200500Y-102755304D01*
X174200500Y-99086555D01*
X174220185Y-99019516D01*
X174272989Y-98973761D01*
X174342147Y-98963817D01*
X174360411Y-98968840D01*
X174360676Y-98967969D01*
X174366492Y-98969732D01*
X174366503Y-98969737D01*
X174487199Y-98993745D01*
X174521153Y-99000499D01*
X174521156Y-99000500D01*
X174521158Y-99000500D01*
X174678844Y-99000500D01*
X174678845Y-99000499D01*
X174833497Y-98969737D01*
X174979179Y-98909394D01*
X175110289Y-98821789D01*
X175221789Y-98710289D01*
X175309394Y-98579179D01*
X175312195Y-98572418D01*
X175336354Y-98514091D01*
X175369737Y-98433497D01*
X175400500Y-98278842D01*
X175400500Y-98121158D01*
X175400500Y-98121155D01*
X175400499Y-98121153D01*
X175390792Y-98072353D01*
X175369737Y-97966503D01*
X175369405Y-97965702D01*
X175309397Y-97820827D01*
X175309390Y-97820814D01*
X175221398Y-97689125D01*
X175200520Y-97622447D01*
X175200500Y-97620234D01*
X175200500Y-97343462D01*
X175220185Y-97276423D01*
X175272989Y-97230668D01*
X175342147Y-97220724D01*
X175405703Y-97249749D01*
G37*
%TD.AperFunction*%
%TA.AperFunction,Conductor*%
G36*
X159406891Y-81820185D02*
G01*
X159427533Y-81836819D01*
X159613181Y-82022467D01*
X159646666Y-82083790D01*
X159649500Y-82110148D01*
X159649500Y-94076000D01*
X159629815Y-94143039D01*
X159577011Y-94188794D01*
X159525500Y-94200000D01*
X159274000Y-94200000D01*
X159206961Y-94180315D01*
X159161206Y-94127511D01*
X159150000Y-94076000D01*
X159150000Y-93224999D01*
X159050860Y-93225000D01*
X159050844Y-93225001D01*
X158949847Y-93235319D01*
X158786199Y-93289546D01*
X158786188Y-93289551D01*
X158639465Y-93380052D01*
X158625532Y-93393985D01*
X158564208Y-93427468D01*
X158494516Y-93422482D01*
X158450172Y-93393982D01*
X158435851Y-93379661D01*
X158435850Y-93379660D01*
X158323526Y-93310378D01*
X158289018Y-93289093D01*
X158289013Y-93289091D01*
X158267315Y-93281901D01*
X158125253Y-93234826D01*
X158125251Y-93234825D01*
X158024184Y-93224500D01*
X158024177Y-93224500D01*
X157855257Y-93224500D01*
X157788218Y-93204815D01*
X157742463Y-93152011D01*
X157732519Y-93082853D01*
X157749718Y-93035404D01*
X157790879Y-92968670D01*
X157839814Y-92889334D01*
X157894999Y-92722797D01*
X157905500Y-92620009D01*
X157905499Y-91619992D01*
X157903151Y-91597011D01*
X157894999Y-91517203D01*
X157894998Y-91517200D01*
X157881180Y-91475500D01*
X157839814Y-91350666D01*
X157747712Y-91201344D01*
X157623656Y-91077288D01*
X157474334Y-90985186D01*
X157474330Y-90985184D01*
X157468325Y-90982385D01*
X157415884Y-90936215D01*
X157396728Y-90869023D01*
X157416940Y-90802141D01*
X157468325Y-90757615D01*
X157474322Y-90754817D01*
X157474334Y-90754814D01*
X157623656Y-90662712D01*
X157747712Y-90538656D01*
X157839814Y-90389334D01*
X157894999Y-90222797D01*
X157905500Y-90120009D01*
X157905499Y-89119992D01*
X157901730Y-89083100D01*
X157894999Y-89017203D01*
X157894998Y-89017200D01*
X157877489Y-88964361D01*
X157839814Y-88850666D01*
X157747712Y-88701344D01*
X157623656Y-88577288D01*
X157623652Y-88577285D01*
X157538945Y-88525037D01*
X157492220Y-88473090D01*
X157480999Y-88404127D01*
X157508842Y-88340045D01*
X157566911Y-88301189D01*
X157604037Y-88295499D01*
X158694360Y-88295499D01*
X158694363Y-88295499D01*
X158811753Y-88280046D01*
X158811757Y-88280044D01*
X158811762Y-88280044D01*
X158957841Y-88219536D01*
X159083282Y-88123282D01*
X159179536Y-87997841D01*
X159240044Y-87851762D01*
X159255500Y-87734361D01*
X159255499Y-87455640D01*
X159240044Y-87338238D01*
X159240042Y-87338234D01*
X159231435Y-87317455D01*
X159223965Y-87247986D01*
X159231435Y-87222545D01*
X159240044Y-87201762D01*
X159255500Y-87084361D01*
X159255499Y-86805640D01*
X159240044Y-86688238D01*
X159240042Y-86688234D01*
X159231435Y-86667455D01*
X159223965Y-86597986D01*
X159231435Y-86572545D01*
X159235637Y-86562400D01*
X159240044Y-86551762D01*
X159255500Y-86434361D01*
X159255499Y-86155640D01*
X159254777Y-86150158D01*
X159249192Y-86107733D01*
X159240044Y-86038238D01*
X159240042Y-86038234D01*
X159231435Y-86017455D01*
X159223965Y-85947986D01*
X159231435Y-85922545D01*
X159240044Y-85901762D01*
X159255500Y-85784361D01*
X159255499Y-85505640D01*
X159255499Y-85505638D01*
X159255499Y-85505636D01*
X159240046Y-85388246D01*
X159240044Y-85388239D01*
X159240044Y-85388238D01*
X159179536Y-85242159D01*
X159083282Y-85116718D01*
X158957841Y-85020464D01*
X158811762Y-84959956D01*
X158811760Y-84959955D01*
X158694370Y-84944501D01*
X158694367Y-84944500D01*
X158694361Y-84944500D01*
X158694354Y-84944500D01*
X158447435Y-84944500D01*
X158380396Y-84924815D01*
X158378590Y-84923633D01*
X158321679Y-84885606D01*
X158321672Y-84885602D01*
X158176001Y-84825264D01*
X158175989Y-84825261D01*
X158015765Y-84793390D01*
X157953854Y-84761005D01*
X157919279Y-84700289D01*
X157923019Y-84630520D01*
X157952274Y-84584093D01*
X157997712Y-84538656D01*
X158089814Y-84389334D01*
X158144999Y-84222797D01*
X158155500Y-84120009D01*
X158155499Y-83119992D01*
X158144999Y-83017203D01*
X158089814Y-82850666D01*
X157997712Y-82701344D01*
X157873656Y-82577288D01*
X157777954Y-82518259D01*
X157724336Y-82485187D01*
X157724331Y-82485185D01*
X157722862Y-82484698D01*
X157557797Y-82430001D01*
X157557795Y-82430000D01*
X157455010Y-82419500D01*
X156704998Y-82419500D01*
X156704980Y-82419501D01*
X156602203Y-82430000D01*
X156602200Y-82430001D01*
X156435668Y-82485185D01*
X156435663Y-82485187D01*
X156286342Y-82577289D01*
X156162288Y-82701343D01*
X156162283Y-82701349D01*
X156160241Y-82704661D01*
X156158247Y-82706453D01*
X156157807Y-82707011D01*
X156157711Y-82706935D01*
X156108291Y-82751383D01*
X156039328Y-82762602D01*
X155975247Y-82734755D01*
X155949168Y-82704656D01*
X155947319Y-82701659D01*
X155947316Y-82701655D01*
X155823345Y-82577684D01*
X155674124Y-82485643D01*
X155674119Y-82485641D01*
X155507697Y-82430494D01*
X155507690Y-82430493D01*
X155404986Y-82420000D01*
X155280000Y-82420000D01*
X155280000Y-84819999D01*
X155404972Y-84819999D01*
X155404986Y-84819998D01*
X155507697Y-84809505D01*
X155674119Y-84754358D01*
X155674124Y-84754356D01*
X155823345Y-84662315D01*
X155947318Y-84538342D01*
X155949165Y-84535348D01*
X155950969Y-84533724D01*
X155951798Y-84532677D01*
X155951976Y-84532818D01*
X156001110Y-84488621D01*
X156070073Y-84477396D01*
X156134156Y-84505236D01*
X156160243Y-84535341D01*
X156162288Y-84538656D01*
X156286344Y-84662712D01*
X156435666Y-84754814D01*
X156602203Y-84809999D01*
X156704991Y-84820500D01*
X156822466Y-84820499D01*
X156889504Y-84840183D01*
X156935259Y-84892987D01*
X156945203Y-84962145D01*
X156916179Y-85025701D01*
X156897952Y-85042874D01*
X156801720Y-85116716D01*
X156705463Y-85242160D01*
X156644956Y-85388237D01*
X156644955Y-85388239D01*
X156629500Y-85505638D01*
X156629500Y-85784363D01*
X156644953Y-85901753D01*
X156644957Y-85901765D01*
X156653566Y-85922550D01*
X156661033Y-85992019D01*
X156653566Y-86017450D01*
X156644957Y-86038234D01*
X156644955Y-86038239D01*
X156629500Y-86155638D01*
X156629500Y-86434363D01*
X156644953Y-86551753D01*
X156644957Y-86551765D01*
X156653566Y-86572550D01*
X156661033Y-86642019D01*
X156653566Y-86667450D01*
X156644957Y-86688234D01*
X156644955Y-86688239D01*
X156629500Y-86805638D01*
X156629500Y-87084363D01*
X156644953Y-87201753D01*
X156644957Y-87201765D01*
X156653566Y-87222550D01*
X156661033Y-87292019D01*
X156653566Y-87317450D01*
X156644957Y-87338234D01*
X156644955Y-87338239D01*
X156629500Y-87455638D01*
X156629500Y-87734363D01*
X156644953Y-87851753D01*
X156644956Y-87851762D01*
X156702291Y-87990182D01*
X156705464Y-87997841D01*
X156801718Y-88123282D01*
X156857873Y-88166371D01*
X156897951Y-88197124D01*
X156939154Y-88253552D01*
X156943309Y-88323298D01*
X156909097Y-88384218D01*
X156847379Y-88416971D01*
X156822465Y-88419500D01*
X156454998Y-88419500D01*
X156454980Y-88419501D01*
X156352203Y-88430000D01*
X156352200Y-88430001D01*
X156185668Y-88485185D01*
X156185663Y-88485187D01*
X156036342Y-88577289D01*
X155912285Y-88701346D01*
X155910537Y-88704182D01*
X155908829Y-88705717D01*
X155907807Y-88707011D01*
X155907585Y-88706836D01*
X155858589Y-88750905D01*
X155789626Y-88762126D01*
X155725544Y-88734282D01*
X155699463Y-88704182D01*
X155697714Y-88701346D01*
X155573657Y-88577289D01*
X155573656Y-88577288D01*
X155455414Y-88504356D01*
X155424336Y-88485187D01*
X155424331Y-88485185D01*
X155422862Y-88484698D01*
X155257797Y-88430001D01*
X155257795Y-88430000D01*
X155155016Y-88419500D01*
X154836712Y-88419500D01*
X154769673Y-88399815D01*
X154723918Y-88347011D01*
X154713974Y-88277853D01*
X154742999Y-88214297D01*
X154761226Y-88197124D01*
X154857923Y-88122926D01*
X154954100Y-87997586D01*
X155014555Y-87851631D01*
X155022012Y-87795000D01*
X154804303Y-87795000D01*
X154778983Y-87787565D01*
X154752862Y-87783826D01*
X154745987Y-87777876D01*
X154737264Y-87775315D01*
X154719985Y-87755374D01*
X154700029Y-87738104D01*
X154697461Y-87729380D01*
X154691509Y-87722511D01*
X154687753Y-87696393D01*
X154680303Y-87671077D01*
X154682858Y-87662352D01*
X154681565Y-87653353D01*
X154692527Y-87629348D01*
X154699946Y-87604025D01*
X154708184Y-87595064D01*
X154710590Y-87589797D01*
X154723042Y-87577338D01*
X154731298Y-87570175D01*
X154732841Y-87569536D01*
X154858282Y-87473282D01*
X154888760Y-87433561D01*
X154898239Y-87425338D01*
X154919059Y-87415813D01*
X154937553Y-87402310D01*
X154955365Y-87399205D01*
X154961777Y-87396273D01*
X154967496Y-87397091D01*
X154979500Y-87395000D01*
X155022010Y-87395000D01*
X155022011Y-87394998D01*
X155014558Y-87338377D01*
X155014554Y-87338365D01*
X155006163Y-87318106D01*
X154998694Y-87248637D01*
X155006164Y-87223199D01*
X155006435Y-87222545D01*
X155015044Y-87201762D01*
X155030500Y-87084361D01*
X155030499Y-86805640D01*
X155015044Y-86688238D01*
X155015042Y-86688234D01*
X155006435Y-86667455D01*
X154998965Y-86597986D01*
X155006435Y-86572545D01*
X155010637Y-86562400D01*
X155015044Y-86551762D01*
X155030500Y-86434361D01*
X155030499Y-86155640D01*
X155029777Y-86150158D01*
X155024192Y-86107733D01*
X155015044Y-86038238D01*
X155015042Y-86038234D01*
X155006435Y-86017455D01*
X154998965Y-85947986D01*
X155006435Y-85922545D01*
X155015044Y-85901762D01*
X155030500Y-85784361D01*
X155030499Y-85505640D01*
X155030499Y-85505638D01*
X155030499Y-85505636D01*
X155015046Y-85388246D01*
X155015044Y-85388239D01*
X155015044Y-85388238D01*
X154954536Y-85242159D01*
X154858282Y-85116718D01*
X154758271Y-85039977D01*
X154717070Y-84983550D01*
X154712915Y-84913803D01*
X154746078Y-84853921D01*
X154780000Y-84819999D01*
X154780000Y-83870000D01*
X153955001Y-83870000D01*
X153955001Y-84119986D01*
X153965494Y-84222697D01*
X154020641Y-84389119D01*
X154020643Y-84389124D01*
X154112684Y-84538345D01*
X154236654Y-84662315D01*
X154322006Y-84714961D01*
X154368730Y-84766909D01*
X154379953Y-84835872D01*
X154352109Y-84899954D01*
X154294040Y-84938810D01*
X154256909Y-84944500D01*
X153318625Y-84944500D01*
X153297486Y-84938292D01*
X153275507Y-84936762D01*
X153264616Y-84928641D01*
X153251586Y-84924815D01*
X153237160Y-84908167D01*
X153219496Y-84894995D01*
X153211477Y-84878527D01*
X153205831Y-84872011D01*
X153202524Y-84864049D01*
X153200408Y-84858409D01*
X153164577Y-84724686D01*
X153128796Y-84662712D01*
X153085520Y-84587755D01*
X152973716Y-84475951D01*
X152973715Y-84475950D01*
X152969385Y-84471620D01*
X152969374Y-84471610D01*
X151836819Y-83339055D01*
X151822115Y-83312127D01*
X151805523Y-83286309D01*
X151804631Y-83280108D01*
X151803334Y-83277732D01*
X151800500Y-83251374D01*
X151800500Y-83120013D01*
X153955000Y-83120013D01*
X153955000Y-83370000D01*
X154780000Y-83370000D01*
X154780000Y-82420000D01*
X154655027Y-82420000D01*
X154655012Y-82420001D01*
X154552302Y-82430494D01*
X154385880Y-82485641D01*
X154385875Y-82485643D01*
X154236654Y-82577684D01*
X154112684Y-82701654D01*
X154020643Y-82850875D01*
X154020641Y-82850880D01*
X153965494Y-83017302D01*
X153965493Y-83017309D01*
X153955000Y-83120013D01*
X151800500Y-83120013D01*
X151800500Y-81924500D01*
X151820185Y-81857461D01*
X151872989Y-81811706D01*
X151924500Y-81800500D01*
X159339852Y-81800500D01*
X159406891Y-81820185D01*
G37*
%TD.AperFunction*%
%TA.AperFunction,Conductor*%
G36*
X153860539Y-87665184D02*
G01*
X153906294Y-87717988D01*
X153917500Y-87769499D01*
X153917500Y-88294999D01*
X154006770Y-88294999D01*
X154073809Y-88314684D01*
X154119564Y-88367488D01*
X154129508Y-88436646D01*
X154100483Y-88500202D01*
X154071866Y-88524538D01*
X153986344Y-88577287D01*
X153862289Y-88701342D01*
X153770187Y-88850663D01*
X153770185Y-88850668D01*
X153755000Y-88896494D01*
X153715001Y-89017203D01*
X153715001Y-89017204D01*
X153715000Y-89017204D01*
X153704500Y-89119983D01*
X153704500Y-90120001D01*
X153704501Y-90120019D01*
X153715000Y-90222796D01*
X153715001Y-90222799D01*
X153770185Y-90389331D01*
X153770187Y-90389336D01*
X153781256Y-90407281D01*
X153862288Y-90538656D01*
X153986344Y-90662712D01*
X154135666Y-90754814D01*
X154135667Y-90754814D01*
X154135670Y-90754816D01*
X154141677Y-90757617D01*
X154194117Y-90803788D01*
X154213271Y-90870981D01*
X154193057Y-90937862D01*
X154141677Y-90982383D01*
X154135670Y-90985183D01*
X153986342Y-91077289D01*
X153862289Y-91201342D01*
X153770187Y-91350663D01*
X153770185Y-91350668D01*
X153755221Y-91395826D01*
X153715001Y-91517203D01*
X153715001Y-91517204D01*
X153715000Y-91517204D01*
X153704500Y-91619983D01*
X153704500Y-92620001D01*
X153704501Y-92620019D01*
X153715000Y-92722796D01*
X153715001Y-92722799D01*
X153770185Y-92889331D01*
X153770189Y-92889340D01*
X153811423Y-92956191D01*
X153829863Y-93023583D01*
X153808940Y-93090247D01*
X153755298Y-93135016D01*
X153685967Y-93143677D01*
X153622960Y-93113480D01*
X153618203Y-93108968D01*
X153241819Y-92732584D01*
X153208334Y-92671261D01*
X153205500Y-92644903D01*
X153205500Y-88418999D01*
X153225185Y-88351960D01*
X153277989Y-88306205D01*
X153329500Y-88294999D01*
X153517500Y-88294999D01*
X153517500Y-87769499D01*
X153520050Y-87760813D01*
X153518762Y-87751852D01*
X153529740Y-87727811D01*
X153537185Y-87702460D01*
X153544025Y-87696532D01*
X153547787Y-87688296D01*
X153570021Y-87674006D01*
X153589989Y-87656705D01*
X153600503Y-87654417D01*
X153606565Y-87650522D01*
X153641500Y-87645499D01*
X153793500Y-87645499D01*
X153860539Y-87665184D01*
G37*
%TD.AperFunction*%
%TA.AperFunction,Conductor*%
G36*
X148675014Y-88917001D02*
G01*
X148675174Y-88916405D01*
X148683024Y-88918508D01*
X148683026Y-88918508D01*
X148683028Y-88918509D01*
X148793099Y-88933000D01*
X148991900Y-88932999D01*
X149004539Y-88931335D01*
X149073573Y-88942100D01*
X149125829Y-88988480D01*
X149144715Y-89055749D01*
X149143664Y-89070452D01*
X149142000Y-89083096D01*
X149142000Y-89281903D01*
X149156489Y-89391968D01*
X149158594Y-89399822D01*
X149155314Y-89400700D01*
X149161081Y-89454573D01*
X149158017Y-89465022D01*
X149158595Y-89465177D01*
X149156490Y-89473029D01*
X149142000Y-89583098D01*
X149142000Y-89781903D01*
X149156489Y-89891968D01*
X149158594Y-89899822D01*
X149155314Y-89900700D01*
X149161081Y-89954573D01*
X149158017Y-89965022D01*
X149158595Y-89965177D01*
X149156490Y-89973029D01*
X149142000Y-90083098D01*
X149142000Y-90281903D01*
X149156489Y-90391968D01*
X149158594Y-90399822D01*
X149155314Y-90400700D01*
X149161081Y-90454573D01*
X149158017Y-90465022D01*
X149158595Y-90465177D01*
X149156490Y-90473029D01*
X149142000Y-90583098D01*
X149142000Y-90781903D01*
X149156489Y-90891968D01*
X149158594Y-90899822D01*
X149155314Y-90900700D01*
X149161081Y-90954573D01*
X149158017Y-90965022D01*
X149158595Y-90965177D01*
X149156490Y-90973029D01*
X149142000Y-91083098D01*
X149142000Y-91281903D01*
X149156489Y-91391968D01*
X149158594Y-91399822D01*
X149155314Y-91400700D01*
X149161081Y-91454573D01*
X149158017Y-91465022D01*
X149158595Y-91465177D01*
X149156490Y-91473029D01*
X149142000Y-91583098D01*
X149142000Y-91781900D01*
X149143665Y-91794545D01*
X149132896Y-91863580D01*
X149086513Y-91915833D01*
X149019243Y-91934715D01*
X149004546Y-91933664D01*
X148991901Y-91932000D01*
X148793096Y-91932000D01*
X148683031Y-91946489D01*
X148675178Y-91948594D01*
X148674302Y-91945324D01*
X148620353Y-91951067D01*
X148609977Y-91948018D01*
X148609823Y-91948595D01*
X148601970Y-91946490D01*
X148491901Y-91932000D01*
X148293096Y-91932000D01*
X148183031Y-91946489D01*
X148175178Y-91948594D01*
X148174302Y-91945324D01*
X148120353Y-91951067D01*
X148109977Y-91948018D01*
X148109823Y-91948595D01*
X148101970Y-91946490D01*
X147991901Y-91932000D01*
X147793096Y-91932000D01*
X147683031Y-91946489D01*
X147675178Y-91948594D01*
X147674302Y-91945324D01*
X147620353Y-91951067D01*
X147609977Y-91948018D01*
X147609823Y-91948595D01*
X147601970Y-91946490D01*
X147491901Y-91932000D01*
X147293096Y-91932000D01*
X147183029Y-91946489D01*
X147175181Y-91948593D01*
X147174356Y-91945515D01*
X147119729Y-91951342D01*
X147109855Y-91948489D01*
X147109697Y-91949082D01*
X147101846Y-91946978D01*
X147017500Y-91935873D01*
X147017500Y-91963994D01*
X147016422Y-91967664D01*
X147017279Y-91971393D01*
X147006655Y-92000925D01*
X146997815Y-92031033D01*
X146994548Y-92034582D01*
X146993629Y-92037139D01*
X146968966Y-92062385D01*
X146967966Y-92063152D01*
X146902792Y-92088333D01*
X146834350Y-92074281D01*
X146817034Y-92063152D01*
X146816034Y-92062385D01*
X146800736Y-92041444D01*
X146784370Y-92025456D01*
X146782218Y-92016095D01*
X146774819Y-92005966D01*
X146767500Y-91963994D01*
X146767500Y-91935873D01*
X146683158Y-91946978D01*
X146675306Y-91949082D01*
X146674417Y-91945764D01*
X146620304Y-91951209D01*
X146609944Y-91948130D01*
X146609820Y-91948594D01*
X146601972Y-91946491D01*
X146491901Y-91932000D01*
X146293098Y-91932000D01*
X146280453Y-91933665D01*
X146211418Y-91922895D01*
X146159165Y-91876512D01*
X146140284Y-91809242D01*
X146141336Y-91794539D01*
X146143000Y-91781901D01*
X146142999Y-91583100D01*
X146128509Y-91473028D01*
X146128508Y-91473025D01*
X146126405Y-91465174D01*
X146129707Y-91464289D01*
X146123892Y-91410575D01*
X146127001Y-91399985D01*
X146126405Y-91399826D01*
X146128508Y-91391975D01*
X146128508Y-91391974D01*
X146128509Y-91391972D01*
X146143000Y-91281901D01*
X146142999Y-91083100D01*
X146128509Y-90973028D01*
X146128508Y-90973025D01*
X146126405Y-90965174D01*
X146129707Y-90964289D01*
X146123892Y-90910575D01*
X146127001Y-90899985D01*
X146126405Y-90899826D01*
X146128508Y-90891975D01*
X146128508Y-90891974D01*
X146128509Y-90891972D01*
X146143000Y-90781901D01*
X146142999Y-90583100D01*
X146128509Y-90473028D01*
X146128508Y-90473025D01*
X146126405Y-90465174D01*
X146129707Y-90464289D01*
X146123892Y-90410575D01*
X146127001Y-90399985D01*
X146126405Y-90399826D01*
X146128508Y-90391975D01*
X146128508Y-90391974D01*
X146128509Y-90391972D01*
X146143000Y-90281901D01*
X146142999Y-90083100D01*
X146128509Y-89973028D01*
X146128508Y-89973025D01*
X146126405Y-89965174D01*
X146129707Y-89964289D01*
X146123892Y-89910575D01*
X146127001Y-89899985D01*
X146126405Y-89899826D01*
X146128508Y-89891975D01*
X146128508Y-89891974D01*
X146128509Y-89891972D01*
X146143000Y-89781901D01*
X146142999Y-89583100D01*
X146142953Y-89582753D01*
X146134624Y-89519480D01*
X146128509Y-89473028D01*
X146128508Y-89473025D01*
X146126405Y-89465174D01*
X146129707Y-89464289D01*
X146123892Y-89410575D01*
X146127001Y-89399985D01*
X146126405Y-89399826D01*
X146128508Y-89391975D01*
X146128508Y-89391974D01*
X146128509Y-89391972D01*
X146143000Y-89281901D01*
X146142999Y-89083100D01*
X146142998Y-89083096D01*
X146141335Y-89070460D01*
X146152101Y-89001425D01*
X146198481Y-88949169D01*
X146265749Y-88930284D01*
X146280459Y-88931336D01*
X146281445Y-88931465D01*
X146293099Y-88933000D01*
X146491900Y-88932999D01*
X146491901Y-88932999D01*
X146512524Y-88930284D01*
X146601972Y-88918509D01*
X146601975Y-88918507D01*
X146609826Y-88916405D01*
X146610710Y-88919707D01*
X146664425Y-88913892D01*
X146675014Y-88917001D01*
X146675174Y-88916405D01*
X146683024Y-88918508D01*
X146683026Y-88918508D01*
X146683028Y-88918509D01*
X146793099Y-88933000D01*
X146991900Y-88932999D01*
X146991901Y-88932999D01*
X147012524Y-88930284D01*
X147101972Y-88918509D01*
X147101975Y-88918507D01*
X147109826Y-88916405D01*
X147110710Y-88919707D01*
X147164425Y-88913892D01*
X147175014Y-88917001D01*
X147175174Y-88916405D01*
X147183024Y-88918508D01*
X147183026Y-88918508D01*
X147183028Y-88918509D01*
X147293099Y-88933000D01*
X147491900Y-88932999D01*
X147491901Y-88932999D01*
X147512524Y-88930284D01*
X147601972Y-88918509D01*
X147601975Y-88918507D01*
X147609826Y-88916405D01*
X147610710Y-88919707D01*
X147664425Y-88913892D01*
X147675014Y-88917001D01*
X147675174Y-88916405D01*
X147683024Y-88918508D01*
X147683026Y-88918508D01*
X147683028Y-88918509D01*
X147793099Y-88933000D01*
X147991900Y-88932999D01*
X147991901Y-88932999D01*
X148012524Y-88930284D01*
X148101972Y-88918509D01*
X148101975Y-88918507D01*
X148109826Y-88916405D01*
X148110710Y-88919707D01*
X148164425Y-88913892D01*
X148175014Y-88917001D01*
X148175174Y-88916405D01*
X148183024Y-88918508D01*
X148183026Y-88918508D01*
X148183028Y-88918509D01*
X148293099Y-88933000D01*
X148491900Y-88932999D01*
X148491901Y-88932999D01*
X148512524Y-88930284D01*
X148601972Y-88918509D01*
X148601975Y-88918507D01*
X148609826Y-88916405D01*
X148610710Y-88919707D01*
X148664425Y-88913892D01*
X148675014Y-88917001D01*
G37*
%TD.AperFunction*%
%TA.AperFunction,Conductor*%
G36*
X183615703Y-77865384D02*
G01*
X183622181Y-77871416D01*
X189738584Y-83987819D01*
X189772069Y-84049142D01*
X189767085Y-84118834D01*
X189725213Y-84174767D01*
X189659749Y-84199184D01*
X189650903Y-84199500D01*
X189521155Y-84199500D01*
X189366510Y-84230261D01*
X189366498Y-84230264D01*
X189220827Y-84290602D01*
X189220814Y-84290609D01*
X189089711Y-84378210D01*
X189089707Y-84378213D01*
X188978213Y-84489707D01*
X188978210Y-84489711D01*
X188890609Y-84620814D01*
X188890602Y-84620827D01*
X188830264Y-84766498D01*
X188830261Y-84766510D01*
X188799500Y-84921153D01*
X188799500Y-85078846D01*
X188830261Y-85233489D01*
X188830264Y-85233501D01*
X188890602Y-85379172D01*
X188890609Y-85379185D01*
X188978210Y-85510288D01*
X188978213Y-85510292D01*
X189089707Y-85621786D01*
X189089711Y-85621789D01*
X189220814Y-85709390D01*
X189220827Y-85709397D01*
X189366498Y-85769735D01*
X189366503Y-85769737D01*
X189431147Y-85782595D01*
X189521849Y-85800638D01*
X189583760Y-85833023D01*
X189585339Y-85834574D01*
X193118584Y-89367819D01*
X193152069Y-89429142D01*
X193147085Y-89498834D01*
X193105213Y-89554767D01*
X193039749Y-89579184D01*
X193030903Y-89579500D01*
X190806670Y-89579500D01*
X190806654Y-89579499D01*
X190799058Y-89579499D01*
X190640943Y-89579499D01*
X190565863Y-89599617D01*
X190488214Y-89620423D01*
X190488209Y-89620426D01*
X190351290Y-89699475D01*
X190351282Y-89699481D01*
X188967583Y-91083181D01*
X188940655Y-91097884D01*
X188914837Y-91114477D01*
X188908636Y-91115368D01*
X188906260Y-91116666D01*
X188879902Y-91119500D01*
X188780098Y-91119500D01*
X188713059Y-91099815D01*
X188692417Y-91083181D01*
X186390916Y-88781680D01*
X186357431Y-88720357D01*
X186362415Y-88650665D01*
X186404287Y-88594732D01*
X186469751Y-88570315D01*
X186478597Y-88569999D01*
X186529999Y-88569999D01*
X186530000Y-88569998D01*
X186530000Y-87620000D01*
X185705001Y-87620000D01*
X185705001Y-87796403D01*
X185685316Y-87863442D01*
X185632512Y-87909197D01*
X185563354Y-87919141D01*
X185499798Y-87890116D01*
X185493320Y-87884084D01*
X184479249Y-86870013D01*
X185705000Y-86870013D01*
X185705000Y-87120000D01*
X186530000Y-87120000D01*
X186530000Y-86170000D01*
X187030000Y-86170000D01*
X187030000Y-88569999D01*
X187154972Y-88569999D01*
X187154986Y-88569998D01*
X187257697Y-88559505D01*
X187424119Y-88504358D01*
X187424124Y-88504356D01*
X187573345Y-88412315D01*
X187697318Y-88288342D01*
X187699165Y-88285348D01*
X187700969Y-88283724D01*
X187701798Y-88282677D01*
X187701976Y-88282818D01*
X187751110Y-88238621D01*
X187820073Y-88227396D01*
X187884156Y-88255236D01*
X187910243Y-88285341D01*
X187912288Y-88288656D01*
X188036344Y-88412712D01*
X188185666Y-88504814D01*
X188352203Y-88559999D01*
X188454991Y-88570500D01*
X189205008Y-88570499D01*
X189205016Y-88570498D01*
X189205019Y-88570498D01*
X189261302Y-88564748D01*
X189307797Y-88559999D01*
X189474334Y-88504814D01*
X189623656Y-88412712D01*
X189747712Y-88288656D01*
X189839814Y-88139334D01*
X189894999Y-87972797D01*
X189905500Y-87870009D01*
X189905499Y-86869992D01*
X189896380Y-86780727D01*
X189894999Y-86767203D01*
X189894998Y-86767200D01*
X189877685Y-86714953D01*
X189839814Y-86600666D01*
X189747712Y-86451344D01*
X189623656Y-86327288D01*
X189486536Y-86242712D01*
X189474336Y-86235187D01*
X189474331Y-86235185D01*
X189472862Y-86234698D01*
X189307797Y-86180001D01*
X189307795Y-86180000D01*
X189205010Y-86169500D01*
X188454998Y-86169500D01*
X188454980Y-86169501D01*
X188352203Y-86180000D01*
X188352200Y-86180001D01*
X188185668Y-86235185D01*
X188185663Y-86235187D01*
X188036342Y-86327289D01*
X187912288Y-86451343D01*
X187912283Y-86451349D01*
X187910241Y-86454661D01*
X187908247Y-86456453D01*
X187907807Y-86457011D01*
X187907711Y-86456935D01*
X187858291Y-86501383D01*
X187789328Y-86512602D01*
X187725247Y-86484755D01*
X187699168Y-86454656D01*
X187697319Y-86451659D01*
X187697316Y-86451655D01*
X187573345Y-86327684D01*
X187424124Y-86235643D01*
X187424119Y-86235641D01*
X187257697Y-86180494D01*
X187257690Y-86180493D01*
X187154986Y-86170000D01*
X187030000Y-86170000D01*
X186530000Y-86170000D01*
X186405027Y-86170000D01*
X186405012Y-86170001D01*
X186302302Y-86180494D01*
X186135880Y-86235641D01*
X186135875Y-86235643D01*
X185986654Y-86327684D01*
X185862684Y-86451654D01*
X185770643Y-86600875D01*
X185770641Y-86600880D01*
X185715494Y-86767302D01*
X185715493Y-86767309D01*
X185705000Y-86870013D01*
X184479249Y-86870013D01*
X183446819Y-85837583D01*
X183413334Y-85776260D01*
X183410500Y-85749902D01*
X183410500Y-77959097D01*
X183430185Y-77892058D01*
X183482989Y-77846303D01*
X183552147Y-77836359D01*
X183615703Y-77865384D01*
G37*
%TD.AperFunction*%
%TA.AperFunction,Conductor*%
G36*
X146656997Y-78065185D02*
G01*
X146702752Y-78117989D01*
X146713576Y-78179229D01*
X146710782Y-78214728D01*
X147343091Y-78847037D01*
X147279507Y-78864075D01*
X147165493Y-78929901D01*
X147072401Y-79022993D01*
X147006575Y-79137007D01*
X146989537Y-79200591D01*
X146357228Y-78568282D01*
X146357227Y-78568282D01*
X146317880Y-78622440D01*
X146317876Y-78622446D01*
X146313260Y-78631505D01*
X146265281Y-78682297D01*
X146197459Y-78699087D01*
X146131326Y-78676543D01*
X146092294Y-78631493D01*
X146087551Y-78622184D01*
X146087549Y-78622181D01*
X146087548Y-78622179D01*
X145962609Y-78450213D01*
X145812292Y-78299896D01*
X145770894Y-78269819D01*
X145728228Y-78214489D01*
X145722249Y-78144876D01*
X145754854Y-78083080D01*
X145815693Y-78048723D01*
X145843779Y-78045500D01*
X146589958Y-78045500D01*
X146656997Y-78065185D01*
G37*
%TD.AperFunction*%
%TA.AperFunction,Conductor*%
G36*
X144376584Y-73763907D02*
G01*
X144422735Y-73816366D01*
X144433198Y-73885448D01*
X144404652Y-73949220D01*
X144398012Y-73956405D01*
X143941286Y-74413132D01*
X143829481Y-74524936D01*
X143829480Y-74524938D01*
X143792658Y-74588716D01*
X143750423Y-74661869D01*
X143709499Y-74814597D01*
X143709499Y-74814599D01*
X143709499Y-74982700D01*
X143709500Y-74982713D01*
X143709500Y-75759676D01*
X143709499Y-75759694D01*
X143709499Y-75925400D01*
X143709498Y-75925400D01*
X143732222Y-76010204D01*
X143750423Y-76078131D01*
X143750425Y-76078134D01*
X143757628Y-76090610D01*
X143829477Y-76215058D01*
X143829481Y-76215063D01*
X143948349Y-76333931D01*
X143948355Y-76333936D01*
X144247238Y-76632819D01*
X144280723Y-76694142D01*
X144275739Y-76763834D01*
X144233867Y-76819767D01*
X144168403Y-76844184D01*
X144159557Y-76844500D01*
X139124500Y-76844500D01*
X139057461Y-76824815D01*
X139011706Y-76772011D01*
X139001943Y-76727134D01*
X139001097Y-76727218D01*
X139000500Y-76721163D01*
X139000500Y-76721158D01*
X138969737Y-76566503D01*
X138968037Y-76562399D01*
X138909397Y-76420827D01*
X138909390Y-76420814D01*
X138821789Y-76289711D01*
X138821786Y-76289707D01*
X138710292Y-76178213D01*
X138710288Y-76178210D01*
X138579185Y-76090609D01*
X138579172Y-76090602D01*
X138433501Y-76030264D01*
X138433489Y-76030261D01*
X138278845Y-75999500D01*
X138278842Y-75999500D01*
X138121158Y-75999500D01*
X138121155Y-75999500D01*
X137966510Y-76030261D01*
X137966498Y-76030264D01*
X137820827Y-76090602D01*
X137820813Y-76090610D01*
X137805154Y-76101073D01*
X137738476Y-76121949D01*
X137671097Y-76103463D01*
X137624408Y-76051483D01*
X137618565Y-76036986D01*
X137614814Y-76025666D01*
X137522712Y-75876344D01*
X137398656Y-75752288D01*
X137288039Y-75684059D01*
X137249336Y-75660187D01*
X137249331Y-75660185D01*
X137247862Y-75659698D01*
X137082797Y-75605001D01*
X137082795Y-75605000D01*
X136980010Y-75594500D01*
X136179998Y-75594500D01*
X136179980Y-75594501D01*
X136077203Y-75605000D01*
X136077200Y-75605001D01*
X135910668Y-75660185D01*
X135910663Y-75660187D01*
X135761342Y-75752289D01*
X135637289Y-75876342D01*
X135545187Y-76025663D01*
X135545185Y-76025668D01*
X135543662Y-76030264D01*
X135490001Y-76192203D01*
X135490001Y-76192204D01*
X135490000Y-76192204D01*
X135479500Y-76294983D01*
X135479500Y-76294991D01*
X135479500Y-76553011D01*
X135479501Y-76695500D01*
X135459817Y-76762539D01*
X135407013Y-76808294D01*
X135355501Y-76819500D01*
X131627292Y-76819500D01*
X131560253Y-76799815D01*
X131536237Y-76779672D01*
X131527296Y-76770000D01*
X130254000Y-76770000D01*
X130186961Y-76750315D01*
X130141206Y-76697511D01*
X130130000Y-76646000D01*
X130130000Y-76394000D01*
X130149685Y-76326961D01*
X130202489Y-76281206D01*
X130254000Y-76270000D01*
X131527295Y-76270000D01*
X131527295Y-76269998D01*
X131527100Y-76267513D01*
X131481281Y-76109801D01*
X131413171Y-75994633D01*
X131409755Y-75981172D01*
X131401930Y-75969700D01*
X131401333Y-75947977D01*
X131395988Y-75926909D01*
X131400353Y-75912302D01*
X131400012Y-75899856D01*
X131413787Y-75867361D01*
X131440292Y-75823517D01*
X131491820Y-75776330D01*
X131560679Y-75764492D01*
X131585409Y-75769961D01*
X131707292Y-75810349D01*
X131806655Y-75820500D01*
X132353344Y-75820499D01*
X132353352Y-75820498D01*
X132353355Y-75820498D01*
X132407760Y-75814940D01*
X132452708Y-75810349D01*
X132613697Y-75757003D01*
X132758044Y-75667968D01*
X132877968Y-75548044D01*
X132967003Y-75403697D01*
X133020349Y-75242708D01*
X133030500Y-75143345D01*
X133030499Y-74196656D01*
X133027005Y-74162455D01*
X133020349Y-74097292D01*
X133020348Y-74097289D01*
X133013361Y-74076204D01*
X132985455Y-73991990D01*
X132983054Y-73922164D01*
X133018786Y-73862122D01*
X133081306Y-73830929D01*
X133102223Y-73828992D01*
X135359948Y-73812017D01*
X135427132Y-73831196D01*
X135473283Y-73883655D01*
X135484237Y-73948614D01*
X135479500Y-73994978D01*
X135479500Y-74645001D01*
X135479501Y-74645019D01*
X135490000Y-74747796D01*
X135490001Y-74747799D01*
X135541601Y-74903516D01*
X135545186Y-74914334D01*
X135637288Y-75063656D01*
X135761344Y-75187712D01*
X135910666Y-75279814D01*
X136077203Y-75334999D01*
X136179991Y-75345500D01*
X136980008Y-75345499D01*
X136980016Y-75345498D01*
X136980019Y-75345498D01*
X137036302Y-75339748D01*
X137082797Y-75334999D01*
X137249334Y-75279814D01*
X137398656Y-75187712D01*
X137522712Y-75063656D01*
X137614814Y-74914334D01*
X137618399Y-74903516D01*
X137624371Y-74885495D01*
X137638239Y-74865464D01*
X137648363Y-74843297D01*
X137657775Y-74837247D01*
X137664144Y-74828050D01*
X137686642Y-74818696D01*
X137707141Y-74805523D01*
X137724244Y-74803063D01*
X137728660Y-74801228D01*
X137742076Y-74800500D01*
X137820234Y-74800500D01*
X137887273Y-74820185D01*
X137889125Y-74821398D01*
X138020814Y-74909390D01*
X138020827Y-74909397D01*
X138148179Y-74962147D01*
X138166503Y-74969737D01*
X138305473Y-74997380D01*
X138321153Y-75000499D01*
X138321156Y-75000500D01*
X138321158Y-75000500D01*
X138478844Y-75000500D01*
X138478845Y-75000499D01*
X138633497Y-74969737D01*
X138767260Y-74914331D01*
X138779172Y-74909397D01*
X138779172Y-74909396D01*
X138779179Y-74909394D01*
X138910289Y-74821789D01*
X139021789Y-74710289D01*
X139109394Y-74579179D01*
X139169737Y-74433497D01*
X139200500Y-74278842D01*
X139200500Y-74121158D01*
X139200500Y-74121155D01*
X139200499Y-74121153D01*
X139188967Y-74063180D01*
X139169737Y-73966503D01*
X139164559Y-73954004D01*
X139157091Y-73884535D01*
X139188366Y-73822056D01*
X139248455Y-73786404D01*
X139278181Y-73782556D01*
X140129815Y-73776153D01*
X140196999Y-73795332D01*
X140243150Y-73847791D01*
X140253613Y-73916873D01*
X140231064Y-73973034D01*
X140195712Y-74021692D01*
X140195706Y-74021701D01*
X140080048Y-74248694D01*
X140080047Y-74248696D01*
X140080046Y-74248699D01*
X140050416Y-74339890D01*
X140001320Y-74490991D01*
X139985842Y-74588715D01*
X139961466Y-74742619D01*
X139961466Y-74809471D01*
X139961466Y-74997381D01*
X140001320Y-75249008D01*
X140080046Y-75491301D01*
X140195705Y-75718297D01*
X140345451Y-75924404D01*
X140525596Y-76104549D01*
X140731703Y-76254295D01*
X140958699Y-76369954D01*
X141200992Y-76448680D01*
X141452619Y-76488534D01*
X141452620Y-76488534D01*
X141707380Y-76488534D01*
X141707381Y-76488534D01*
X141959008Y-76448680D01*
X142201301Y-76369954D01*
X142428297Y-76254295D01*
X142634404Y-76104549D01*
X142814549Y-75924404D01*
X142964295Y-75718297D01*
X143079954Y-75491301D01*
X143158680Y-75249008D01*
X143198534Y-74997381D01*
X143198534Y-74742619D01*
X143158680Y-74490992D01*
X143079954Y-74248699D01*
X142964295Y-74021703D01*
X142964292Y-74021699D01*
X142964292Y-74021698D01*
X142913188Y-73951361D01*
X142889708Y-73885555D01*
X142905533Y-73817501D01*
X142955639Y-73768806D01*
X143012573Y-73754479D01*
X144309399Y-73744728D01*
X144376584Y-73763907D01*
G37*
%TD.AperFunction*%
%TD*%
M02*
