%TF.GenerationSoftware,KiCad,Pcbnew,10.0.3*%
%TF.CreationDate,2026-08-12T00:28:43+00:00*%
%TF.ProjectId,Arduino Uno,41726475-696e-46f2-9055-6e6f2e6b6963,rev?*%
%TF.SameCoordinates,Original*%
%TF.FileFunction,Copper,L2,Bot*%
%TF.FilePolarity,Positive*%
%FSLAX46Y46*%
G04 Gerber Fmt 4.6, Leading zero omitted, Abs format (unit mm)*
G04 Created by KiCad (PCBNEW 10.0.3) date 2026-08-12 00:28:43*
%MOMM*%
%LPD*%
G01*
G04 APERTURE LIST*
G04 Aperture macros list*
%AMRoundRect*
0 Rectangle with rounded corners*
0 $1 Rounding radius*
0 $2 $3 $4 $5 $6 $7 $8 $9 X,Y pos of 4 corners*
0 Add a 4 corners polygon primitive as box body*
4,1,4,$2,$3,$4,$5,$6,$7,$8,$9,$2,$3,0*
0 Add four circle primitives for the rounded corners*
1,1,$1+$1,$2,$3*
1,1,$1+$1,$4,$5*
1,1,$1+$1,$6,$7*
1,1,$1+$1,$8,$9*
0 Add four rect primitives between the rounded corners*
20,1,$1+$1,$2,$3,$4,$5,0*
20,1,$1+$1,$4,$5,$6,$7,0*
20,1,$1+$1,$6,$7,$8,$9,0*
20,1,$1+$1,$8,$9,$2,$3,0*%
G04 Aperture macros list end*
%ADD10C,0.750000*%
%TA.AperFunction,ComponentPad*%
%ADD11R,1.700000X1.700000*%
%TD*%
%TA.AperFunction,ComponentPad*%
%ADD12C,1.700000*%
%TD*%
%TA.AperFunction,ComponentPad*%
%ADD13R,3.500000X3.500000*%
%TD*%
%TA.AperFunction,ComponentPad*%
%ADD14RoundRect,0.750000X-0.750000X-1.000000X0.750000X-1.000000X0.750000X1.000000X-0.750000X1.000000X0*%
%TD*%
%TA.AperFunction,ComponentPad*%
%ADD15RoundRect,0.875000X-0.875000X-0.875000X0.875000X-0.875000X0.875000X0.875000X-0.875000X0.875000X0*%
%TD*%
%TA.AperFunction,ComponentPad*%
%ADD16R,1.408000X1.408000*%
%TD*%
%TA.AperFunction,ComponentPad*%
%ADD17C,1.408000*%
%TD*%
%TA.AperFunction,ComponentPad*%
%ADD18C,3.316000*%
%TD*%
%TA.AperFunction,ComponentPad*%
%ADD19C,1.500000*%
%TD*%
%TA.AperFunction,ComponentPad*%
%ADD20R,1.000000X1.000000*%
%TD*%
%TA.AperFunction,ComponentPad*%
%ADD21C,1.000000*%
%TD*%
%TA.AperFunction,ComponentPad*%
%ADD22RoundRect,0.249999X0.850001X0.850001X-0.850001X0.850001X-0.850001X-0.850001X0.850001X-0.850001X0*%
%TD*%
%TA.AperFunction,ComponentPad*%
%ADD23C,2.200000*%
%TD*%
%TA.AperFunction,ComponentPad*%
%ADD24RoundRect,0.250000X-0.550000X0.550000X-0.550000X-0.550000X0.550000X-0.550000X0.550000X0.550000X0*%
%TD*%
%TA.AperFunction,ComponentPad*%
%ADD25C,1.600000*%
%TD*%
%TA.AperFunction,ViaPad*%
%ADD26C,0.600000*%
%TD*%
%TA.AperFunction,Conductor*%
%ADD27C,0.200000*%
%TD*%
G04 APERTURE END LIST*
D10*
G36*
X163895019Y-88887976D02*
G01*
X163999799Y-88383859D01*
X165278593Y-88383859D01*
X165028733Y-89585717D01*
X164872186Y-89696599D01*
X164672218Y-89804700D01*
X164421118Y-89909033D01*
X164163047Y-89987824D01*
X163915116Y-90033659D01*
X163675383Y-90048618D01*
X163443851Y-90034890D01*
X163242307Y-89995868D01*
X163066492Y-89933931D01*
X162912796Y-89850232D01*
X162775255Y-89740536D01*
X162664300Y-89610992D01*
X162577909Y-89459442D01*
X162515840Y-89282367D01*
X162473277Y-89034957D01*
X162470489Y-88768610D01*
X162510528Y-88479113D01*
X162595861Y-88173466D01*
X162717937Y-87895561D01*
X162876892Y-87641971D01*
X163020575Y-87469053D01*
X163181061Y-87318589D01*
X163359369Y-87189249D01*
X163557048Y-87080334D01*
X163771162Y-86998910D01*
X164014450Y-86947966D01*
X164291974Y-86930125D01*
X164570735Y-86947733D01*
X164791060Y-86995725D01*
X164963935Y-87068634D01*
X165098342Y-87163682D01*
X165209790Y-87288640D01*
X165290451Y-87434857D01*
X165341204Y-87606501D01*
X165359926Y-87809399D01*
X164746266Y-87926636D01*
X164720250Y-87784745D01*
X164666669Y-87669323D01*
X164585799Y-87574926D01*
X164482263Y-87505813D01*
X164351105Y-87461881D01*
X164184630Y-87445966D01*
X163994527Y-87462265D01*
X163821355Y-87509904D01*
X163661767Y-87588606D01*
X163513267Y-87700223D01*
X163389325Y-87834672D01*
X163283049Y-88001404D01*
X163194977Y-88205709D01*
X163127119Y-88454200D01*
X163086991Y-88734586D01*
X163089843Y-88954983D01*
X163126494Y-89127710D01*
X163191416Y-89263133D01*
X163290472Y-89379532D01*
X163412207Y-89462473D01*
X163561192Y-89514286D01*
X163744809Y-89532777D01*
X163931805Y-89514566D01*
X164134438Y-89457123D01*
X164328900Y-89371902D01*
X164494207Y-89273574D01*
X164574441Y-88887976D01*
X163895019Y-88887976D01*
G37*
G36*
X166747531Y-86977020D02*
G01*
X166518004Y-88080326D01*
X166700212Y-87929650D01*
X166879070Y-87828414D01*
X167057173Y-87769994D01*
X167237909Y-87750781D01*
X167423126Y-87770268D01*
X167573316Y-87824970D01*
X167695615Y-87912171D01*
X167769504Y-88014747D01*
X167810635Y-88134934D01*
X167824642Y-88270469D01*
X167812082Y-88428944D01*
X167763276Y-88705526D01*
X167496196Y-89990000D01*
X166932728Y-89990000D01*
X167172880Y-88834670D01*
X167227435Y-88520047D01*
X167231498Y-88398147D01*
X167204282Y-88314468D01*
X167149066Y-88250868D01*
X167070148Y-88211099D01*
X166956908Y-88196280D01*
X166820795Y-88213692D01*
X166691844Y-88266256D01*
X166579817Y-88352367D01*
X166486680Y-88477465D01*
X166417025Y-88637262D01*
X166348743Y-88894387D01*
X166121048Y-89990000D01*
X165557580Y-89990000D01*
X166184063Y-86977020D01*
X166747531Y-86977020D01*
G37*
G36*
X169674442Y-87763680D02*
G01*
X169848564Y-87796598D01*
X169963843Y-87842555D01*
X170064741Y-87912666D01*
X170133219Y-87989955D01*
X170174869Y-88075563D01*
X170190748Y-88172631D01*
X170184497Y-88336002D01*
X170142262Y-88594152D01*
X169995900Y-89270460D01*
X169947686Y-89540978D01*
X169934351Y-89696175D01*
X169943229Y-89835137D01*
X169974467Y-89990000D01*
X169417227Y-89990000D01*
X169397993Y-89822205D01*
X169391765Y-89755526D01*
X169212332Y-89885966D01*
X169037491Y-89975345D01*
X168855209Y-90030476D01*
X168671310Y-90048618D01*
X168507062Y-90035316D01*
X168376511Y-89998700D01*
X168272881Y-89941869D01*
X168191189Y-89865252D01*
X168129903Y-89769996D01*
X168093591Y-89663391D01*
X168082162Y-89542045D01*
X168096329Y-89418895D01*
X168668061Y-89418895D01*
X168683040Y-89487798D01*
X168718754Y-89549813D01*
X168771091Y-89597944D01*
X168838221Y-89627627D01*
X168924834Y-89638290D01*
X169023719Y-89627621D01*
X169127059Y-89594367D01*
X169236976Y-89535341D01*
X169341026Y-89446957D01*
X169410999Y-89343916D01*
X169445285Y-89252275D01*
X169491782Y-89061816D01*
X169515779Y-88946594D01*
X169154544Y-89035071D01*
X168930753Y-89092138D01*
X168826831Y-89136004D01*
X168751212Y-89196599D01*
X168701641Y-89263959D01*
X168674241Y-89339703D01*
X168668061Y-89418895D01*
X168096329Y-89418895D01*
X168098316Y-89401618D01*
X168156410Y-89225919D01*
X168253105Y-89070975D01*
X168383149Y-88942865D01*
X168540884Y-88848592D01*
X168730267Y-88780608D01*
X169016974Y-88713586D01*
X169395966Y-88632558D01*
X169593815Y-88571437D01*
X169606088Y-88512452D01*
X169618587Y-88399109D01*
X169606533Y-88321633D01*
X169576413Y-88269003D01*
X169526407Y-88233391D01*
X169437020Y-88207090D01*
X169288817Y-88196280D01*
X169147704Y-88212962D01*
X169041338Y-88258745D01*
X168952581Y-88338418D01*
X168859621Y-88477648D01*
X168367960Y-88383859D01*
X168484918Y-88180314D01*
X168616810Y-88023299D01*
X168763817Y-87905936D01*
X168932784Y-87823960D01*
X169148231Y-87770397D01*
X169421624Y-87750781D01*
X169674442Y-87763680D01*
G37*
G36*
X172393754Y-89990000D02*
G01*
X171830286Y-89990000D01*
X172062377Y-88873871D01*
X172117983Y-88548771D01*
X172121545Y-88415732D01*
X172092551Y-88321682D01*
X172037831Y-88253982D01*
X171960280Y-88211610D01*
X171854466Y-88196280D01*
X171712678Y-88216527D01*
X171574747Y-88278712D01*
X171456614Y-88374650D01*
X171369949Y-88496882D01*
X171305681Y-88663097D01*
X171222487Y-88999351D01*
X171016591Y-89990000D01*
X170453306Y-89990000D01*
X170906681Y-87809399D01*
X171429849Y-87809399D01*
X171363354Y-88129052D01*
X171555610Y-87956382D01*
X171747602Y-87840284D01*
X171942215Y-87773035D01*
X172143527Y-87750781D01*
X172321877Y-87768816D01*
X172469958Y-87819841D01*
X172592418Y-87901335D01*
X172666878Y-87996245D01*
X172709727Y-88108906D01*
X172726413Y-88239511D01*
X172717367Y-88389228D01*
X172676587Y-88629139D01*
X172393754Y-89990000D01*
G37*
G36*
X174571999Y-87763680D02*
G01*
X174746121Y-87796598D01*
X174861400Y-87842555D01*
X174962299Y-87912666D01*
X175030777Y-87989955D01*
X175072426Y-88075563D01*
X175088306Y-88172631D01*
X175082054Y-88336002D01*
X175039820Y-88594152D01*
X174893457Y-89270460D01*
X174845243Y-89540978D01*
X174831908Y-89696175D01*
X174840786Y-89835137D01*
X174872025Y-89990000D01*
X174314785Y-89990000D01*
X174295551Y-89822205D01*
X174289323Y-89755526D01*
X174109890Y-89885966D01*
X173935048Y-89975345D01*
X173752767Y-90030476D01*
X173568867Y-90048618D01*
X173404619Y-90035316D01*
X173274069Y-89998700D01*
X173170438Y-89941869D01*
X173088747Y-89865252D01*
X173027461Y-89769996D01*
X172991149Y-89663391D01*
X172979719Y-89542045D01*
X172993886Y-89418895D01*
X173565619Y-89418895D01*
X173580598Y-89487798D01*
X173616311Y-89549813D01*
X173668648Y-89597944D01*
X173735779Y-89627627D01*
X173822391Y-89638290D01*
X173921277Y-89627621D01*
X174024617Y-89594367D01*
X174134534Y-89535341D01*
X174238583Y-89446957D01*
X174308557Y-89343916D01*
X174342842Y-89252275D01*
X174389340Y-89061816D01*
X174413337Y-88946594D01*
X174052102Y-89035071D01*
X173828311Y-89092138D01*
X173724389Y-89136004D01*
X173648769Y-89196599D01*
X173599199Y-89263959D01*
X173571798Y-89339703D01*
X173565619Y-89418895D01*
X172993886Y-89418895D01*
X172995874Y-89401618D01*
X173053968Y-89225919D01*
X173150662Y-89070975D01*
X173280706Y-88942865D01*
X173438442Y-88848592D01*
X173627824Y-88780608D01*
X173914532Y-88713586D01*
X174293523Y-88632558D01*
X174491372Y-88571437D01*
X174503646Y-88512452D01*
X174516145Y-88399109D01*
X174504090Y-88321633D01*
X174473970Y-88269003D01*
X174423965Y-88233391D01*
X174334577Y-88207090D01*
X174186374Y-88196280D01*
X174045261Y-88212962D01*
X173938895Y-88258745D01*
X173850138Y-88338418D01*
X173757178Y-88477648D01*
X173265518Y-88383859D01*
X173382475Y-88180314D01*
X173514368Y-88023299D01*
X173661374Y-87905936D01*
X173830341Y-87823960D01*
X174045788Y-87770397D01*
X174319181Y-87750781D01*
X174571999Y-87763680D01*
G37*
G36*
X177147880Y-86977020D02*
G01*
X177741207Y-86977020D01*
X177398839Y-88623644D01*
X177331398Y-88982740D01*
X177315125Y-89131791D01*
X177328776Y-89251071D01*
X177368539Y-89349355D01*
X177434193Y-89431477D01*
X177521154Y-89490832D01*
X177640564Y-89529894D01*
X177802756Y-89544501D01*
X177968086Y-89531222D01*
X178100146Y-89494612D01*
X178205573Y-89437705D01*
X178297363Y-89359379D01*
X178366159Y-89272320D01*
X178414401Y-89175389D01*
X178470544Y-88993175D01*
X178547941Y-88658998D01*
X178897636Y-86977020D01*
X179491146Y-86977020D01*
X179161235Y-88563377D01*
X179042240Y-89065601D01*
X178953323Y-89331826D01*
X178881565Y-89475751D01*
X178796252Y-89601488D01*
X178697234Y-89710830D01*
X178583745Y-89805118D01*
X178452079Y-89887234D01*
X178300095Y-89957027D01*
X178140401Y-90005657D01*
X177947629Y-90037239D01*
X177715928Y-90048618D01*
X177433498Y-90034785D01*
X177234121Y-89999122D01*
X177098054Y-89948784D01*
X176974983Y-89872859D01*
X176879717Y-89786474D01*
X176808443Y-89689214D01*
X176737369Y-89524522D01*
X176711540Y-89354357D01*
X176730647Y-89065865D01*
X176812840Y-88587923D01*
X177147880Y-86977020D01*
G37*
G36*
X181488381Y-89990000D02*
G01*
X180924912Y-89990000D01*
X181157004Y-88873871D01*
X181212610Y-88548771D01*
X181216172Y-88415732D01*
X181187178Y-88321682D01*
X181132458Y-88253982D01*
X181054907Y-88211610D01*
X180949092Y-88196280D01*
X180807305Y-88216527D01*
X180669373Y-88278712D01*
X180551241Y-88374650D01*
X180464576Y-88496882D01*
X180400308Y-88663097D01*
X180317114Y-88999351D01*
X180111217Y-89990000D01*
X179547932Y-89990000D01*
X180001308Y-87809399D01*
X180524476Y-87809399D01*
X180457981Y-88129052D01*
X180650237Y-87956382D01*
X180842229Y-87840284D01*
X181036842Y-87773035D01*
X181238154Y-87750781D01*
X181416503Y-87768816D01*
X181564584Y-87819841D01*
X181687045Y-87901335D01*
X181761505Y-87996245D01*
X181804354Y-88108906D01*
X181821039Y-88239511D01*
X181811993Y-88389228D01*
X181771214Y-88629139D01*
X181488381Y-89990000D01*
G37*
G36*
X183741278Y-87765225D02*
G01*
X183906073Y-87806125D01*
X184047274Y-87871228D01*
X184168626Y-87960238D01*
X184272566Y-88074830D01*
X184369211Y-88241497D01*
X184425780Y-88429349D01*
X184441403Y-88644247D01*
X184411051Y-88893471D01*
X184341130Y-89134434D01*
X184237849Y-89350521D01*
X184100726Y-89545125D01*
X183927451Y-89720539D01*
X183727808Y-89866417D01*
X183521012Y-89967827D01*
X183304375Y-90028249D01*
X183074371Y-90048618D01*
X182882924Y-90033022D01*
X182707285Y-89987363D01*
X182544426Y-89911964D01*
X182403063Y-89806357D01*
X182297229Y-89674288D01*
X182223857Y-89511528D01*
X182187443Y-89333900D01*
X182183845Y-89122163D01*
X182184290Y-89118978D01*
X182764190Y-89118978D01*
X182782551Y-89282358D01*
X182835319Y-89404549D01*
X182923212Y-89501829D01*
X183032422Y-89559460D01*
X183169993Y-89579672D01*
X183310410Y-89560974D01*
X183444584Y-89504191D01*
X183576290Y-89404549D01*
X183682662Y-89277033D01*
X183768383Y-89110295D01*
X183831463Y-88895486D01*
X183856737Y-88679082D01*
X183838480Y-88516995D01*
X183786034Y-88395033D01*
X183698889Y-88297680D01*
X183590139Y-88239984D01*
X183452643Y-88219727D01*
X183312199Y-88238420D01*
X183177655Y-88295242D01*
X183045245Y-88395033D01*
X182938102Y-88522441D01*
X182852375Y-88687854D01*
X182789890Y-88899699D01*
X182764190Y-89118978D01*
X182184290Y-89118978D01*
X182219277Y-88868558D01*
X182273112Y-88680861D01*
X182357189Y-88494411D01*
X182474084Y-88307655D01*
X182615287Y-88139579D01*
X182774094Y-88002393D01*
X182952006Y-87893663D01*
X183144922Y-87814018D01*
X183342850Y-87766648D01*
X183548080Y-87750781D01*
X183741278Y-87765225D01*
G37*
D11*
%TO.P,J5,1,Pin_1_1*%
%TO.N,Net-(J5-Pin_1)*%
X142392500Y-81870000D03*
D12*
%TO.P,J5,2,Pin_2_2*%
%TO.N,+5V*%
X142392500Y-79330000D03*
%TO.P,J5,3,Pin_3_3*%
%TO.N,Net-(D3-A)*%
X144932500Y-81870000D03*
%TO.P,J5,4,Pin_4_4*%
%TO.N,Net-(J5-Pin_4)*%
X144932500Y-79330000D03*
%TO.P,J5,5,Pin_5_5*%
%TO.N,Net-(J5-Pin_5)*%
X147472500Y-81870000D03*
%TO.P,J5,6,Pin_6_6*%
%TO.N,GNDD*%
X147472500Y-79330000D03*
%TD*%
D11*
%TO.P,J3,1,Pin_1_1*%
%TO.N,Net-(IOH1-Pin_5)*%
X194580000Y-96410000D03*
D12*
%TO.P,J3,2,Pin_2_2*%
%TO.N,+5V*%
X192040000Y-96410000D03*
%TO.P,J3,3,Pin_3_3*%
%TO.N,Net-(IOH1-Pin_6)*%
X194580000Y-93870000D03*
%TO.P,J3,4,Pin_4_4*%
%TO.N,Net-(IOH1-Pin_4)*%
X192040000Y-93870000D03*
%TO.P,J3,5,Pin_5_5*%
%TO.N,Net-(D2-A)*%
X194580000Y-91330000D03*
%TO.P,J3,6,Pin_6_6*%
%TO.N,GNDD*%
X192040000Y-91330000D03*
%TD*%
D13*
%TO.P,J2,1*%
%TO.N,Net-(D4-A)*%
X138080000Y-115912500D03*
D14*
%TO.P,J2,2*%
%TO.N,GNDD*%
X132080000Y-115912500D03*
D15*
%TO.P,J2,3*%
%TO.N,N/C*%
X135080000Y-120612500D03*
%TD*%
D16*
%TO.P,J1,1,VBUS_1*%
%TO.N,/XUSB*%
X137280000Y-89825000D03*
D17*
%TO.P,J1,2,D-_2*%
%TO.N,/D-*%
X137280000Y-87325000D03*
%TO.P,J1,3,D+_3*%
%TO.N,/D+*%
X135280000Y-87325000D03*
%TO.P,J1,4,GND_4*%
%TO.N,Net-(GND1-A)*%
X135280000Y-89825000D03*
D18*
%TO.P,J1,SH,Shield_SH*%
%TO.N,Net-(J1-Shield)*%
X132580000Y-82555000D03*
X132580000Y-94595000D03*
%TD*%
D19*
%TO.P,Y1,1,1_1*%
%TO.N,Net-(U3-PC0{slash}XTAL2)*%
X147390000Y-98120000D03*
%TO.P,Y1,2,2_2*%
%TO.N,Net-(U3-XTAL1)*%
X152270000Y-98120000D03*
%TD*%
D20*
%TO.P,J8,1,Pin_1_1*%
%TO.N,Net-(J8-Pin_1)*%
X146395000Y-84765000D03*
D21*
%TO.P,J8,2,Pin_2_2*%
%TO.N,Net-(J8-Pin_2)*%
X147665000Y-84765000D03*
%TO.P,J8,3,Pin_3_3*%
%TO.N,Net-(J8-Pin_3)*%
X146395000Y-86035000D03*
%TO.P,J8,4,Pin_4_4*%
%TO.N,Net-(J8-Pin_4)*%
X147665000Y-86035000D03*
%TD*%
D22*
%TO.P,D4,1,K_1*%
%TO.N,Net-(D4-K)*%
X150200000Y-120870000D03*
D23*
%TO.P,D4,2,A_2*%
%TO.N,Net-(D4-A)*%
X142580000Y-120870000D03*
%TD*%
D11*
%TO.P,J4,1,Pin_1_1*%
%TO.N,Net-(J4-Pin_1)*%
X191580000Y-75370000D03*
D12*
%TO.P,J4,2,Pin_2_2*%
%TO.N,Net-(J4-Pin_2)*%
X189040000Y-75370000D03*
%TO.P,J4,3,Pin_3_3*%
%TO.N,Net-(J4-Pin_3)*%
X186500000Y-75370000D03*
%TO.P,J4,4,Pin_4_4*%
%TO.N,Net-(J4-Pin_4)*%
X183960000Y-75370000D03*
%TO.P,J4,5,Pin_5_5*%
%TO.N,Net-(J4-Pin_5)*%
X181420000Y-75370000D03*
%TO.P,J4,6,Pin_6_6*%
%TO.N,Net-(J4-Pin_6)*%
X178880000Y-75370000D03*
%TO.P,J4,7,Pin_7_7*%
%TO.N,Net-(J4-Pin_7)*%
X176340000Y-75370000D03*
%TO.P,J4,8,Pin_8_8*%
%TO.N,Net-(J4-Pin_8)*%
X173800000Y-75370000D03*
%TD*%
D11*
%TO.P,J6,1,Pin_1_1*%
%TO.N,unconnected-(J6-Pin_1-Pad1)*%
X156800000Y-120870000D03*
D12*
%TO.P,J6,2,Pin_2_2*%
%TO.N,+5V*%
X159340000Y-120870000D03*
%TO.P,J6,3,Pin_3_3*%
%TO.N,Net-(D2-A)*%
X161880000Y-120870000D03*
%TO.P,J6,4,Pin_4_4*%
%TO.N,+3V3(2)*%
X164420000Y-120870000D03*
%TO.P,J6,5,Pin_5_5*%
%TO.N,+5V*%
X166960000Y-120870000D03*
%TO.P,J6,6,Pin_6_6*%
%TO.N,GNDD*%
X169500000Y-120870000D03*
%TO.P,J6,7,Pin_7_7*%
X172040000Y-120870000D03*
%TO.P,J6,8,Pin_8_8*%
%TO.N,VIN(8)*%
X174580000Y-120870000D03*
%TD*%
D24*
%TO.P,U4,1,~{RESET}/PC6_1*%
%TO.N,Net-(D2-A)*%
X191520000Y-104250000D03*
D25*
%TO.P,U4,2,PD0_2*%
%TO.N,Net-(J4-Pin_1)*%
X188980000Y-104250000D03*
%TO.P,U4,3,PD1_3*%
%TO.N,Net-(J4-Pin_2)*%
X186440000Y-104250000D03*
%TO.P,U4,4,PD2_4*%
%TO.N,Net-(J4-Pin_3)*%
X183900000Y-104250000D03*
%TO.P,U4,5,PD3_5*%
%TO.N,Net-(J4-Pin_4)*%
X181360000Y-104250000D03*
%TO.P,U4,6,PD4_6*%
%TO.N,Net-(J4-Pin_5)*%
X178820000Y-104250000D03*
%TO.P,U4,7,VCC_7*%
%TO.N,+5V*%
X176280000Y-104250000D03*
%TO.P,U4,8,GND_8*%
%TO.N,GNDD*%
X173740000Y-104250000D03*
%TO.P,U4,9,XTAL1/PB6_9*%
%TO.N,Net-(U4-XTAL1{slash}PB6)*%
X171200000Y-104250000D03*
%TO.P,U4,10,XTAL2/PB7_10*%
%TO.N,Net-(U4-XTAL2{slash}PB7)*%
X168660000Y-104250000D03*
%TO.P,U4,11,PD5_11*%
%TO.N,Net-(J4-Pin_6)*%
X166120000Y-104250000D03*
%TO.P,U4,12,PD6_12*%
%TO.N,Net-(J4-Pin_7)*%
X163580000Y-104250000D03*
%TO.P,U4,13,PD7_13*%
%TO.N,Net-(J4-Pin_8)*%
X161040000Y-104250000D03*
%TO.P,U4,14,PB0_14*%
%TO.N,Net-(IOH1-Pin_1)*%
X158500000Y-104250000D03*
%TO.P,U4,15,PB1_15*%
%TO.N,Net-(IOH1-Pin_2)*%
X158500000Y-111870000D03*
%TO.P,U4,16,PB2_16*%
%TO.N,Net-(IOH1-Pin_3)*%
X161040000Y-111870000D03*
%TO.P,U4,17,PB3_17*%
%TO.N,Net-(IOH1-Pin_4)*%
X163580000Y-111870000D03*
%TO.P,U4,18,PB4_18*%
%TO.N,Net-(IOH1-Pin_5)*%
X166120000Y-111870000D03*
%TO.P,U4,19,PB5_19*%
%TO.N,Net-(IOH1-Pin_6)*%
X168660000Y-111870000D03*
%TO.P,U4,20,AVCC_20*%
%TO.N,+5V*%
X171200000Y-111870000D03*
%TO.P,U4,21,AREF_21*%
%TO.N,AREF(21)*%
X173740000Y-111870000D03*
%TO.P,U4,22,AGND_22*%
%TO.N,GNDD*%
X176280000Y-111870000D03*
%TO.P,U4,23,PC0_23*%
%TO.N,Net-(AD1-Pin_1)*%
X178820000Y-111870000D03*
%TO.P,U4,24,PC1_24*%
%TO.N,Net-(AD1-Pin_2)*%
X181360000Y-111870000D03*
%TO.P,U4,25,PC2_25*%
%TO.N,Net-(AD1-Pin_3)*%
X183900000Y-111870000D03*
%TO.P,U4,26,PC3_26*%
%TO.N,Net-(AD1-Pin_4)*%
X186440000Y-111870000D03*
%TO.P,U4,27,PC4_27*%
%TO.N,Net-(AD1-Pin_5)*%
X188980000Y-111870000D03*
%TO.P,U4,28,PC5_28*%
%TO.N,SCI*%
X191520000Y-111870000D03*
%TD*%
D11*
%TO.P,IOH1,1,Pin_1_1*%
%TO.N,Net-(IOH1-Pin_1)*%
X168320000Y-75370000D03*
D12*
%TO.P,IOH1,2,Pin_2_2*%
%TO.N,Net-(IOH1-Pin_2)*%
X165780000Y-75370000D03*
%TO.P,IOH1,3,Pin_3_3*%
%TO.N,Net-(IOH1-Pin_3)*%
X163240000Y-75370000D03*
%TO.P,IOH1,4,Pin_4_4*%
%TO.N,Net-(IOH1-Pin_4)*%
X160700000Y-75370000D03*
%TO.P,IOH1,5,Pin_5_5*%
%TO.N,Net-(IOH1-Pin_5)*%
X158160000Y-75370000D03*
%TO.P,IOH1,6,Pin_6_6*%
%TO.N,Net-(IOH1-Pin_6)*%
X155620000Y-75370000D03*
%TO.P,IOH1,7,Pin_7_7*%
%TO.N,SCK*%
X153080000Y-75370000D03*
%TO.P,IOH1,8,Pin_8_8*%
%TO.N,Net-(IOH1-Pin_8)*%
X150540000Y-75370000D03*
%TO.P,IOH1,9,Pin_9_9*%
%TO.N,AREF(21)*%
X148000000Y-75370000D03*
%TO.P,IOH1,10,Pin_10_10*%
%TO.N,SCI*%
X145460000Y-75370000D03*
%TD*%
D11*
%TO.P,AD1,1,Pin_1_1*%
%TO.N,Net-(AD1-Pin_1)*%
X178660000Y-120870000D03*
D12*
%TO.P,AD1,2,Pin_2_2*%
%TO.N,Net-(AD1-Pin_2)*%
X181200000Y-120870000D03*
%TO.P,AD1,3,Pin_3_3*%
%TO.N,Net-(AD1-Pin_3)*%
X183740000Y-120870000D03*
%TO.P,AD1,4,Pin_4_4*%
%TO.N,Net-(AD1-Pin_4)*%
X186280000Y-120870000D03*
%TO.P,AD1,5,Pin_5_5*%
%TO.N,Net-(AD1-Pin_5)*%
X188820000Y-120870000D03*
%TO.P,AD1,6,Pin_6_6*%
%TO.N,SCI*%
X191360000Y-120870000D03*
%TD*%
D26*
%TO.N,Net-(D2-A)*%
X189600000Y-85000000D03*
X191400000Y-83200000D03*
%TO.N,+5V*%
X177600000Y-99800000D03*
X150200000Y-83400000D03*
X186600000Y-95600000D03*
X157942500Y-85595000D03*
%TO.N,Net-(IOH1-Pin_5)*%
X175295000Y-92505000D03*
%TO.N,Net-(IOH1-Pin_6)*%
X174800000Y-93800000D03*
X174800000Y-93800000D03*
X174600000Y-98200000D03*
%TO.N,Net-(IOH1-Pin_4)*%
X176800000Y-92600000D03*
X191075027Y-93682843D03*
%TO.N,Net-(J1-Shield)*%
X145800000Y-94800000D03*
X138400000Y-74200000D03*
X141400000Y-92400000D03*
%TO.N,Net-(GND1-A)*%
X136580000Y-76620000D03*
X138200000Y-76800000D03*
%TO.N,Net-(U3-PC0{slash}XTAL2)*%
X148800000Y-95000000D03*
%TO.N,Net-(U3-XTAL1)*%
X152270000Y-96800000D03*
X155600000Y-94000000D03*
%TO.N,USBVCC*%
X143200000Y-92200000D03*
%TO.N,+3V3(2)*%
X145006108Y-102591283D03*
X142800000Y-99000000D03*
X141400000Y-90200000D03*
X141400000Y-90200000D03*
%TO.N,Net-(J4-Pin_3)*%
X183200000Y-94600000D03*
X183200000Y-94600000D03*
%TO.N,Net-(J4-Pin_4)*%
X195400000Y-98800000D03*
X180978552Y-102821447D03*
%TO.N,Net-(J4-Pin_5)*%
X176000000Y-95600000D03*
X179227082Y-99372918D03*
X175277203Y-89286319D03*
%TO.N,Net-(J4-Pin_6)*%
X174743878Y-88690023D03*
%TO.N,Net-(J4-Pin_7)*%
X174065687Y-88265687D03*
X165200000Y-95800000D03*
X174065687Y-88265687D03*
%TO.N,Net-(J4-Pin_8)*%
X173500000Y-87700000D03*
X161400000Y-103200000D03*
%TO.N,Net-(IOH1-Pin_1)*%
X159200000Y-103600000D03*
X164600000Y-100800000D03*
X172765687Y-87365688D03*
%TO.N,Net-(IOH1-Pin_2)*%
X164000000Y-102600000D03*
X172200000Y-86800000D03*
%TO.N,Net-(IOH1-Pin_3)*%
X161600000Y-110200000D03*
X171424265Y-86375735D03*
%TO.N,AREF(21)*%
X173400000Y-93400000D03*
X173600000Y-96400000D03*
%TD*%
%TO.N,Net-(D2-A)*%
D27*
X189600000Y-85000000D02*
X191400000Y-83200000D01*
%TO.N,+5V*%
X186800000Y-95600000D02*
X187610000Y-96410000D01*
X186600000Y-95600000D02*
X181800000Y-95600000D01*
X155747500Y-83400000D02*
X157942500Y-85595000D01*
X150200000Y-83400000D02*
X155747500Y-83400000D01*
X187610000Y-96410000D02*
X192040000Y-96410000D01*
X186600000Y-95600000D02*
X186800000Y-95600000D01*
X181800000Y-95600000D02*
X177600000Y-99800000D01*
%TO.N,Net-(IOH1-Pin_5)*%
X162480000Y-111414365D02*
X162480000Y-112325635D01*
X175295000Y-92505000D02*
X175246471Y-92505000D01*
X174200000Y-97154365D02*
X167560000Y-103794365D01*
X167560000Y-103794365D02*
X167560000Y-106334365D01*
X174200000Y-93551471D02*
X174200000Y-97154365D01*
X165020000Y-112970000D02*
X166120000Y-111870000D01*
X175246471Y-92505000D02*
X174200000Y-93551471D01*
X167560000Y-106334365D02*
X162480000Y-111414365D01*
X162480000Y-112325635D02*
X163124365Y-112970000D01*
X163124365Y-112970000D02*
X165020000Y-112970000D01*
%TO.N,Net-(IOH1-Pin_6)*%
X174800000Y-93800000D02*
X174800000Y-98000000D01*
X174800000Y-98000000D02*
X174600000Y-98200000D01*
%TO.N,Net-(IOH1-Pin_4)*%
X191075027Y-93636548D02*
X190038479Y-92600000D01*
X169760000Y-105690000D02*
X163580000Y-111870000D01*
X191075027Y-93682843D02*
X191075027Y-93636548D01*
X176800000Y-92600000D02*
X176800000Y-97094365D01*
X169760000Y-104134365D02*
X169760000Y-105690000D01*
X176800000Y-97094365D02*
X169760000Y-104134365D01*
X190038479Y-92600000D02*
X176800000Y-92600000D01*
%TO.N,Net-(D4-A)*%
X138080000Y-115912500D02*
X138080000Y-116370000D01*
X138080000Y-116370000D02*
X142580000Y-120870000D01*
%TO.N,Net-(J1-Shield)*%
X129870000Y-81600000D02*
X137270000Y-74200000D01*
X141400000Y-92400000D02*
X143800000Y-94800000D01*
X143800000Y-94800000D02*
X145800000Y-94800000D01*
X137270000Y-74200000D02*
X138400000Y-74200000D01*
%TO.N,Net-(GND1-A)*%
X129380000Y-88870000D02*
X130380000Y-87870000D01*
X130380000Y-84620000D02*
X138200000Y-76800000D01*
X130380000Y-87870000D02*
X130380000Y-84620000D01*
%TO.N,Net-(U3-PC0{slash}XTAL2)*%
X147390000Y-98120000D02*
X147390000Y-96410000D01*
X147390000Y-96410000D02*
X148800000Y-95000000D01*
%TO.N,Net-(U3-XTAL1)*%
X152800000Y-96800000D02*
X152270000Y-96800000D01*
X155600000Y-94000000D02*
X152800000Y-96800000D01*
%TO.N,USBVCC*%
X143196724Y-92200000D02*
X143196302Y-92199578D01*
X143200000Y-92200000D02*
X143196724Y-92200000D01*
%TO.N,+3V3(2)*%
X164400000Y-121000000D02*
X146000000Y-102600000D01*
X142800000Y-99000000D02*
X140400000Y-96600000D01*
X145000000Y-102597391D02*
X145006108Y-102591283D01*
X146000000Y-102600000D02*
X145000000Y-102600000D01*
X164420000Y-120980000D02*
X164400000Y-121000000D01*
X140400000Y-96600000D02*
X140400000Y-91200000D01*
X164420000Y-120870000D02*
X164420000Y-120980000D01*
X140400000Y-91200000D02*
X141400000Y-90200000D01*
X145000000Y-102600000D02*
X145000000Y-102597391D01*
%TO.N,Net-(J4-Pin_1)*%
X191580000Y-75370000D02*
X190430000Y-74220000D01*
X167220000Y-112325635D02*
X167220000Y-111414365D01*
X182460000Y-110770000D02*
X188980000Y-104250000D01*
X159940000Y-96445785D02*
X159940000Y-112325635D01*
X167864365Y-110770000D02*
X182460000Y-110770000D01*
X190430000Y-74220000D02*
X186023654Y-74220000D01*
X185110000Y-75133654D02*
X185110000Y-78551470D01*
X178285735Y-85375735D02*
X171010050Y-85375735D01*
X186023654Y-74220000D02*
X185110000Y-75133654D01*
X167220000Y-111414365D02*
X167864365Y-110770000D01*
X160984365Y-113370000D02*
X166175635Y-113370000D01*
X185110000Y-78551470D02*
X178285735Y-85375735D01*
X171010050Y-85375735D02*
X159940000Y-96445785D01*
X166175635Y-113370000D02*
X167220000Y-112325635D01*
X159940000Y-112325635D02*
X160984365Y-113370000D01*
%TO.N,Net-(J4-Pin_2)*%
X185340000Y-105350000D02*
X186440000Y-104250000D01*
X193430000Y-97260000D02*
X188468553Y-102221447D01*
X193590000Y-88713654D02*
X195730000Y-90853654D01*
X189040000Y-75370000D02*
X189040000Y-77344314D01*
X189040000Y-77344314D02*
X193590000Y-81894315D01*
X180260000Y-102691470D02*
X180260000Y-104705635D01*
X180260000Y-104705635D02*
X180904365Y-105350000D01*
X193590000Y-81894315D02*
X193590000Y-88713654D01*
X194948378Y-95260000D02*
X193430000Y-95260000D01*
X195730000Y-94478378D02*
X194948378Y-95260000D01*
X188468553Y-102221447D02*
X180730023Y-102221447D01*
X195730000Y-90853654D02*
X195730000Y-94478378D01*
X193430000Y-95260000D02*
X193430000Y-97260000D01*
X180730023Y-102221447D02*
X180260000Y-102691470D01*
X180904365Y-105350000D02*
X185340000Y-105350000D01*
%TO.N,Net-(J4-Pin_3)*%
X192516346Y-95020000D02*
X193190000Y-94346346D01*
X193190000Y-94346346D02*
X193190000Y-82060000D01*
X183200000Y-94600000D02*
X183400000Y-94400000D01*
X183400000Y-94400000D02*
X183400000Y-93000000D01*
X183400000Y-93000000D02*
X189543654Y-93000000D01*
X189543654Y-93000000D02*
X191563654Y-95020000D01*
X191563654Y-95020000D02*
X192516346Y-95020000D01*
X193190000Y-82060000D02*
X186500000Y-75370000D01*
%TO.N,Net-(J4-Pin_4)*%
X195400000Y-100400000D02*
X192978553Y-102821447D01*
X195400000Y-98800000D02*
X195400000Y-100400000D01*
X192978553Y-102821447D02*
X180978552Y-102821447D01*
%TO.N,Net-(J4-Pin_5)*%
X175277203Y-89286319D02*
X176000000Y-90009116D01*
X176000000Y-90009116D02*
X176000000Y-95600000D01*
X179227082Y-99372918D02*
X179000000Y-99600000D01*
X179000000Y-99600000D02*
X179000000Y-104070000D01*
X179000000Y-104070000D02*
X178820000Y-104250000D01*
%TO.N,Net-(J4-Pin_6)*%
X167033901Y-96400000D02*
X165600000Y-96400000D01*
X166120000Y-96920000D02*
X166120000Y-104250000D01*
X165600000Y-96400000D02*
X166120000Y-96920000D01*
X174743878Y-88690023D02*
X167033901Y-96400000D01*
%TO.N,Net-(J4-Pin_7)*%
X166531374Y-95800000D02*
X165200000Y-95800000D01*
X174065687Y-88265687D02*
X166531374Y-95800000D01*
%TO.N,Net-(J4-Pin_8)*%
X171175736Y-85775735D02*
X172024264Y-85775735D01*
X172024264Y-85775735D02*
X173500000Y-87251471D01*
X173500000Y-87251471D02*
X173500000Y-87700000D01*
X161400000Y-103200000D02*
X161400000Y-95551471D01*
X161400000Y-95551471D02*
X171175736Y-85775735D01*
%TO.N,Net-(IOH1-Pin_1)*%
X172765687Y-87365688D02*
X164600000Y-95531375D01*
X159150000Y-103600000D02*
X158500000Y-104250000D01*
X159200000Y-103600000D02*
X159150000Y-103600000D01*
X164600000Y-95531375D02*
X164600000Y-100800000D01*
%TO.N,Net-(IOH1-Pin_2)*%
X164000000Y-95000000D02*
X164000000Y-102600000D01*
X172200000Y-86800000D02*
X164000000Y-95000000D01*
%TO.N,Net-(IOH1-Pin_3)*%
X162400000Y-109400000D02*
X161600000Y-110200000D01*
X162400000Y-95400000D02*
X162400000Y-109400000D01*
X171424265Y-86375735D02*
X162400000Y-95400000D01*
%TO.N,AREF(21)*%
X173400000Y-93400000D02*
X173400000Y-96200000D01*
X173400000Y-96200000D02*
X173600000Y-96400000D01*
%TO.N,Net-(AD1-Pin_1)*%
X178660000Y-112030000D02*
X178820000Y-111870000D01*
X178660000Y-120870000D02*
X178660000Y-112030000D01*
%TO.N,Net-(AD1-Pin_2)*%
X181200000Y-120870000D02*
X181200000Y-112030000D01*
X181200000Y-112030000D02*
X181360000Y-111870000D01*
%TO.N,Net-(AD1-Pin_3)*%
X183740000Y-120870000D02*
X183740000Y-112030000D01*
X183740000Y-112030000D02*
X183900000Y-111870000D01*
%TO.N,Net-(AD1-Pin_4)*%
X186280000Y-112030000D02*
X186440000Y-111870000D01*
X186280000Y-120870000D02*
X186280000Y-112030000D01*
%TO.N,Net-(AD1-Pin_5)*%
X188820000Y-112030000D02*
X188980000Y-111870000D01*
X188820000Y-120870000D02*
X188820000Y-112030000D01*
%TD*%
%TA.AperFunction,Conductor*%
%TO.N,GNDD*%
G36*
X147006575Y-79522993D02*
G01*
X147072401Y-79637007D01*
X147165493Y-79730099D01*
X147279507Y-79795925D01*
X147343090Y-79812962D01*
X146710782Y-80445269D01*
X146710782Y-80445270D01*
X146764952Y-80484626D01*
X146764951Y-80484626D01*
X146773995Y-80489234D01*
X146824792Y-80537208D01*
X146841587Y-80605029D01*
X146819050Y-80671164D01*
X146773999Y-80710202D01*
X146764682Y-80714949D01*
X146592713Y-80839890D01*
X146442390Y-80990213D01*
X146317449Y-81162182D01*
X146312984Y-81170946D01*
X146265009Y-81221742D01*
X146197188Y-81238536D01*
X146131053Y-81215998D01*
X146092016Y-81170946D01*
X146087550Y-81162182D01*
X145962609Y-80990213D01*
X145812286Y-80839890D01*
X145640320Y-80714951D01*
X145639615Y-80714591D01*
X145631554Y-80710485D01*
X145580759Y-80662512D01*
X145563963Y-80594692D01*
X145586499Y-80528556D01*
X145631554Y-80489515D01*
X145640316Y-80485051D01*
X145711363Y-80433433D01*
X145812286Y-80360109D01*
X145812288Y-80360106D01*
X145812292Y-80360104D01*
X145962604Y-80209792D01*
X145962606Y-80209788D01*
X145962609Y-80209786D01*
X146048390Y-80091717D01*
X146087551Y-80037816D01*
X146092293Y-80028508D01*
X146140263Y-79977711D01*
X146208083Y-79960911D01*
X146274219Y-79983445D01*
X146313263Y-80028500D01*
X146317873Y-80037547D01*
X146357228Y-80091716D01*
X146989537Y-79459408D01*
X147006575Y-79522993D01*
G37*
%TD.AperFunction*%
%TA.AperFunction,Conductor*%
G36*
X185788640Y-73452538D02*
G01*
X185834791Y-73504997D01*
X185845254Y-73574079D01*
X185816708Y-73637851D01*
X185784388Y-73664741D01*
X185757412Y-73680316D01*
X185757411Y-73680317D01*
X185654941Y-73739477D01*
X185654936Y-73739481D01*
X185034838Y-74359580D01*
X184973515Y-74393065D01*
X184903823Y-74388081D01*
X184859476Y-74359580D01*
X184839786Y-74339890D01*
X184667820Y-74214951D01*
X184478414Y-74118444D01*
X184478413Y-74118443D01*
X184478412Y-74118443D01*
X184276243Y-74052754D01*
X184276241Y-74052753D01*
X184276240Y-74052753D01*
X184114957Y-74027208D01*
X184066287Y-74019500D01*
X183853713Y-74019500D01*
X183805042Y-74027208D01*
X183643760Y-74052753D01*
X183441585Y-74118444D01*
X183252179Y-74214951D01*
X183080213Y-74339890D01*
X182929890Y-74490213D01*
X182804949Y-74662182D01*
X182800484Y-74670946D01*
X182752509Y-74721742D01*
X182684688Y-74738536D01*
X182618553Y-74715998D01*
X182579516Y-74670946D01*
X182575050Y-74662182D01*
X182450109Y-74490213D01*
X182299786Y-74339890D01*
X182127820Y-74214951D01*
X181938414Y-74118444D01*
X181938413Y-74118443D01*
X181938412Y-74118443D01*
X181736243Y-74052754D01*
X181736241Y-74052753D01*
X181736240Y-74052753D01*
X181574957Y-74027208D01*
X181526287Y-74019500D01*
X181313713Y-74019500D01*
X181265042Y-74027208D01*
X181103760Y-74052753D01*
X180901585Y-74118444D01*
X180712179Y-74214951D01*
X180540213Y-74339890D01*
X180389890Y-74490213D01*
X180264949Y-74662182D01*
X180260484Y-74670946D01*
X180212509Y-74721742D01*
X180144688Y-74738536D01*
X180078553Y-74715998D01*
X180039516Y-74670946D01*
X180035050Y-74662182D01*
X179910109Y-74490213D01*
X179759786Y-74339890D01*
X179587820Y-74214951D01*
X179398414Y-74118444D01*
X179398413Y-74118443D01*
X179398412Y-74118443D01*
X179196243Y-74052754D01*
X179196241Y-74052753D01*
X179196240Y-74052753D01*
X179034957Y-74027208D01*
X178986287Y-74019500D01*
X178773713Y-74019500D01*
X178725042Y-74027208D01*
X178563760Y-74052753D01*
X178361585Y-74118444D01*
X178172179Y-74214951D01*
X178000213Y-74339890D01*
X177849890Y-74490213D01*
X177724949Y-74662182D01*
X177720484Y-74670946D01*
X177672509Y-74721742D01*
X177604688Y-74738536D01*
X177538553Y-74715998D01*
X177499516Y-74670946D01*
X177495050Y-74662182D01*
X177370109Y-74490213D01*
X177219786Y-74339890D01*
X177047820Y-74214951D01*
X176858414Y-74118444D01*
X176858413Y-74118443D01*
X176858412Y-74118443D01*
X176656243Y-74052754D01*
X176656241Y-74052753D01*
X176656240Y-74052753D01*
X176494957Y-74027208D01*
X176446287Y-74019500D01*
X176233713Y-74019500D01*
X176185042Y-74027208D01*
X176023760Y-74052753D01*
X175821585Y-74118444D01*
X175632179Y-74214951D01*
X175460213Y-74339890D01*
X175309890Y-74490213D01*
X175184949Y-74662182D01*
X175180484Y-74670946D01*
X175132509Y-74721742D01*
X175064688Y-74738536D01*
X174998553Y-74715998D01*
X174959516Y-74670946D01*
X174955050Y-74662182D01*
X174830109Y-74490213D01*
X174679786Y-74339890D01*
X174507820Y-74214951D01*
X174318414Y-74118444D01*
X174318413Y-74118443D01*
X174318412Y-74118443D01*
X174116243Y-74052754D01*
X174116241Y-74052753D01*
X174116240Y-74052753D01*
X173954957Y-74027208D01*
X173906287Y-74019500D01*
X173693713Y-74019500D01*
X173645042Y-74027208D01*
X173483760Y-74052753D01*
X173281585Y-74118444D01*
X173092179Y-74214951D01*
X172920213Y-74339890D01*
X172769890Y-74490213D01*
X172644951Y-74662179D01*
X172548444Y-74851585D01*
X172482753Y-75053760D01*
X172449500Y-75263713D01*
X172449500Y-75476286D01*
X172481050Y-75675489D01*
X172482754Y-75686243D01*
X172521657Y-75805975D01*
X172548444Y-75888414D01*
X172644951Y-76077820D01*
X172769890Y-76249786D01*
X172920213Y-76400109D01*
X173092179Y-76525048D01*
X173092181Y-76525049D01*
X173092184Y-76525051D01*
X173281588Y-76621557D01*
X173483757Y-76687246D01*
X173693713Y-76720500D01*
X173693714Y-76720500D01*
X173906286Y-76720500D01*
X173906287Y-76720500D01*
X174116243Y-76687246D01*
X174318412Y-76621557D01*
X174507816Y-76525051D01*
X174594138Y-76462335D01*
X174679786Y-76400109D01*
X174679788Y-76400106D01*
X174679792Y-76400104D01*
X174830104Y-76249792D01*
X174830106Y-76249788D01*
X174830109Y-76249786D01*
X174955048Y-76077820D01*
X174955047Y-76077820D01*
X174955051Y-76077816D01*
X174959514Y-76069054D01*
X175007488Y-76018259D01*
X175075308Y-76001463D01*
X175141444Y-76023999D01*
X175180486Y-76069056D01*
X175184951Y-76077820D01*
X175309890Y-76249786D01*
X175460213Y-76400109D01*
X175632179Y-76525048D01*
X175632181Y-76525049D01*
X175632184Y-76525051D01*
X175821588Y-76621557D01*
X176023757Y-76687246D01*
X176233713Y-76720500D01*
X176233714Y-76720500D01*
X176446286Y-76720500D01*
X176446287Y-76720500D01*
X176656243Y-76687246D01*
X176858412Y-76621557D01*
X177047816Y-76525051D01*
X177134138Y-76462335D01*
X177219786Y-76400109D01*
X177219788Y-76400106D01*
X177219792Y-76400104D01*
X177370104Y-76249792D01*
X177370106Y-76249788D01*
X177370109Y-76249786D01*
X177495048Y-76077820D01*
X177495047Y-76077820D01*
X177495051Y-76077816D01*
X177499514Y-76069054D01*
X177547488Y-76018259D01*
X177615308Y-76001463D01*
X177681444Y-76023999D01*
X177720486Y-76069056D01*
X177724951Y-76077820D01*
X177849890Y-76249786D01*
X178000213Y-76400109D01*
X178172179Y-76525048D01*
X178172181Y-76525049D01*
X178172184Y-76525051D01*
X178361588Y-76621557D01*
X178563757Y-76687246D01*
X178773713Y-76720500D01*
X178773714Y-76720500D01*
X178986286Y-76720500D01*
X178986287Y-76720500D01*
X179196243Y-76687246D01*
X179398412Y-76621557D01*
X179587816Y-76525051D01*
X179674138Y-76462335D01*
X179759786Y-76400109D01*
X179759788Y-76400106D01*
X179759792Y-76400104D01*
X179910104Y-76249792D01*
X179910106Y-76249788D01*
X179910109Y-76249786D01*
X180035048Y-76077820D01*
X180035047Y-76077820D01*
X180035051Y-76077816D01*
X180039514Y-76069054D01*
X180087488Y-76018259D01*
X180155308Y-76001463D01*
X180221444Y-76023999D01*
X180260486Y-76069056D01*
X180264951Y-76077820D01*
X180389890Y-76249786D01*
X180540213Y-76400109D01*
X180712179Y-76525048D01*
X180712181Y-76525049D01*
X180712184Y-76525051D01*
X180901588Y-76621557D01*
X181103757Y-76687246D01*
X181313713Y-76720500D01*
X181313714Y-76720500D01*
X181526286Y-76720500D01*
X181526287Y-76720500D01*
X181736243Y-76687246D01*
X181938412Y-76621557D01*
X182127816Y-76525051D01*
X182214138Y-76462335D01*
X182299786Y-76400109D01*
X182299788Y-76400106D01*
X182299792Y-76400104D01*
X182450104Y-76249792D01*
X182450106Y-76249788D01*
X182450109Y-76249786D01*
X182575048Y-76077820D01*
X182575047Y-76077820D01*
X182575051Y-76077816D01*
X182579514Y-76069054D01*
X182627488Y-76018259D01*
X182695308Y-76001463D01*
X182761444Y-76023999D01*
X182800486Y-76069056D01*
X182804951Y-76077820D01*
X182929890Y-76249786D01*
X183080213Y-76400109D01*
X183252179Y-76525048D01*
X183252181Y-76525049D01*
X183252184Y-76525051D01*
X183441588Y-76621557D01*
X183643757Y-76687246D01*
X183853713Y-76720500D01*
X183853714Y-76720500D01*
X184066286Y-76720500D01*
X184066287Y-76720500D01*
X184276243Y-76687246D01*
X184347183Y-76664195D01*
X184417023Y-76662201D01*
X184476856Y-76698281D01*
X184507684Y-76760982D01*
X184509500Y-76782127D01*
X184509500Y-78251373D01*
X184489815Y-78318412D01*
X184473181Y-78339054D01*
X178073319Y-84738916D01*
X178011996Y-84772401D01*
X177985638Y-84775235D01*
X171096719Y-84775235D01*
X171096703Y-84775234D01*
X171089107Y-84775234D01*
X170930993Y-84775234D01*
X170823637Y-84804000D01*
X170778260Y-84816159D01*
X170778259Y-84816160D01*
X170728146Y-84845094D01*
X170728145Y-84845095D01*
X170696192Y-84863543D01*
X170641335Y-84895214D01*
X170641332Y-84895216D01*
X170563339Y-84973210D01*
X170529530Y-85007019D01*
X170529528Y-85007021D01*
X169827153Y-85709397D01*
X169148234Y-86388316D01*
X169086911Y-86421801D01*
X169060553Y-86424635D01*
X161964989Y-86424635D01*
X161964989Y-90554112D01*
X164683076Y-90554112D01*
X164750115Y-90573797D01*
X164795870Y-90626601D01*
X164805814Y-90695759D01*
X164776789Y-90759315D01*
X164770757Y-90765792D01*
X162158339Y-93378210D01*
X159571286Y-95965263D01*
X159459482Y-96077066D01*
X159459480Y-96077068D01*
X159459480Y-96077069D01*
X159417662Y-96149500D01*
X159417661Y-96149500D01*
X159380424Y-96213997D01*
X159380423Y-96213998D01*
X159365034Y-96271430D01*
X159339499Y-96366728D01*
X159339499Y-96366730D01*
X159339499Y-96534831D01*
X159339500Y-96534844D01*
X159339500Y-102675500D01*
X159319815Y-102742539D01*
X159267011Y-102788294D01*
X159215500Y-102799500D01*
X159121155Y-102799500D01*
X158966510Y-102830261D01*
X158966498Y-102830264D01*
X158820828Y-102890602D01*
X158820812Y-102890611D01*
X158748057Y-102939223D01*
X158681379Y-102960100D01*
X158659771Y-102958593D01*
X158602359Y-102949500D01*
X158602352Y-102949500D01*
X158397648Y-102949500D01*
X158373329Y-102953351D01*
X158195465Y-102981522D01*
X158000776Y-103044781D01*
X157818386Y-103137715D01*
X157652786Y-103258028D01*
X157508028Y-103402786D01*
X157387715Y-103568386D01*
X157294781Y-103750776D01*
X157231522Y-103945465D01*
X157199500Y-104147648D01*
X157199500Y-104352351D01*
X157231522Y-104554534D01*
X157294781Y-104749223D01*
X157346135Y-104850009D01*
X157387585Y-104931359D01*
X157387715Y-104931613D01*
X157508028Y-105097213D01*
X157652786Y-105241971D01*
X157773226Y-105329474D01*
X157818390Y-105362287D01*
X157920499Y-105414314D01*
X158000776Y-105455218D01*
X158000778Y-105455218D01*
X158000781Y-105455220D01*
X158082817Y-105481875D01*
X158195465Y-105518477D01*
X158236334Y-105524950D01*
X158397648Y-105550500D01*
X158397649Y-105550500D01*
X158602351Y-105550500D01*
X158602352Y-105550500D01*
X158804534Y-105518477D01*
X158999219Y-105455220D01*
X158999224Y-105455217D01*
X158999228Y-105455216D01*
X159159205Y-105373703D01*
X159227874Y-105360806D01*
X159292614Y-105387082D01*
X159332872Y-105444188D01*
X159339500Y-105484187D01*
X159339500Y-110635812D01*
X159319815Y-110702851D01*
X159267011Y-110748606D01*
X159197853Y-110758550D01*
X159159205Y-110746297D01*
X158999223Y-110664781D01*
X158804534Y-110601522D01*
X158629995Y-110573878D01*
X158602352Y-110569500D01*
X158397648Y-110569500D01*
X158373329Y-110573351D01*
X158195465Y-110601522D01*
X158000776Y-110664781D01*
X157818386Y-110757715D01*
X157652786Y-110878028D01*
X157508028Y-111022786D01*
X157387715Y-111188386D01*
X157294781Y-111370776D01*
X157231522Y-111565465D01*
X157199500Y-111767648D01*
X157199500Y-111972351D01*
X157231522Y-112174534D01*
X157294781Y-112369223D01*
X157358691Y-112494653D01*
X157387585Y-112551359D01*
X157387715Y-112551613D01*
X157508028Y-112717213D01*
X157652786Y-112861971D01*
X157764537Y-112943161D01*
X157818390Y-112982287D01*
X157934607Y-113041503D01*
X158000776Y-113075218D01*
X158000778Y-113075218D01*
X158000781Y-113075220D01*
X158105137Y-113109127D01*
X158195465Y-113138477D01*
X158296557Y-113154488D01*
X158397648Y-113170500D01*
X158397649Y-113170500D01*
X158602351Y-113170500D01*
X158602352Y-113170500D01*
X158804534Y-113138477D01*
X158999219Y-113075220D01*
X159181610Y-112982287D01*
X159274590Y-112914732D01*
X159347213Y-112861971D01*
X159347215Y-112861968D01*
X159347219Y-112861966D01*
X159399476Y-112809709D01*
X159407411Y-112805375D01*
X159412832Y-112798133D01*
X159437603Y-112788889D01*
X159460799Y-112776224D01*
X159469818Y-112776869D01*
X159478293Y-112773707D01*
X159504124Y-112779322D01*
X159530491Y-112781208D01*
X159539536Y-112787020D01*
X159546568Y-112788549D01*
X159559247Y-112798039D01*
X159559454Y-112797730D01*
X159559457Y-112797732D01*
X159565967Y-112803069D01*
X159574788Y-112809671D01*
X159574826Y-112809696D01*
X159578344Y-112813214D01*
X159578345Y-112813216D01*
X159578349Y-112813220D01*
X159578355Y-112813225D01*
X160499504Y-113734374D01*
X160499514Y-113734385D01*
X160503844Y-113738715D01*
X160503845Y-113738716D01*
X160615649Y-113850520D01*
X160702460Y-113900639D01*
X160702462Y-113900641D01*
X160736289Y-113920171D01*
X160752580Y-113929577D01*
X160905308Y-113970500D01*
X161063422Y-113970500D01*
X166088966Y-113970500D01*
X166088982Y-113970501D01*
X166096578Y-113970501D01*
X166254689Y-113970501D01*
X166254692Y-113970501D01*
X166407420Y-113929577D01*
X166457539Y-113900639D01*
X166544351Y-113850520D01*
X166656155Y-113738716D01*
X166656155Y-113738714D01*
X166666363Y-113728507D01*
X166666365Y-113728504D01*
X167581657Y-112813212D01*
X167585182Y-112809689D01*
X167611752Y-112795188D01*
X167611758Y-112795184D01*
X167616425Y-112792638D01*
X167646485Y-112776224D01*
X167646499Y-112776225D01*
X167646512Y-112776218D01*
X167680902Y-112778685D01*
X167716177Y-112781208D01*
X167716191Y-112781217D01*
X167716203Y-112781218D01*
X167716266Y-112781265D01*
X167760524Y-112809709D01*
X167812786Y-112861971D01*
X167924537Y-112943161D01*
X167978390Y-112982287D01*
X168094607Y-113041503D01*
X168160776Y-113075218D01*
X168160778Y-113075218D01*
X168160781Y-113075220D01*
X168265137Y-113109127D01*
X168355465Y-113138477D01*
X168456557Y-113154488D01*
X168557648Y-113170500D01*
X168557649Y-113170500D01*
X168762351Y-113170500D01*
X168762352Y-113170500D01*
X168964534Y-113138477D01*
X169159219Y-113075220D01*
X169341610Y-112982287D01*
X169434590Y-112914732D01*
X169507213Y-112861971D01*
X169507215Y-112861968D01*
X169507219Y-112861966D01*
X169651966Y-112717219D01*
X169651968Y-112717215D01*
X169651971Y-112717213D01*
X169772284Y-112551614D01*
X169772286Y-112551611D01*
X169772287Y-112551610D01*
X169819516Y-112458917D01*
X169867489Y-112408123D01*
X169935310Y-112391328D01*
X170001445Y-112413865D01*
X170040485Y-112458919D01*
X170087715Y-112551614D01*
X170208028Y-112717213D01*
X170352786Y-112861971D01*
X170464537Y-112943161D01*
X170518390Y-112982287D01*
X170634607Y-113041503D01*
X170700776Y-113075218D01*
X170700778Y-113075218D01*
X170700781Y-113075220D01*
X170805137Y-113109127D01*
X170895465Y-113138477D01*
X170996557Y-113154488D01*
X171097648Y-113170500D01*
X171097649Y-113170500D01*
X171302351Y-113170500D01*
X171302352Y-113170500D01*
X171504534Y-113138477D01*
X171699219Y-113075220D01*
X171881610Y-112982287D01*
X171974590Y-112914732D01*
X172047213Y-112861971D01*
X172047215Y-112861968D01*
X172047219Y-112861966D01*
X172191966Y-112717219D01*
X172191968Y-112717215D01*
X172191971Y-112717213D01*
X172312284Y-112551614D01*
X172312286Y-112551611D01*
X172312287Y-112551610D01*
X172359516Y-112458917D01*
X172407489Y-112408123D01*
X172475310Y-112391328D01*
X172541445Y-112413865D01*
X172580485Y-112458919D01*
X172627715Y-112551614D01*
X172748028Y-112717213D01*
X172892786Y-112861971D01*
X173004537Y-112943161D01*
X173058390Y-112982287D01*
X173174607Y-113041503D01*
X173240776Y-113075218D01*
X173240778Y-113075218D01*
X173240781Y-113075220D01*
X173345137Y-113109127D01*
X173435465Y-113138477D01*
X173536557Y-113154488D01*
X173637648Y-113170500D01*
X173637649Y-113170500D01*
X173842351Y-113170500D01*
X173842352Y-113170500D01*
X174044534Y-113138477D01*
X174239219Y-113075220D01*
X174421610Y-112982287D01*
X174514590Y-112914732D01*
X174587213Y-112861971D01*
X174587215Y-112861968D01*
X174587219Y-112861966D01*
X174731966Y-112717219D01*
X174731968Y-112717215D01*
X174731971Y-112717213D01*
X174852286Y-112551611D01*
X174852415Y-112551359D01*
X174899795Y-112458369D01*
X174947769Y-112407573D01*
X175015590Y-112390778D01*
X175081725Y-112413315D01*
X175120765Y-112458369D01*
X175168141Y-112551350D01*
X175168147Y-112551359D01*
X175200523Y-112595921D01*
X175200524Y-112595922D01*
X175880000Y-111916446D01*
X175880000Y-111922661D01*
X175907259Y-112024394D01*
X175959920Y-112115606D01*
X176034394Y-112190080D01*
X176125606Y-112242741D01*
X176227339Y-112270000D01*
X176233553Y-112270000D01*
X175554076Y-112949474D01*
X175598650Y-112981859D01*
X175780968Y-113074755D01*
X175975582Y-113137990D01*
X176177683Y-113170000D01*
X176382317Y-113170000D01*
X176584417Y-113137990D01*
X176779031Y-113074755D01*
X176961349Y-112981859D01*
X177005921Y-112949474D01*
X176326447Y-112270000D01*
X176332661Y-112270000D01*
X176434394Y-112242741D01*
X176525606Y-112190080D01*
X176600080Y-112115606D01*
X176652741Y-112024394D01*
X176680000Y-111922661D01*
X176680000Y-111916447D01*
X177359474Y-112595921D01*
X177391861Y-112551347D01*
X177391861Y-112551346D01*
X177439234Y-112458371D01*
X177487208Y-112407575D01*
X177555028Y-112390779D01*
X177621164Y-112413316D01*
X177660203Y-112458369D01*
X177707713Y-112551611D01*
X177828028Y-112717213D01*
X177828034Y-112717219D01*
X177972781Y-112861966D01*
X178008385Y-112887833D01*
X178051050Y-112943161D01*
X178059500Y-112988151D01*
X178059500Y-119395500D01*
X178039815Y-119462539D01*
X177987011Y-119508294D01*
X177935501Y-119519500D01*
X177762130Y-119519500D01*
X177762123Y-119519501D01*
X177702516Y-119525908D01*
X177567671Y-119576202D01*
X177567664Y-119576206D01*
X177452455Y-119662452D01*
X177452452Y-119662455D01*
X177366206Y-119777664D01*
X177366202Y-119777671D01*
X177315908Y-119912517D01*
X177309501Y-119972116D01*
X177309500Y-119972135D01*
X177309500Y-121767870D01*
X177309501Y-121767876D01*
X177315908Y-121827483D01*
X177366202Y-121962328D01*
X177366206Y-121962335D01*
X177452452Y-122077544D01*
X177452455Y-122077547D01*
X177567664Y-122163793D01*
X177567671Y-122163797D01*
X177702517Y-122214091D01*
X177702516Y-122214091D01*
X177709444Y-122214835D01*
X177762127Y-122220500D01*
X179557872Y-122220499D01*
X179617483Y-122214091D01*
X179752331Y-122163796D01*
X179867546Y-122077546D01*
X179953796Y-121962331D01*
X180002810Y-121830916D01*
X180044681Y-121774984D01*
X180110145Y-121750566D01*
X180178418Y-121765417D01*
X180206673Y-121786569D01*
X180320213Y-121900109D01*
X180492179Y-122025048D01*
X180492181Y-122025049D01*
X180492184Y-122025051D01*
X180681588Y-122121557D01*
X180883757Y-122187246D01*
X181093713Y-122220500D01*
X181093714Y-122220500D01*
X181306286Y-122220500D01*
X181306287Y-122220500D01*
X181516243Y-122187246D01*
X181718412Y-122121557D01*
X181907816Y-122025051D01*
X181994138Y-121962335D01*
X182079786Y-121900109D01*
X182079788Y-121900106D01*
X182079792Y-121900104D01*
X182230104Y-121749792D01*
X182230106Y-121749788D01*
X182230109Y-121749786D01*
X182355048Y-121577820D01*
X182355047Y-121577820D01*
X182355051Y-121577816D01*
X182359514Y-121569054D01*
X182407488Y-121518259D01*
X182475308Y-121501463D01*
X182541444Y-121523999D01*
X182580486Y-121569056D01*
X182584951Y-121577820D01*
X182709890Y-121749786D01*
X182860213Y-121900109D01*
X183032179Y-122025048D01*
X183032181Y-122025049D01*
X183032184Y-122025051D01*
X183221588Y-122121557D01*
X183423757Y-122187246D01*
X183633713Y-122220500D01*
X183633714Y-122220500D01*
X183846286Y-122220500D01*
X183846287Y-122220500D01*
X184056243Y-122187246D01*
X184258412Y-122121557D01*
X184447816Y-122025051D01*
X184534138Y-121962335D01*
X184619786Y-121900109D01*
X184619788Y-121900106D01*
X184619792Y-121900104D01*
X184770104Y-121749792D01*
X184770106Y-121749788D01*
X184770109Y-121749786D01*
X184895048Y-121577820D01*
X184895047Y-121577820D01*
X184895051Y-121577816D01*
X184899514Y-121569054D01*
X184947488Y-121518259D01*
X185015308Y-121501463D01*
X185081444Y-121523999D01*
X185120486Y-121569056D01*
X185124951Y-121577820D01*
X185249890Y-121749786D01*
X185400213Y-121900109D01*
X185572179Y-122025048D01*
X185572181Y-122025049D01*
X185572184Y-122025051D01*
X185761588Y-122121557D01*
X185963757Y-122187246D01*
X186173713Y-122220500D01*
X186173714Y-122220500D01*
X186386286Y-122220500D01*
X186386287Y-122220500D01*
X186596243Y-122187246D01*
X186798412Y-122121557D01*
X186987816Y-122025051D01*
X187074138Y-121962335D01*
X187159786Y-121900109D01*
X187159788Y-121900106D01*
X187159792Y-121900104D01*
X187310104Y-121749792D01*
X187310106Y-121749788D01*
X187310109Y-121749786D01*
X187435048Y-121577820D01*
X187435047Y-121577820D01*
X187435051Y-121577816D01*
X187439514Y-121569054D01*
X187487488Y-121518259D01*
X187555308Y-121501463D01*
X187621444Y-121523999D01*
X187660486Y-121569056D01*
X187664951Y-121577820D01*
X187789890Y-121749786D01*
X187940213Y-121900109D01*
X188112179Y-122025048D01*
X188112181Y-122025049D01*
X188112184Y-122025051D01*
X188301588Y-122121557D01*
X188503757Y-122187246D01*
X188713713Y-122220500D01*
X188713714Y-122220500D01*
X188926286Y-122220500D01*
X188926287Y-122220500D01*
X189136243Y-122187246D01*
X189338412Y-122121557D01*
X189527816Y-122025051D01*
X189614138Y-121962335D01*
X189699786Y-121900109D01*
X189699788Y-121900106D01*
X189699792Y-121900104D01*
X189850104Y-121749792D01*
X189850106Y-121749788D01*
X189850109Y-121749786D01*
X189975048Y-121577820D01*
X189975047Y-121577820D01*
X189975051Y-121577816D01*
X189979514Y-121569054D01*
X190027488Y-121518259D01*
X190095308Y-121501463D01*
X190161444Y-121523999D01*
X190200486Y-121569056D01*
X190204951Y-121577820D01*
X190329890Y-121749786D01*
X190480213Y-121900109D01*
X190652179Y-122025048D01*
X190652181Y-122025049D01*
X190652184Y-122025051D01*
X190841588Y-122121557D01*
X191043757Y-122187246D01*
X191253713Y-122220500D01*
X191253714Y-122220500D01*
X191466286Y-122220500D01*
X191466287Y-122220500D01*
X191676243Y-122187246D01*
X191878412Y-122121557D01*
X192067816Y-122025051D01*
X192154138Y-121962335D01*
X192239786Y-121900109D01*
X192239788Y-121900106D01*
X192239792Y-121900104D01*
X192390104Y-121749792D01*
X192390106Y-121749788D01*
X192390109Y-121749786D01*
X192515048Y-121577820D01*
X192515047Y-121577820D01*
X192515051Y-121577816D01*
X192611557Y-121388412D01*
X192677246Y-121186243D01*
X192710500Y-120976287D01*
X192710500Y-120763713D01*
X192677246Y-120553757D01*
X192611557Y-120351588D01*
X192515051Y-120162184D01*
X192515049Y-120162181D01*
X192515048Y-120162179D01*
X192390109Y-119990213D01*
X192239786Y-119839890D01*
X192067820Y-119714951D01*
X191878414Y-119618444D01*
X191878413Y-119618443D01*
X191878412Y-119618443D01*
X191676243Y-119552754D01*
X191676241Y-119552753D01*
X191676240Y-119552753D01*
X191514957Y-119527208D01*
X191466287Y-119519500D01*
X191253713Y-119519500D01*
X191205042Y-119527208D01*
X191043760Y-119552753D01*
X190841585Y-119618444D01*
X190652179Y-119714951D01*
X190480213Y-119839890D01*
X190329890Y-119990213D01*
X190204949Y-120162182D01*
X190200484Y-120170946D01*
X190152509Y-120221742D01*
X190084688Y-120238536D01*
X190018553Y-120215998D01*
X189979516Y-120170946D01*
X189975050Y-120162182D01*
X189850109Y-119990213D01*
X189699786Y-119839890D01*
X189527815Y-119714948D01*
X189527814Y-119714947D01*
X189488205Y-119694765D01*
X189437409Y-119646791D01*
X189420500Y-119584281D01*
X189420500Y-113181126D01*
X189440185Y-113114087D01*
X189488203Y-113070641D01*
X189661610Y-112982287D01*
X189740501Y-112924970D01*
X189827213Y-112861971D01*
X189827215Y-112861968D01*
X189827219Y-112861966D01*
X189971966Y-112717219D01*
X189971968Y-112717215D01*
X189971971Y-112717213D01*
X190092284Y-112551614D01*
X190092286Y-112551611D01*
X190092287Y-112551610D01*
X190139516Y-112458917D01*
X190187489Y-112408123D01*
X190255310Y-112391328D01*
X190321445Y-112413865D01*
X190360485Y-112458919D01*
X190407715Y-112551614D01*
X190528028Y-112717213D01*
X190672786Y-112861971D01*
X190784537Y-112943161D01*
X190838390Y-112982287D01*
X190954607Y-113041503D01*
X191020776Y-113075218D01*
X191020778Y-113075218D01*
X191020781Y-113075220D01*
X191125137Y-113109127D01*
X191215465Y-113138477D01*
X191316557Y-113154488D01*
X191417648Y-113170500D01*
X191417649Y-113170500D01*
X191622351Y-113170500D01*
X191622352Y-113170500D01*
X191824534Y-113138477D01*
X192019219Y-113075220D01*
X192201610Y-112982287D01*
X192294590Y-112914732D01*
X192367213Y-112861971D01*
X192367215Y-112861968D01*
X192367219Y-112861966D01*
X192511966Y-112717219D01*
X192511968Y-112717215D01*
X192511971Y-112717213D01*
X192564732Y-112644590D01*
X192632287Y-112551610D01*
X192725220Y-112369219D01*
X192788477Y-112174534D01*
X192820500Y-111972352D01*
X192820500Y-111767648D01*
X192812257Y-111715606D01*
X192788477Y-111565465D01*
X192725218Y-111370776D01*
X192679515Y-111281080D01*
X192632287Y-111188390D01*
X192624556Y-111177749D01*
X192511971Y-111022786D01*
X192367213Y-110878028D01*
X192201613Y-110757715D01*
X192201612Y-110757714D01*
X192201610Y-110757713D01*
X192144653Y-110728691D01*
X192019223Y-110664781D01*
X191824534Y-110601522D01*
X191649995Y-110573878D01*
X191622352Y-110569500D01*
X191417648Y-110569500D01*
X191393329Y-110573351D01*
X191215465Y-110601522D01*
X191020776Y-110664781D01*
X190838386Y-110757715D01*
X190672786Y-110878028D01*
X190528028Y-111022786D01*
X190407715Y-111188386D01*
X190360485Y-111281080D01*
X190312510Y-111331876D01*
X190244689Y-111348671D01*
X190178554Y-111326134D01*
X190139515Y-111281080D01*
X190138883Y-111279840D01*
X190092287Y-111188390D01*
X190084556Y-111177749D01*
X189971971Y-111022786D01*
X189827213Y-110878028D01*
X189661613Y-110757715D01*
X189661612Y-110757714D01*
X189661610Y-110757713D01*
X189604653Y-110728691D01*
X189479223Y-110664781D01*
X189284534Y-110601522D01*
X189109995Y-110573878D01*
X189082352Y-110569500D01*
X188877648Y-110569500D01*
X188853329Y-110573351D01*
X188675465Y-110601522D01*
X188480776Y-110664781D01*
X188298386Y-110757715D01*
X188132786Y-110878028D01*
X187988028Y-111022786D01*
X187867715Y-111188386D01*
X187820485Y-111281080D01*
X187772510Y-111331876D01*
X187704689Y-111348671D01*
X187638554Y-111326134D01*
X187599515Y-111281080D01*
X187598883Y-111279840D01*
X187552287Y-111188390D01*
X187544556Y-111177749D01*
X187431971Y-111022786D01*
X187287213Y-110878028D01*
X187121613Y-110757715D01*
X187121612Y-110757714D01*
X187121610Y-110757713D01*
X187064653Y-110728691D01*
X186939223Y-110664781D01*
X186744534Y-110601522D01*
X186569995Y-110573878D01*
X186542352Y-110569500D01*
X186337648Y-110569500D01*
X186313329Y-110573351D01*
X186135465Y-110601522D01*
X185940776Y-110664781D01*
X185758386Y-110757715D01*
X185592786Y-110878028D01*
X185448028Y-111022786D01*
X185327715Y-111188386D01*
X185280485Y-111281080D01*
X185232510Y-111331876D01*
X185164689Y-111348671D01*
X185098554Y-111326134D01*
X185059515Y-111281080D01*
X185058883Y-111279840D01*
X185012287Y-111188390D01*
X185004556Y-111177749D01*
X184891971Y-111022786D01*
X184747213Y-110878028D01*
X184581613Y-110757715D01*
X184581612Y-110757714D01*
X184581610Y-110757713D01*
X184524653Y-110728691D01*
X184399223Y-110664781D01*
X184204534Y-110601522D01*
X184029995Y-110573878D01*
X184002352Y-110569500D01*
X183809096Y-110569500D01*
X183742057Y-110549815D01*
X183696302Y-110497011D01*
X183686358Y-110427853D01*
X183715383Y-110364297D01*
X183721415Y-110357819D01*
X184979331Y-109099903D01*
X188535158Y-105544075D01*
X188596479Y-105510592D01*
X188661151Y-105513825D01*
X188675466Y-105518477D01*
X188877648Y-105550500D01*
X188877649Y-105550500D01*
X189082351Y-105550500D01*
X189082352Y-105550500D01*
X189284534Y-105518477D01*
X189479219Y-105455220D01*
X189661610Y-105362287D01*
X189790482Y-105268657D01*
X189827213Y-105241971D01*
X189827215Y-105241968D01*
X189827219Y-105241966D01*
X189971966Y-105097219D01*
X190040021Y-105003547D01*
X190095349Y-104960882D01*
X190164963Y-104954902D01*
X190226758Y-104987507D01*
X190258044Y-105037427D01*
X190285186Y-105119334D01*
X190377288Y-105268656D01*
X190501344Y-105392712D01*
X190650666Y-105484814D01*
X190817203Y-105539999D01*
X190919991Y-105550500D01*
X192120008Y-105550499D01*
X192222797Y-105539999D01*
X192389334Y-105484814D01*
X192538656Y-105392712D01*
X192662712Y-105268656D01*
X192754814Y-105119334D01*
X192809999Y-104952797D01*
X192820500Y-104850009D01*
X192820499Y-103649992D01*
X192811158Y-103558548D01*
X192823928Y-103489857D01*
X192871809Y-103438972D01*
X192934516Y-103421948D01*
X193057607Y-103421948D01*
X193057610Y-103421948D01*
X193210338Y-103381024D01*
X193264939Y-103349500D01*
X193264940Y-103349500D01*
X193347262Y-103301971D01*
X193347261Y-103301971D01*
X193347269Y-103301967D01*
X193459073Y-103190163D01*
X193459073Y-103190161D01*
X193469277Y-103179958D01*
X193469281Y-103179953D01*
X195768713Y-100880521D01*
X195768716Y-100880520D01*
X195880520Y-100768716D01*
X195930639Y-100681904D01*
X195959577Y-100631785D01*
X196000500Y-100479057D01*
X196000500Y-100320943D01*
X196000500Y-99379765D01*
X196020185Y-99312726D01*
X196021398Y-99310874D01*
X196032626Y-99294071D01*
X196109394Y-99179179D01*
X196169737Y-99033497D01*
X196200500Y-98878842D01*
X196200500Y-98721158D01*
X196200500Y-98721155D01*
X196200499Y-98721153D01*
X196189036Y-98663524D01*
X196169737Y-98566503D01*
X196156917Y-98535552D01*
X196109397Y-98420827D01*
X196109390Y-98420814D01*
X196021789Y-98289711D01*
X196021786Y-98289707D01*
X195910292Y-98178213D01*
X195910288Y-98178210D01*
X195779185Y-98090609D01*
X195779172Y-98090602D01*
X195633501Y-98030264D01*
X195633491Y-98030261D01*
X195493940Y-98002502D01*
X195432029Y-97970117D01*
X195397455Y-97909401D01*
X195401196Y-97839631D01*
X195442062Y-97782960D01*
X195504880Y-97757595D01*
X195537483Y-97754091D01*
X195672331Y-97703796D01*
X195787546Y-97617546D01*
X195873796Y-97502331D01*
X195924091Y-97367483D01*
X195930500Y-97307873D01*
X195930499Y-95512128D01*
X195924091Y-95452517D01*
X195913023Y-95422843D01*
X195896735Y-95379172D01*
X195873796Y-95317669D01*
X195873791Y-95317663D01*
X195871008Y-95312564D01*
X195856155Y-95244291D01*
X195880570Y-95178826D01*
X195892151Y-95165460D01*
X196088506Y-94969106D01*
X196088511Y-94969102D01*
X196098714Y-94958898D01*
X196098716Y-94958898D01*
X196210520Y-94847094D01*
X196289577Y-94710162D01*
X196330500Y-94557435D01*
X196330500Y-90942713D01*
X196330501Y-90942700D01*
X196330501Y-90774599D01*
X196330501Y-90774597D01*
X196289577Y-90621869D01*
X196258889Y-90568716D01*
X196258889Y-90568715D01*
X196210524Y-90484944D01*
X196210521Y-90484940D01*
X196210520Y-90484938D01*
X196098716Y-90373134D01*
X196098715Y-90373133D01*
X196094385Y-90368803D01*
X196094374Y-90368793D01*
X194226819Y-88501238D01*
X194193334Y-88439915D01*
X194190500Y-88413557D01*
X194190500Y-84568815D01*
X194210185Y-84501776D01*
X194262989Y-84456021D01*
X194332147Y-84446077D01*
X194395703Y-84475102D01*
X194402181Y-84481134D01*
X194525596Y-84604549D01*
X194731703Y-84754295D01*
X194958699Y-84869954D01*
X195200992Y-84948680D01*
X195452619Y-84988534D01*
X195452620Y-84988534D01*
X195707380Y-84988534D01*
X195707381Y-84988534D01*
X195959008Y-84948680D01*
X196201301Y-84869954D01*
X196428297Y-84754295D01*
X196634404Y-84604549D01*
X196814549Y-84424404D01*
X196855183Y-84368476D01*
X196910511Y-84325811D01*
X196980125Y-84319832D01*
X197041920Y-84352437D01*
X197076277Y-84413276D01*
X197079500Y-84441362D01*
X197079500Y-113860397D01*
X197059815Y-113927436D01*
X197007011Y-113973191D01*
X196937853Y-113983135D01*
X196899206Y-113970882D01*
X196701308Y-113870048D01*
X196459008Y-113791320D01*
X196207381Y-113751466D01*
X195952619Y-113751466D01*
X195826805Y-113771393D01*
X195700991Y-113791320D01*
X195609868Y-113820928D01*
X195458699Y-113870046D01*
X195458696Y-113870047D01*
X195458694Y-113870048D01*
X195231701Y-113985706D01*
X195231698Y-113985708D01*
X195121149Y-114066027D01*
X195025596Y-114135451D01*
X195025594Y-114135453D01*
X195025593Y-114135453D01*
X194845453Y-114315593D01*
X194845453Y-114315594D01*
X194845451Y-114315596D01*
X194776027Y-114411149D01*
X194695708Y-114521698D01*
X194695706Y-114521701D01*
X194580048Y-114748694D01*
X194580047Y-114748696D01*
X194580046Y-114748699D01*
X194501320Y-114990992D01*
X194461466Y-115242619D01*
X194461466Y-115309471D01*
X194461466Y-115497381D01*
X194501320Y-115749008D01*
X194580046Y-115991301D01*
X194695705Y-116218297D01*
X194845451Y-116424404D01*
X195025596Y-116604549D01*
X195231703Y-116754295D01*
X195458699Y-116869954D01*
X195578372Y-116908838D01*
X195636047Y-116948276D01*
X195663245Y-117012635D01*
X195651330Y-117081481D01*
X195627734Y-117114450D01*
X193772686Y-118969500D01*
X193679502Y-119062683D01*
X193679500Y-119062686D01*
X193613608Y-119176812D01*
X193579500Y-119304108D01*
X193579500Y-122745500D01*
X193559815Y-122812539D01*
X193507011Y-122858294D01*
X193455500Y-122869500D01*
X141089603Y-122869500D01*
X141022564Y-122849815D01*
X140976809Y-122797011D01*
X140966865Y-122727853D01*
X140979118Y-122689206D01*
X141079951Y-122491308D01*
X141079951Y-122491304D01*
X141079954Y-122491301D01*
X141158680Y-122249008D01*
X141194017Y-122025899D01*
X141223945Y-121962768D01*
X141283256Y-121925836D01*
X141353119Y-121926834D01*
X141404170Y-121957619D01*
X141537345Y-122090794D01*
X141537350Y-122090798D01*
X141707050Y-122214091D01*
X141741155Y-122238870D01*
X141884184Y-122311747D01*
X141965616Y-122353239D01*
X141965618Y-122353239D01*
X141965621Y-122353241D01*
X142205215Y-122431090D01*
X142454038Y-122470500D01*
X142454039Y-122470500D01*
X142705961Y-122470500D01*
X142705962Y-122470500D01*
X142954785Y-122431090D01*
X143194379Y-122353241D01*
X143418845Y-122238870D01*
X143622656Y-122090793D01*
X143800793Y-121912656D01*
X143948870Y-121708845D01*
X144063241Y-121484379D01*
X144141090Y-121244785D01*
X144180500Y-120995962D01*
X144180500Y-120744038D01*
X144141090Y-120495215D01*
X144063241Y-120255621D01*
X144063239Y-120255618D01*
X144063239Y-120255616D01*
X143948869Y-120031154D01*
X143948865Y-120031148D01*
X143904426Y-119969982D01*
X148599500Y-119969982D01*
X148599500Y-121770017D01*
X148610000Y-121872796D01*
X148665185Y-122039332D01*
X148665187Y-122039337D01*
X148688755Y-122077546D01*
X148757288Y-122188656D01*
X148881344Y-122312712D01*
X149030665Y-122404814D01*
X149197202Y-122459999D01*
X149299990Y-122470500D01*
X149299995Y-122470500D01*
X151100005Y-122470500D01*
X151100010Y-122470500D01*
X151202798Y-122459999D01*
X151369335Y-122404814D01*
X151518656Y-122312712D01*
X151642712Y-122188656D01*
X151734814Y-122039335D01*
X151789999Y-121872798D01*
X151800500Y-121770010D01*
X151800500Y-119969990D01*
X151789999Y-119867202D01*
X151734814Y-119700665D01*
X151642712Y-119551344D01*
X151518656Y-119427288D01*
X151411799Y-119361378D01*
X151369337Y-119335187D01*
X151369332Y-119335185D01*
X151367863Y-119334698D01*
X151202798Y-119280001D01*
X151202796Y-119280000D01*
X151100017Y-119269500D01*
X151100010Y-119269500D01*
X149299990Y-119269500D01*
X149299982Y-119269500D01*
X149197203Y-119280000D01*
X149197202Y-119280001D01*
X149124452Y-119304108D01*
X149030667Y-119335185D01*
X149030662Y-119335187D01*
X148881342Y-119427289D01*
X148757289Y-119551342D01*
X148665187Y-119700662D01*
X148665185Y-119700667D01*
X148647271Y-119754728D01*
X148610001Y-119867202D01*
X148610001Y-119867203D01*
X148610000Y-119867203D01*
X148599500Y-119969982D01*
X143904426Y-119969982D01*
X143800798Y-119827350D01*
X143800794Y-119827345D01*
X143622654Y-119649205D01*
X143622649Y-119649201D01*
X143418848Y-119501132D01*
X143418847Y-119501131D01*
X143418845Y-119501130D01*
X143343106Y-119462539D01*
X143194383Y-119386760D01*
X142954785Y-119308910D01*
X142947897Y-119307819D01*
X142705962Y-119269500D01*
X142454038Y-119269500D01*
X142387738Y-119280001D01*
X142205214Y-119308910D01*
X142124349Y-119335185D01*
X142023074Y-119368091D01*
X141953234Y-119370086D01*
X141897076Y-119337841D01*
X140366502Y-117807267D01*
X140333017Y-117745944D01*
X140330362Y-117712924D01*
X140330496Y-117710405D01*
X140330500Y-117710373D01*
X140330499Y-114114628D01*
X140324091Y-114055017D01*
X140298240Y-113985708D01*
X140273797Y-113920171D01*
X140273793Y-113920164D01*
X140187547Y-113804955D01*
X140187544Y-113804952D01*
X140072335Y-113718706D01*
X140072328Y-113718702D01*
X139937482Y-113668408D01*
X139937483Y-113668408D01*
X139877883Y-113662001D01*
X139877881Y-113662000D01*
X139877873Y-113662000D01*
X139877864Y-113662000D01*
X136282129Y-113662000D01*
X136282123Y-113662001D01*
X136222516Y-113668408D01*
X136087671Y-113718702D01*
X136087664Y-113718706D01*
X135972455Y-113804952D01*
X135972452Y-113804955D01*
X135886206Y-113920164D01*
X135886202Y-113920171D01*
X135835908Y-114055017D01*
X135829501Y-114114616D01*
X135829501Y-114114623D01*
X135829500Y-114114635D01*
X135829500Y-117710370D01*
X135829501Y-117710376D01*
X135835908Y-117769983D01*
X135886202Y-117904828D01*
X135886206Y-117904835D01*
X135972452Y-118020044D01*
X135972455Y-118020047D01*
X136087664Y-118106293D01*
X136087673Y-118106298D01*
X136134937Y-118123926D01*
X136190871Y-118165796D01*
X136215289Y-118231260D01*
X136200438Y-118299533D01*
X136151033Y-118348939D01*
X136085028Y-118363933D01*
X136048657Y-118362001D01*
X136048628Y-118362000D01*
X136048622Y-118362000D01*
X134111378Y-118362000D01*
X134111370Y-118362000D01*
X134111347Y-118362001D01*
X134058756Y-118364795D01*
X134058755Y-118364795D01*
X133828878Y-118409254D01*
X133828876Y-118409254D01*
X133828874Y-118409255D01*
X133754933Y-118437159D01*
X133609810Y-118491925D01*
X133407868Y-118610429D01*
X133407861Y-118610434D01*
X133228858Y-118761356D01*
X133228856Y-118761358D01*
X133077934Y-118940361D01*
X133077929Y-118940368D01*
X132959425Y-119142310D01*
X132911427Y-119269500D01*
X132876755Y-119361374D01*
X132876754Y-119361376D01*
X132876754Y-119361378D01*
X132832295Y-119591255D01*
X132832295Y-119591256D01*
X132829501Y-119643847D01*
X132829500Y-119643886D01*
X132829500Y-121581113D01*
X132829501Y-121581152D01*
X132832295Y-121633743D01*
X132832295Y-121633744D01*
X132876754Y-121863621D01*
X132876755Y-121863626D01*
X132922661Y-121985269D01*
X132959425Y-122082689D01*
X133077929Y-122284631D01*
X133077934Y-122284638D01*
X133228856Y-122463641D01*
X133228858Y-122463643D01*
X133407861Y-122614565D01*
X133407868Y-122614570D01*
X133448739Y-122638554D01*
X133496596Y-122689461D01*
X133509333Y-122758160D01*
X133482907Y-122822839D01*
X133425707Y-122862964D01*
X133385981Y-122869500D01*
X128204500Y-122869500D01*
X128137461Y-122849815D01*
X128091706Y-122797011D01*
X128080500Y-122745500D01*
X128080500Y-114848303D01*
X130080000Y-114848303D01*
X130080000Y-115662500D01*
X131580000Y-115662500D01*
X131580000Y-116162500D01*
X130080001Y-116162500D01*
X130080001Y-116976697D01*
X130090400Y-117108832D01*
X130145377Y-117327019D01*
X130238428Y-117531874D01*
X130238431Y-117531880D01*
X130366559Y-117716823D01*
X130366569Y-117716835D01*
X130525664Y-117875930D01*
X130525676Y-117875940D01*
X130710619Y-118004068D01*
X130710625Y-118004071D01*
X130915480Y-118097122D01*
X131133667Y-118152099D01*
X131265810Y-118162499D01*
X131829999Y-118162499D01*
X131830000Y-118162498D01*
X131830000Y-117345512D01*
X131887007Y-117378425D01*
X132014174Y-117412500D01*
X132145826Y-117412500D01*
X132272993Y-117378425D01*
X132330000Y-117345512D01*
X132330000Y-118162499D01*
X132894182Y-118162499D01*
X132894197Y-118162498D01*
X133026332Y-118152099D01*
X133244519Y-118097122D01*
X133449374Y-118004071D01*
X133449380Y-118004068D01*
X133634323Y-117875940D01*
X133634335Y-117875930D01*
X133793430Y-117716835D01*
X133793440Y-117716823D01*
X133921568Y-117531880D01*
X133921571Y-117531874D01*
X134014622Y-117327019D01*
X134069599Y-117108832D01*
X134079999Y-116976696D01*
X134080000Y-116976684D01*
X134080000Y-116162500D01*
X132580000Y-116162500D01*
X132580000Y-115662500D01*
X134079999Y-115662500D01*
X134079999Y-114848317D01*
X134079998Y-114848302D01*
X134069599Y-114716167D01*
X134014622Y-114497980D01*
X133921571Y-114293125D01*
X133921568Y-114293119D01*
X133793440Y-114108176D01*
X133793430Y-114108164D01*
X133634335Y-113949069D01*
X133634323Y-113949059D01*
X133449380Y-113820931D01*
X133449374Y-113820928D01*
X133244519Y-113727877D01*
X133026332Y-113672900D01*
X132894196Y-113662500D01*
X132330000Y-113662500D01*
X132330000Y-114479488D01*
X132272993Y-114446575D01*
X132145826Y-114412500D01*
X132014174Y-114412500D01*
X131887007Y-114446575D01*
X131830000Y-114479488D01*
X131830000Y-113662500D01*
X131265817Y-113662500D01*
X131265802Y-113662501D01*
X131133667Y-113672900D01*
X130915480Y-113727877D01*
X130710625Y-113820928D01*
X130710619Y-113820931D01*
X130525676Y-113949059D01*
X130525664Y-113949069D01*
X130366569Y-114108164D01*
X130366559Y-114108176D01*
X130238431Y-114293119D01*
X130238428Y-114293125D01*
X130145377Y-114497980D01*
X130090400Y-114716167D01*
X130080000Y-114848303D01*
X128080500Y-114848303D01*
X128080500Y-102512436D01*
X144205608Y-102512436D01*
X144205608Y-102670129D01*
X144236369Y-102824772D01*
X144236372Y-102824784D01*
X144296710Y-102970455D01*
X144296717Y-102970468D01*
X144384318Y-103101571D01*
X144384321Y-103101575D01*
X144495815Y-103213069D01*
X144495819Y-103213072D01*
X144626922Y-103300673D01*
X144626935Y-103300680D01*
X144718947Y-103338792D01*
X144772611Y-103361020D01*
X144927261Y-103391782D01*
X144927264Y-103391783D01*
X144927266Y-103391783D01*
X145084952Y-103391783D01*
X145084953Y-103391782D01*
X145239605Y-103361020D01*
X145382173Y-103301967D01*
X145385280Y-103300680D01*
X145385280Y-103300679D01*
X145385287Y-103300677D01*
X145385293Y-103300673D01*
X145503937Y-103221398D01*
X145521983Y-103215747D01*
X145537893Y-103205523D01*
X145568854Y-103201071D01*
X145570615Y-103200520D01*
X145572828Y-103200500D01*
X145699903Y-103200500D01*
X145766942Y-103220185D01*
X145787584Y-103236819D01*
X161858583Y-119307819D01*
X161892068Y-119369142D01*
X161887084Y-119438834D01*
X161845212Y-119494767D01*
X161779748Y-119519184D01*
X161776045Y-119519316D01*
X161773715Y-119519499D01*
X161563760Y-119552753D01*
X161361585Y-119618444D01*
X161172179Y-119714951D01*
X161000213Y-119839890D01*
X160849890Y-119990213D01*
X160724949Y-120162182D01*
X160720484Y-120170946D01*
X160672509Y-120221742D01*
X160604688Y-120238536D01*
X160538553Y-120215998D01*
X160499516Y-120170946D01*
X160495050Y-120162182D01*
X160370109Y-119990213D01*
X160219786Y-119839890D01*
X160047820Y-119714951D01*
X159858414Y-119618444D01*
X159858413Y-119618443D01*
X159858412Y-119618443D01*
X159656243Y-119552754D01*
X159656241Y-119552753D01*
X159656240Y-119552753D01*
X159494957Y-119527208D01*
X159446287Y-119519500D01*
X159233713Y-119519500D01*
X159185042Y-119527208D01*
X159023760Y-119552753D01*
X158821585Y-119618444D01*
X158632179Y-119714951D01*
X158460215Y-119839889D01*
X158346673Y-119953431D01*
X158285350Y-119986915D01*
X158215658Y-119981931D01*
X158159725Y-119940059D01*
X158142810Y-119909082D01*
X158093797Y-119777671D01*
X158093793Y-119777664D01*
X158007547Y-119662455D01*
X158007544Y-119662452D01*
X157892335Y-119576206D01*
X157892328Y-119576202D01*
X157757482Y-119525908D01*
X157757483Y-119525908D01*
X157697883Y-119519501D01*
X157697881Y-119519500D01*
X157697873Y-119519500D01*
X157697864Y-119519500D01*
X155902129Y-119519500D01*
X155902123Y-119519501D01*
X155842516Y-119525908D01*
X155707671Y-119576202D01*
X155707664Y-119576206D01*
X155592455Y-119662452D01*
X155592452Y-119662455D01*
X155506206Y-119777664D01*
X155506202Y-119777671D01*
X155455908Y-119912517D01*
X155449501Y-119972116D01*
X155449500Y-119972135D01*
X155449500Y-121767870D01*
X155449501Y-121767876D01*
X155455908Y-121827483D01*
X155506202Y-121962328D01*
X155506206Y-121962335D01*
X155592452Y-122077544D01*
X155592455Y-122077547D01*
X155707664Y-122163793D01*
X155707671Y-122163797D01*
X155842517Y-122214091D01*
X155842516Y-122214091D01*
X155849444Y-122214835D01*
X155902127Y-122220500D01*
X157697872Y-122220499D01*
X157757483Y-122214091D01*
X157892331Y-122163796D01*
X158007546Y-122077546D01*
X158093796Y-121962331D01*
X158142810Y-121830916D01*
X158184681Y-121774984D01*
X158250145Y-121750566D01*
X158318418Y-121765417D01*
X158346673Y-121786569D01*
X158460213Y-121900109D01*
X158632179Y-122025048D01*
X158632181Y-122025049D01*
X158632184Y-122025051D01*
X158821588Y-122121557D01*
X159023757Y-122187246D01*
X159233713Y-122220500D01*
X159233714Y-122220500D01*
X159446286Y-122220500D01*
X159446287Y-122220500D01*
X159656243Y-122187246D01*
X159858412Y-122121557D01*
X160047816Y-122025051D01*
X160134138Y-121962335D01*
X160219786Y-121900109D01*
X160219788Y-121900106D01*
X160219792Y-121900104D01*
X160370104Y-121749792D01*
X160370106Y-121749788D01*
X160370109Y-121749786D01*
X160495048Y-121577820D01*
X160495047Y-121577820D01*
X160495051Y-121577816D01*
X160499514Y-121569054D01*
X160547488Y-121518259D01*
X160615308Y-121501463D01*
X160681444Y-121523999D01*
X160720486Y-121569056D01*
X160724951Y-121577820D01*
X160849890Y-121749786D01*
X161000213Y-121900109D01*
X161172179Y-122025048D01*
X161172181Y-122025049D01*
X161172184Y-122025051D01*
X161361588Y-122121557D01*
X161563757Y-122187246D01*
X161773713Y-122220500D01*
X161773714Y-122220500D01*
X161986286Y-122220500D01*
X161986287Y-122220500D01*
X162196243Y-122187246D01*
X162398412Y-122121557D01*
X162587816Y-122025051D01*
X162674138Y-121962335D01*
X162759786Y-121900109D01*
X162759788Y-121900106D01*
X162759792Y-121900104D01*
X162910104Y-121749792D01*
X162910106Y-121749788D01*
X162910109Y-121749786D01*
X163035048Y-121577820D01*
X163035047Y-121577820D01*
X163035051Y-121577816D01*
X163039514Y-121569054D01*
X163087488Y-121518259D01*
X163155308Y-121501463D01*
X163221444Y-121523999D01*
X163260486Y-121569056D01*
X163264951Y-121577820D01*
X163389890Y-121749786D01*
X163540213Y-121900109D01*
X163712179Y-122025048D01*
X163712181Y-122025049D01*
X163712184Y-122025051D01*
X163901588Y-122121557D01*
X164103757Y-122187246D01*
X164313713Y-122220500D01*
X164313714Y-122220500D01*
X164526286Y-122220500D01*
X164526287Y-122220500D01*
X164736243Y-122187246D01*
X164938412Y-122121557D01*
X165127816Y-122025051D01*
X165214138Y-121962335D01*
X165299786Y-121900109D01*
X165299788Y-121900106D01*
X165299792Y-121900104D01*
X165450104Y-121749792D01*
X165450106Y-121749788D01*
X165450109Y-121749786D01*
X165575048Y-121577820D01*
X165575047Y-121577820D01*
X165575051Y-121577816D01*
X165579514Y-121569054D01*
X165627488Y-121518259D01*
X165695308Y-121501463D01*
X165761444Y-121523999D01*
X165800486Y-121569056D01*
X165804951Y-121577820D01*
X165929890Y-121749786D01*
X166080213Y-121900109D01*
X166252179Y-122025048D01*
X166252181Y-122025049D01*
X166252184Y-122025051D01*
X166441588Y-122121557D01*
X166643757Y-122187246D01*
X166853713Y-122220500D01*
X166853714Y-122220500D01*
X167066286Y-122220500D01*
X167066287Y-122220500D01*
X167276243Y-122187246D01*
X167478412Y-122121557D01*
X167667816Y-122025051D01*
X167754138Y-121962335D01*
X167839786Y-121900109D01*
X167839788Y-121900106D01*
X167839792Y-121900104D01*
X167990104Y-121749792D01*
X167990106Y-121749788D01*
X167990109Y-121749786D01*
X168075890Y-121631717D01*
X168115051Y-121577816D01*
X168119793Y-121568508D01*
X168167763Y-121517711D01*
X168235583Y-121500911D01*
X168301719Y-121523445D01*
X168340763Y-121568500D01*
X168345373Y-121577547D01*
X168384728Y-121631716D01*
X169017037Y-120999408D01*
X169034075Y-121062993D01*
X169099901Y-121177007D01*
X169192993Y-121270099D01*
X169307007Y-121335925D01*
X169370590Y-121352962D01*
X168738282Y-121985269D01*
X168738282Y-121985270D01*
X168792449Y-122024624D01*
X168981782Y-122121095D01*
X169183870Y-122186757D01*
X169393754Y-122220000D01*
X169606246Y-122220000D01*
X169816127Y-122186757D01*
X169816130Y-122186757D01*
X170018217Y-122121095D01*
X170207554Y-122024622D01*
X170261716Y-121985270D01*
X170261717Y-121985270D01*
X169629408Y-121352962D01*
X169692993Y-121335925D01*
X169807007Y-121270099D01*
X169900099Y-121177007D01*
X169965925Y-121062993D01*
X169982962Y-120999409D01*
X170615270Y-121631717D01*
X170615270Y-121631716D01*
X170654622Y-121577554D01*
X170659514Y-121567954D01*
X170707488Y-121517157D01*
X170775308Y-121500361D01*
X170841444Y-121522897D01*
X170880486Y-121567954D01*
X170885375Y-121577550D01*
X170924728Y-121631716D01*
X171557037Y-120999408D01*
X171574075Y-121062993D01*
X171639901Y-121177007D01*
X171732993Y-121270099D01*
X171847007Y-121335925D01*
X171910590Y-121352962D01*
X171278282Y-121985269D01*
X171278282Y-121985270D01*
X171332449Y-122024624D01*
X171521782Y-122121095D01*
X171723870Y-122186757D01*
X171933754Y-122220000D01*
X172146246Y-122220000D01*
X172356127Y-122186757D01*
X172356130Y-122186757D01*
X172558217Y-122121095D01*
X172747554Y-122024622D01*
X172801716Y-121985270D01*
X172801717Y-121985270D01*
X172169408Y-121352962D01*
X172232993Y-121335925D01*
X172347007Y-121270099D01*
X172440099Y-121177007D01*
X172505925Y-121062993D01*
X172522962Y-120999408D01*
X173155270Y-121631717D01*
X173155270Y-121631716D01*
X173194622Y-121577555D01*
X173199232Y-121568507D01*
X173247205Y-121517709D01*
X173315025Y-121500912D01*
X173381161Y-121523447D01*
X173420204Y-121568504D01*
X173424949Y-121577817D01*
X173549890Y-121749786D01*
X173700213Y-121900109D01*
X173872179Y-122025048D01*
X173872181Y-122025049D01*
X173872184Y-122025051D01*
X174061588Y-122121557D01*
X174263757Y-122187246D01*
X174473713Y-122220500D01*
X174473714Y-122220500D01*
X174686286Y-122220500D01*
X174686287Y-122220500D01*
X174896243Y-122187246D01*
X175098412Y-122121557D01*
X175287816Y-122025051D01*
X175374138Y-121962335D01*
X175459786Y-121900109D01*
X175459788Y-121900106D01*
X175459792Y-121900104D01*
X175610104Y-121749792D01*
X175610106Y-121749788D01*
X175610109Y-121749786D01*
X175735048Y-121577820D01*
X175735047Y-121577820D01*
X175735051Y-121577816D01*
X175831557Y-121388412D01*
X175897246Y-121186243D01*
X175930500Y-120976287D01*
X175930500Y-120763713D01*
X175897246Y-120553757D01*
X175831557Y-120351588D01*
X175735051Y-120162184D01*
X175735049Y-120162181D01*
X175735048Y-120162179D01*
X175610109Y-119990213D01*
X175459786Y-119839890D01*
X175287820Y-119714951D01*
X175098414Y-119618444D01*
X175098413Y-119618443D01*
X175098412Y-119618443D01*
X174896243Y-119552754D01*
X174896241Y-119552753D01*
X174896240Y-119552753D01*
X174734957Y-119527208D01*
X174686287Y-119519500D01*
X174473713Y-119519500D01*
X174425042Y-119527208D01*
X174263760Y-119552753D01*
X174061585Y-119618444D01*
X173872179Y-119714951D01*
X173700213Y-119839890D01*
X173549890Y-119990213D01*
X173424949Y-120162182D01*
X173420202Y-120171499D01*
X173372227Y-120222293D01*
X173304405Y-120239087D01*
X173238271Y-120216548D01*
X173199234Y-120171495D01*
X173194626Y-120162452D01*
X173155270Y-120108282D01*
X173155269Y-120108282D01*
X172522962Y-120740590D01*
X172505925Y-120677007D01*
X172440099Y-120562993D01*
X172347007Y-120469901D01*
X172232993Y-120404075D01*
X172169409Y-120387037D01*
X172801716Y-119754728D01*
X172747550Y-119715375D01*
X172558217Y-119618904D01*
X172356129Y-119553242D01*
X172146246Y-119520000D01*
X171933754Y-119520000D01*
X171723872Y-119553242D01*
X171723869Y-119553242D01*
X171521782Y-119618904D01*
X171332439Y-119715380D01*
X171278282Y-119754727D01*
X171278282Y-119754728D01*
X171910591Y-120387037D01*
X171847007Y-120404075D01*
X171732993Y-120469901D01*
X171639901Y-120562993D01*
X171574075Y-120677007D01*
X171557037Y-120740591D01*
X170924728Y-120108282D01*
X170924727Y-120108282D01*
X170885380Y-120162440D01*
X170880483Y-120172051D01*
X170832506Y-120222845D01*
X170764684Y-120239638D01*
X170698550Y-120217098D01*
X170659516Y-120172048D01*
X170654626Y-120162452D01*
X170615270Y-120108282D01*
X170615269Y-120108282D01*
X169982962Y-120740590D01*
X169965925Y-120677007D01*
X169900099Y-120562993D01*
X169807007Y-120469901D01*
X169692993Y-120404075D01*
X169629409Y-120387037D01*
X170261716Y-119754728D01*
X170207550Y-119715375D01*
X170018217Y-119618904D01*
X169816129Y-119553242D01*
X169606246Y-119520000D01*
X169393754Y-119520000D01*
X169183872Y-119553242D01*
X169183869Y-119553242D01*
X168981782Y-119618904D01*
X168792439Y-119715380D01*
X168738282Y-119754727D01*
X168738282Y-119754728D01*
X169370591Y-120387037D01*
X169307007Y-120404075D01*
X169192993Y-120469901D01*
X169099901Y-120562993D01*
X169034075Y-120677007D01*
X169017037Y-120740591D01*
X168384728Y-120108282D01*
X168384727Y-120108282D01*
X168345380Y-120162440D01*
X168345376Y-120162446D01*
X168340760Y-120171505D01*
X168292781Y-120222297D01*
X168224959Y-120239087D01*
X168158826Y-120216543D01*
X168119794Y-120171493D01*
X168115051Y-120162184D01*
X168115049Y-120162181D01*
X168115048Y-120162179D01*
X167990109Y-119990213D01*
X167839786Y-119839890D01*
X167667820Y-119714951D01*
X167478414Y-119618444D01*
X167478413Y-119618443D01*
X167478412Y-119618443D01*
X167276243Y-119552754D01*
X167276241Y-119552753D01*
X167276240Y-119552753D01*
X167114957Y-119527208D01*
X167066287Y-119519500D01*
X166853713Y-119519500D01*
X166805042Y-119527208D01*
X166643760Y-119552753D01*
X166441585Y-119618444D01*
X166252179Y-119714951D01*
X166080213Y-119839890D01*
X165929890Y-119990213D01*
X165804949Y-120162182D01*
X165800484Y-120170946D01*
X165752509Y-120221742D01*
X165684688Y-120238536D01*
X165618553Y-120215998D01*
X165579516Y-120170946D01*
X165575050Y-120162182D01*
X165450109Y-119990213D01*
X165299786Y-119839890D01*
X165127820Y-119714951D01*
X164938414Y-119618444D01*
X164938413Y-119618443D01*
X164938412Y-119618443D01*
X164736243Y-119552754D01*
X164736241Y-119552753D01*
X164736240Y-119552753D01*
X164574957Y-119527208D01*
X164526287Y-119519500D01*
X164313713Y-119519500D01*
X164274202Y-119525757D01*
X164103759Y-119552753D01*
X163948262Y-119603277D01*
X163878420Y-119605272D01*
X163822263Y-119573027D01*
X146487590Y-102238355D01*
X146487588Y-102238352D01*
X146368717Y-102119481D01*
X146368709Y-102119475D01*
X146251335Y-102051710D01*
X146251332Y-102051709D01*
X146231785Y-102040423D01*
X146079057Y-101999499D01*
X145920943Y-101999499D01*
X145913347Y-101999499D01*
X145913331Y-101999500D01*
X145597328Y-101999500D01*
X145530289Y-101979815D01*
X145518665Y-101971355D01*
X145516396Y-101969493D01*
X145385293Y-101881892D01*
X145385280Y-101881885D01*
X145239609Y-101821547D01*
X145239597Y-101821544D01*
X145084953Y-101790783D01*
X145084950Y-101790783D01*
X144927266Y-101790783D01*
X144927263Y-101790783D01*
X144772618Y-101821544D01*
X144772606Y-101821547D01*
X144626935Y-101881885D01*
X144626922Y-101881892D01*
X144495819Y-101969493D01*
X144495815Y-101969496D01*
X144384321Y-102080990D01*
X144384318Y-102080994D01*
X144296717Y-102212097D01*
X144296710Y-102212110D01*
X144236372Y-102357781D01*
X144236369Y-102357793D01*
X144205608Y-102512436D01*
X128080500Y-102512436D01*
X128080500Y-94453516D01*
X130421500Y-94453516D01*
X130421500Y-94736483D01*
X130445814Y-94921155D01*
X130458433Y-95017006D01*
X130475003Y-95078846D01*
X130531665Y-95290314D01*
X130639944Y-95551721D01*
X130639948Y-95551731D01*
X130781421Y-95796770D01*
X130953670Y-96021249D01*
X130953676Y-96021256D01*
X131153743Y-96221323D01*
X131153750Y-96221329D01*
X131378229Y-96393578D01*
X131623268Y-96535051D01*
X131623269Y-96535051D01*
X131623272Y-96535053D01*
X131884684Y-96643334D01*
X132157994Y-96716567D01*
X132438524Y-96753500D01*
X132438531Y-96753500D01*
X132721469Y-96753500D01*
X132721476Y-96753500D01*
X133002006Y-96716567D01*
X133142007Y-96679054D01*
X139799498Y-96679054D01*
X139840423Y-96831787D01*
X139840424Y-96831788D01*
X139862198Y-96869501D01*
X139919475Y-96968709D01*
X139919481Y-96968717D01*
X140038349Y-97087585D01*
X140038355Y-97087590D01*
X141965425Y-99014660D01*
X141998910Y-99075983D01*
X141999361Y-99078149D01*
X142030261Y-99233491D01*
X142030264Y-99233501D01*
X142090602Y-99379172D01*
X142090609Y-99379185D01*
X142178210Y-99510288D01*
X142178213Y-99510292D01*
X142289707Y-99621786D01*
X142289711Y-99621789D01*
X142420814Y-99709390D01*
X142420827Y-99709397D01*
X142523930Y-99752103D01*
X142566503Y-99769737D01*
X142721153Y-99800499D01*
X142721156Y-99800500D01*
X142721158Y-99800500D01*
X142878844Y-99800500D01*
X142878845Y-99800499D01*
X143033497Y-99769737D01*
X143179179Y-99709394D01*
X143310289Y-99621789D01*
X143421789Y-99510289D01*
X143509394Y-99379179D01*
X143569737Y-99233497D01*
X143600500Y-99078842D01*
X143600500Y-98921158D01*
X143600500Y-98921155D01*
X143600499Y-98921153D01*
X143569737Y-98766503D01*
X143550955Y-98721158D01*
X143509397Y-98620827D01*
X143509390Y-98620814D01*
X143421789Y-98489711D01*
X143421786Y-98489707D01*
X143310292Y-98378213D01*
X143310288Y-98378210D01*
X143179185Y-98290609D01*
X143179172Y-98290602D01*
X143033501Y-98230264D01*
X143033491Y-98230261D01*
X142878151Y-98199362D01*
X142861394Y-98190596D01*
X142842916Y-98186577D01*
X142817877Y-98167832D01*
X142816241Y-98166977D01*
X142814662Y-98165426D01*
X142670813Y-98021577D01*
X146139500Y-98021577D01*
X146139500Y-98218422D01*
X146170290Y-98412826D01*
X146231117Y-98600029D01*
X146308106Y-98751128D01*
X146320476Y-98775405D01*
X146436172Y-98934646D01*
X146575354Y-99073828D01*
X146734595Y-99189524D01*
X146817455Y-99231743D01*
X146909970Y-99278882D01*
X146909972Y-99278882D01*
X146909975Y-99278884D01*
X147006629Y-99310289D01*
X147097173Y-99339709D01*
X147291578Y-99370500D01*
X147291583Y-99370500D01*
X147488422Y-99370500D01*
X147682826Y-99339709D01*
X147707850Y-99331578D01*
X147870025Y-99278884D01*
X148045405Y-99189524D01*
X148204646Y-99073828D01*
X148343828Y-98934646D01*
X148459524Y-98775405D01*
X148548884Y-98600025D01*
X148609709Y-98412826D01*
X148615191Y-98378213D01*
X148640500Y-98218422D01*
X148640500Y-98021577D01*
X151019500Y-98021577D01*
X151019500Y-98218422D01*
X151050290Y-98412826D01*
X151111117Y-98600029D01*
X151188106Y-98751128D01*
X151200476Y-98775405D01*
X151316172Y-98934646D01*
X151455354Y-99073828D01*
X151614595Y-99189524D01*
X151697455Y-99231743D01*
X151789970Y-99278882D01*
X151789972Y-99278882D01*
X151789975Y-99278884D01*
X151886629Y-99310289D01*
X151977173Y-99339709D01*
X152171578Y-99370500D01*
X152171583Y-99370500D01*
X152368422Y-99370500D01*
X152562826Y-99339709D01*
X152587850Y-99331578D01*
X152750025Y-99278884D01*
X152925405Y-99189524D01*
X153084646Y-99073828D01*
X153223828Y-98934646D01*
X153339524Y-98775405D01*
X153428884Y-98600025D01*
X153489709Y-98412826D01*
X153495191Y-98378213D01*
X153520500Y-98218422D01*
X153520500Y-98021577D01*
X153489709Y-97827173D01*
X153435896Y-97661555D01*
X153428884Y-97639975D01*
X153428882Y-97639972D01*
X153428882Y-97639970D01*
X153339521Y-97464590D01*
X153290753Y-97397469D01*
X153252435Y-97344728D01*
X153240985Y-97312639D01*
X153229069Y-97280695D01*
X153229265Y-97279793D01*
X153228955Y-97278924D01*
X153236670Y-97245744D01*
X153243918Y-97212421D01*
X153244645Y-97211449D01*
X153244780Y-97210870D01*
X153265061Y-97184174D01*
X153280520Y-97168716D01*
X153280521Y-97168713D01*
X155614662Y-94834572D01*
X155675983Y-94801089D01*
X155678150Y-94800638D01*
X155736085Y-94789113D01*
X155833497Y-94769737D01*
X155950790Y-94721153D01*
X155979172Y-94709397D01*
X155979172Y-94709396D01*
X155979179Y-94709394D01*
X156110289Y-94621789D01*
X156221789Y-94510289D01*
X156309394Y-94379179D01*
X156369737Y-94233497D01*
X156400500Y-94078842D01*
X156400500Y-93921158D01*
X156400500Y-93921155D01*
X156400499Y-93921153D01*
X156397407Y-93905611D01*
X156369737Y-93766503D01*
X156316625Y-93638278D01*
X156309397Y-93620827D01*
X156309390Y-93620814D01*
X156221789Y-93489711D01*
X156221786Y-93489707D01*
X156110292Y-93378213D01*
X156110288Y-93378210D01*
X155979185Y-93290609D01*
X155979172Y-93290602D01*
X155833501Y-93230264D01*
X155833489Y-93230261D01*
X155678845Y-93199500D01*
X155678842Y-93199500D01*
X155521158Y-93199500D01*
X155521155Y-93199500D01*
X155366510Y-93230261D01*
X155366498Y-93230264D01*
X155220827Y-93290602D01*
X155220814Y-93290609D01*
X155089711Y-93378210D01*
X155089707Y-93378213D01*
X154978213Y-93489707D01*
X154978210Y-93489711D01*
X154890609Y-93620814D01*
X154890602Y-93620827D01*
X154830264Y-93766498D01*
X154830261Y-93766508D01*
X154799361Y-93921850D01*
X154766976Y-93983761D01*
X154765425Y-93985339D01*
X152715528Y-96035235D01*
X152654205Y-96068720D01*
X152584513Y-96063736D01*
X152580416Y-96062123D01*
X152503497Y-96030263D01*
X152503489Y-96030261D01*
X152348845Y-95999500D01*
X152348842Y-95999500D01*
X152191158Y-95999500D01*
X152191155Y-95999500D01*
X152036510Y-96030261D01*
X152036498Y-96030264D01*
X151890827Y-96090602D01*
X151890814Y-96090609D01*
X151759711Y-96178210D01*
X151759707Y-96178213D01*
X151648213Y-96289707D01*
X151648210Y-96289711D01*
X151560609Y-96420814D01*
X151560602Y-96420827D01*
X151500264Y-96566498D01*
X151500261Y-96566510D01*
X151469500Y-96721153D01*
X151469500Y-96878846D01*
X151501451Y-97039472D01*
X151499594Y-97039841D01*
X151500137Y-97100903D01*
X151462886Y-97160014D01*
X151457641Y-97164218D01*
X151455351Y-97166174D01*
X151316174Y-97305351D01*
X151316174Y-97305352D01*
X151316172Y-97305354D01*
X151301059Y-97326155D01*
X151200476Y-97464594D01*
X151111117Y-97639970D01*
X151050290Y-97827173D01*
X151019500Y-98021577D01*
X148640500Y-98021577D01*
X148609709Y-97827173D01*
X148555896Y-97661555D01*
X148548884Y-97639975D01*
X148548882Y-97639972D01*
X148548882Y-97639970D01*
X148459523Y-97464594D01*
X148459520Y-97464590D01*
X148343828Y-97305354D01*
X148204646Y-97166172D01*
X148123001Y-97106853D01*
X148041614Y-97047721D01*
X148038273Y-97043388D01*
X148033297Y-97041116D01*
X148017164Y-97016013D01*
X147998949Y-96992390D01*
X147997696Y-96985719D01*
X147995523Y-96982338D01*
X147990500Y-96947403D01*
X147990500Y-96710097D01*
X148010185Y-96643058D01*
X148026819Y-96622416D01*
X148412416Y-96236819D01*
X148814662Y-95834572D01*
X148875983Y-95801089D01*
X148878150Y-95800638D01*
X148936085Y-95789113D01*
X149033497Y-95769737D01*
X149179179Y-95709394D01*
X149310289Y-95621789D01*
X149421789Y-95510289D01*
X149509394Y-95379179D01*
X149569737Y-95233497D01*
X149600500Y-95078842D01*
X149600500Y-94921158D01*
X149600500Y-94921155D01*
X149600499Y-94921153D01*
X149594422Y-94890602D01*
X149569737Y-94766503D01*
X149569735Y-94766498D01*
X149509397Y-94620827D01*
X149509390Y-94620814D01*
X149421789Y-94489711D01*
X149421786Y-94489707D01*
X149310292Y-94378213D01*
X149310288Y-94378210D01*
X149179185Y-94290609D01*
X149179172Y-94290602D01*
X149033501Y-94230264D01*
X149033489Y-94230261D01*
X148878845Y-94199500D01*
X148878842Y-94199500D01*
X148721158Y-94199500D01*
X148721155Y-94199500D01*
X148566510Y-94230261D01*
X148566498Y-94230264D01*
X148420827Y-94290602D01*
X148420814Y-94290609D01*
X148289711Y-94378210D01*
X148289707Y-94378213D01*
X148178213Y-94489707D01*
X148178210Y-94489711D01*
X148090609Y-94620814D01*
X148090602Y-94620827D01*
X148030264Y-94766498D01*
X148030261Y-94766508D01*
X147999361Y-94921850D01*
X147966976Y-94983761D01*
X147965425Y-94985339D01*
X146909481Y-96041282D01*
X146909480Y-96041284D01*
X146869202Y-96111048D01*
X146830423Y-96178215D01*
X146789499Y-96330943D01*
X146789499Y-96330945D01*
X146789499Y-96499046D01*
X146789500Y-96499059D01*
X146789500Y-96947403D01*
X146769815Y-97014442D01*
X146738386Y-97047721D01*
X146575352Y-97166173D01*
X146436174Y-97305351D01*
X146436174Y-97305352D01*
X146436172Y-97305354D01*
X146421059Y-97326155D01*
X146320476Y-97464594D01*
X146231117Y-97639970D01*
X146170290Y-97827173D01*
X146139500Y-98021577D01*
X142670813Y-98021577D01*
X141036819Y-96387583D01*
X141003334Y-96326260D01*
X141000500Y-96299902D01*
X141000500Y-93286555D01*
X141020185Y-93219516D01*
X141072989Y-93173761D01*
X141142147Y-93163817D01*
X141160411Y-93168840D01*
X141160676Y-93167969D01*
X141166492Y-93169732D01*
X141166503Y-93169737D01*
X141231147Y-93182595D01*
X141321849Y-93200638D01*
X141383760Y-93233023D01*
X141385338Y-93234573D01*
X143431284Y-95280520D01*
X143431286Y-95280521D01*
X143431290Y-95280524D01*
X143495635Y-95317673D01*
X143568216Y-95359577D01*
X143720943Y-95400501D01*
X143720945Y-95400501D01*
X143886654Y-95400501D01*
X143886670Y-95400500D01*
X145220234Y-95400500D01*
X145287273Y-95420185D01*
X145289125Y-95421398D01*
X145420814Y-95509390D01*
X145420827Y-95509397D01*
X145516673Y-95549097D01*
X145566503Y-95569737D01*
X145721153Y-95600499D01*
X145721156Y-95600500D01*
X145721158Y-95600500D01*
X145878844Y-95600500D01*
X145878845Y-95600499D01*
X146033497Y-95569737D01*
X146172576Y-95512129D01*
X146179172Y-95509397D01*
X146179172Y-95509396D01*
X146179179Y-95509394D01*
X146310289Y-95421789D01*
X146421789Y-95310289D01*
X146509394Y-95179179D01*
X146515080Y-95165453D01*
X146523067Y-95146166D01*
X146569737Y-95033497D01*
X146600500Y-94878842D01*
X146600500Y-94721158D01*
X146600500Y-94721155D01*
X146600499Y-94721153D01*
X146598159Y-94709390D01*
X146569737Y-94566503D01*
X146546452Y-94510288D01*
X146509397Y-94420827D01*
X146509390Y-94420814D01*
X146421789Y-94289711D01*
X146421786Y-94289707D01*
X146310292Y-94178213D01*
X146310288Y-94178210D01*
X146179185Y-94090609D01*
X146179172Y-94090602D01*
X146033501Y-94030264D01*
X146033489Y-94030261D01*
X145878845Y-93999500D01*
X145878842Y-93999500D01*
X145721158Y-93999500D01*
X145721155Y-93999500D01*
X145566510Y-94030261D01*
X145566498Y-94030264D01*
X145420827Y-94090602D01*
X145420814Y-94090609D01*
X145289125Y-94178602D01*
X145222447Y-94199480D01*
X145220234Y-94199500D01*
X144100098Y-94199500D01*
X144033059Y-94179815D01*
X144012417Y-94163181D01*
X143061417Y-93212181D01*
X143027932Y-93150858D01*
X143032916Y-93081166D01*
X143074788Y-93025233D01*
X143140252Y-93000816D01*
X143149098Y-93000500D01*
X143278844Y-93000500D01*
X143278845Y-93000499D01*
X143433497Y-92969737D01*
X143579179Y-92909394D01*
X143710289Y-92821789D01*
X143821789Y-92710289D01*
X143909394Y-92579179D01*
X143969737Y-92433497D01*
X144000500Y-92278842D01*
X144000500Y-92121158D01*
X144000500Y-92121155D01*
X144000499Y-92121153D01*
X143990196Y-92069358D01*
X143969737Y-91966503D01*
X143937929Y-91889711D01*
X143909397Y-91820827D01*
X143909390Y-91820814D01*
X143821789Y-91689711D01*
X143821786Y-91689707D01*
X143710292Y-91578213D01*
X143710288Y-91578210D01*
X143579185Y-91490609D01*
X143579172Y-91490602D01*
X143433501Y-91430264D01*
X143433489Y-91430261D01*
X143278845Y-91399500D01*
X143278842Y-91399500D01*
X143121158Y-91399500D01*
X143121155Y-91399500D01*
X142966510Y-91430261D01*
X142966498Y-91430264D01*
X142820827Y-91490602D01*
X142820814Y-91490609D01*
X142689711Y-91578210D01*
X142689707Y-91578213D01*
X142578213Y-91689707D01*
X142578210Y-91689711D01*
X142490609Y-91820814D01*
X142490602Y-91820827D01*
X142430264Y-91966498D01*
X142430261Y-91966508D01*
X142398613Y-92125613D01*
X142366228Y-92187524D01*
X142305512Y-92222098D01*
X142235743Y-92218358D01*
X142179071Y-92177491D01*
X142162435Y-92148873D01*
X142109397Y-92020827D01*
X142109390Y-92020814D01*
X142021789Y-91889711D01*
X142021786Y-91889707D01*
X141910292Y-91778213D01*
X141910288Y-91778210D01*
X141779185Y-91690609D01*
X141779172Y-91690602D01*
X141633501Y-91630264D01*
X141633489Y-91630261D01*
X141478845Y-91599500D01*
X141478842Y-91599500D01*
X141321158Y-91599500D01*
X141321155Y-91599500D01*
X141166510Y-91630261D01*
X141160676Y-91632031D01*
X141159873Y-91629385D01*
X141139114Y-91631543D01*
X141106853Y-91636182D01*
X141104561Y-91635135D01*
X141102056Y-91635396D01*
X141072959Y-91620703D01*
X141043297Y-91607157D01*
X141041934Y-91605036D01*
X141039687Y-91603902D01*
X141023152Y-91575811D01*
X141005523Y-91548379D01*
X141005043Y-91545046D01*
X141004245Y-91543689D01*
X141000500Y-91513444D01*
X141000500Y-91500097D01*
X141020185Y-91433058D01*
X141036819Y-91412416D01*
X141208331Y-91240904D01*
X141414665Y-91034570D01*
X141475984Y-91001088D01*
X141478151Y-91000637D01*
X141478840Y-91000500D01*
X141478842Y-91000500D01*
X141633497Y-90969737D01*
X141779179Y-90909394D01*
X141910289Y-90821789D01*
X142021789Y-90710289D01*
X142109394Y-90579179D01*
X142113728Y-90568717D01*
X142148429Y-90484940D01*
X142169737Y-90433497D01*
X142200500Y-90278842D01*
X142200500Y-90121158D01*
X142200500Y-90121155D01*
X142200499Y-90121153D01*
X142192003Y-90078443D01*
X142169737Y-89966503D01*
X142150392Y-89919800D01*
X142109397Y-89820827D01*
X142109390Y-89820814D01*
X142021789Y-89689711D01*
X142021786Y-89689707D01*
X141910292Y-89578213D01*
X141910288Y-89578210D01*
X141779185Y-89490609D01*
X141779172Y-89490602D01*
X141633501Y-89430264D01*
X141633489Y-89430261D01*
X141478845Y-89399500D01*
X141478842Y-89399500D01*
X141321158Y-89399500D01*
X141321155Y-89399500D01*
X141166510Y-89430261D01*
X141166498Y-89430264D01*
X141020827Y-89490602D01*
X141020814Y-89490609D01*
X140889711Y-89578210D01*
X140889707Y-89578213D01*
X140778213Y-89689707D01*
X140778210Y-89689711D01*
X140690609Y-89820814D01*
X140690602Y-89820827D01*
X140630264Y-89966498D01*
X140630261Y-89966508D01*
X140599362Y-90121848D01*
X140566977Y-90183759D01*
X140565426Y-90185337D01*
X140033631Y-90717132D01*
X140033622Y-90717141D01*
X140031286Y-90719478D01*
X140031284Y-90719480D01*
X139919480Y-90831284D01*
X139905161Y-90856086D01*
X139898678Y-90867314D01*
X139898676Y-90867317D01*
X139840424Y-90968213D01*
X139840423Y-90968215D01*
X139799499Y-91120943D01*
X139799499Y-91279057D01*
X139799499Y-91279059D01*
X139799500Y-91289053D01*
X139799500Y-96513330D01*
X139799499Y-96513348D01*
X139799499Y-96679054D01*
X139799498Y-96679054D01*
X133142007Y-96679054D01*
X133275316Y-96643334D01*
X133536728Y-96535053D01*
X133781771Y-96393578D01*
X134006251Y-96221328D01*
X134206328Y-96021251D01*
X134378578Y-95796771D01*
X134520053Y-95551728D01*
X134628334Y-95290316D01*
X134701567Y-95017006D01*
X134738500Y-94736476D01*
X134738500Y-94453524D01*
X134701567Y-94172994D01*
X134628334Y-93899684D01*
X134520053Y-93638272D01*
X134517298Y-93633501D01*
X134378578Y-93393229D01*
X134206329Y-93168750D01*
X134206323Y-93168743D01*
X134006256Y-92968676D01*
X134006249Y-92968670D01*
X133781770Y-92796421D01*
X133536731Y-92654948D01*
X133536721Y-92654944D01*
X133275314Y-92546665D01*
X133045365Y-92485051D01*
X133002006Y-92473433D01*
X132966939Y-92468816D01*
X132721483Y-92436500D01*
X132721476Y-92436500D01*
X132438524Y-92436500D01*
X132438516Y-92436500D01*
X132157994Y-92473433D01*
X131884685Y-92546665D01*
X131623278Y-92654944D01*
X131623268Y-92654948D01*
X131378229Y-92796421D01*
X131153750Y-92968670D01*
X131153743Y-92968676D01*
X130953676Y-93168743D01*
X130953670Y-93168750D01*
X130781421Y-93393229D01*
X130639948Y-93638268D01*
X130639944Y-93638278D01*
X130531665Y-93899685D01*
X130458433Y-94172994D01*
X130421500Y-94453516D01*
X128080500Y-94453516D01*
X128080500Y-73989820D01*
X128100185Y-73922781D01*
X128152989Y-73877026D01*
X128203564Y-73865824D01*
X130318809Y-73849920D01*
X130385993Y-73869099D01*
X130432144Y-73921558D01*
X130442607Y-73990640D01*
X130422844Y-74042804D01*
X130409229Y-74063180D01*
X130409221Y-74063195D01*
X130356421Y-74190667D01*
X130356418Y-74190677D01*
X130329500Y-74326004D01*
X130329500Y-74326007D01*
X130329500Y-74463993D01*
X130329500Y-74463995D01*
X130329499Y-74463995D01*
X130356418Y-74599322D01*
X130356421Y-74599332D01*
X130409221Y-74726804D01*
X130409228Y-74726817D01*
X130485885Y-74841541D01*
X130485888Y-74841545D01*
X130583454Y-74939111D01*
X130583458Y-74939114D01*
X130698182Y-75015771D01*
X130698195Y-75015778D01*
X130789886Y-75053757D01*
X130825672Y-75068580D01*
X130825676Y-75068580D01*
X130825677Y-75068581D01*
X130961004Y-75095500D01*
X130961007Y-75095500D01*
X131098995Y-75095500D01*
X131190041Y-75077389D01*
X131234328Y-75068580D01*
X131361811Y-75015775D01*
X131476542Y-74939114D01*
X131574114Y-74841542D01*
X131650775Y-74726811D01*
X131703580Y-74599328D01*
X131725130Y-74490991D01*
X131730500Y-74463995D01*
X131730500Y-74326004D01*
X131703581Y-74190677D01*
X131703580Y-74190676D01*
X131703580Y-74190672D01*
X131691891Y-74162452D01*
X131650778Y-74063195D01*
X131650771Y-74063182D01*
X131630056Y-74032180D01*
X131609178Y-73965503D01*
X131627662Y-73898122D01*
X131679641Y-73851432D01*
X131732221Y-73839293D01*
X136517160Y-73803316D01*
X136584342Y-73822495D01*
X136630493Y-73874954D01*
X136640956Y-73944036D01*
X136612410Y-74007808D01*
X136605770Y-74014993D01*
X131942181Y-78678583D01*
X131880858Y-78712068D01*
X131811166Y-78707084D01*
X131755233Y-78665212D01*
X131730816Y-78599748D01*
X131730500Y-78590902D01*
X131730500Y-78576004D01*
X131703581Y-78440677D01*
X131703580Y-78440676D01*
X131703580Y-78440672D01*
X131661489Y-78339054D01*
X131650778Y-78313195D01*
X131650771Y-78313182D01*
X131574114Y-78198458D01*
X131574111Y-78198454D01*
X131476545Y-78100888D01*
X131476541Y-78100885D01*
X131361817Y-78024228D01*
X131361804Y-78024221D01*
X131234332Y-77971421D01*
X131234322Y-77971418D01*
X131098995Y-77944500D01*
X131098993Y-77944500D01*
X130961007Y-77944500D01*
X130961005Y-77944500D01*
X130825677Y-77971418D01*
X130825667Y-77971421D01*
X130698195Y-78024221D01*
X130698182Y-78024228D01*
X130583458Y-78100885D01*
X130583454Y-78100888D01*
X130485888Y-78198454D01*
X130485885Y-78198458D01*
X130409228Y-78313182D01*
X130409221Y-78313195D01*
X130356421Y-78440667D01*
X130356418Y-78440677D01*
X130329500Y-78576004D01*
X130329500Y-78576007D01*
X130329500Y-78713993D01*
X130329500Y-78713995D01*
X130329499Y-78713995D01*
X130356418Y-78849322D01*
X130356421Y-78849332D01*
X130409221Y-78976804D01*
X130409228Y-78976817D01*
X130485885Y-79091541D01*
X130485888Y-79091545D01*
X130583454Y-79189111D01*
X130583458Y-79189114D01*
X130698182Y-79265771D01*
X130698195Y-79265778D01*
X130825667Y-79318578D01*
X130825672Y-79318580D01*
X130825676Y-79318580D01*
X130825677Y-79318581D01*
X130961004Y-79345500D01*
X130975902Y-79345500D01*
X131042941Y-79365185D01*
X131088696Y-79417989D01*
X131098640Y-79487147D01*
X131069615Y-79550703D01*
X131063583Y-79557181D01*
X129389483Y-81231281D01*
X129389481Y-81231284D01*
X129310423Y-81368214D01*
X129310423Y-81368215D01*
X129269499Y-81520943D01*
X129269499Y-81520945D01*
X129269499Y-81679054D01*
X129269498Y-81679054D01*
X129269499Y-81679057D01*
X129310423Y-81831785D01*
X129389481Y-81968716D01*
X129501284Y-82080519D01*
X129638215Y-82159577D01*
X129790943Y-82200501D01*
X129790946Y-82200501D01*
X129949054Y-82200501D01*
X129949057Y-82200501D01*
X130101785Y-82159577D01*
X130238716Y-82080519D01*
X130241395Y-82077840D01*
X130244217Y-82076298D01*
X130245167Y-82075570D01*
X130245280Y-82075717D01*
X130302716Y-82044351D01*
X130372408Y-82049332D01*
X130428344Y-82091200D01*
X130452765Y-82156663D01*
X130452020Y-82181701D01*
X130421501Y-82413513D01*
X130421500Y-82413530D01*
X130421500Y-82696483D01*
X130453816Y-82941939D01*
X130458433Y-82977006D01*
X130531666Y-83250316D01*
X130607544Y-83433501D01*
X130607973Y-83434536D01*
X130615442Y-83504006D01*
X130584167Y-83566485D01*
X130581093Y-83569670D01*
X130014283Y-84136480D01*
X130014276Y-84136487D01*
X130011286Y-84139478D01*
X130011284Y-84139480D01*
X129899480Y-84251284D01*
X129876778Y-84290606D01*
X129820423Y-84388215D01*
X129779499Y-84540943D01*
X129779499Y-84540945D01*
X129779499Y-84709046D01*
X129779500Y-84709059D01*
X129779500Y-87569902D01*
X129759815Y-87636941D01*
X129743181Y-87657583D01*
X128899483Y-88501281D01*
X128899481Y-88501284D01*
X128820423Y-88638214D01*
X128820423Y-88638215D01*
X128779499Y-88790943D01*
X128779499Y-88790945D01*
X128779499Y-88949054D01*
X128779498Y-88949054D01*
X128820423Y-89101785D01*
X128899481Y-89238716D01*
X129011284Y-89350519D01*
X129148215Y-89429577D01*
X129300943Y-89470501D01*
X129300946Y-89470501D01*
X129459054Y-89470501D01*
X129459057Y-89470501D01*
X129611785Y-89429577D01*
X129748716Y-89350519D01*
X130860520Y-88238716D01*
X130939577Y-88101784D01*
X130980501Y-87949057D01*
X130980501Y-87790942D01*
X130980501Y-87783347D01*
X130980500Y-87783329D01*
X130980500Y-87230199D01*
X134075500Y-87230199D01*
X134075500Y-87419800D01*
X134105157Y-87607050D01*
X134105158Y-87607055D01*
X134109775Y-87621264D01*
X134163747Y-87787372D01*
X134246131Y-87949057D01*
X134249819Y-87956296D01*
X134361259Y-88109679D01*
X134495321Y-88243741D01*
X134648704Y-88355181D01*
X134709219Y-88386015D01*
X134817627Y-88441252D01*
X134817629Y-88441252D01*
X134817632Y-88441254D01*
X134866306Y-88457069D01*
X134923981Y-88496507D01*
X134951179Y-88560866D01*
X134939264Y-88629712D01*
X134892019Y-88681188D01*
X134866308Y-88692929D01*
X134848983Y-88698559D01*
X134817627Y-88708747D01*
X134648703Y-88794819D01*
X134495319Y-88906260D01*
X134361260Y-89040319D01*
X134249819Y-89193703D01*
X134163747Y-89362627D01*
X134128697Y-89470501D01*
X134122166Y-89490602D01*
X134105157Y-89542949D01*
X134075500Y-89730199D01*
X134075500Y-89919800D01*
X134100626Y-90078443D01*
X134105158Y-90107055D01*
X134130081Y-90183759D01*
X134163747Y-90287372D01*
X134238198Y-90433489D01*
X134249819Y-90456296D01*
X134361259Y-90609679D01*
X134495321Y-90743741D01*
X134648704Y-90855181D01*
X134728515Y-90895846D01*
X134817627Y-90941252D01*
X134817629Y-90941252D01*
X134817632Y-90941254D01*
X134997945Y-90999842D01*
X135086511Y-91013869D01*
X135185200Y-91029500D01*
X135185204Y-91029500D01*
X135374800Y-91029500D01*
X135473489Y-91013869D01*
X135562055Y-90999842D01*
X135742368Y-90941254D01*
X135911296Y-90855181D01*
X135996143Y-90793534D01*
X136061947Y-90770055D01*
X136130001Y-90785880D01*
X136168294Y-90819542D01*
X136218452Y-90886544D01*
X136218455Y-90886547D01*
X136333664Y-90972793D01*
X136333671Y-90972797D01*
X136468517Y-91023091D01*
X136468516Y-91023091D01*
X136475444Y-91023835D01*
X136528127Y-91029500D01*
X138031872Y-91029499D01*
X138091483Y-91023091D01*
X138091746Y-91022993D01*
X138162422Y-90996633D01*
X138226328Y-90972797D01*
X138226327Y-90972797D01*
X138226331Y-90972796D01*
X138341546Y-90886546D01*
X138427796Y-90771331D01*
X138478091Y-90636483D01*
X138484500Y-90576873D01*
X138484499Y-89073128D01*
X138478091Y-89013517D01*
X138453634Y-88947945D01*
X138427797Y-88878671D01*
X138427793Y-88878664D01*
X138341547Y-88763455D01*
X138341544Y-88763452D01*
X138226335Y-88677206D01*
X138226328Y-88677202D01*
X138091482Y-88626908D01*
X138091483Y-88626908D01*
X138031883Y-88620501D01*
X138031881Y-88620500D01*
X138031873Y-88620500D01*
X138031865Y-88620500D01*
X137907075Y-88620500D01*
X137840036Y-88600815D01*
X137794281Y-88548011D01*
X137784337Y-88478853D01*
X137813362Y-88415297D01*
X137850781Y-88386015D01*
X137911294Y-88355182D01*
X137911293Y-88355182D01*
X137911296Y-88355181D01*
X138064679Y-88243741D01*
X138198741Y-88109679D01*
X138310181Y-87956296D01*
X138396254Y-87787368D01*
X138454842Y-87607055D01*
X138471318Y-87503022D01*
X138484500Y-87419800D01*
X138484500Y-87230199D01*
X138468023Y-87126171D01*
X138454842Y-87042945D01*
X138396254Y-86862632D01*
X138396252Y-86862629D01*
X138396252Y-86862627D01*
X138310180Y-86693703D01*
X138279999Y-86652163D01*
X138198741Y-86540321D01*
X138064679Y-86406259D01*
X137911296Y-86294819D01*
X137742372Y-86208747D01*
X137678261Y-86187916D01*
X137562055Y-86150158D01*
X137562051Y-86150157D01*
X137562050Y-86150157D01*
X137457152Y-86133543D01*
X145394499Y-86133543D01*
X145432947Y-86326829D01*
X145432950Y-86326839D01*
X145508364Y-86508907D01*
X145508371Y-86508920D01*
X145617860Y-86672781D01*
X145617863Y-86672785D01*
X145757214Y-86812136D01*
X145757218Y-86812139D01*
X145921079Y-86921628D01*
X145921092Y-86921635D01*
X146103160Y-86997049D01*
X146103165Y-86997051D01*
X146103169Y-86997051D01*
X146103170Y-86997052D01*
X146296456Y-87035500D01*
X146296459Y-87035500D01*
X146493543Y-87035500D01*
X146623582Y-87009632D01*
X146686835Y-86997051D01*
X146868914Y-86921632D01*
X146961109Y-86860029D01*
X147027786Y-86839151D01*
X147095166Y-86857635D01*
X147098891Y-86860029D01*
X147191086Y-86921632D01*
X147191088Y-86921633D01*
X147191092Y-86921635D01*
X147373160Y-86997049D01*
X147373165Y-86997051D01*
X147373169Y-86997051D01*
X147373170Y-86997052D01*
X147566456Y-87035500D01*
X147566459Y-87035500D01*
X147763543Y-87035500D01*
X147893582Y-87009632D01*
X147956835Y-86997051D01*
X148138914Y-86921632D01*
X148302782Y-86812139D01*
X148442139Y-86672782D01*
X148551632Y-86508914D01*
X148627051Y-86326835D01*
X148648941Y-86216786D01*
X148665500Y-86133543D01*
X148665500Y-85936456D01*
X148627052Y-85743170D01*
X148627051Y-85743169D01*
X148627051Y-85743165D01*
X148613061Y-85709390D01*
X148551635Y-85561092D01*
X148551633Y-85561088D01*
X148551632Y-85561086D01*
X148517690Y-85510288D01*
X148490029Y-85468891D01*
X148469151Y-85402214D01*
X148487635Y-85334834D01*
X148490029Y-85331109D01*
X148502872Y-85311887D01*
X148551632Y-85238914D01*
X148627051Y-85056835D01*
X148654040Y-84921153D01*
X148665500Y-84863543D01*
X148665500Y-84666456D01*
X148627052Y-84473170D01*
X148627051Y-84473169D01*
X148627051Y-84473165D01*
X148606852Y-84424400D01*
X148551635Y-84291092D01*
X148551628Y-84291079D01*
X148442139Y-84127218D01*
X148442136Y-84127214D01*
X148302785Y-83987863D01*
X148302781Y-83987860D01*
X148138920Y-83878371D01*
X148138907Y-83878364D01*
X147956839Y-83802950D01*
X147956829Y-83802947D01*
X147763543Y-83764500D01*
X147763541Y-83764500D01*
X147566459Y-83764500D01*
X147566457Y-83764500D01*
X147373171Y-83802947D01*
X147373168Y-83802948D01*
X147373166Y-83802948D01*
X147373165Y-83802949D01*
X147373163Y-83802950D01*
X147270874Y-83845318D01*
X147201404Y-83852785D01*
X147149113Y-83830023D01*
X147137335Y-83821206D01*
X147137328Y-83821202D01*
X147002482Y-83770908D01*
X147002483Y-83770908D01*
X146942883Y-83764501D01*
X146942881Y-83764500D01*
X146942873Y-83764500D01*
X146942864Y-83764500D01*
X145847129Y-83764500D01*
X145847123Y-83764501D01*
X145787516Y-83770908D01*
X145652671Y-83821202D01*
X145652664Y-83821206D01*
X145537455Y-83907452D01*
X145537452Y-83907455D01*
X145451206Y-84022664D01*
X145451202Y-84022671D01*
X145400908Y-84157517D01*
X145394501Y-84217116D01*
X145394500Y-84217135D01*
X145394500Y-85312870D01*
X145394501Y-85312876D01*
X145400908Y-85372483D01*
X145451202Y-85507328D01*
X145451206Y-85507335D01*
X145460023Y-85519113D01*
X145484440Y-85584578D01*
X145475318Y-85640874D01*
X145436648Y-85734236D01*
X145432948Y-85743168D01*
X145432947Y-85743171D01*
X145394500Y-85936456D01*
X145394500Y-85936459D01*
X145394500Y-86133541D01*
X145394500Y-86133543D01*
X145394499Y-86133543D01*
X137457152Y-86133543D01*
X137374800Y-86120500D01*
X137374796Y-86120500D01*
X137185204Y-86120500D01*
X137185200Y-86120500D01*
X136997949Y-86150157D01*
X136997946Y-86150157D01*
X136997945Y-86150158D01*
X136939482Y-86169153D01*
X136817627Y-86208747D01*
X136648703Y-86294819D01*
X136495319Y-86406260D01*
X136495318Y-86406261D01*
X136367681Y-86533899D01*
X136306358Y-86567384D01*
X136236666Y-86562400D01*
X136192319Y-86533899D01*
X136064680Y-86406260D01*
X136049870Y-86395500D01*
X135911296Y-86294819D01*
X135742372Y-86208747D01*
X135678261Y-86187916D01*
X135562055Y-86150158D01*
X135562051Y-86150157D01*
X135562050Y-86150157D01*
X135374800Y-86120500D01*
X135374796Y-86120500D01*
X135185204Y-86120500D01*
X135185200Y-86120500D01*
X134997949Y-86150157D01*
X134997946Y-86150157D01*
X134997945Y-86150158D01*
X134939482Y-86169153D01*
X134817627Y-86208747D01*
X134648703Y-86294819D01*
X134495319Y-86406260D01*
X134361260Y-86540319D01*
X134249819Y-86693703D01*
X134163747Y-86862627D01*
X134105157Y-87042949D01*
X134075500Y-87230199D01*
X130980500Y-87230199D01*
X130980500Y-84920096D01*
X131000185Y-84853057D01*
X131016815Y-84832419D01*
X131385396Y-84463837D01*
X131446717Y-84430354D01*
X131516408Y-84435338D01*
X131535075Y-84444133D01*
X131623268Y-84495051D01*
X131623269Y-84495051D01*
X131623272Y-84495053D01*
X131884684Y-84603334D01*
X132157994Y-84676567D01*
X132438524Y-84713500D01*
X132438531Y-84713500D01*
X132721469Y-84713500D01*
X132721476Y-84713500D01*
X133002006Y-84676567D01*
X133275316Y-84603334D01*
X133536728Y-84495053D01*
X133781771Y-84353578D01*
X134006251Y-84181328D01*
X134030062Y-84157517D01*
X134061455Y-84126125D01*
X134206323Y-83981256D01*
X134206328Y-83981251D01*
X134378578Y-83756771D01*
X134520053Y-83511728D01*
X134598992Y-83321153D01*
X149399500Y-83321153D01*
X149399500Y-83478846D01*
X149430261Y-83633489D01*
X149430264Y-83633501D01*
X149490602Y-83779172D01*
X149490609Y-83779185D01*
X149578210Y-83910288D01*
X149578213Y-83910292D01*
X149689707Y-84021786D01*
X149689711Y-84021789D01*
X149820814Y-84109390D01*
X149820827Y-84109397D01*
X149937001Y-84157517D01*
X149966503Y-84169737D01*
X150113165Y-84198910D01*
X150121153Y-84200499D01*
X150121156Y-84200500D01*
X150121158Y-84200500D01*
X150278844Y-84200500D01*
X150278845Y-84200499D01*
X150433497Y-84169737D01*
X150579179Y-84109394D01*
X150579185Y-84109390D01*
X150710875Y-84021398D01*
X150777553Y-84000520D01*
X150779766Y-84000500D01*
X155447403Y-84000500D01*
X155514442Y-84020185D01*
X155535084Y-84036819D01*
X157107925Y-85609660D01*
X157141410Y-85670983D01*
X157141861Y-85673149D01*
X157172761Y-85828491D01*
X157172764Y-85828501D01*
X157233102Y-85974172D01*
X157233109Y-85974185D01*
X157320710Y-86105288D01*
X157320713Y-86105292D01*
X157432207Y-86216786D01*
X157432211Y-86216789D01*
X157563314Y-86304390D01*
X157563327Y-86304397D01*
X157617508Y-86326839D01*
X157709003Y-86364737D01*
X157827542Y-86388316D01*
X157863653Y-86395499D01*
X157863656Y-86395500D01*
X157863658Y-86395500D01*
X158021344Y-86395500D01*
X158021345Y-86395499D01*
X158175997Y-86364737D01*
X158321679Y-86304394D01*
X158452789Y-86216789D01*
X158564289Y-86105289D01*
X158651894Y-85974179D01*
X158712237Y-85828497D01*
X158743000Y-85673842D01*
X158743000Y-85516158D01*
X158743000Y-85516155D01*
X158742999Y-85516153D01*
X158720335Y-85402214D01*
X158712237Y-85361503D01*
X158712235Y-85361498D01*
X158651897Y-85215827D01*
X158651890Y-85215814D01*
X158564289Y-85084711D01*
X158564286Y-85084707D01*
X158452792Y-84973213D01*
X158452788Y-84973210D01*
X158321685Y-84885609D01*
X158321672Y-84885602D01*
X158176001Y-84825264D01*
X158175991Y-84825261D01*
X158020651Y-84794362D01*
X157958741Y-84761977D01*
X157957162Y-84760426D01*
X156235090Y-83038355D01*
X156235088Y-83038352D01*
X156116217Y-82919481D01*
X156116216Y-82919480D01*
X156029404Y-82869360D01*
X156029404Y-82869359D01*
X156029400Y-82869358D01*
X155979285Y-82840423D01*
X155826557Y-82799499D01*
X155668443Y-82799499D01*
X155660847Y-82799499D01*
X155660831Y-82799500D01*
X150779766Y-82799500D01*
X150712727Y-82779815D01*
X150710875Y-82778602D01*
X150579185Y-82690609D01*
X150579172Y-82690602D01*
X150433501Y-82630264D01*
X150433489Y-82630261D01*
X150278845Y-82599500D01*
X150278842Y-82599500D01*
X150121158Y-82599500D01*
X150121155Y-82599500D01*
X149966510Y-82630261D01*
X149966498Y-82630264D01*
X149820827Y-82690602D01*
X149820814Y-82690609D01*
X149689711Y-82778210D01*
X149689707Y-82778213D01*
X149578213Y-82889707D01*
X149578210Y-82889711D01*
X149490609Y-83020814D01*
X149490602Y-83020827D01*
X149430264Y-83166498D01*
X149430261Y-83166510D01*
X149399500Y-83321153D01*
X134598992Y-83321153D01*
X134628334Y-83250316D01*
X134701567Y-82977006D01*
X134738500Y-82696476D01*
X134738500Y-82413524D01*
X134701567Y-82132994D01*
X134628334Y-81859684D01*
X134520053Y-81598272D01*
X134494354Y-81553760D01*
X134469133Y-81510075D01*
X134452660Y-81442174D01*
X134475513Y-81376148D01*
X134488833Y-81360400D01*
X136625521Y-79223713D01*
X141042000Y-79223713D01*
X141042000Y-79436287D01*
X141052034Y-79499644D01*
X141075235Y-79646127D01*
X141075254Y-79646243D01*
X141132868Y-79823561D01*
X141140944Y-79848414D01*
X141237451Y-80037820D01*
X141362390Y-80209786D01*
X141475930Y-80323326D01*
X141509415Y-80384649D01*
X141504431Y-80454341D01*
X141462559Y-80510274D01*
X141431583Y-80527189D01*
X141300169Y-80576203D01*
X141300164Y-80576206D01*
X141184955Y-80662452D01*
X141184952Y-80662455D01*
X141098706Y-80777664D01*
X141098702Y-80777671D01*
X141048408Y-80912517D01*
X141042001Y-80972116D01*
X141042000Y-80972135D01*
X141042000Y-82767870D01*
X141042001Y-82767876D01*
X141048408Y-82827483D01*
X141098702Y-82962328D01*
X141098706Y-82962335D01*
X141184952Y-83077544D01*
X141184955Y-83077547D01*
X141300164Y-83163793D01*
X141300171Y-83163797D01*
X141435017Y-83214091D01*
X141435016Y-83214091D01*
X141441944Y-83214835D01*
X141494627Y-83220500D01*
X143290372Y-83220499D01*
X143349983Y-83214091D01*
X143484831Y-83163796D01*
X143600046Y-83077546D01*
X143686296Y-82962331D01*
X143735310Y-82830916D01*
X143777181Y-82774984D01*
X143842645Y-82750566D01*
X143910918Y-82765417D01*
X143939173Y-82786569D01*
X144052713Y-82900109D01*
X144224679Y-83025048D01*
X144224681Y-83025049D01*
X144224684Y-83025051D01*
X144414088Y-83121557D01*
X144616257Y-83187246D01*
X144826213Y-83220500D01*
X144826214Y-83220500D01*
X145038786Y-83220500D01*
X145038787Y-83220500D01*
X145248743Y-83187246D01*
X145450912Y-83121557D01*
X145640316Y-83025051D01*
X145706446Y-82977005D01*
X145812286Y-82900109D01*
X145812288Y-82900106D01*
X145812292Y-82900104D01*
X145962604Y-82749792D01*
X145962606Y-82749788D01*
X145962609Y-82749786D01*
X146071797Y-82599500D01*
X146087551Y-82577816D01*
X146092014Y-82569054D01*
X146139988Y-82518259D01*
X146207808Y-82501463D01*
X146273944Y-82523999D01*
X146312986Y-82569056D01*
X146317451Y-82577820D01*
X146442390Y-82749786D01*
X146592713Y-82900109D01*
X146764679Y-83025048D01*
X146764681Y-83025049D01*
X146764684Y-83025051D01*
X146954088Y-83121557D01*
X147156257Y-83187246D01*
X147366213Y-83220500D01*
X147366214Y-83220500D01*
X147578786Y-83220500D01*
X147578787Y-83220500D01*
X147788743Y-83187246D01*
X147990912Y-83121557D01*
X148180316Y-83025051D01*
X148246446Y-82977005D01*
X148352286Y-82900109D01*
X148352288Y-82900106D01*
X148352292Y-82900104D01*
X148502604Y-82749792D01*
X148502606Y-82749788D01*
X148502609Y-82749786D01*
X148611797Y-82599500D01*
X148627551Y-82577816D01*
X148724057Y-82388412D01*
X148789746Y-82186243D01*
X148823000Y-81976287D01*
X148823000Y-81763713D01*
X148789746Y-81553757D01*
X148724057Y-81351588D01*
X148627551Y-81162184D01*
X148627549Y-81162181D01*
X148627548Y-81162179D01*
X148502609Y-80990213D01*
X148352286Y-80839890D01*
X148180317Y-80714949D01*
X148171004Y-80710204D01*
X148120207Y-80662230D01*
X148103412Y-80594409D01*
X148125949Y-80528274D01*
X148171007Y-80489232D01*
X148180055Y-80484622D01*
X148234216Y-80445270D01*
X148234217Y-80445270D01*
X147601908Y-79812962D01*
X147665493Y-79795925D01*
X147779507Y-79730099D01*
X147872599Y-79637007D01*
X147938425Y-79522993D01*
X147955462Y-79459408D01*
X148587770Y-80091717D01*
X148587770Y-80091716D01*
X148627122Y-80037554D01*
X148723595Y-79848217D01*
X148789257Y-79646130D01*
X148789257Y-79646127D01*
X148822500Y-79436246D01*
X148822500Y-79223753D01*
X148789257Y-79013872D01*
X148789257Y-79013869D01*
X148723595Y-78811782D01*
X148627124Y-78622449D01*
X148587770Y-78568282D01*
X148587769Y-78568282D01*
X147955462Y-79200590D01*
X147938425Y-79137007D01*
X147872599Y-79022993D01*
X147779507Y-78929901D01*
X147665493Y-78864075D01*
X147601909Y-78847037D01*
X148234216Y-78214728D01*
X148180050Y-78175375D01*
X147990717Y-78078904D01*
X147788629Y-78013242D01*
X147578746Y-77980000D01*
X147366254Y-77980000D01*
X147156372Y-78013242D01*
X147156369Y-78013242D01*
X146954282Y-78078904D01*
X146764939Y-78175380D01*
X146710782Y-78214727D01*
X146710782Y-78214728D01*
X147343091Y-78847037D01*
X147279507Y-78864075D01*
X147165493Y-78929901D01*
X147072401Y-79022993D01*
X147006575Y-79137007D01*
X146989537Y-79200591D01*
X146357228Y-78568282D01*
X146357227Y-78568282D01*
X146317880Y-78622440D01*
X146317876Y-78622446D01*
X146313260Y-78631505D01*
X146265281Y-78682297D01*
X146197459Y-78699087D01*
X146131326Y-78676543D01*
X146092294Y-78631493D01*
X146087551Y-78622184D01*
X146087549Y-78622181D01*
X146087548Y-78622179D01*
X145962609Y-78450213D01*
X145812286Y-78299890D01*
X145640320Y-78174951D01*
X145450914Y-78078444D01*
X145450913Y-78078443D01*
X145450912Y-78078443D01*
X145248743Y-78012754D01*
X145248741Y-78012753D01*
X145248740Y-78012753D01*
X145087457Y-77987208D01*
X145038787Y-77979500D01*
X144826213Y-77979500D01*
X144777542Y-77987208D01*
X144616260Y-78012753D01*
X144414085Y-78078444D01*
X144224679Y-78174951D01*
X144052713Y-78299890D01*
X143902390Y-78450213D01*
X143777449Y-78622182D01*
X143772984Y-78630946D01*
X143725009Y-78681742D01*
X143657188Y-78698536D01*
X143591053Y-78675998D01*
X143552016Y-78630946D01*
X143547550Y-78622182D01*
X143422609Y-78450213D01*
X143272286Y-78299890D01*
X143100320Y-78174951D01*
X142910914Y-78078444D01*
X142910913Y-78078443D01*
X142910912Y-78078443D01*
X142708743Y-78012754D01*
X142708741Y-78012753D01*
X142708740Y-78012753D01*
X142547457Y-77987208D01*
X142498787Y-77979500D01*
X142286213Y-77979500D01*
X142237542Y-77987208D01*
X142076260Y-78012753D01*
X141874085Y-78078444D01*
X141684679Y-78174951D01*
X141512713Y-78299890D01*
X141362390Y-78450213D01*
X141237451Y-78622179D01*
X141140944Y-78811585D01*
X141075253Y-79013760D01*
X141056659Y-79131160D01*
X141042000Y-79223713D01*
X136625521Y-79223713D01*
X138214662Y-77634572D01*
X138275983Y-77601089D01*
X138278150Y-77600638D01*
X138336085Y-77589113D01*
X138433497Y-77569737D01*
X138579179Y-77509394D01*
X138710289Y-77421789D01*
X138821789Y-77310289D01*
X138909394Y-77179179D01*
X138969737Y-77033497D01*
X139000500Y-76878842D01*
X139000500Y-76721158D01*
X139000500Y-76721155D01*
X139000499Y-76721153D01*
X138991022Y-76673508D01*
X138969737Y-76566503D01*
X138952566Y-76525048D01*
X138909397Y-76420827D01*
X138909390Y-76420814D01*
X138821789Y-76289711D01*
X138821786Y-76289707D01*
X138710292Y-76178213D01*
X138710288Y-76178210D01*
X138579185Y-76090609D01*
X138579172Y-76090602D01*
X138433501Y-76030264D01*
X138433489Y-76030261D01*
X138278845Y-75999500D01*
X138278842Y-75999500D01*
X138121158Y-75999500D01*
X138121155Y-75999500D01*
X137966510Y-76030261D01*
X137966498Y-76030264D01*
X137820827Y-76090602D01*
X137820814Y-76090609D01*
X137689711Y-76178210D01*
X137689707Y-76178213D01*
X137578213Y-76289707D01*
X137541305Y-76344944D01*
X137487692Y-76389748D01*
X137418367Y-76398455D01*
X137355340Y-76368300D01*
X137323643Y-76323507D01*
X137289394Y-76240821D01*
X137289392Y-76240818D01*
X137289390Y-76240814D01*
X137201789Y-76109711D01*
X137201786Y-76109707D01*
X137090292Y-75998213D01*
X137090288Y-75998210D01*
X136959185Y-75910609D01*
X136959172Y-75910602D01*
X136813501Y-75850264D01*
X136813491Y-75850261D01*
X136753660Y-75838360D01*
X136691749Y-75805975D01*
X136657175Y-75745259D01*
X136660916Y-75675489D01*
X136690168Y-75629065D01*
X137482416Y-74836819D01*
X137543739Y-74803334D01*
X137570097Y-74800500D01*
X137820234Y-74800500D01*
X137887273Y-74820185D01*
X137889125Y-74821398D01*
X138020814Y-74909390D01*
X138020827Y-74909397D01*
X138166498Y-74969735D01*
X138166503Y-74969737D01*
X138305473Y-74997380D01*
X138321153Y-75000499D01*
X138321156Y-75000500D01*
X138321158Y-75000500D01*
X138478844Y-75000500D01*
X138478845Y-75000499D01*
X138633497Y-74969737D01*
X138779179Y-74909394D01*
X138910289Y-74821789D01*
X139021789Y-74710289D01*
X139109394Y-74579179D01*
X139169737Y-74433497D01*
X139200500Y-74278842D01*
X139200500Y-74121158D01*
X139200500Y-74121155D01*
X139200499Y-74121153D01*
X139188967Y-74063180D01*
X139169737Y-73966503D01*
X139164559Y-73954004D01*
X139157091Y-73884535D01*
X139188366Y-73822056D01*
X139248455Y-73786404D01*
X139278181Y-73782556D01*
X140129815Y-73776153D01*
X140196999Y-73795332D01*
X140243150Y-73847791D01*
X140253613Y-73916873D01*
X140231064Y-73973034D01*
X140195712Y-74021692D01*
X140195706Y-74021701D01*
X140080048Y-74248694D01*
X140080047Y-74248696D01*
X140080046Y-74248699D01*
X140037846Y-74378574D01*
X140001320Y-74490991D01*
X139974206Y-74662182D01*
X139961466Y-74742619D01*
X139961466Y-74809471D01*
X139961466Y-74997381D01*
X140001320Y-75249008D01*
X140080046Y-75491301D01*
X140195705Y-75718297D01*
X140345451Y-75924404D01*
X140525596Y-76104549D01*
X140731703Y-76254295D01*
X140958699Y-76369954D01*
X141200992Y-76448680D01*
X141452619Y-76488534D01*
X141452620Y-76488534D01*
X141707380Y-76488534D01*
X141707381Y-76488534D01*
X141959008Y-76448680D01*
X142201301Y-76369954D01*
X142428297Y-76254295D01*
X142634404Y-76104549D01*
X142814549Y-75924404D01*
X142964295Y-75718297D01*
X143079954Y-75491301D01*
X143153902Y-75263713D01*
X144109500Y-75263713D01*
X144109500Y-75476286D01*
X144141050Y-75675489D01*
X144142754Y-75686243D01*
X144181657Y-75805975D01*
X144208444Y-75888414D01*
X144304951Y-76077820D01*
X144429890Y-76249786D01*
X144580213Y-76400109D01*
X144752179Y-76525048D01*
X144752181Y-76525049D01*
X144752184Y-76525051D01*
X144941588Y-76621557D01*
X145143757Y-76687246D01*
X145353713Y-76720500D01*
X145353714Y-76720500D01*
X145566286Y-76720500D01*
X145566287Y-76720500D01*
X145776243Y-76687246D01*
X145978412Y-76621557D01*
X146167816Y-76525051D01*
X146254138Y-76462335D01*
X146339786Y-76400109D01*
X146339788Y-76400106D01*
X146339792Y-76400104D01*
X146490104Y-76249792D01*
X146490106Y-76249788D01*
X146490109Y-76249786D01*
X146615048Y-76077820D01*
X146615047Y-76077820D01*
X146615051Y-76077816D01*
X146619514Y-76069054D01*
X146667488Y-76018259D01*
X146735308Y-76001463D01*
X146801444Y-76023999D01*
X146840486Y-76069056D01*
X146844951Y-76077820D01*
X146969890Y-76249786D01*
X147120213Y-76400109D01*
X147292179Y-76525048D01*
X147292181Y-76525049D01*
X147292184Y-76525051D01*
X147481588Y-76621557D01*
X147683757Y-76687246D01*
X147893713Y-76720500D01*
X147893714Y-76720500D01*
X148106286Y-76720500D01*
X148106287Y-76720500D01*
X148316243Y-76687246D01*
X148518412Y-76621557D01*
X148707816Y-76525051D01*
X148794138Y-76462335D01*
X148879786Y-76400109D01*
X148879788Y-76400106D01*
X148879792Y-76400104D01*
X149030104Y-76249792D01*
X149030106Y-76249788D01*
X149030109Y-76249786D01*
X149155048Y-76077820D01*
X149155047Y-76077820D01*
X149155051Y-76077816D01*
X149159514Y-76069054D01*
X149207488Y-76018259D01*
X149275308Y-76001463D01*
X149341444Y-76023999D01*
X149380486Y-76069056D01*
X149384951Y-76077820D01*
X149509890Y-76249786D01*
X149660213Y-76400109D01*
X149832179Y-76525048D01*
X149832181Y-76525049D01*
X149832184Y-76525051D01*
X150021588Y-76621557D01*
X150223757Y-76687246D01*
X150433713Y-76720500D01*
X150433714Y-76720500D01*
X150646286Y-76720500D01*
X150646287Y-76720500D01*
X150856243Y-76687246D01*
X151058412Y-76621557D01*
X151247816Y-76525051D01*
X151334138Y-76462335D01*
X151419786Y-76400109D01*
X151419788Y-76400106D01*
X151419792Y-76400104D01*
X151570104Y-76249792D01*
X151570106Y-76249788D01*
X151570109Y-76249786D01*
X151695048Y-76077820D01*
X151695047Y-76077820D01*
X151695051Y-76077816D01*
X151699514Y-76069054D01*
X151747488Y-76018259D01*
X151815308Y-76001463D01*
X151881444Y-76023999D01*
X151920486Y-76069056D01*
X151924951Y-76077820D01*
X152049890Y-76249786D01*
X152200213Y-76400109D01*
X152372179Y-76525048D01*
X152372181Y-76525049D01*
X152372184Y-76525051D01*
X152561588Y-76621557D01*
X152763757Y-76687246D01*
X152973713Y-76720500D01*
X152973714Y-76720500D01*
X153186286Y-76720500D01*
X153186287Y-76720500D01*
X153396243Y-76687246D01*
X153598412Y-76621557D01*
X153787816Y-76525051D01*
X153874138Y-76462335D01*
X153959786Y-76400109D01*
X153959788Y-76400106D01*
X153959792Y-76400104D01*
X154110104Y-76249792D01*
X154110106Y-76249788D01*
X154110109Y-76249786D01*
X154235048Y-76077820D01*
X154235047Y-76077820D01*
X154235051Y-76077816D01*
X154239514Y-76069054D01*
X154287488Y-76018259D01*
X154355308Y-76001463D01*
X154421444Y-76023999D01*
X154460486Y-76069056D01*
X154464951Y-76077820D01*
X154589890Y-76249786D01*
X154740213Y-76400109D01*
X154912179Y-76525048D01*
X154912181Y-76525049D01*
X154912184Y-76525051D01*
X155101588Y-76621557D01*
X155303757Y-76687246D01*
X155513713Y-76720500D01*
X155513714Y-76720500D01*
X155726286Y-76720500D01*
X155726287Y-76720500D01*
X155936243Y-76687246D01*
X156138412Y-76621557D01*
X156327816Y-76525051D01*
X156414138Y-76462335D01*
X156499786Y-76400109D01*
X156499788Y-76400106D01*
X156499792Y-76400104D01*
X156650104Y-76249792D01*
X156650106Y-76249788D01*
X156650109Y-76249786D01*
X156775048Y-76077820D01*
X156775047Y-76077820D01*
X156775051Y-76077816D01*
X156779514Y-76069054D01*
X156827488Y-76018259D01*
X156895308Y-76001463D01*
X156961444Y-76023999D01*
X157000486Y-76069056D01*
X157004951Y-76077820D01*
X157129890Y-76249786D01*
X157280213Y-76400109D01*
X157452179Y-76525048D01*
X157452181Y-76525049D01*
X157452184Y-76525051D01*
X157641588Y-76621557D01*
X157843757Y-76687246D01*
X158053713Y-76720500D01*
X158053714Y-76720500D01*
X158266286Y-76720500D01*
X158266287Y-76720500D01*
X158476243Y-76687246D01*
X158678412Y-76621557D01*
X158867816Y-76525051D01*
X158954138Y-76462335D01*
X159039786Y-76400109D01*
X159039788Y-76400106D01*
X159039792Y-76400104D01*
X159190104Y-76249792D01*
X159190106Y-76249788D01*
X159190109Y-76249786D01*
X159315048Y-76077820D01*
X159315047Y-76077820D01*
X159315051Y-76077816D01*
X159319514Y-76069054D01*
X159367488Y-76018259D01*
X159435308Y-76001463D01*
X159501444Y-76023999D01*
X159540486Y-76069056D01*
X159544951Y-76077820D01*
X159669890Y-76249786D01*
X159820213Y-76400109D01*
X159992179Y-76525048D01*
X159992181Y-76525049D01*
X159992184Y-76525051D01*
X160181588Y-76621557D01*
X160383757Y-76687246D01*
X160593713Y-76720500D01*
X160593714Y-76720500D01*
X160806286Y-76720500D01*
X160806287Y-76720500D01*
X161016243Y-76687246D01*
X161218412Y-76621557D01*
X161407816Y-76525051D01*
X161494138Y-76462335D01*
X161579786Y-76400109D01*
X161579788Y-76400106D01*
X161579792Y-76400104D01*
X161730104Y-76249792D01*
X161730106Y-76249788D01*
X161730109Y-76249786D01*
X161855048Y-76077820D01*
X161855047Y-76077820D01*
X161855051Y-76077816D01*
X161859514Y-76069054D01*
X161907488Y-76018259D01*
X161975308Y-76001463D01*
X162041444Y-76023999D01*
X162080486Y-76069056D01*
X162084951Y-76077820D01*
X162209890Y-76249786D01*
X162360213Y-76400109D01*
X162532179Y-76525048D01*
X162532181Y-76525049D01*
X162532184Y-76525051D01*
X162721588Y-76621557D01*
X162923757Y-76687246D01*
X163133713Y-76720500D01*
X163133714Y-76720500D01*
X163346286Y-76720500D01*
X163346287Y-76720500D01*
X163556243Y-76687246D01*
X163758412Y-76621557D01*
X163947816Y-76525051D01*
X164034138Y-76462335D01*
X164119786Y-76400109D01*
X164119788Y-76400106D01*
X164119792Y-76400104D01*
X164270104Y-76249792D01*
X164270106Y-76249788D01*
X164270109Y-76249786D01*
X164395048Y-76077820D01*
X164395047Y-76077820D01*
X164395051Y-76077816D01*
X164399514Y-76069054D01*
X164447488Y-76018259D01*
X164515308Y-76001463D01*
X164581444Y-76023999D01*
X164620486Y-76069056D01*
X164624951Y-76077820D01*
X164749890Y-76249786D01*
X164900213Y-76400109D01*
X165072179Y-76525048D01*
X165072181Y-76525049D01*
X165072184Y-76525051D01*
X165261588Y-76621557D01*
X165463757Y-76687246D01*
X165673713Y-76720500D01*
X165673714Y-76720500D01*
X165886286Y-76720500D01*
X165886287Y-76720500D01*
X166096243Y-76687246D01*
X166298412Y-76621557D01*
X166487816Y-76525051D01*
X166574147Y-76462328D01*
X166659784Y-76400110D01*
X166659784Y-76400109D01*
X166659792Y-76400104D01*
X166773329Y-76286566D01*
X166834648Y-76253084D01*
X166904340Y-76258068D01*
X166960274Y-76299939D01*
X166977189Y-76330917D01*
X167026202Y-76462328D01*
X167026206Y-76462335D01*
X167112452Y-76577544D01*
X167112455Y-76577547D01*
X167227664Y-76663793D01*
X167227671Y-76663797D01*
X167362517Y-76714091D01*
X167362516Y-76714091D01*
X167369444Y-76714835D01*
X167422127Y-76720500D01*
X169217872Y-76720499D01*
X169277483Y-76714091D01*
X169412331Y-76663796D01*
X169527546Y-76577546D01*
X169613796Y-76462331D01*
X169664091Y-76327483D01*
X169670500Y-76267873D01*
X169670499Y-74472128D01*
X169664091Y-74412517D01*
X169662810Y-74409083D01*
X169613797Y-74277671D01*
X169613793Y-74277664D01*
X169527547Y-74162455D01*
X169527544Y-74162452D01*
X169412335Y-74076206D01*
X169412328Y-74076202D01*
X169277482Y-74025908D01*
X169277483Y-74025908D01*
X169217883Y-74019501D01*
X169217881Y-74019500D01*
X169217873Y-74019500D01*
X169217864Y-74019500D01*
X167422129Y-74019500D01*
X167422123Y-74019501D01*
X167362516Y-74025908D01*
X167227671Y-74076202D01*
X167227664Y-74076206D01*
X167112455Y-74162452D01*
X167112452Y-74162455D01*
X167026206Y-74277664D01*
X167026203Y-74277669D01*
X166977189Y-74409083D01*
X166935317Y-74465016D01*
X166869853Y-74489433D01*
X166801580Y-74474581D01*
X166773326Y-74453430D01*
X166659786Y-74339890D01*
X166487820Y-74214951D01*
X166298414Y-74118444D01*
X166298413Y-74118443D01*
X166298412Y-74118443D01*
X166096243Y-74052754D01*
X166096241Y-74052753D01*
X166096240Y-74052753D01*
X165934957Y-74027208D01*
X165886287Y-74019500D01*
X165673713Y-74019500D01*
X165625042Y-74027208D01*
X165463760Y-74052753D01*
X165261585Y-74118444D01*
X165072179Y-74214951D01*
X164900213Y-74339890D01*
X164749890Y-74490213D01*
X164624949Y-74662182D01*
X164620484Y-74670946D01*
X164572509Y-74721742D01*
X164504688Y-74738536D01*
X164438553Y-74715998D01*
X164399516Y-74670946D01*
X164395050Y-74662182D01*
X164270109Y-74490213D01*
X164119786Y-74339890D01*
X163947820Y-74214951D01*
X163758414Y-74118444D01*
X163758413Y-74118443D01*
X163758412Y-74118443D01*
X163556243Y-74052754D01*
X163556241Y-74052753D01*
X163556240Y-74052753D01*
X163394957Y-74027208D01*
X163346287Y-74019500D01*
X163133713Y-74019500D01*
X163085042Y-74027208D01*
X162923760Y-74052753D01*
X162721585Y-74118444D01*
X162532179Y-74214951D01*
X162360213Y-74339890D01*
X162209890Y-74490213D01*
X162084949Y-74662182D01*
X162080484Y-74670946D01*
X162032509Y-74721742D01*
X161964688Y-74738536D01*
X161898553Y-74715998D01*
X161859516Y-74670946D01*
X161855050Y-74662182D01*
X161730109Y-74490213D01*
X161579786Y-74339890D01*
X161407820Y-74214951D01*
X161218414Y-74118444D01*
X161218413Y-74118443D01*
X161218412Y-74118443D01*
X161016243Y-74052754D01*
X161016241Y-74052753D01*
X161016240Y-74052753D01*
X160854957Y-74027208D01*
X160806287Y-74019500D01*
X160593713Y-74019500D01*
X160545042Y-74027208D01*
X160383760Y-74052753D01*
X160181585Y-74118444D01*
X159992179Y-74214951D01*
X159820213Y-74339890D01*
X159669890Y-74490213D01*
X159544949Y-74662182D01*
X159540484Y-74670946D01*
X159492509Y-74721742D01*
X159424688Y-74738536D01*
X159358553Y-74715998D01*
X159319516Y-74670946D01*
X159315050Y-74662182D01*
X159190109Y-74490213D01*
X159039786Y-74339890D01*
X158867820Y-74214951D01*
X158678414Y-74118444D01*
X158678413Y-74118443D01*
X158678412Y-74118443D01*
X158476243Y-74052754D01*
X158476241Y-74052753D01*
X158476240Y-74052753D01*
X158314957Y-74027208D01*
X158266287Y-74019500D01*
X158053713Y-74019500D01*
X158005042Y-74027208D01*
X157843760Y-74052753D01*
X157641585Y-74118444D01*
X157452179Y-74214951D01*
X157280213Y-74339890D01*
X157129890Y-74490213D01*
X157004949Y-74662182D01*
X157000484Y-74670946D01*
X156952509Y-74721742D01*
X156884688Y-74738536D01*
X156818553Y-74715998D01*
X156779516Y-74670946D01*
X156775050Y-74662182D01*
X156650109Y-74490213D01*
X156499786Y-74339890D01*
X156327820Y-74214951D01*
X156138414Y-74118444D01*
X156138413Y-74118443D01*
X156138412Y-74118443D01*
X155936243Y-74052754D01*
X155936241Y-74052753D01*
X155936240Y-74052753D01*
X155774957Y-74027208D01*
X155726287Y-74019500D01*
X155513713Y-74019500D01*
X155465042Y-74027208D01*
X155303760Y-74052753D01*
X155101585Y-74118444D01*
X154912179Y-74214951D01*
X154740213Y-74339890D01*
X154589890Y-74490213D01*
X154464949Y-74662182D01*
X154460484Y-74670946D01*
X154412509Y-74721742D01*
X154344688Y-74738536D01*
X154278553Y-74715998D01*
X154239516Y-74670946D01*
X154235050Y-74662182D01*
X154110109Y-74490213D01*
X153959786Y-74339890D01*
X153787820Y-74214951D01*
X153598414Y-74118444D01*
X153598413Y-74118443D01*
X153598412Y-74118443D01*
X153396243Y-74052754D01*
X153396241Y-74052753D01*
X153396240Y-74052753D01*
X153234957Y-74027208D01*
X153186287Y-74019500D01*
X152973713Y-74019500D01*
X152925042Y-74027208D01*
X152763760Y-74052753D01*
X152561585Y-74118444D01*
X152372179Y-74214951D01*
X152200213Y-74339890D01*
X152049890Y-74490213D01*
X151924949Y-74662182D01*
X151920484Y-74670946D01*
X151872509Y-74721742D01*
X151804688Y-74738536D01*
X151738553Y-74715998D01*
X151699516Y-74670946D01*
X151695050Y-74662182D01*
X151570109Y-74490213D01*
X151419786Y-74339890D01*
X151247820Y-74214951D01*
X151058414Y-74118444D01*
X151058413Y-74118443D01*
X151058412Y-74118443D01*
X150856243Y-74052754D01*
X150856241Y-74052753D01*
X150856240Y-74052753D01*
X150694957Y-74027208D01*
X150646287Y-74019500D01*
X150433713Y-74019500D01*
X150385042Y-74027208D01*
X150223760Y-74052753D01*
X150021585Y-74118444D01*
X149832179Y-74214951D01*
X149660213Y-74339890D01*
X149509890Y-74490213D01*
X149384949Y-74662182D01*
X149380484Y-74670946D01*
X149332509Y-74721742D01*
X149264688Y-74738536D01*
X149198553Y-74715998D01*
X149159516Y-74670946D01*
X149155050Y-74662182D01*
X149030109Y-74490213D01*
X148879786Y-74339890D01*
X148707820Y-74214951D01*
X148518414Y-74118444D01*
X148518413Y-74118443D01*
X148518412Y-74118443D01*
X148316243Y-74052754D01*
X148316241Y-74052753D01*
X148316240Y-74052753D01*
X148154957Y-74027208D01*
X148106287Y-74019500D01*
X147893713Y-74019500D01*
X147845042Y-74027208D01*
X147683760Y-74052753D01*
X147481585Y-74118444D01*
X147292179Y-74214951D01*
X147120213Y-74339890D01*
X146969890Y-74490213D01*
X146844949Y-74662182D01*
X146840484Y-74670946D01*
X146792509Y-74721742D01*
X146724688Y-74738536D01*
X146658553Y-74715998D01*
X146619516Y-74670946D01*
X146615050Y-74662182D01*
X146490109Y-74490213D01*
X146339786Y-74339890D01*
X146167820Y-74214951D01*
X145978414Y-74118444D01*
X145978413Y-74118443D01*
X145978412Y-74118443D01*
X145776243Y-74052754D01*
X145776241Y-74052753D01*
X145776240Y-74052753D01*
X145614957Y-74027208D01*
X145566287Y-74019500D01*
X145353713Y-74019500D01*
X145305042Y-74027208D01*
X145143760Y-74052753D01*
X144941585Y-74118444D01*
X144752179Y-74214951D01*
X144580213Y-74339890D01*
X144429890Y-74490213D01*
X144304951Y-74662179D01*
X144208444Y-74851585D01*
X144142753Y-75053760D01*
X144109500Y-75263713D01*
X143153902Y-75263713D01*
X143158680Y-75249008D01*
X143198534Y-74997381D01*
X143198534Y-74742619D01*
X143158680Y-74490992D01*
X143079954Y-74248699D01*
X142964295Y-74021703D01*
X142964292Y-74021699D01*
X142964292Y-74021698D01*
X142913188Y-73951361D01*
X142889708Y-73885555D01*
X142905533Y-73817501D01*
X142955639Y-73768806D01*
X143012573Y-73754479D01*
X185721455Y-73433359D01*
X185788640Y-73452538D01*
G37*
%TD.AperFunction*%
%TA.AperFunction,Conductor*%
G36*
X173340000Y-104302661D02*
G01*
X173367259Y-104404394D01*
X173419920Y-104495606D01*
X173494394Y-104570080D01*
X173585606Y-104622741D01*
X173687339Y-104650000D01*
X173693553Y-104650000D01*
X173014076Y-105329474D01*
X173058650Y-105361859D01*
X173240968Y-105454755D01*
X173435582Y-105517990D01*
X173637683Y-105550000D01*
X173842317Y-105550000D01*
X174044417Y-105517990D01*
X174239031Y-105454755D01*
X174421349Y-105361859D01*
X174465921Y-105329474D01*
X173786447Y-104650000D01*
X173792661Y-104650000D01*
X173894394Y-104622741D01*
X173985606Y-104570080D01*
X174060080Y-104495606D01*
X174112741Y-104404394D01*
X174140000Y-104302661D01*
X174140000Y-104296447D01*
X174819474Y-104975921D01*
X174851861Y-104931347D01*
X174851861Y-104931346D01*
X174899234Y-104838371D01*
X174947208Y-104787575D01*
X175015028Y-104770779D01*
X175081164Y-104793316D01*
X175120203Y-104838369D01*
X175167713Y-104931611D01*
X175288028Y-105097213D01*
X175432786Y-105241971D01*
X175553226Y-105329474D01*
X175598390Y-105362287D01*
X175700499Y-105414314D01*
X175780776Y-105455218D01*
X175780778Y-105455218D01*
X175780781Y-105455220D01*
X175862817Y-105481875D01*
X175975465Y-105518477D01*
X176016334Y-105524950D01*
X176177648Y-105550500D01*
X176177649Y-105550500D01*
X176382351Y-105550500D01*
X176382352Y-105550500D01*
X176584534Y-105518477D01*
X176779219Y-105455220D01*
X176961610Y-105362287D01*
X177090482Y-105268657D01*
X177127213Y-105241971D01*
X177127215Y-105241968D01*
X177127219Y-105241966D01*
X177271966Y-105097219D01*
X177271968Y-105097215D01*
X177271971Y-105097213D01*
X177392284Y-104931614D01*
X177392286Y-104931611D01*
X177392287Y-104931610D01*
X177439516Y-104838917D01*
X177487489Y-104788123D01*
X177555310Y-104771328D01*
X177621445Y-104793865D01*
X177660483Y-104838917D01*
X177666139Y-104850016D01*
X177707715Y-104931614D01*
X177828028Y-105097213D01*
X177972786Y-105241971D01*
X178093226Y-105329474D01*
X178138390Y-105362287D01*
X178240499Y-105414314D01*
X178320776Y-105455218D01*
X178320778Y-105455218D01*
X178320781Y-105455220D01*
X178402817Y-105481875D01*
X178515465Y-105518477D01*
X178556334Y-105524950D01*
X178717648Y-105550500D01*
X178717649Y-105550500D01*
X178922351Y-105550500D01*
X178922352Y-105550500D01*
X179124534Y-105518477D01*
X179319219Y-105455220D01*
X179501610Y-105362287D01*
X179630482Y-105268657D01*
X179667213Y-105241971D01*
X179667215Y-105241968D01*
X179667219Y-105241966D01*
X179719476Y-105189709D01*
X179727411Y-105185375D01*
X179732832Y-105178133D01*
X179757603Y-105168889D01*
X179780799Y-105156224D01*
X179789818Y-105156869D01*
X179798293Y-105153707D01*
X179824124Y-105159322D01*
X179850491Y-105161208D01*
X179859536Y-105167020D01*
X179866568Y-105168549D01*
X179879247Y-105178039D01*
X179879454Y-105177730D01*
X179879457Y-105177732D01*
X179885967Y-105183069D01*
X179894788Y-105189671D01*
X179894825Y-105189695D01*
X179898344Y-105193214D01*
X179898345Y-105193216D01*
X179898349Y-105193220D01*
X179898354Y-105193224D01*
X180535649Y-105830520D01*
X180535651Y-105830521D01*
X180535655Y-105830524D01*
X180672574Y-105909573D01*
X180672581Y-105909577D01*
X180825308Y-105950501D01*
X180825310Y-105950501D01*
X180991019Y-105950501D01*
X180991035Y-105950500D01*
X185253331Y-105950500D01*
X185253347Y-105950501D01*
X185260943Y-105950501D01*
X185419054Y-105950501D01*
X185419057Y-105950501D01*
X185571785Y-105909577D01*
X185621904Y-105880639D01*
X185708716Y-105830520D01*
X185820520Y-105718716D01*
X185820520Y-105718714D01*
X185830728Y-105708507D01*
X185830730Y-105708504D01*
X185995158Y-105544075D01*
X186056479Y-105510592D01*
X186121151Y-105513825D01*
X186135466Y-105518477D01*
X186337648Y-105550500D01*
X186337649Y-105550500D01*
X186530902Y-105550500D01*
X186597941Y-105570185D01*
X186643696Y-105622989D01*
X186653640Y-105692147D01*
X186624615Y-105755703D01*
X186618583Y-105762181D01*
X182247584Y-110133181D01*
X182186261Y-110166666D01*
X182159903Y-110169500D01*
X167951035Y-110169500D01*
X167951019Y-110169499D01*
X167943423Y-110169499D01*
X167785308Y-110169499D01*
X167708944Y-110189961D01*
X167632579Y-110210423D01*
X167632574Y-110210426D01*
X167495655Y-110289475D01*
X167495647Y-110289481D01*
X167007281Y-110777846D01*
X166945958Y-110811331D01*
X166876266Y-110806347D01*
X166846715Y-110790483D01*
X166801613Y-110757715D01*
X166801612Y-110757714D01*
X166801610Y-110757713D01*
X166744653Y-110728691D01*
X166619223Y-110664781D01*
X166424534Y-110601522D01*
X166249995Y-110573878D01*
X166222352Y-110569500D01*
X166029096Y-110569500D01*
X165962057Y-110549815D01*
X165916302Y-110497011D01*
X165906358Y-110427853D01*
X165935383Y-110364297D01*
X165941415Y-110357819D01*
X167199331Y-109099903D01*
X170118506Y-106180728D01*
X170118511Y-106180724D01*
X170128714Y-106170520D01*
X170128716Y-106170520D01*
X170240520Y-106058716D01*
X170254636Y-106034267D01*
X170294252Y-105965650D01*
X170294253Y-105965648D01*
X170319574Y-105921790D01*
X170319575Y-105921789D01*
X170319575Y-105921787D01*
X170319577Y-105921785D01*
X170360501Y-105769057D01*
X170360501Y-105610943D01*
X170360501Y-105603348D01*
X170360500Y-105603330D01*
X170360500Y-105484187D01*
X170380185Y-105417148D01*
X170432989Y-105371393D01*
X170502147Y-105361449D01*
X170540795Y-105373703D01*
X170700771Y-105455216D01*
X170700776Y-105455217D01*
X170700781Y-105455220D01*
X170792287Y-105484952D01*
X170895465Y-105518477D01*
X170936334Y-105524950D01*
X171097648Y-105550500D01*
X171097649Y-105550500D01*
X171302351Y-105550500D01*
X171302352Y-105550500D01*
X171504534Y-105518477D01*
X171699219Y-105455220D01*
X171881610Y-105362287D01*
X172010482Y-105268657D01*
X172047213Y-105241971D01*
X172047215Y-105241968D01*
X172047219Y-105241966D01*
X172191966Y-105097219D01*
X172191968Y-105097215D01*
X172191971Y-105097213D01*
X172291020Y-104960882D01*
X172312287Y-104931610D01*
X172359795Y-104838369D01*
X172407769Y-104787573D01*
X172475590Y-104770778D01*
X172541725Y-104793315D01*
X172580765Y-104838369D01*
X172628141Y-104931350D01*
X172628147Y-104931359D01*
X172660523Y-104975921D01*
X172660524Y-104975922D01*
X173340000Y-104296446D01*
X173340000Y-104302661D01*
G37*
%TD.AperFunction*%
%TA.AperFunction,Conductor*%
G36*
X182742539Y-93220185D02*
G01*
X182788294Y-93272989D01*
X182799500Y-93324500D01*
X182799500Y-93838572D01*
X182779815Y-93905611D01*
X182744392Y-93941674D01*
X182689707Y-93978213D01*
X182578213Y-94089707D01*
X182578210Y-94089711D01*
X182490609Y-94220814D01*
X182490602Y-94220827D01*
X182430264Y-94366498D01*
X182430261Y-94366510D01*
X182399500Y-94521153D01*
X182399500Y-94678846D01*
X182430261Y-94833489D01*
X182432031Y-94839324D01*
X182429279Y-94840158D01*
X182435503Y-94897359D01*
X182404309Y-94959878D01*
X182344266Y-94995608D01*
X182313445Y-94999500D01*
X181886669Y-94999500D01*
X181886653Y-94999499D01*
X181879057Y-94999499D01*
X181720943Y-94999499D01*
X181613587Y-95028265D01*
X181568210Y-95040424D01*
X181568209Y-95040425D01*
X181518096Y-95069359D01*
X181518095Y-95069360D01*
X181501665Y-95078846D01*
X181431285Y-95119479D01*
X181431282Y-95119481D01*
X177585339Y-98965425D01*
X177524016Y-98998910D01*
X177521850Y-98999361D01*
X177366508Y-99030261D01*
X177366498Y-99030264D01*
X177220827Y-99090602D01*
X177220814Y-99090609D01*
X177089711Y-99178210D01*
X177089707Y-99178213D01*
X176978213Y-99289707D01*
X176978210Y-99289711D01*
X176890609Y-99420814D01*
X176890602Y-99420827D01*
X176830264Y-99566498D01*
X176830261Y-99566510D01*
X176799500Y-99721153D01*
X176799500Y-99878846D01*
X176830261Y-100033489D01*
X176830264Y-100033501D01*
X176890602Y-100179172D01*
X176890609Y-100179185D01*
X176978210Y-100310288D01*
X176978213Y-100310292D01*
X177089707Y-100421786D01*
X177089711Y-100421789D01*
X177220814Y-100509390D01*
X177220827Y-100509397D01*
X177358695Y-100566503D01*
X177366503Y-100569737D01*
X177521153Y-100600499D01*
X177521156Y-100600500D01*
X177521158Y-100600500D01*
X177678844Y-100600500D01*
X177678845Y-100600499D01*
X177833497Y-100569737D01*
X177979179Y-100509394D01*
X178110289Y-100421789D01*
X178138547Y-100393531D01*
X178187819Y-100344260D01*
X178249142Y-100310775D01*
X178318834Y-100315759D01*
X178374767Y-100357631D01*
X178399184Y-100423095D01*
X178399500Y-100431941D01*
X178399500Y-102929319D01*
X178379815Y-102996358D01*
X178327011Y-103042113D01*
X178322952Y-103043880D01*
X178320787Y-103044776D01*
X178138386Y-103137715D01*
X177972786Y-103258028D01*
X177828028Y-103402786D01*
X177707715Y-103568386D01*
X177660485Y-103661080D01*
X177612510Y-103711876D01*
X177544689Y-103728671D01*
X177478554Y-103706134D01*
X177439515Y-103661080D01*
X177392420Y-103568652D01*
X177392287Y-103568390D01*
X177360092Y-103524077D01*
X177271971Y-103402786D01*
X177127213Y-103258028D01*
X176961613Y-103137715D01*
X176961612Y-103137714D01*
X176961610Y-103137713D01*
X176904653Y-103108691D01*
X176779223Y-103044781D01*
X176584534Y-102981522D01*
X176409995Y-102953878D01*
X176382352Y-102949500D01*
X176177648Y-102949500D01*
X176153329Y-102953351D01*
X175975465Y-102981522D01*
X175780776Y-103044781D01*
X175598386Y-103137715D01*
X175432786Y-103258028D01*
X175288028Y-103402786D01*
X175167713Y-103568388D01*
X175120203Y-103661630D01*
X175072228Y-103712426D01*
X175004407Y-103729220D01*
X174938272Y-103706682D01*
X174899234Y-103661628D01*
X174851861Y-103568652D01*
X174819474Y-103524077D01*
X174819474Y-103524076D01*
X174140000Y-104203551D01*
X174140000Y-104197339D01*
X174112741Y-104095606D01*
X174060080Y-104004394D01*
X173985606Y-103929920D01*
X173894394Y-103877259D01*
X173792661Y-103850000D01*
X173786446Y-103850000D01*
X174465922Y-103170524D01*
X174465921Y-103170523D01*
X174421359Y-103138147D01*
X174421350Y-103138141D01*
X174239031Y-103045244D01*
X174044417Y-102982009D01*
X173842317Y-102950000D01*
X173637683Y-102950000D01*
X173435582Y-102982009D01*
X173240968Y-103045244D01*
X173058644Y-103138143D01*
X173014077Y-103170523D01*
X173014077Y-103170524D01*
X173693554Y-103850000D01*
X173687339Y-103850000D01*
X173585606Y-103877259D01*
X173494394Y-103929920D01*
X173419920Y-104004394D01*
X173367259Y-104095606D01*
X173340000Y-104197339D01*
X173340000Y-104203553D01*
X172660524Y-103524077D01*
X172660523Y-103524077D01*
X172628143Y-103568644D01*
X172580765Y-103661630D01*
X172532790Y-103712426D01*
X172464969Y-103729221D01*
X172398834Y-103706683D01*
X172359795Y-103661630D01*
X172312284Y-103568385D01*
X172191971Y-103402786D01*
X172047213Y-103258028D01*
X171881611Y-103137713D01*
X171851023Y-103122128D01*
X171800226Y-103074154D01*
X171783431Y-103006333D01*
X171805968Y-102940198D01*
X171819630Y-102923968D01*
X177158506Y-97585093D01*
X177158511Y-97585089D01*
X177168714Y-97574885D01*
X177168716Y-97574885D01*
X177280520Y-97463081D01*
X177359577Y-97326149D01*
X177389534Y-97214346D01*
X177400500Y-97173423D01*
X177400500Y-97015308D01*
X177400500Y-93324500D01*
X177420185Y-93257461D01*
X177472989Y-93211706D01*
X177524500Y-93200500D01*
X182675500Y-93200500D01*
X182742539Y-93220185D01*
G37*
%TD.AperFunction*%
%TA.AperFunction,Conductor*%
G36*
X185855488Y-76564101D02*
G01*
X185857388Y-76563911D01*
X185890794Y-76575295D01*
X185899500Y-76579731D01*
X185981583Y-76621555D01*
X185981585Y-76621555D01*
X185981588Y-76621557D01*
X186183757Y-76687246D01*
X186393713Y-76720500D01*
X186393714Y-76720500D01*
X186606286Y-76720500D01*
X186606287Y-76720500D01*
X186816243Y-76687246D01*
X186858523Y-76673507D01*
X186928362Y-76671511D01*
X186984522Y-76703757D01*
X192553181Y-82272416D01*
X192586666Y-82333739D01*
X192589500Y-82360097D01*
X192589500Y-89918397D01*
X192569815Y-89985436D01*
X192517011Y-90031191D01*
X192447853Y-90041135D01*
X192427183Y-90036328D01*
X192356134Y-90013243D01*
X192356127Y-90013242D01*
X192146246Y-89980000D01*
X191933754Y-89980000D01*
X191723872Y-90013242D01*
X191723869Y-90013242D01*
X191521782Y-90078904D01*
X191332439Y-90175380D01*
X191278282Y-90214727D01*
X191278282Y-90214728D01*
X191910591Y-90847037D01*
X191847007Y-90864075D01*
X191732993Y-90929901D01*
X191639901Y-91022993D01*
X191574075Y-91137007D01*
X191557037Y-91200591D01*
X190924728Y-90568282D01*
X190924727Y-90568282D01*
X190885380Y-90622439D01*
X190788904Y-90811782D01*
X190723242Y-91013869D01*
X190723242Y-91013872D01*
X190690000Y-91223753D01*
X190690000Y-91436246D01*
X190723242Y-91646127D01*
X190723242Y-91646130D01*
X190788904Y-91848217D01*
X190885375Y-92037550D01*
X190924728Y-92091716D01*
X191557037Y-91459408D01*
X191574075Y-91522993D01*
X191639901Y-91637007D01*
X191732993Y-91730099D01*
X191847007Y-91795925D01*
X191910589Y-91812962D01*
X191278282Y-92445269D01*
X191278282Y-92445270D01*
X191332452Y-92484626D01*
X191332451Y-92484626D01*
X191341495Y-92489234D01*
X191344412Y-92491989D01*
X191348301Y-92492975D01*
X191369599Y-92515776D01*
X191392292Y-92537208D01*
X191393256Y-92541103D01*
X191395995Y-92544035D01*
X191401585Y-92574738D01*
X191409087Y-92605029D01*
X191407793Y-92608825D01*
X191408512Y-92612774D01*
X191396614Y-92641628D01*
X191386550Y-92671164D01*
X191382968Y-92674725D01*
X191381879Y-92677368D01*
X191373284Y-92684356D01*
X191356086Y-92701460D01*
X191349086Y-92706336D01*
X191332184Y-92714949D01*
X191226073Y-92792042D01*
X191225006Y-92792786D01*
X191192999Y-92803496D01*
X191161199Y-92814843D01*
X191159957Y-92814554D01*
X191158748Y-92814959D01*
X191126031Y-92806664D01*
X191093145Y-92799017D01*
X191091783Y-92797982D01*
X191091021Y-92797789D01*
X191089779Y-92796459D01*
X191066440Y-92778726D01*
X190526069Y-92238355D01*
X190526067Y-92238352D01*
X190407196Y-92119481D01*
X190407195Y-92119480D01*
X190320383Y-92069360D01*
X190320383Y-92069359D01*
X190320379Y-92069358D01*
X190270264Y-92040423D01*
X190117536Y-91999499D01*
X189959422Y-91999499D01*
X189951826Y-91999499D01*
X189951810Y-91999500D01*
X177379766Y-91999500D01*
X177312727Y-91979815D01*
X177310875Y-91978602D01*
X177179185Y-91890609D01*
X177179172Y-91890602D01*
X177033501Y-91830264D01*
X177033489Y-91830261D01*
X176878845Y-91799500D01*
X176878842Y-91799500D01*
X176724500Y-91799500D01*
X176657461Y-91779815D01*
X176611706Y-91727011D01*
X176600500Y-91675500D01*
X176600500Y-90678112D01*
X176620185Y-90611073D01*
X176672989Y-90565318D01*
X176724500Y-90554112D01*
X184946890Y-90554112D01*
X184946890Y-86424635D01*
X173573761Y-86424635D01*
X173506722Y-86404950D01*
X173486080Y-86388316D01*
X173285680Y-86187916D01*
X173252195Y-86126593D01*
X173257179Y-86056901D01*
X173299051Y-86000968D01*
X173364515Y-85976551D01*
X173373361Y-85976235D01*
X178199066Y-85976235D01*
X178199082Y-85976236D01*
X178206678Y-85976236D01*
X178364789Y-85976236D01*
X178364792Y-85976236D01*
X178517520Y-85935312D01*
X178567639Y-85906374D01*
X178654451Y-85856255D01*
X178766255Y-85744451D01*
X178766255Y-85744449D01*
X178776463Y-85734242D01*
X178776465Y-85734239D01*
X179589551Y-84921153D01*
X188799500Y-84921153D01*
X188799500Y-85078846D01*
X188830261Y-85233489D01*
X188830264Y-85233501D01*
X188890602Y-85379172D01*
X188890609Y-85379185D01*
X188978210Y-85510288D01*
X188978213Y-85510292D01*
X189089707Y-85621786D01*
X189089711Y-85621789D01*
X189220814Y-85709390D01*
X189220827Y-85709397D01*
X189366498Y-85769735D01*
X189366503Y-85769737D01*
X189521153Y-85800499D01*
X189521156Y-85800500D01*
X189521158Y-85800500D01*
X189678844Y-85800500D01*
X189678845Y-85800499D01*
X189833497Y-85769737D01*
X189979179Y-85709394D01*
X190110289Y-85621789D01*
X190221789Y-85510289D01*
X190309394Y-85379179D01*
X190369737Y-85233497D01*
X190399333Y-85084711D01*
X190400638Y-85078150D01*
X190433023Y-85016239D01*
X190434518Y-85014716D01*
X191414662Y-84034572D01*
X191475983Y-84001089D01*
X191478150Y-84000638D01*
X191558977Y-83984560D01*
X191633497Y-83969737D01*
X191779179Y-83909394D01*
X191910289Y-83821789D01*
X192021789Y-83710289D01*
X192109394Y-83579179D01*
X192169737Y-83433497D01*
X192200500Y-83278842D01*
X192200500Y-83121158D01*
X192200500Y-83121155D01*
X192200499Y-83121153D01*
X192169737Y-82966503D01*
X192142234Y-82900104D01*
X192109397Y-82820827D01*
X192109390Y-82820814D01*
X192021789Y-82689711D01*
X192021786Y-82689707D01*
X191910292Y-82578213D01*
X191910288Y-82578210D01*
X191779185Y-82490609D01*
X191779172Y-82490602D01*
X191633501Y-82430264D01*
X191633489Y-82430261D01*
X191478845Y-82399500D01*
X191478842Y-82399500D01*
X191321158Y-82399500D01*
X191321155Y-82399500D01*
X191166510Y-82430261D01*
X191166498Y-82430264D01*
X191020827Y-82490602D01*
X191020814Y-82490609D01*
X190889711Y-82578210D01*
X190889707Y-82578213D01*
X190778213Y-82689707D01*
X190778210Y-82689711D01*
X190690609Y-82820814D01*
X190690602Y-82820827D01*
X190630264Y-82966498D01*
X190630261Y-82966508D01*
X190599361Y-83121850D01*
X190566976Y-83183761D01*
X190565425Y-83185339D01*
X189585339Y-84165425D01*
X189524016Y-84198910D01*
X189521850Y-84199361D01*
X189366508Y-84230261D01*
X189366498Y-84230264D01*
X189220827Y-84290602D01*
X189220819Y-84290607D01*
X189089711Y-84378210D01*
X189089707Y-84378213D01*
X188978213Y-84489707D01*
X188978210Y-84489711D01*
X188890609Y-84620814D01*
X188890602Y-84620827D01*
X188830264Y-84766498D01*
X188830261Y-84766510D01*
X188799500Y-84921153D01*
X179589551Y-84921153D01*
X185468506Y-79042198D01*
X185468511Y-79042194D01*
X185478714Y-79031990D01*
X185478716Y-79031990D01*
X185590520Y-78920186D01*
X185653219Y-78811588D01*
X185669577Y-78783255D01*
X185710500Y-78630527D01*
X185710500Y-78472413D01*
X185710500Y-76685780D01*
X185711275Y-76683139D01*
X185710614Y-76680469D01*
X185721061Y-76649813D01*
X185730185Y-76618741D01*
X185732264Y-76616939D01*
X185733152Y-76614334D01*
X185758521Y-76594187D01*
X185782989Y-76572986D01*
X185785711Y-76572594D01*
X185787867Y-76570883D01*
X185820087Y-76567651D01*
X185852147Y-76563042D01*
X185855488Y-76564101D01*
G37*
%TD.AperFunction*%
%TD*%
M02*
